<?xml version="1.0" encoding="utf-8"?>
<!-- Generator: Adobe Illustrator 19.2.1, SVG Export Plug-In . SVG Version: 6.00 Build 0)  -->
<svg version="1.1" id="Layer_1" xmlns="http://www.w3.org/2000/svg" xmlns:xlink="http://www.w3.org/1999/xlink" x="0px" y="0px"
	 viewBox="0 0 105 122" style="enable-background:new 0 0 105 122;" xml:space="preserve">
<style type="text/css">
	.st0{fill:#FFFFFF;}
</style>
<g>
	<g>
		<path class="st0" d="M33.2,96.6c-0.1,0-0.2,0-0.3-0.1C14.5,88.6,2.6,70.7,2.6,50.7C2.6,23.2,25,0.8,52.5,0.8s49.9,22.4,49.9,49.9
			c0,19.9-11.8,37.8-30,45.7c-0.4,0.2-0.9,0-1.1-0.4c-0.2-0.4,0-0.9,0.4-1.1c17.6-7.7,29-25,29-44.2c0-26.6-21.6-48.2-48.2-48.2
			S4.3,24.1,4.3,50.7C4.3,70,15.8,87.4,33.5,95c0.4,0.2,0.6,0.7,0.4,1.1C33.8,96.4,33.5,96.6,33.2,96.6z"/>
	</g>
	<path class="st0" d="M52.3,67.4c-5.6,0-9.6-5.8-9.8-6.1c-0.3-0.4-0.2-0.9,0.2-1.1c0.4-0.3,0.9-0.2,1.1,0.2c0,0.1,3.7,5.4,8.4,5.4
		c4.7,0,8.7-5.3,8.8-5.4c0.3-0.4,0.8-0.4,1.1-0.2c0.4,0.3,0.4,0.8,0.2,1.1C62.3,61.6,57.9,67.4,52.3,67.4z"/>
	<g>
		<g>
			<ellipse class="st0" cx="70.2" cy="44.3" rx="6.9" ry="12.9"/>
		</g>
		<g>
			<ellipse class="st0" cx="34.8" cy="44.3" rx="6.9" ry="12.9"/>
		</g>
	</g>
	<path class="st0" d="M34.8,82.8c0-9.7,13.1-14.2,17.7,0c3.2-14.6,17.7-9.7,17.7,0s-17.7,17.7-17.7,17.7S34.8,92.5,34.8,82.8z"/>
	<g>
		<path class="st0" d="M47.8,121.2c-0.2,0-0.3,0-0.5,0c-9-0.3-24.7-3.4-26.5-12.7c-1-5.3,6.6-12.6,15.1-14.4
			c4-0.9,11.7,0.8,17.2,3.8c0.4,0.2,0.5,0.7,0.3,1.1c-0.2,0.4-0.7,0.5-1.1,0.3c-5.6-3-12.8-4.3-16-3.6c-8.3,1.8-14.6,8.4-13.9,12.5
			c1.6,8.3,17,11,24.9,11.3c1.8,0.1,3.5-0.3,5-1.1c0.4-0.2,0.9,0,1.1,0.4c0.2,0.4,0,0.9-0.4,1.1C51.5,120.8,49.7,121.2,47.8,121.2z"
			/>
	</g>
	<g>
		<path class="st0" d="M18.8,107.7c-0.5,0-1.1-0.1-1.6-0.3c-2.5-1.1-3.8-4.6-4.6-7.6c-0.4-1.5-0.2-2.8,0.5-3.8
			c1.3-1.7,3.8-1.8,4.5-1.8c0,0,0,0,0,0c1.7,0,2.7,0.5,3.8,1.1c0.3,0.2,0.7,0.4,1.1,0.6c1.6,0.8,2.7,2.6,2.8,4.7
			c0.1,2.6-1.3,4.9-3.8,6.3C20.6,107.5,19.7,107.7,18.8,107.7z M17.7,95.9c-1.1,0-2.6,0.3-3.2,1.2c-0.4,0.6-0.5,1.3-0.2,2.3
			c0.7,2.4,1.7,5.7,3.7,6.5c0.8,0.3,1.8,0.2,2.9-0.4c2.8-1.5,3-3.9,3-4.8c0-1.5-0.8-2.8-1.8-3.3c-0.4-0.2-0.8-0.4-1.2-0.6
			C19.7,96.2,19,95.9,17.7,95.9C17.7,95.9,17.7,95.9,17.7,95.9L17.7,95.9z"/>
	</g>
	<g>
		<path class="st0" d="M57.7,121.2c-3.1,0-6-1.2-8.2-3.3c-2.8-2.6-4.3-6.5-4.3-10.9c0-2.4,1.3-4.7,3.8-6.8c5.4-4.4,15.8-7,20.5-6
			c8.5,1.8,16.1,9.1,15.1,14.4l0,0c-1.8,9.3-17.5,12.3-26.5,12.7C58,121.2,57.8,121.2,57.7,121.2z M67.1,95.5
			c-4.8,0-12.8,2.3-17.1,5.9c-2.2,1.8-3.2,3.6-3.2,5.5c0,4,1.4,7.5,3.8,9.8c2,1.9,4.7,2.9,7.5,2.8c7.9-0.3,23.4-3,24.9-11.3
			c0.8-4-5.6-10.7-13.9-12.5C68.6,95.6,67.9,95.5,67.1,95.5z M83.8,108.3L83.8,108.3L83.8,108.3z"/>
	</g>
	<g>
		<path class="st0" d="M86.6,107.7c-0.9,0-1.8-0.3-2.7-0.8c-2.5-1.4-3.9-3.7-3.8-6.3c0.1-2.1,1.1-4,2.8-4.8c0.4-0.2,0.8-0.4,1.1-0.6
			c1.1-0.6,2.1-1.1,3.8-1.1c0,0,0,0,0,0c0.9,0,3.3,0.2,4.5,1.8c0.7,1,0.9,2.2,0.5,3.8c-0.8,3-2.1,6.5-4.6,7.6
			C87.7,107.6,87.2,107.7,86.6,107.7z M87.8,95.9c-1.3,0-2,0.4-3,0.9c-0.4,0.2-0.7,0.4-1.2,0.6c-1,0.5-1.8,1.8-1.8,3.3
			c0,0.9,0.2,3.3,3,4.8c1.1,0.6,2,0.7,2.9,0.4c1.9-0.8,3-4.1,3.7-6.5c0.3-1,0.2-1.8-0.2-2.3C90.3,96.2,88.9,95.9,87.8,95.9
			C87.8,95.9,87.8,95.9,87.8,95.9z"/>
	</g>
</g>
</svg>
