<?xml version="1.0" encoding="utf-8"?>
<!-- Generator: Adobe Illustrator 19.2.1, SVG Export Plug-In . SVG Version: 6.00 Build 0)  -->
<svg version="1.1" id="Layer_1" xmlns="http://www.w3.org/2000/svg" xmlns:xlink="http://www.w3.org/1999/xlink" x="0px" y="0px"
	 viewBox="0 0 103 103" style="enable-background:new 0 0 103 103;" xml:space="preserve">
<style type="text/css">
	.st0{fill:#FFFFFF;}
</style>
<g>
	<g>
		<path class="st0" d="M64,82.2c-0.4,0-0.8,0-1.2-0.1c-4.1-0.7-10.1-5.2-10.4-5.3c-0.4-0.3-0.4-0.8-0.2-1.1c0.3-0.4,0.8-0.4,1.1-0.2
			c0.1,0,5.9,4.4,9.6,5c2.7,0.5,9.7-1.5,13.2-2.7l-3.6-4.1c-0.9-1-2-1.8-3.2-2.3l-5-2.1c-0.4-0.2-0.6-0.6-0.5-1
			c0.1-0.4,0.5-0.6,0.9-0.6c0.1,0,8.8,1.6,14.7,0c5-1.3,12.8-10.2,14.8-12.6C90.9,51.9,82.4,45,79.8,44.3c-2.3-0.6-9.4,3.8-13.3,6.8
			c-0.3,0.2-0.6,0.2-0.9,0.1c-0.3-0.1-0.5-0.4-0.4-0.8c0-0.2,0.5-17.3,0-20.5C64.8,27.7,57,16.3,51.5,8.6
			c-5.5,7.7-13.3,19-13.6,21.2c-0.5,3.2,0,20.3,0,20.5c0,0.3-0.2,0.6-0.4,0.8c-0.3,0.1-0.6,0.1-0.9-0.1c-3.9-2.9-11-7.4-13.3-6.8
			C20.6,45,12.1,51.4,8.3,54.4c2,2.5,9.8,11.9,14.9,13.2c5.9,1.6,14.6,0,14.7,0c0.4-0.1,0.8,0.2,0.9,0.6c0.1,0.4-0.1,0.8-0.5,1
			L33,71.4c-1,0.4-1.9,1.1-2.6,1.9l-3.8,4.4c3.6,1.2,10.5,3.2,13.2,2.7c3.7-0.6,9.5-4.9,9.5-5c0.4-0.3,0.9-0.2,1.1,0.2
			c0.3,0.4,0.2,0.9-0.2,1.1c-0.2,0.2-6.1,4.6-10.2,5.3c-4.1,0.7-14.8-3-15.2-3.2c-0.3-0.1-0.5-0.3-0.5-0.6c-0.1-0.3,0-0.5,0.2-0.7
			l4.6-5.4c0.9-1,2-1.8,3.2-2.3l0.1,0c-3,0.2-6.6,0.1-9.7-0.7C16.5,67.5,6.9,55.3,6.5,54.8c-0.3-0.4-0.2-0.9,0.1-1.1
			c0.5-0.4,12.5-10,16.1-11c3.1-0.8,10.3,3.9,13.4,6.1c-0.1-4.4-0.4-16.3,0.1-19.1c0.5-3.4,13.1-20.9,14.6-22.9c0.3-0.4,1-0.4,1.3,0
			c1.4,2,14.1,19.4,14.6,22.9c0.4,2.8,0.2,14.7,0.1,19.1c3.1-2.2,10.3-6.9,13.4-6.1c3.6,1,14.8,10.6,16.1,11.7
			c0.3,0.3,0.4,0.8,0.1,1.1c-0.4,0.5-9.9,12-16.2,13.7c-3.1,0.8-6.7,0.9-9.7,0.7c1.3,0.6,2.5,1.5,3.5,2.6l4.4,5.1
			c0.2,0.2,0.2,0.5,0.2,0.7c-0.1,0.3-0.3,0.5-0.5,0.6C77.6,79.1,68.7,82.2,64,82.2z"/>
		<path class="st0" d="M50.2,96.5C50.2,96.5,50.2,96.5,50.2,96.5l-3.5-0.3c-0.2,0-0.3-0.1-0.4-0.3c-0.1-0.1-0.1-0.3,0-0.5
			C51.9,81.6,50.9,8.7,50.9,8c0-0.3,0.2-0.5,0.5-0.6c0.3,0,0.5,0.2,0.6,0.5c0,0.2,1.1,18.7,1.5,38.7c0.5,26.9-0.4,43.6-2.8,49.5
			C50.6,96.3,50.4,96.5,50.2,96.5z M47.5,95.2l2.3,0.2c3.4-9.2,3-40.5,2.2-63c0,4.5-0.1,9.3-0.2,14.2C51.2,72.4,49.8,88.7,47.5,95.2
			z"/>
		<path class="st0" d="M42.2,59.7c-17.4,0-35-4.8-35.2-4.8c-0.3-0.1-0.5-0.4-0.4-0.7c0.1-0.3,0.4-0.5,0.7-0.4
			c0.2,0.1,24.1,6.5,43.5,4.3c0.3,0,0.6,0.2,0.6,0.5c0,0.3-0.2,0.6-0.5,0.6C48.1,59.5,45.2,59.7,42.2,59.7z"/>
		<path class="st0" d="M25.2,78.7c-0.3,0-0.5-0.2-0.5-0.5c0-0.3,0.2-0.6,0.5-0.6c0.2,0,16.1-1.1,24.7-5.9c0.3-0.1,0.6-0.1,0.7,0.2
			c0.1,0.3,0.1,0.6-0.2,0.7C41.6,77.5,25.9,78.7,25.2,78.7C25.2,78.7,25.2,78.7,25.2,78.7z"/>
		<path class="st0" d="M38,69c-0.3,0-0.5-0.2-0.5-0.4c-0.1-0.3,0.1-0.6,0.4-0.6c0.1,0,10-2,12.5-2.9c0.3-0.1,0.6,0.1,0.7,0.3
			c0.1,0.3-0.1,0.6-0.3,0.7C48.2,67,38.6,68.9,38.2,69C38.1,69,38.1,69,38,69z"/>
		<path class="st0" d="M44.3,59.7c-0.1,0-0.3,0-0.4-0.1c-3.5-3.2-7.2-8.6-7.3-8.8c-0.2-0.2-0.1-0.6,0.1-0.8s0.6-0.1,0.8,0.1
			c0,0.1,3.8,5.5,7.2,8.6c0.2,0.2,0.2,0.6,0,0.8C44.6,59.6,44.5,59.7,44.3,59.7z"/>
		<path class="st0" d="M51.4,36.6c-5.5,0-14.3-6.1-14.7-6.4c-0.2-0.2-0.3-0.5-0.1-0.8c0.2-0.2,0.5-0.3,0.8-0.1
			c0.1,0.1,8.9,6.2,14,6.2c0.3,0,0.5,0.2,0.5,0.5C52,36.3,51.7,36.6,51.4,36.6z"/>
		<path class="st0" d="M51.4,38.1C51.4,38.1,51.4,38.1,51.4,38.1c-5.6-0.2-14.3-5.9-14.7-6.2c-0.3-0.2-0.3-0.5-0.2-0.8
			c0.2-0.3,0.5-0.3,0.8-0.2c0.1,0.1,8.8,5.8,14.1,6c0.3,0,0.5,0.3,0.5,0.6C52,37.8,51.7,38.1,51.4,38.1z"/>
		<path class="st0" d="M50.6,56.5c0,0-0.1,0-0.1,0c-7.4-1.7-13.5-7.6-13.8-7.9c-0.2-0.2-0.2-0.6,0-0.8c0.2-0.2,0.6-0.2,0.8,0
			c0.1,0.1,6.2,6,13.3,7.6c0.3,0.1,0.5,0.4,0.4,0.7C51.1,56.3,50.8,56.5,50.6,56.5z"/>
		<path class="st0" d="M50.9,50.9c0,0-0.1,0-0.1,0c-7.1-1.7-13.8-6.8-14-7c-0.2-0.2-0.3-0.5-0.1-0.8c0.2-0.2,0.5-0.3,0.8-0.1
			c0.1,0.1,6.8,5.3,13.6,6.8c0.3,0.1,0.5,0.4,0.4,0.7C51.4,50.8,51.1,50.9,50.9,50.9z"/>
		<path class="st0" d="M50.9,52.2c0,0-0.1,0-0.1,0c-7.1-1.7-13.8-6.8-14-7c-0.2-0.2-0.3-0.5-0.1-0.8c0.2-0.2,0.5-0.3,0.8-0.1
			c0.1,0.1,6.8,5.3,13.6,6.8c0.3,0.1,0.5,0.4,0.4,0.7C51.4,52.1,51.1,52.2,50.9,52.2z"/>
		<path class="st0" d="M51.5,31.9c-0.2,0-0.3-0.1-0.4-0.2c-3.6-4.6-6.8-14.2-6.9-14.6c-0.1-0.3,0.1-0.6,0.4-0.7
			c0.3-0.1,0.6,0.1,0.7,0.4c0,0.1,3.2,9.8,6.7,14.3c0.2,0.2,0.1,0.6-0.1,0.8C51.7,31.8,51.6,31.9,51.5,31.9z"/>
		<path class="st0" d="M33.1,69.6c-0.2,0-0.4-0.1-0.5-0.4c-0.1-0.3,0-0.6,0.3-0.7c6.4-2.3,14.7-9.7,14.8-9.8c0.2-0.2,0.6-0.2,0.8,0
			c0.2,0.2,0.2,0.6,0,0.8c-0.3,0.3-8.6,7.7-15.2,10C33.2,69.6,33.2,69.6,33.1,69.6z"/>
		<path class="st0" d="M20,67.6c-0.3,0-0.5-0.2-0.5-0.5c0-0.3,0.2-0.6,0.5-0.6c3.9-0.6,15.6-7.7,15.7-7.8c0.3-0.2,0.6-0.1,0.8,0.2
			c0.2,0.3,0.1,0.6-0.2,0.8C35.7,59.9,24.1,66.9,20,67.6C20,67.6,20,67.6,20,67.6z"/>
		<path class="st0" d="M32.1,59.2c-0.3,0-0.5-0.2-0.5-0.5c-0.3-4-7.8-14.8-7.9-14.9c-0.2-0.2-0.1-0.6,0.1-0.8
			c0.2-0.2,0.6-0.1,0.8,0.1c0.3,0.5,7.7,11.1,8,15.5C32.7,58.9,32.4,59.2,32.1,59.2C32.1,59.2,32.1,59.2,32.1,59.2z"/>
		<path class="st0" d="M22.7,58c-0.2,0-0.5-0.2-0.5-0.4c-0.8-2.9-6.5-9-6.6-9c-0.2-0.2-0.2-0.6,0-0.8c0.2-0.2,0.6-0.2,0.8,0
			c0.2,0.3,6,6.3,6.9,9.5c0.1,0.3-0.1,0.6-0.4,0.7C22.8,58,22.8,58,22.7,58z"/>
		<path class="st0" d="M11.5,59.7c-0.3,0-0.5-0.2-0.5-0.5c0-0.3,0.2-0.6,0.5-0.6c0,0,4.6-0.7,7.7-2.1c0.3-0.1,0.6,0,0.7,0.3
			c0.1,0.3,0,0.6-0.3,0.7C16.3,58.9,11.8,59.6,11.5,59.7C11.6,59.7,11.6,59.7,11.5,59.7z"/>
		<path class="st0" d="M52.4,27.4c-0.2,0-0.4-0.1-0.5-0.3c-0.2-0.3-0.1-0.6,0.2-0.8c4.4-2.7,6.8-8,6.8-8.1c0.1-0.3,0.4-0.4,0.7-0.3
			c0.3,0.1,0.4,0.4,0.3,0.7c-0.1,0.2-2.6,5.7-7.2,8.5C52.6,27.4,52.5,27.4,52.4,27.4z"/>
		<path class="st0" d="M52.9,43.3c-0.2,0-0.4-0.1-0.5-0.3c-0.1-0.3,0-0.6,0.2-0.7c6.4-3.4,12.8-12.8,12.8-12.9
			c0.2-0.2,0.5-0.3,0.8-0.1c0.2,0.2,0.3,0.5,0.1,0.8c-0.3,0.4-6.6,9.6-13.2,13.2C53.1,43.3,53,43.3,52.9,43.3z"/>
		<path class="st0" d="M59.5,60.9c-0.1,0-0.3-0.1-0.4-0.2c-0.2-0.2-0.2-0.6,0-0.8c4.6-4.8,6.3-9.7,6.3-9.8c0.1-0.3,0.4-0.4,0.7-0.4
			c0.3,0.1,0.4,0.4,0.4,0.7c-0.1,0.2-1.7,5.2-6.5,10.2C59.8,60.9,59.7,60.9,59.5,60.9z"/>
		<path class="st0" d="M53.1,55.3c-0.2,0-0.4-0.1-0.5-0.3c-0.1-0.3,0-0.6,0.2-0.7c7.8-4.2,12.6-11.1,12.6-11.1
			c0.2-0.2,0.5-0.3,0.8-0.1c0.2,0.2,0.3,0.5,0.1,0.8c-0.2,0.3-5,7.1-13,11.5C53.3,55.3,53.2,55.3,53.1,55.3z"/>
		<path class="st0" d="M65.9,69C65.9,69,65.9,69,65.9,69c-5.2-0.7-12.9-2.9-13-2.9c-0.3-0.1-0.5-0.4-0.4-0.7
			c0.1-0.3,0.4-0.5,0.7-0.4c0.1,0,7.7,2.2,12.7,2.9c0.3,0,0.5,0.3,0.5,0.6C66.4,68.8,66.2,69,65.9,69z"/>
		<path class="st0" d="M56.8,60.9c-1.3,0-2.5,0-3.7-0.1c-0.3,0-0.5-0.3-0.5-0.6c0-0.3,0.3-0.5,0.6-0.5c13.5,1.1,42.2-5.2,42.5-5.2
			c0.3-0.1,0.6,0.1,0.7,0.4c0.1,0.3-0.1,0.6-0.4,0.7C95.6,55.6,71.3,60.9,56.8,60.9z"/>
		<path class="st0" d="M74.4,59.4c0,0-0.1,0-0.1,0c-0.3-0.1-0.5-0.4-0.4-0.7c1.4-5.5,5.5-15.3,5.6-15.4c0.1-0.3,0.4-0.4,0.7-0.3
			c0.3,0.1,0.4,0.4,0.3,0.7c0,0.1-4.1,9.8-5.5,15.2C74.9,59.2,74.7,59.4,74.4,59.4z"/>
		<path class="st0" d="M82.9,58C82.9,58,82.8,58,82.9,58c-0.4-0.1-0.6-0.3-0.5-0.6c0.5-3.1,3.1-10.1,3.2-10.4
			c0.1-0.3,0.4-0.4,0.7-0.3c0.3,0.1,0.4,0.4,0.3,0.7c0,0.1-2.7,7.2-3.1,10.2C83.4,57.8,83.2,58,82.9,58z"/>
		<path class="st0" d="M65.4,60.5c-0.1,0-0.1,0-0.2,0c-0.3-0.1-0.4-0.4-0.4-0.7c1.6-5.3,5.7-13,5.7-13.1c0.1-0.3,0.5-0.4,0.7-0.2
			c0.3,0.1,0.4,0.5,0.2,0.7c0,0.1-4,7.7-5.7,12.9C65.9,60.3,65.6,60.5,65.4,60.5z"/>
		<path class="st0" d="M92.9,58.6c-2.4,0-5.8-1.3-5.9-1.4c-0.3-0.1-0.4-0.4-0.3-0.7c0.1-0.3,0.4-0.4,0.7-0.3c0,0,3.6,1.4,5.7,1.3
			c0.3,0,0.6,0.2,0.6,0.5c0,0.3-0.2,0.6-0.5,0.6C93.1,58.6,93,58.6,92.9,58.6z"/>
		<path class="st0" d="M87.7,64c0,0-0.1,0-0.1,0c-4.4-0.9-11.2-4.7-11.4-4.9c-0.3-0.1-0.4-0.5-0.2-0.7c0.1-0.3,0.5-0.4,0.7-0.2
			c0.1,0,6.9,3.9,11.1,4.7c0.3,0.1,0.5,0.3,0.4,0.6C88.2,63.8,88,64,87.7,64z"/>
		<path class="st0" d="M80,69c-0.1,0-0.1,0-0.2,0c-5.9-2.2-11.7-8.7-12-9c-0.2-0.2-0.2-0.6,0-0.8c0.2-0.2,0.6-0.2,0.8,0
			c0.1,0.1,5.9,6.6,11.5,8.7c0.3,0.1,0.4,0.4,0.3,0.7C80.4,68.9,80.2,69,80,69z"/>
		<path class="st0" d="M65.4,68.9c-0.1,0-0.2,0-0.2-0.1c-4-2-7.7-8-7.9-8.2c-0.2-0.3-0.1-0.6,0.2-0.8c0.3-0.2,0.6-0.1,0.8,0.2
			c0,0.1,3.7,6,7.4,7.8c0.3,0.1,0.4,0.5,0.3,0.7C65.8,68.8,65.6,68.9,65.4,68.9z"/>
		<path class="st0" d="M52.9,44c-0.2,0-0.4-0.1-0.5-0.3c-0.1-0.3,0-0.6,0.3-0.7c7.9-3.5,12.8-11.9,12.9-11.9
			c0.2-0.3,0.5-0.3,0.7-0.2c0.3,0.2,0.3,0.5,0.2,0.7C66.3,32,61.4,40.4,53.1,44C53.1,44,53,44,52.9,44z"/>
		<path class="st0" d="M77.8,78.7c0,0-0.1,0-0.1,0c-0.7-0.2-18.1-4.3-24.8-8.6c-0.3-0.2-0.3-0.5-0.2-0.8c0.2-0.3,0.5-0.3,0.8-0.2
			c6.6,4.2,24.3,8.4,24.5,8.4c0.3,0.1,0.5,0.4,0.4,0.7C78.3,78.5,78,78.7,77.8,78.7z"/>
		<path class="st0" d="M49,73.3c-0.2,0-0.4-0.1-0.5-0.3c-1.6-2.7-6-5.1-6-5.1c-0.3-0.1-0.4-0.5-0.2-0.7c0.1-0.3,0.5-0.4,0.7-0.2
			c0.2,0.1,4.7,2.5,6.4,5.5c0.2,0.3,0.1,0.6-0.2,0.8C49.2,73.3,49.1,73.3,49,73.3z"/>
		<path class="st0" d="M45.4,74.8c-0.2,0-0.4-0.1-0.5-0.3c-1.2-2.2-6.5-4.3-8.5-4.9c-0.3-0.1-0.4-0.4-0.4-0.7
			c0.1-0.3,0.4-0.4,0.7-0.4c0.3,0.1,7.5,2.4,9.1,5.5c0.1,0.3,0,0.6-0.2,0.7C45.6,74.8,45.5,74.8,45.4,74.8z"/>
		<path class="st0" d="M40,81.8c-0.2,0-0.4-0.1-0.5-0.3c-0.1-0.3,0-0.6,0.3-0.7c5.3-2.5,6.9-7,7-7.1c0.1-0.3,0.4-0.4,0.7-0.3
			c0.3,0.1,0.4,0.4,0.3,0.7c-0.1,0.2-1.8,4.9-7.5,7.7C40.2,81.8,40.1,81.8,40,81.8z"/>
		<path class="st0" d="M33.1,81c-0.3,0-0.5-0.2-0.5-0.5c0-0.3,0.2-0.6,0.5-0.6c2.8-0.3,7.1-4.6,7.2-4.6c0.2-0.2,0.6-0.2,0.8,0
			c0.2,0.2,0.2,0.6,0,0.8C40.8,76.3,36.4,80.7,33.1,81C33.1,81,33.1,81,33.1,81z"/>
		<path class="st0" d="M38,76.8c-0.2,0-0.5-0.2-0.5-0.4c-0.5-1.9-4.9-3.7-6.6-4.2c-0.3-0.1-0.4-0.4-0.4-0.7c0.1-0.3,0.4-0.4,0.7-0.4
			c0.7,0.2,6.7,2.2,7.3,5c0.1,0.3-0.1,0.6-0.4,0.7C38.1,76.8,38.1,76.8,38,76.8z"/>
		<path class="st0" d="M64,74.8c-0.2,0-0.4-0.1-0.5-0.4c-0.1-0.3,0-0.6,0.3-0.7c3.9-1.4,7.6-2.6,7.6-2.6c0.3-0.1,0.6,0.1,0.7,0.4
			c0.1,0.3-0.1,0.6-0.4,0.7c0,0-3.8,1.2-7.6,2.6C64.1,74.8,64.1,74.8,64,74.8z"/>
		<path class="st0" d="M63,81.8c-0.1,0-0.3-0.1-0.4-0.2c-0.2-0.2-4.3-4.8-5.4-9.4c-0.1-0.3,0.1-0.6,0.4-0.7c0.3-0.1,0.6,0.1,0.7,0.4
			c1,4.3,5.1,8.8,5.1,8.9c0.2,0.2,0.2,0.6,0,0.8C63.2,81.8,63.1,81.8,63,81.8z"/>
		<path class="st0" d="M55.3,71.4c-0.2,0-0.4-0.1-0.5-0.2c-0.2-0.3-0.1-0.6,0.2-0.8c2.4-1.6,8.7-2.4,9-2.5c0.3,0,0.6,0.2,0.6,0.5
			s-0.2,0.6-0.5,0.6c-0.1,0-6.3,0.8-8.5,2.3C55.5,71.3,55.4,71.4,55.3,71.4z"/>
		<path class="st0" d="M69.9,81c-0.1,0-0.3-0.1-0.4-0.2c-0.1-0.1-2.5-2.5-3.9-5.5c-0.1-0.3,0-0.6,0.3-0.7c0.3-0.1,0.6,0,0.7,0.3
			c1.3,2.8,3.7,5.1,3.7,5.1c0.2,0.2,0.2,0.6,0,0.8C70.2,80.9,70,81,69.9,81z"/>
		<path class="st0" d="M52.4,26.4c-0.2,0-0.4-0.1-0.5-0.3c-0.1-0.3,0-0.6,0.3-0.7c3.1-1.4,6.3-7.6,6.4-7.7c0.1-0.3,0.5-0.4,0.7-0.2
			c0.3,0.1,0.4,0.5,0.2,0.7c-0.1,0.3-3.4,6.6-6.9,8.2C52.5,26.4,52.5,26.4,52.4,26.4z"/>
		<path class="st0" d="M31.1,59.4c-0.3,0-0.5-0.2-0.5-0.5c-0.1-2.9-5.8-11.8-8-15c-0.2-0.2-0.1-0.6,0.1-0.8c0.2-0.2,0.6-0.1,0.8,0.1
			c0.3,0.5,8.1,11.8,8.2,15.6C31.6,59.1,31.4,59.4,31.1,59.4C31.1,59.4,31.1,59.4,31.1,59.4z"/>
		<path class="st0" d="M78.5,69c-0.1,0-0.1,0-0.2,0c-6-1.8-10.9-8.5-11.1-8.7c-0.2-0.2-0.1-0.6,0.1-0.8c0.2-0.2,0.6-0.1,0.8,0.1
			c0,0.1,4.9,6.6,10.6,8.3c0.3,0.1,0.5,0.4,0.4,0.7C79,68.8,78.7,69,78.5,69z"/>
		<path class="st0" d="M12,60.5c-0.3,0-0.5-0.2-0.5-0.4c-0.1-0.3,0.1-0.6,0.4-0.6c0.1,0,5.8-1.2,7.8-2.5c0.3-0.2,0.6-0.1,0.8,0.2
			c0.2,0.3,0.1,0.6-0.2,0.8c-2.2,1.4-7.9,2.6-8.2,2.6C12.1,60.4,12,60.5,12,60.5z"/>
		<path class="st0" d="M35.9,69.3c-0.2,0-0.4-0.1-0.5-0.3c-0.1-0.3-0.1-0.6,0.2-0.7c6.9-3.9,12.9-9.5,13-9.6c0.2-0.2,0.6-0.2,0.8,0
			c0.2,0.2,0.2,0.6,0,0.8c-0.1,0.1-6.2,5.8-13.2,9.7C36.1,69.3,36,69.3,35.9,69.3z"/>
		<path class="st0" d="M73.7,59.5C73.7,59.5,73.6,59.5,73.7,59.5c-0.4-0.1-0.6-0.3-0.5-0.6c1.2-6.8,5.1-15.5,5.2-15.6
			c0.1-0.3,0.4-0.4,0.7-0.3c0.3,0.1,0.4,0.4,0.3,0.7c0,0.1-3.9,8.7-5.1,15.4C74.2,59.3,74,59.5,73.7,59.5z"/>
		<path class="st0" d="M83.8,57.5c0,0-0.1,0-0.1,0c-0.3-0.1-0.5-0.4-0.4-0.6c0.1-0.2,1.3-6,2.8-9.4c0.1-0.3,0.4-0.4,0.7-0.3
			c0.3,0.1,0.4,0.4,0.3,0.7c-1.5,3.3-2.8,9.2-2.8,9.2C84.3,57.3,84.1,57.5,83.8,57.5z"/>
		<path class="st0" d="M58.4,60.9c-0.1,0-0.3-0.1-0.4-0.2c-0.2-0.2-0.2-0.6,0-0.8c4.5-4.3,7.5-11,7.5-11.1c0.1-0.3,0.4-0.4,0.7-0.3
			c0.3,0.1,0.4,0.4,0.3,0.7c-0.1,0.3-3.1,7-7.8,11.4C58.7,60.8,58.5,60.9,58.4,60.9z"/>
		<path class="st0" d="M63.2,74.5c-0.2,0-0.4-0.1-0.5-0.3c-0.1-0.3,0-0.6,0.3-0.7c0,0,4-1.6,7.9-2.9c0.3-0.1,0.6,0.1,0.7,0.4
			c0.1,0.3-0.1,0.6-0.4,0.7c-3.9,1.2-7.8,2.8-7.9,2.8C63.3,74.5,63.3,74.5,63.2,74.5z"/>
		<path class="st0" d="M64,81.9c-0.1,0-0.2,0-0.3-0.1c-3.5-2.8-5.7-8.7-5.8-9c-0.1-0.3,0-0.6,0.3-0.7c0.3-0.1,0.6,0,0.7,0.3
			c0,0.1,2.2,5.9,5.4,8.5c0.2,0.2,0.3,0.5,0.1,0.8C64.3,81.8,64.2,81.9,64,81.9z"/>
		<path class="st0" d="M44.7,74.8c-0.2,0-0.3-0.1-0.4-0.2c-1.1-1.4-6.6-3.9-8.6-4.7c-0.3-0.1-0.4-0.4-0.3-0.7
			c0.1-0.3,0.4-0.4,0.7-0.3c0.8,0.3,7.6,3.2,9.1,5c0.2,0.2,0.1,0.6-0.1,0.8C44.9,74.8,44.8,74.8,44.7,74.8z"/>
		<path class="st0" d="M32.1,80.8c-0.3,0-0.5-0.2-0.5-0.5c0-0.3,0.2-0.6,0.5-0.6c3.2-0.4,7-4,7-4.1c0.2-0.2,0.6-0.2,0.8,0
			c0.2,0.2,0.2,0.6,0,0.8C39.6,76.5,35.7,80.3,32.1,80.8C32.1,80.8,32.1,80.8,32.1,80.8z"/>
		<path class="st0" d="M50.2,96.5h-1c-0.2,0-0.4-0.1-0.5-0.2c-0.1-0.2-0.1-0.3-0.1-0.5C54.3,81.8,51,8.7,50.9,8
			c0-0.3,0.2-0.6,0.5-0.6c0.3,0,0.6,0.2,0.6,0.5c0,0.2,1.1,18.7,1.5,38.7c0.5,26.9-0.4,43.6-2.8,49.5C50.6,96.3,50.4,96.5,50.2,96.5
			z"/>
	</g>
	<path class="st0" d="M51.5,101.5c-27.6,0-50-22.4-50-50s22.4-50,50-50s50,22.4,50,50S79.1,101.5,51.5,101.5z M51.5,3.1
		C24.8,3.1,3.1,24.8,3.1,51.5s21.7,48.4,48.4,48.4s48.4-21.7,48.4-48.4S78.2,3.1,51.5,3.1z"/>
</g>
</svg>
