<?xml version="1.0" encoding="utf-8"?>
<!-- Generator: Adobe Illustrator 19.2.1, SVG Export Plug-In . SVG Version: 6.00 Build 0)  -->
<svg version="1.1" id="Layer_1" xmlns="http://www.w3.org/2000/svg" xmlns:xlink="http://www.w3.org/1999/xlink" x="0px" y="0px"
	 viewBox="0 0 610 290" style="enable-background:new 0 0 610 290;" xml:space="preserve">
<style type="text/css">
	.st0{fill:none;stroke:#8096A3;stroke-width:10;stroke-miterlimit:10;}
	.st1{fill:#8096A3;}
	.st2{fill:#FFFFFF;}
	.st3{opacity:0.5;fill:url(#SVGID_1_);enable-background:new    ;}
	.st4{fill:#6E9981;}
	.st5{fill:#858585;}
	.st6{font-family:'AvantGarde-Book';}
	.st7{font-size:20px;}
	.st8{opacity:0.5;fill:url(#SVGID_2_);enable-background:new    ;}
	.st9{opacity:0.5;fill:#014776;enable-background:new    ;}
	.st10{opacity:0.5;fill:url(#SVGID_3_);enable-background:new    ;}
	.st11{fill:#F8BB5B;}
</style>
<g>
	<g>
		<g>
			<path class="st0" d="M237.8,55.1C175,66,120.9,91.9,83.8,127"/>
			<g>
				<polygon class="st1" points="81.9,113.3 86.5,124.4 97.8,128.8 71.4,139.9 				"/>
			</g>
		</g>
	</g>
	<g>
		<g>
			<path class="st0" d="M534.9,138.8c-33-36.7-83.6-65-143.6-79.2"/>
			<g>
				<polygon class="st1" points="401.9,50.6 394.9,60.5 397.2,72.4 373.8,55.9 				"/>
			</g>
		</g>
	</g>
	<g>
		<g>
			<path class="st2" d="M552.2,154.2c-29.3,0-53.2,23.9-53.2,53.2s23.9,53.2,53.2,53.2s53.2-23.9,53.2-53.2S581.6,154.2,552.2,154.2
				z"/>
			
				<linearGradient id="SVGID_1_" gradientUnits="userSpaceOnUse" x1="499" y1="84.6" x2="605.4" y2="84.6" gradientTransform="matrix(1 0 0 -1 0 292)">
				<stop  offset="0" style="stop-color:#B0D79C"/>
				<stop  offset="1" style="stop-color:#6E9981"/>
			</linearGradient>
			<path class="st3" d="M552.2,154.2c-29.3,0-53.2,23.9-53.2,53.2s23.9,53.2,53.2,53.2s53.2-23.9,53.2-53.2S581.6,154.2,552.2,154.2
				z"/>
			<path class="st4" d="M552.2,262.4c-30.3,0-55-24.7-55-55s24.7-55,55-55s55,24.7,55,55S582.6,262.4,552.2,262.4z M552.2,154.2
				c-29.3,0-53.2,23.9-53.2,53.2s23.9,53.2,53.2,53.2s53.2-23.9,53.2-53.2S581.6,154.2,552.2,154.2z"/>
			<g>
				<path class="st4" d="M558.4,254.1c-5.7,0-25-5-29.7-9.3c-1.9-1.8-4.4-3.6-6.8-5.3c-3.3-2.4-6.5-4.6-7.7-6.7
					c-1.9-3.2-7.2-17-6.5-25.4c0.3-4.2,1.8-9.2,3.2-14c1.3-4.4,2.5-8.6,2.5-11.1c0-6.1,10.7-14.1,14.1-15c0.4-0.1,5.9-1.7,11.2-2.4
					c5-0.6,7.9-1.8,10.2-4.1c1.8-1.8,6.3-1.3,12-0.6c1.9,0.2,3.6,0.5,4.3,0.4c3.3-0.5,13.2,6.2,16.9,10.7
					c4.3,5.3,12.7,13.7,16.3,16.3c3.1,2.3,1.9,8.2,1,12.6c-0.3,1.5-0.6,2.9-0.6,3.6c0,3.3-0.2,14-2.1,15.2c-0.7,0.6-3.6,5.4-5.9,9.3
					c-4.1,6.8-6.8,11.3-8.1,12.4c-2.3,2-18.7,12.9-23.7,13.3C558.7,254,558.5,254.1,558.4,254.1z M553.5,161.4
					c-1.6,0-2.9,0.2-3.5,0.7c-2.6,2.6-5.9,3.9-11.3,4.6c-5.2,0.7-10.9,2.3-10.9,2.3l0,0c-3.2,0.8-12.8,8.5-12.8,13.2
					c0,2.8-1.2,7.1-2.6,11.6c-1.4,4.7-2.8,9.6-3.1,13.7c-0.7,8,4.4,21.2,6.3,24.3c1.1,1.8,4.1,3.9,7.2,6.1c2.5,1.7,5,3.5,7,5.4
					c4.5,4.1,24.3,9.1,28.9,8.8c4.3-0.3,20.1-10.7,22.6-12.9c1.1-1,4.8-7,7.7-11.9c4.3-7.2,5.7-9.4,6.5-9.9
					c0.8-1.1,1.3-8.9,1.3-13.7c0-0.9,0.3-2.3,0.6-4c0.8-3.6,1.9-9.1-0.3-10.7c-3.8-2.7-12.2-11.1-16.6-16.6
					c-4.3-5.2-13.4-10.4-15.3-10.1c-0.9,0.1-2.6-0.1-4.8-0.4C558.6,161.8,555.7,161.4,553.5,161.4z"/>
				<path class="st4" d="M556.6,247.7c-3.2,0-7.4-0.6-12.8-2.9c-8.4-3.7-19.8-10.3-22-12.8c-0.4-0.4-9.5-10.9-8.1-21.1
					c0.7-5.2,1.8-9.6,2.7-13.1c0.6-2.5,1.2-4.6,1.4-6.4c0.2-1.2,0.8-5.4,2.6-9.4c1.9-4.2,4.4-6.9,7.5-7.9c0.5-0.2,9.6-3.3,13.1-3.6
					c1.9-0.2,5.1-1.4,8-2.5c2.6-1,4.8-1.8,6.1-1.9c1.1-0.1,11-1.1,16.4,4.1c2.5,2.4,3.8,3.5,5,4.5c1,0.8,1.8,1.5,3.1,2.9
					c1.4,1.4,3.1,3.5,4.7,5.5c1.8,2.2,3.5,4.3,4.5,5.2c2.3,2,4,7.9,4,11.9c0,3.4-1.5,8.9-2.6,12.9c-0.3,1-0.5,1.9-0.7,2.6
					c-0.9,3.6-9.6,17.4-12,19.5c-0.2,0.2-0.5,0.5-0.9,0.8c-5.5,4.9-12.3,10.6-15,11.1C560.6,247.4,558.9,247.7,556.6,247.7z
					 M558.1,167.2c-1.5,0-2.5,0.1-2.8,0.1c-1.1,0.1-3.4,1-5.8,1.9c-3.1,1.2-6.3,2.4-8.4,2.5c-3.4,0.3-12.7,3.5-12.8,3.5l0,0
					c-7.2,2.3-9.1,14.9-9.3,16.3c-0.2,1.9-0.8,4-1.4,6.5c-0.9,3.5-2,7.8-2.7,12.9c-1.3,9.6,7.4,19.7,7.8,20.1
					c1.9,2.2,12.8,8.7,21.6,12.5c8.9,3.9,14.4,2.9,17.3,2.3c2.8-0.5,11.5-8.3,14.4-10.8c0.4-0.3,0.7-0.6,0.9-0.8
					c2.3-2,10.8-15.5,11.6-18.8c0.2-0.7,0.4-1.6,0.7-2.6c1.1-3.9,2.5-9.4,2.5-12.6c0-4.1-1.8-9.4-3.6-11c-1.1-1-2.8-3.1-4.7-5.3
					c-1.6-2-3.3-4.1-4.7-5.5c-1.3-1.3-2.1-2-3.1-2.8c-1.1-0.9-2.5-2.1-5-4.6C567.2,167.8,561.6,167.2,558.1,167.2z"/>
				<path class="st4" d="M552.7,244.2c-5.2,0-14.6-3.7-16.9-4.7c-1.7-0.7-10-4.7-11.6-9.3c-0.5-1.4-1.6-3.6-2.7-5.8
					c-2.2-4.3-4.7-9.2-4.9-12.5c-0.2-3.1,1.5-7.9,3.2-12.6c1.1-3,2.1-5.9,2.4-7.8c0.6-4.5,1.8-9.1,5.8-12.3c0.4-0.4,5.9-5.4,9.7-5.1
					c2.3,0.2,6.7-0.8,10.7-1.8c2.1-0.5,4.1-1,5.5-1.2c4.1-0.6,13.8,0.2,17,4.2c0.9,1.1,2.4,2.7,4.1,4.6c3.9,4.3,8.3,9.1,9.3,11.5
					c0.1,0.3,0.3,0.6,0.4,0.9c1.3,3,2.6,6.2,1.6,13c-0.4,2.7-0.6,4.7-0.7,6.4c-0.3,2.8-0.4,4.8-1.3,7.9c-1.4,5.2-6.8,13.5-10.5,16.2
					c-3.8,2.8-15.6,8.1-20.4,8.4C553.1,244.2,552.9,244.2,552.7,244.2z M537.3,175.2c-2.8,0-7.1,3.4-8.5,4.8l0,0
					c-3.7,2.9-4.8,7.3-5.4,11.5c-0.3,2-1.3,4.9-2.5,8c-1.6,4.3-3.4,9.3-3.2,12.1c0.2,3.1,2.8,8.1,4.8,12.1c1.2,2.4,2.3,4.5,2.8,6
					c1.1,3.2,6.6,6.6,10.9,8.6c3.5,1.6,12.7,4.9,17,4.6c4.6-0.3,16.2-5.5,19.8-8.2c3.5-2.5,8.7-10.7,10-15.6c0.8-3.1,1-4.9,1.3-7.7
					c0.2-1.6,0.3-3.7,0.7-6.4c0.9-6.4-0.4-9.4-1.6-12.3c-0.1-0.3-0.3-0.6-0.4-1c-0.9-2.2-5.4-7.1-9-11.1c-1.7-1.9-3.2-3.5-4.1-4.6
					c-2.8-3.4-11.9-4.4-15.9-3.8c-1.4,0.2-3.4,0.7-5.5,1.2c-4,1-8.6,2-11,1.8C537.5,175.2,537.4,175.2,537.3,175.2z"/>
				<path class="st4" d="M549.2,238.3c-4.2,0-7.9-0.6-10.2-2.4c-5-3.8-12.5-18.6-13.5-24.2c-0.7-3.7,1.3-9.7,2.9-14.5
					c0.8-2.3,1.4-4.3,1.5-5.3c0.4-3.9,5.8-14.5,19.7-13.6c0.1,0,0.1,0,0.2,0c0.1,0.1,13.3,5.2,17.4,6c3.9,0.7,8,2.4,11.5,9.2
					c3.5,7.1,0.9,19.5,0.1,23.6c-1.2,5.9-8.6,18.1-15.4,19.5C559,237.5,553.8,238.3,549.2,238.3z M547.9,179.4
					c-12.7,0-16.5,10.4-16.7,12.5c-0.1,1.1-0.8,3.1-1.6,5.6c-1.5,4.4-3.5,10.5-2.9,13.9c1,5.4,8.2,19.8,13,23.5
					c4.7,3.6,16.7,1.8,23.4,0.5c5.9-1.2,13.1-12.4,14.4-18.6c0.8-4,3.4-16.1,0.1-22.8c-3-6-6.4-7.8-10.6-8.6
					c-4.1-0.8-16.3-5.5-17.5-6C549,179.4,548.5,179.4,547.9,179.4z"/>
				<path class="st4" d="M551.3,234.9c-3.9,0-8-1.4-11.7-6.1c-7.9-10.3-10.7-19.8-8.7-29.1c1.8-8.3,9.6-19.3,18.8-17.6
					c8.9,1.6,14.4,3.6,18.4,6.5c1.1,0.3,8.1,2.8,6.5,15.7c-1.7,13.9-4.2,28.2-10.3,28.2l0,0c-1.3,0-3,0.4-4.9,1
					C557.1,234.1,554.2,234.9,551.3,234.9z M547.8,183.1c-7.7,0-14.1,9.6-15.7,16.8c-2,8.9,0.8,18,8.5,28.1
					c5.9,7.7,12.9,5.8,18.5,4.3c2-0.5,3.8-1,5.2-1l0,0c5.9,0,8.3-20.4,9.1-27.1c1.5-12.6-5.4-14.3-5.7-14.4c-0.1,0-0.2-0.1-0.2-0.1
					c-3.8-2.8-9.4-4.8-18-6.4C549,183.2,548.4,183.1,547.8,183.1z"/>
				<path class="st4" d="M557.8,228.4c-5,0-11.1-3.2-13.1-5.6c-6.7-8.1-6.9-15.6-6.4-21.3c0.5-5.9,4.4-10.3,10.3-11.8
					c4.5-1.2,12.8-1.6,15.7,3.9l0,0c0.1,0.2,7.6,16.6,0,31.2c-1.1,2-2.9,3.2-5.5,3.5C558.5,228.4,558.2,228.4,557.8,228.4z
					 M554.5,190.2c-2,0-4,0.3-5.6,0.7c-5.4,1.4-8.9,5.4-9.4,10.8c-0.5,5.4-0.2,12.6,6.2,20.4c2,2.4,8.5,5.6,13.1,5.2
					c2.1-0.2,3.6-1.2,4.5-2.9c7.3-13.9,0.2-29.6,0-30.1C561.6,191.1,558,190.2,554.5,190.2z"/>
				<path class="st4" d="M556.1,222c-3.4,0-7.5-2.2-8.8-3.8c-4.5-5.4-4.7-10.5-4.3-14.3c0.4-4,3-7,7-8c3-0.8,8.7-1.1,10.7,2.7l0,0
					c0.2,0.4,5.1,11.1,0,20.9c-0.7,1.4-2,2.2-3.8,2.4C556.7,222,556.4,222,556.1,222z M554,196.6c-1.3,0-2.7,0.2-3.7,0.5
					c-3.5,0.9-5.8,3.5-6.1,7c-0.3,3.6-0.2,8.3,4,13.4c1.3,1.5,5.5,3.7,8.5,3.4c1.3-0.1,2.3-0.7,2.8-1.8c4.8-9.1,0.2-19.4,0-19.8
					C558.6,197.2,556.2,196.6,554,196.6z"/>
			</g>
		</g>
		<g>
			<text transform="matrix(1 0 0 1 522.6905 283.4761)" class="st5 st6 st7">Wood</text>
		</g>
	</g>
	<g>
		<g>
			<path class="st2" d="M57.8,152.1c-29.3,0-53.2,23.9-53.2,53.2s23.9,53.2,53.2,53.2s53.2-23.9,53.2-53.2S87.1,152.1,57.8,152.1z"
				/>
			
				<linearGradient id="SVGID_2_" gradientUnits="userSpaceOnUse" x1="4.6" y1="86.7" x2="111" y2="86.7" gradientTransform="matrix(1 0 0 -1 0 292)">
				<stop  offset="0" style="stop-color:#8BD3CA"/>
				<stop  offset="1" style="stop-color:#8199A6"/>
			</linearGradient>
			<path class="st8" d="M57.8,152.1c-29.3,0-53.2,23.9-53.2,53.2s23.9,53.2,53.2,53.2s53.2-23.9,53.2-53.2S87.1,152.1,57.8,152.1z"
				/>
			<path class="st9" d="M83.1,220.8c-0.5,0-0.9-0.4-0.9-0.9s0.4-0.9,0.9-0.9c12.1,0,21.9-9.8,21.9-21.9c0-7.7-4.2-15-10.9-18.9
				c-4.9-3.3-10.6-5-16.5-5c-6.1,0-12,1.9-17,5.4c-0.4,0.3-1,0.2-1.3-0.2s-0.2-1,0.2-1.3c5.3-3.7,11.6-5.7,18.1-5.7
				c6.2,0,12.3,1.8,17.4,5.2c7.2,4.2,11.7,12,11.7,20.4C106.7,210.1,96.1,220.8,83.1,220.8z"/>
			<g>
				<path class="st9" d="M57.8,260.3c-30.3,0-55-24.7-55-55s24.7-55,55-55s55,24.7,55,55S88.1,260.3,57.8,260.3z M57.8,152.1
					c-29.3,0-53.2,23.9-53.2,53.2s23.9,53.2,53.2,53.2s53.2-23.9,53.2-53.2S87.1,152.1,57.8,152.1z"/>
				<path class="st9" d="M51.1,195.3c-0.1,0-0.1,0-0.2,0c-0.5-0.1-0.8-0.6-0.7-1.1c3.4-15.8,17.6-27.2,33.7-27.2
					c6,0,12,1.6,17.2,4.6c0.4,0.2,0.6,0.8,0.3,1.2c-0.2,0.4-0.8,0.6-1.2,0.3c-4.9-2.8-10.6-4.3-16.3-4.3c-15.3,0-28.7,10.8-32,25.8
					C51.9,195,51.5,195.3,51.1,195.3z"/>
				<path class="st9" d="M67.2,213c-0.4,0-0.8-0.3-0.9-0.7c-0.1-0.5,0.2-1,0.7-1.1c6.8-1.5,11.8-7.7,11.8-14.7c0-6.3-4-12-9.8-14.2
					c-0.5-0.2-0.7-0.7-0.5-1.2s0.7-0.7,1.2-0.5c6.6,2.4,11,8.8,11,15.9c0,7.8-5.5,14.8-13.2,16.5C67.3,213,67.3,213,67.2,213z"/>
				<path class="st9" d="M51.9,204.6c-0.5,0-0.9-0.4-0.9-0.9c0-2.7,0.4-5.3,1.3-7.9c3.3-9.5,12.3-15.9,22.4-15.9
					c0.5,0,0.9,0.4,0.9,0.9s-0.4,0.9-0.9,0.9c-9.3,0-17.6,5.9-20.7,14.7c-0.8,2.3-1.2,4.8-1.2,7.3C52.8,204.2,52.4,204.6,51.9,204.6
					z"/>
				<path class="st9" d="M7.9,227.3c-0.2,0-0.4-0.1-0.5-0.2c-0.4-0.3-0.5-0.9-0.2-1.3c9-12.3,23.5-19.7,38.7-19.7
					c10.8,0,20.9,3.5,29.4,10.1c0.4,0.3,0.5,0.9,0.2,1.3c-0.3,0.4-0.9,0.5-1.3,0.2c-8.1-6.3-17.9-9.7-28.3-9.7
					c-14.7,0-28.6,7.1-37.2,18.9C8.5,227.1,8.2,227.3,7.9,227.3z"/>
				<path class="st9" d="M20.7,245.6c-0.1,0-0.1,0-0.2,0c-0.5-0.1-0.8-0.6-0.7-1.1c4.4-18.3,20.6-31.1,39.5-31.1
					c6.2,0,13.1,1.4,18.1,3.6c0.5,0.2,0.7,0.7,0.4,1.2c-0.2,0.5-0.7,0.7-1.2,0.4c-4.7-2.2-11.4-3.5-17.3-3.5
					c-18,0-33.5,12.2-37.7,29.7C21.5,245.4,21.1,245.6,20.7,245.6z"/>
				<path class="st9" d="M51.6,260c-0.4,0-0.7-0.2-0.8-0.6c-1.3-3.4-2-7.1-2-10.8c0-16.4,13.4-29.8,29.8-29.8c2.2,0,4.4,0.2,6.5,0.7
					c0.5,0.1,0.8,0.6,0.7,1.1c-0.1,0.5-0.6,0.8-1.1,0.7c-2-0.4-4-0.7-6.1-0.7c-15.4,0-28,12.6-28,28c0,3.5,0.6,6.9,1.9,10.1
					c0.2,0.5,0,1-0.5,1.2C51.8,259.9,51.7,260,51.6,260z"/>
				<path class="st9" d="M75.3,214.1c-2.4,0-4.8-0.5-6.9-1.5c-0.5-0.2-1.1-0.5-1.6-0.8c-0.4-0.3-0.6-0.8-0.3-1.2
					c0.3-0.4,0.8-0.6,1.2-0.3c0.5,0.3,0.9,0.5,1.4,0.7c2,0.9,4,1.3,6.2,1.3c8.2,0,15.1-7.1,15.1-15.6c0-8.3-6.8-15.1-15.1-15.1
					c-0.5,0-0.9-0.4-0.9-0.9s0.4-0.9,0.9-0.9c9.3,0,16.9,7.6,16.9,16.9C92.1,206.2,84.4,214.1,75.3,214.1z"/>
				<path class="st9" d="M86.5,252L86.5,252c-8.1-1.2-14.1-8.2-14.1-16.3c0-9.1,7.4-16.5,16.5-16.5c0.5,0,0.9,0.4,0.9,0.9
					s-0.4,0.9-0.9,0.9c-8.1,0-14.7,6.6-14.7,14.7c0,7.2,5.4,13.4,12.5,14.5c0.5,0.1,0.8,0.5,0.8,1C87.4,251.7,87,252,86.5,252z"/>
				<path class="st9" d="M87.7,221c-6.7,0-13.1-2.4-18-6.9c-9.9-9-19-10.8-31.3-10.8s-24,4.5-33.1,12.8c-0.4,0.3-0.9,0.3-1.3-0.1
					c-0.3-0.4-0.3-0.9,0.1-1.3c9.4-8.5,21.6-13.2,34.3-13.2c12.8,0,22.2,1.8,32.6,11.3c4.6,4.1,10.6,6.4,16.8,6.4
					c10.3,0,19.4-6.1,23.3-15.6c0.2-0.5,0.7-0.7,1.2-0.5s0.7,0.7,0.5,1.2C108.5,214.5,98.7,221,87.7,221z"/>
			</g>
		</g>
		<g>
			<text transform="matrix(1 0 0 1 28.4317 281.3847)" class="st5 st6 st7">Water</text>
		</g>
	</g>
	<g>
		<g>
			<text transform="matrix(1 0 0 1 283.7274 133.1653)" class="st5 st6 st7">Earth</text>
		</g>
		<g>
			<path class="st2" d="M308.4,3.9c-29.3,0-53.2,23.9-53.2,53.2s23.9,53.2,53.2,53.2s53.2-23.9,53.2-53.2S337.7,3.9,308.4,3.9z"/>
			
				<linearGradient id="SVGID_3_" gradientUnits="userSpaceOnUse" x1="255.2" y1="234.9" x2="361.6" y2="234.9" gradientTransform="matrix(1 0 0 -1 0 292)">
				<stop  offset="0" style="stop-color:#FFFAC2"/>
				<stop  offset="1" style="stop-color:#F8BB5B"/>
			</linearGradient>
			<path class="st10" d="M308.4,3.9c-29.3,0-53.2,23.9-53.2,53.2s23.9,53.2,53.2,53.2s53.2-23.9,53.2-53.2S337.7,3.9,308.4,3.9z"/>
			<path class="st11" d="M308.4,112.1c-30.3,0-55-24.7-55-55s24.7-55,55-55s55,24.7,55,55S338.7,112.1,308.4,112.1z M308.4,3.9
				c-29.3,0-53.2,23.9-53.2,53.2s23.9,53.2,53.2,53.2s53.2-23.9,53.2-53.2S337.7,3.9,308.4,3.9z"/>
			<path class="st11" d="M321.4,47.2c-12.2,0-24.1-3.4-34.4-9.9c-3.5-2.2-7.4-3.4-11.3-3.6c-0.3,0-0.6,0-1,0
				c-6.5,0-12.8,2.8-17.2,7.6c-0.3,0.4-0.9,0.4-1.3,0.1c-0.4-0.3-0.4-0.9-0.1-1.3c4.8-5.2,11.5-8.2,18.5-8.2c0.4,0,0.7,0,1,0
				c4.2,0.2,8.5,1.5,12.2,3.9c10,6.3,21.6,9.6,33.4,9.6c12.9,0,25.3-3.9,35.9-11.2c0.4-0.3,1-0.2,1.3,0.2s0.2,1-0.2,1.3
				C347.4,43.3,334.7,47.2,321.4,47.2z"/>
			<path class="st11" d="M307.1,45.7c-0.4,0-0.7-0.2-0.8-0.3c-0.6-0.4-0.5-1.2-0.5-1.3c0,0,0,0,0-0.1c1.2-9.7-3.5-10.7-7.2-11.6
				c-0.3-0.1-0.6-0.1-0.9-0.2c-0.5-0.1-1.1-0.3-1.7-0.4c-3.4-0.8-7.6-1.8-9.9-4.2c-0.3-0.3-3.1-3.5-0.2-11.5c0.1-0.4,0.5-0.6,1-0.6
				c0.4,0,0.7,0.4,0.8,0.8c0,0.1,0.5,2.7,5.2,3.6c0.7,0.1,1.4,0.2,2.2,0.4c5,0.7,11.2,1.7,12.3,11.2c0.9,8,1,10.5,0.9,13.3
				c0,0.4-0.3,0.7-0.7,0.8C307.4,45.7,307.3,45.7,307.1,45.7z M286.9,18.9c-0.6,2.5-1,6,0.4,7.5c1.9,2,5.9,3,9,3.7
				c0.6,0.1,1.2,0.3,1.7,0.4c0.3,0.1,0.5,0.1,0.8,0.2c2.1,0.5,4.9,1.1,6.8,3.6c-0.1-0.8-0.2-1.6-0.3-2.6c-1-8.1-5.7-8.8-10.7-9.6
				c-0.8-0.1-1.5-0.2-2.3-0.4C289.5,21.2,287.8,20,286.9,18.9z"/>
			<path class="st11" d="M307,38.3c-0.5,0-0.9-0.4-0.9-0.8v-0.4c-0.6-7.2-1-11.2,6.7-16.1l0.4-0.2c6.8-4.3,9.6-6.1,9.6-8.5
				c0-0.7-0.2-1.2-0.5-1.5c-0.7-0.5-1.9-0.5-2.2-0.4c-0.5,0.1-1-0.2-1.1-0.7s0.2-1,0.7-1.1c0.2,0,2.3-0.4,3.7,0.8
				c0.5,0.5,1.2,1.3,1.2,2.9c-0.1,3.4-3.1,5.3-10.4,10l-0.4,0.2c-6.7,4.3-6.4,7.2-5.8,14.4v0.4C308,37.8,307.6,38.2,307,38.3
				C307.1,38.3,307,38.3,307,38.3z"/>
			<path class="st11" d="M308.4,45.9c-0.5,0-0.9-0.4-0.9-0.9c-0.1-7.7,0.8-11.7,3.2-14.3c1.2-1.3,3.2-2.1,5.5-3.2
				c3.2-1.4,6.8-3,8.3-5.7c2.5-4.5-2-10.7-2.1-10.7c-0.3-0.4-0.2-1,0.2-1.3c0.4-0.3,1-0.2,1.3,0.2c0.2,0.3,5.3,7.2,2.2,12.7
				c-1.9,3.3-5.7,5-9.2,6.5c-2.1,0.9-4,1.8-4.9,2.8c-1.7,1.8-2.8,4.7-2.7,13C309.3,45.5,308.9,45.9,308.4,45.9L308.4,45.9z"/>
			<path class="st11" d="M319.4,18.6c-0.2,0-0.4-0.1-0.6-0.2c-0.4-0.3-0.4-0.9-0.1-1.3c1.5-1.8,2.1-3.4,1.9-4.7
				c-0.2-1.4-1.3-2.1-1.3-2.1c-0.4-0.3-0.5-0.8-0.3-1.2c0.3-0.4,0.8-0.6,1.2-0.3c0.1,0,1.8,1.1,2.2,3.4c0.3,1.9-0.5,4-2.3,6.2
				C319.9,18.5,319.6,18.6,319.4,18.6z"/>
			<path class="st11" d="M270.3,59.5c-0.2,0-0.3,0-0.5-0.1l-12.3-8c-0.4-0.3-0.5-0.8-0.3-1.2l7.4-12c0.1-0.2,0.4-0.4,0.6-0.4
				l8.1-1.2c0.3,0,0.6,0.1,0.8,0.3l8.6,9.3c0.2,0.3,0.3,0.7,0.2,1l-4.3,9.5c-0.1,0.2-0.3,0.4-0.5,0.5l-7.4,2.4
				C270.5,59.5,270.4,59.5,270.3,59.5z M259.2,50.3l11.2,7.3l6.7-2.1l3.9-8.6l-7.8-8.5l-7.2,1.1L259.2,50.3z"/>
			<path class="st11" d="M304.5,65.3c-0.2,0-0.3,0-0.5-0.1l-9.5-5.9c-0.1-0.1-0.2-0.1-0.3-0.2l-6.3-8.9c-0.1-0.2-0.2-0.4-0.2-0.7
				l1.1-6.8c0-0.3,0.2-0.5,0.4-0.6c0.2-0.1,0.5-0.2,0.7-0.1l11.1,3.4c0.1,0,0.2,0.1,0.3,0.2l7.5,5.9c0.3,0.2,0.4,0.6,0.3,1
				l-3.9,12.2c-0.1,0.3-0.3,0.5-0.5,0.6C304.7,65.3,304.6,65.3,304.5,65.3z M295.7,57.9l8.3,5.2l3.4-10.5l-6.9-5.4l-10-3l-0.8,5.4
				L295.7,57.9z"/>
			<path class="st11" d="M315.1,75.1c-0.3,0-0.5-0.1-0.7-0.3l-6.7-7.5c-0.2-0.2-0.3-0.5-0.2-0.8l1.5-8.1c0-0.2,0.1-0.4,0.3-0.5
				l8.3-8.1c0.3-0.2,0.6-0.3,1-0.2l6.1,2.3c0.1,0,0.2,0.1,0.3,0.2l6.6,7.1c0.2,0.2,0.3,0.6,0.2,0.9l-3.9,12.2
				c-0.1,0.3-0.4,0.6-0.7,0.6L315.3,75C315.2,75.1,315.2,75.1,315.1,75.1z M309.4,66.4l6.1,6.8l10.9-1.9l3.6-11.2l-6.1-6.6l-5.4-2
				l-7.7,7.5L309.4,66.4z"/>
			<path class="st11" d="M354.3,61.9c-0.2,0-0.5-0.1-0.6-0.2l-7.8-7.4c-0.2-0.2-0.3-0.5-0.3-0.8l2.1-9.9c0.1-0.2,0.2-0.5,0.4-0.6
				l9.2-5.6c0.4-0.3,1-0.1,1.2,0.3c0.3,0.4,0.1,1-0.3,1.2l-8.9,5.4l-1.9,9l7.1,6.7l7.7-0.8c0.5-0.1,0.9,0.3,1,0.8s-0.3,0.9-0.8,1
				L354.3,61.9C354.4,61.9,354.3,61.9,354.3,61.9z"/>
			<path class="st11" d="M344.9,74.2c-0.1,0-0.2,0-0.3-0.1L331.4,69c-0.2-0.1-0.4-0.3-0.5-0.5s-0.1-0.5,0-0.7l7.7-14.5
				c0.2-0.4,0.6-0.6,1-0.4l5.7,1.6c0.2,0,0.3,0.1,0.4,0.2l10.5,11c0.2,0.2,0.3,0.5,0.2,0.7c0,0.3-0.2,0.5-0.4,0.7l-10.7,7.1
				C345.3,74.2,345.1,74.2,344.9,74.2z M333,67.7l11.8,4.6l9.4-6.2l-9.6-10l-4.8-1.3L333,67.7z"/>
			<path class="st11" d="M282.7,79.6c-0.2,0-0.3-0.1-0.5-0.1l-9.8-6.5c-0.3-0.2-0.5-0.6-0.4-0.9l1.5-8.8c0-0.3,0.2-0.5,0.4-0.6
				l12.3-7.2c0.2-0.1,0.5-0.2,0.8-0.1l5.4,2.2c0.1,0.1,0.3,0.2,0.4,0.3l7.5,9.9c0.3,0.3,0.2,0.8,0,1.1l-6.6,7.5
				c-0.1,0.1-0.3,0.2-0.4,0.3l-10.4,2.7C282.9,79.6,282.8,79.6,282.7,79.6z M273.9,71.8l8.9,5.9l9.7-2.5l5.9-6.8l-6.9-9.1l-4.8-2
				L275.1,64L273.9,71.8z"/>
			<path class="st11" d="M285.5,102.3c-0.2,0-0.3,0-0.5-0.1l-6.9-4.5c-0.3-0.2-0.4-0.5-0.4-0.8v-4.5c0-0.3,0.2-0.6,0.5-0.8l5.3-2.9
				c0.3-0.1,0.6-0.1,0.8,0l8.9,4.2c0.3,0.2,0.5,0.5,0.5,0.9l-0.6,6.6c0,0.4-0.3,0.7-0.8,0.8l-6.6,1.1
				C285.5,102.3,285.5,102.3,285.5,102.3z M279.4,96.4l6.2,4.1l5.6-0.9l0.5-5.3l-7.9-3.7l-4.4,2.4L279.4,96.4L279.4,96.4z"/>
			<path class="st11" d="M309.8,109.1h-0.1l-6.7-0.8c-0.3,0-0.5-0.2-0.7-0.4c-0.1-0.2-0.2-0.5-0.1-0.8l4.2-11.9
				c0.1-0.4,0.5-0.6,0.9-0.6h4.2c0.5,0,0.9,0.4,0.9,0.8l0.8,8.3c0,0.2,0,0.4-0.1,0.5l-2.5,4.4C310.5,108.9,310.2,109.1,309.8,109.1z
				 M304.4,106.7l5,0.6l2.1-3.6l-0.7-7.2H308L304.4,106.7z"/>
			<path class="st11" d="M306.7,89.5c-0.2,0-0.3,0-0.5-0.1l-10.3-6.6c-0.2-0.1-0.4-0.4-0.4-0.7c0-0.3,0.1-0.5,0.3-0.7l9.3-9.5
				c0.3-0.3,0.8-0.4,1.2-0.1l8,6.2c0.3,0.2,0.4,0.7,0.3,1l-2,5.2c0,0.1-0.1,0.2-0.2,0.3l-5,4.7C307.1,89.5,306.9,89.5,306.7,89.5z
				 M297.8,81.9l8.8,5.6l4.4-4.1l1.7-4.4l-6.8-5.3L297.8,81.9z"/>
			<path class="st11" d="M335.5,89.5c-0.2,0-0.3,0-0.5-0.1l-9.3-5.4c-0.4-0.2-0.6-0.7-0.4-1.2l4.8-9.9c0.2-0.4,0.6-0.6,1-0.5
				l10.8,2.9c0.4,0.1,0.6,0.4,0.7,0.8l0.8,7.1c0,0.3-0.1,0.6-0.3,0.8l-7.1,5.4C335.9,89.5,335.7,89.5,335.5,89.5z M327.4,82.9l8,4.7
				l6.2-4.7L341,77l-9.5-2.5L327.4,82.9z"/>
			<path class="st11" d="M320.5,94.1c-0.2,0-0.3,0-0.5-0.1l-5.3-3.3c-0.2-0.1-0.3-0.3-0.4-0.6c-0.1-0.2,0-0.5,0.1-0.7l4.2-6.8
				c0.3-0.4,0.8-0.5,1.2-0.3l9.2,5.6c0.3,0.2,0.4,0.5,0.4,0.8s-0.2,0.6-0.5,0.8l-8.1,4.5C320.8,94,320.6,94.1,320.5,94.1z
				 M316.4,89.6l4.1,2.5l6.3-3.5l-7.1-4.3L316.4,89.6z"/>
			<path class="st11" d="M259.7,76.2c-0.3,0-0.6-0.1-0.7-0.4l-3.9-5.4c-0.3-0.4-0.2-1,0.2-1.3s1-0.2,1.3,0.2l3.6,5l8.3-0.9L269,63
				l-6.2-2l-7.5,2c-0.5,0.1-1-0.2-1.1-0.6c-0.1-0.5,0.2-1,0.6-1.1l7.8-2c0.2,0,0.3,0,0.5,0l7.1,2.3c0.4,0.1,0.6,0.5,0.6,0.9
				l-0.6,11.9c0,0.4-0.4,0.8-0.8,0.8L259.7,76.2C259.8,76.2,259.8,76.2,259.7,76.2z"/>
			<path class="st11" d="M267.5,88.5c-0.3,0-0.7-0.2-0.8-0.5l-3.2-7c-0.2-0.4,0-1,0.4-1.2l6.5-3.2c0.2-0.1,0.5-0.1,0.7,0l5,2
				c0.3,0.1,0.6,0.5,0.6,0.8v7.5c0,0.5-0.4,0.9-0.8,0.9L267.5,88.5L267.5,88.5z M265.4,81l2.6,5.6l6.7-0.6v-6.1l-4-1.6L265.4,81z"/>
			<path class="st11" d="M296.4,89h-7.7c-0.3,0-0.5-0.1-0.7-0.3l-5-6.4c-0.2-0.3-0.2-0.6-0.1-0.9s0.4-0.5,0.7-0.6l6.6-1.1
				c0.2,0,0.4,0,0.6,0.1l3.8,1.9c0.2,0.1,0.4,0.3,0.4,0.5l2.3,5.6c0.1,0.3,0.1,0.6-0.1,0.8C297,88.9,296.7,89,296.4,89z M289.2,87.2
				h5.9l-1.6-4.1l-3.2-1.6l-4.8,0.8L289.2,87.2z"/>
			<path class="st11" d="M328.6,102.7c-0.1,0-0.2,0-0.4-0.1c-0.2-0.1-0.4-0.3-0.5-0.6l-2.4-7.5c-0.1-0.2,0-0.5,0.1-0.7
				s0.3-0.4,0.6-0.4l5.5-1.2c0.4-0.1,0.8,0.1,1,0.5l2.7,5.9c0.2,0.4,0,1-0.4,1.2l-5.8,2.8C328.8,102.7,328.7,102.7,328.6,102.7z
				 M327.4,95l1.7,5.5l4.1-2l-2-4.4L327.4,95z"/>
			<path class="st11" d="M355.6,84.5L355.6,84.5l-6.4-0.5c-0.5,0-0.8-0.4-0.8-0.9v-7.8c0-0.4,0.3-0.8,0.7-0.9l10.7-2
				c0.5-0.1,1,0.2,1,0.7c0.1,0.5-0.2,1-0.7,1l-10,1.8v6.2l5.5,0.4c0.5,0,0.9,0.5,0.8,1C356.5,84.1,356.1,84.5,355.6,84.5z"/>
		</g>
	</g>
</g>
<g>
	<text transform="matrix(1 0 0 1 411.1607 52.1003)" class="st5 st6 st7">Wood parts Earth</text>
</g>
<g>
	<text transform="matrix(1 0 0 1 30.7996 52.1003)" class="st5 st6 st7">Earth dams Water</text>
</g>
</svg>
