<?xml version="1.0" encoding="utf-8"?>
<!-- Generator: Adobe Illustrator 19.2.1, SVG Export Plug-In . SVG Version: 6.00 Build 0)  -->
<svg version="1.1" id="Layer_1" xmlns="http://www.w3.org/2000/svg" xmlns:xlink="http://www.w3.org/1999/xlink" x="0px" y="0px"
	 viewBox="0 0 610 290" style="enable-background:new 0 0 610 290;" xml:space="preserve">
<style type="text/css">
	.st0{fill:#FFFFFF;stroke:#F9846B;stroke-miterlimit:10;}
	.st1{opacity:0.5;fill:url(#SVGID_1_);stroke:#F9846B;stroke-miterlimit:10;enable-background:new    ;}
	.st2{fill:#F56157;}
	.st3{fill:#858585;}
	.st4{font-family:'AvantGarde-Book';}
	.st5{font-size:20px;}
	.st6{fill:url(#SVGID_2_);}
	.st7{fill:#B8BABC;}
	.st8{fill:none;stroke:#8BD3CA;stroke-width:10;stroke-miterlimit:10;}
	.st9{fill:#8BD3CA;}
	.st10{fill:#FFFFFF;}
	.st11{opacity:0.5;fill:url(#SVGID_3_);enable-background:new    ;}
	.st12{fill:#F8BB5B;}
</style>
<g>
	<g>
		<g>
			<path class="st0" d="M56.5,153.8c-29.3,0-53.2,23.9-53.2,53.2s23.9,53.2,53.2,53.2s53.2-23.9,53.2-53.2S85.9,153.8,56.5,153.8z"
				/>
			
				<linearGradient id="SVGID_1_" gradientUnits="userSpaceOnUse" x1="3.3" y1="85" x2="109.7" y2="85" gradientTransform="matrix(1 0 0 -1 0 292)">
				<stop  offset="0" style="stop-color:#F59F8E"/>
				<stop  offset="1" style="stop-color:#F56157"/>
			</linearGradient>
			<path class="st1" d="M56.5,153.8c-29.3,0-53.2,23.9-53.2,53.2s23.9,53.2,53.2,53.2s53.2-23.9,53.2-53.2S85.9,153.8,56.5,153.8z"
				/>
			<path class="st2" d="M56.5,261.9c-30.3,0-55-24.7-55-55s24.7-55,55-55s55,24.7,55,55S86.9,261.9,56.5,261.9z M56.5,153.8
				c-29.3,0-53.2,23.9-53.2,53.2s23.9,53.2,53.2,53.2s53.2-23.9,53.2-53.2S85.9,153.8,56.5,153.8z"/>
			<path class="st2" d="M34.8,245.7c-0.2,0-0.4-0.1-0.6-0.2c-5.3-4.5-8.3-11-8.3-17.9c0-11.2,5.7-19.5,15.3-22.3
				c8.3-3.4,13.6-11.3,13.6-20.2c0-8.1-4.4-15.4-11.5-19.2c-0.4-0.2-0.6-0.8-0.4-1.2c0.2-0.4,0.8-0.6,1.2-0.4
				c7.7,4.1,12.5,12.1,12.5,20.8c0,9.7-5.8,18.3-14.8,21.9h-0.1c-8.8,2.6-14.1,10.3-14.1,20.6c0,6.4,2.8,12.4,7.6,16.6
				c0.4,0.3,0.4,0.9,0.1,1.3C35.3,245.6,35.1,245.7,34.8,245.7z"/>
			<path class="st2" d="M25.6,232.1c-0.2,0-0.5-0.1-0.6-0.3c-4.5-4.5-7-10.4-7-16.8c0-7.3,5-15,9.6-19.1
				c7.8-6.9,11.8-16.8,11.1-27.2c0-0.4,0.2-0.7,0.5-0.9c0.4-0.2,0.8-0.1,1,0.2c1.9,2.1,3.5,4.3,5,6.6c0.3,0.4,0.1,1-0.3,1.2
				c-0.4,0.3-1,0.1-1.2-0.3c-0.9-1.5-2-3-3.1-4.4c-0.1,9.9-4.3,19.3-11.8,26c-4.3,3.8-8.9,10.9-8.9,17.7c0,5.9,2.3,11.4,6.5,15.5
				c0.4,0.3,0.4,0.9,0,1.3C26.1,232,25.8,232.1,25.6,232.1z"/>
			<path class="st2" d="M71.9,251.7c-0.2,0-0.4-0.1-0.6-0.2c-0.4-0.3-0.4-0.9-0.1-1.3c6-7.4,9.5-16.7,9.5-24.8
				c0-11.6-5.3-22.6-14.2-29.8c0.3,2.1,0.5,4.2,0.5,6.3c0,9.5-3.4,18.7-9.5,26c-0.3,0.4-0.9,0.4-1.3,0.1c-0.4-0.3-0.4-0.9-0.1-1.3
				c5.9-6.9,9.1-15.7,9.1-24.8c0-2.8-0.3-5.5-0.9-8.2c-0.1-0.4,0.1-0.7,0.4-0.9s0.7-0.2,1,0c10.5,7.5,16.8,19.7,16.8,32.7
				c0,8.7-3.6,18.1-9.9,26C72.4,251.6,72.2,251.7,71.9,251.7z"/>
			<path class="st2" d="M60.6,255.4c-12,0-23.2-5.3-30.9-14.5c-0.3-0.4-0.3-1,0.1-1.3s1-0.3,1.3,0.1c7.3,8.8,18.1,13.9,29.5,13.9
				c21.1,0,38.3-17.2,38.3-38.3c0-14.9-8.8-28.6-22.4-34.9c-0.5-0.2-0.7-0.7-0.4-1.2c0.2-0.5,0.7-0.7,1.2-0.4
				c14.2,6.5,23.4,20.8,23.4,36.5C100.7,237.4,82.7,255.4,60.6,255.4z"/>
			<g>
				<path class="st2" d="M62.5,255.4c-8.1,0-14.7-6.6-14.7-14.7c0-2.7,0.8-5.4,2.2-7.7c0.9-1.4,2-2.7,3.2-3.7
					c6.9-5.5,12.1-14.2,14-23.4c0.1-0.3,0.3-0.6,0.7-0.7c0.3-0.1,0.7,0,0.9,0.3c6.4,7.3,9.9,16.7,9.9,26.4c0,4-0.6,8-1.8,11.9
					c0,0.1-0.8,2.8-1.6,4.4l0,0c-0.4,0.8-1.1,1.8-1.8,2.5C70.7,253.6,66.7,255.4,62.5,255.4z M68.6,208c-2.2,8.9-7.4,17.2-14.2,22.6
					c-1.1,0.9-2,2-2.8,3.2c-1.3,2-1.9,4.4-1.9,6.8c0,7.1,5.8,12.9,12.9,12.9c3.6,0,7.1-1.6,9.6-4.3c0.5-0.6,1.2-1.5,1.5-2.1l0,0
					c0.8-1.4,1.5-4,1.5-4c1.1-3.7,1.7-7.5,1.7-11.4C76.8,223.1,73.9,214.8,68.6,208z"/>
			</g>
			<path class="st2" d="M51.2,251.3c-7.6,0-14.9-3.2-20.1-8.7c-4.8-5.1-7.4-11.8-7.4-18.8c0-7.9,3.2-15.3,8.8-20.4
				c9.9-10.1,13.5-24.7,9.3-38.2c-0.1-0.3,0-0.6,0.1-0.8c0.2-0.2,0.4-0.4,0.7-0.4c13.5,0,28.4,6.8,35.4,16.1
				c9.2,7.7,14.5,18.9,14.5,30.9c0,11.1-4.7,21.8-12.8,29.4c-0.4,0.3-0.9,0.3-1.3,0c-0.3-0.4-0.3-0.9,0-1.3
				c7.8-7.2,12.2-17.4,12.2-28c0-11.5-5.1-22.3-13.9-29.6c-0.1,0-0.1-0.1-0.1-0.2c-6.5-8.7-20.2-15-32.8-15.4
				c3.8,13.8,0,28.5-10.1,38.7l-0.1,0.1c-5.2,4.8-8.2,11.7-8.2,19.1c0,6.5,2.5,12.8,6.9,17.6c4.9,5.2,11.6,8.1,18.7,8.1
				c0.5,0,0.9,0.4,0.9,0.9C52.1,250.9,51.7,251.3,51.2,251.3z"/>
		</g>
		<g>
			<text transform="matrix(1 0 0 1 40.1726 283.0306)" class="st3 st4 st5">Fire</text>
		</g>
	</g>
	<g>
		<g>
			
				<linearGradient id="SVGID_2_" gradientUnits="userSpaceOnUse" x1="500.3" y1="85.3" x2="606.7" y2="85.3" gradientTransform="matrix(1 0 0 -1 0 292)">
				<stop  offset="0" style="stop-color:#EDEEEE"/>
				<stop  offset="1" style="stop-color:#CDCFD0"/>
			</linearGradient>
			<path class="st6" d="M553.5,153.5c-29.3,0-53.2,23.9-53.2,53.2s23.9,53.2,53.2,53.2s53.2-23.9,53.2-53.2S582.8,153.5,553.5,153.5
				z"/>
			<g>
				<path class="st7" d="M553.5,261.7c-30.3,0-55-24.7-55-55s24.7-55,55-55s55,24.7,55,55S583.8,261.7,553.5,261.7z M553.5,153.5
					c-29.3,0-53.2,23.9-53.2,53.2s23.9,53.2,53.2,53.2s53.2-23.9,53.2-53.2S582.8,153.5,553.5,153.5z"/>
				<path class="st7" d="M566.7,193.5h-26.4c-0.3,0-0.6-0.1-0.7-0.4c-0.2-0.2-0.2-0.5-0.1-0.8l5.1-14.2c0.1-0.4,0.5-0.6,0.8-0.6
					h16.2c0.4,0,0.7,0.2,0.8,0.6l5.1,14.2c0.1,0.3,0.1,0.6-0.1,0.8S567,193.5,566.7,193.5z M541.5,191.7h23.9l-4.5-12.4H546
					L541.5,191.7z"/>
				<g>
					<path class="st7" d="M581.7,211.7h-26.4c-0.3,0-0.6-0.1-0.7-0.4c-0.2-0.2-0.2-0.5-0.1-0.8l5.1-14.2c0.1-0.4,0.5-0.6,0.8-0.6
						h16.2c0.4,0,0.7,0.2,0.8,0.6l5.1,14.2c0.1,0.3,0.1,0.6-0.1,0.8C582.3,211.6,582,211.7,581.7,211.7z M556.6,209.9h23.9
						l-4.5-12.4h-15L556.6,209.9z"/>
					<path class="st7" d="M551.6,211.7h-26.4c-0.3,0-0.6-0.1-0.7-0.4c-0.2-0.2-0.2-0.5-0.1-0.8l5.1-14.2c0.1-0.4,0.5-0.6,0.8-0.6
						h16.2c0.4,0,0.7,0.2,0.8,0.6l5.1,14.2c0.1,0.3,0.1,0.6-0.1,0.8C552.2,211.6,551.9,211.7,551.6,211.7z M526.5,209.9h23.9
						l-4.5-12.4H531L526.5,209.9z"/>
				</g>
				<g>
					<path class="st7" d="M596.7,230h-26.4c-0.3,0-0.6-0.1-0.7-0.4c-0.2-0.2-0.2-0.5-0.1-0.8l5.1-14.2c0.1-0.4,0.5-0.6,0.8-0.6h16.2
						c0.4,0,0.7,0.2,0.8,0.6l5.1,14.2c0.1,0.3,0.1,0.6-0.1,0.8C597.3,229.9,597,230,596.7,230z M571.6,228.2h23.9l-4.5-12.4h-14.9
						L571.6,228.2z"/>
					<path class="st7" d="M566.7,230h-26.4c-0.3,0-0.6-0.1-0.7-0.4c-0.2-0.2-0.2-0.5-0.1-0.8l5.1-14.2c0.1-0.4,0.5-0.6,0.8-0.6h16.2
						c0.4,0,0.7,0.2,0.8,0.6l5.1,14.2c0.1,0.3,0.1,0.6-0.1,0.8C567.2,229.9,567,230,566.7,230z M541.5,228.2h23.9l-4.5-12.4H546
						L541.5,228.2z"/>
					<path class="st7" d="M536.6,230h-26.4c-0.3,0-0.6-0.1-0.7-0.4c-0.2-0.2-0.2-0.5-0.1-0.8l5.1-14.2c0.1-0.4,0.5-0.6,0.8-0.6h16.2
						c0.4,0,0.7,0.2,0.8,0.6l5.1,14.2c0.1,0.3,0.1,0.6-0.1,0.8C537.2,229.9,536.9,230,536.6,230z M511.5,228.2h23.9l-4.5-12.4H516
						L511.5,228.2z"/>
				</g>
			</g>
			<path class="st7" d="M540.3,193.5c-0.3,0-0.5-0.1-0.7-0.4c-0.3-0.4-0.2-1,0.2-1.3l9.4-7.1c0.4-0.3,1-0.2,1.3,0.2s0.2,1-0.2,1.3
				l-9.4,7.1C540.6,193.4,540.4,193.5,540.3,193.5z"/>
			<path class="st7" d="M544.7,193.5c-0.3,0-0.5-0.1-0.7-0.4c-0.3-0.4-0.2-1,0.2-1.3l4.9-3.7c0.4-0.3,1-0.2,1.3,0.2s0.2,1-0.2,1.3
				l-4.9,3.7C545.1,193.4,544.9,193.5,544.7,193.5z"/>
			<path class="st7" d="M540.3,201.1c-0.3,0-0.5-0.1-0.7-0.4c-0.3-0.4-0.2-1,0.2-1.3l4.6-3.5c0.4-0.3,1-0.2,1.3,0.2s0.2,1-0.2,1.3
				l-4.6,3.5C540.6,201.1,540.4,201.1,540.3,201.1z"/>
			<path class="st7" d="M544.7,201.1c-0.3,0-0.5-0.1-0.7-0.4c-0.3-0.4-0.2-1,0.2-1.3l2.4-1.8c0.4-0.3,1-0.2,1.3,0.2s0.2,1-0.2,1.3
				l-2.4,1.8C545.1,201.1,544.9,201.1,544.7,201.1z"/>
			<path class="st7" d="M510.2,230c-0.3,0-0.5-0.1-0.7-0.4c-0.3-0.4-0.2-1,0.2-1.3l9.4-7.1c0.4-0.3,1-0.2,1.3,0.2s0.2,1-0.2,1.3
				l-9.4,7.1C510.6,229.9,510.4,230,510.2,230z"/>
			<path class="st7" d="M514.7,230c-0.3,0-0.5-0.1-0.7-0.4c-0.3-0.4-0.2-1,0.2-1.3l4.9-3.7c0.4-0.3,1-0.2,1.3,0.2s0.2,1-0.2,1.3
				l-4.9,3.7C515,229.9,514.9,230,514.7,230z"/>
			<path class="st7" d="M565.6,207c-0.3,0-0.5-0.1-0.7-0.4c-0.3-0.4-0.2-1,0.2-1.3l9.4-7.1c0.4-0.3,1-0.2,1.3,0.2s0.2,1-0.2,1.3
				l-9.4,7.1C566,206.9,565.8,207,565.6,207z"/>
			<path class="st7" d="M570.1,207c-0.3,0-0.5-0.1-0.7-0.4c-0.3-0.4-0.2-1,0.2-1.3l4.9-3.7c0.4-0.3,1-0.2,1.3,0.2s0.2,1-0.2,1.3
				l-4.9,3.7C570.5,206.9,570.3,207,570.1,207z"/>
			<path class="st7" d="M548.8,225.4c-0.3,0-0.5-0.1-0.7-0.4c-0.3-0.4-0.2-1,0.2-1.3l9.4-7.1c0.4-0.3,1-0.2,1.3,0.2s0.2,1-0.2,1.3
				l-9.4,7.1C549.1,225.3,549,225.4,548.8,225.4z"/>
			<path class="st7" d="M553.2,225.4c-0.3,0-0.5-0.1-0.7-0.4c-0.3-0.4-0.2-1,0.2-1.3l4.9-3.7c0.4-0.3,1-0.2,1.3,0.2s0.2,1-0.2,1.3
				l-4.9,3.7C553.6,225.3,553.4,225.4,553.2,225.4z"/>
			<path class="st7" d="M575,230c-0.3,0-0.5-0.1-0.7-0.4c-0.3-0.4-0.2-1,0.2-1.3l9.4-7.1c0.4-0.3,1-0.2,1.3,0.2s0.2,1-0.2,1.3
				l-9.4,7.1C575.4,229.9,575.2,230,575,230z"/>
			<path class="st7" d="M579.5,230c-0.3,0-0.5-0.1-0.7-0.4c-0.3-0.4-0.2-1,0.2-1.3l4.9-3.7c0.4-0.3,1-0.2,1.3,0.2s0.2,1-0.2,1.3
				l-4.9,3.7C579.9,229.9,579.7,230,579.5,230z"/>
		</g>
		<g>
			<text transform="matrix(1 0 0 1 525.5579 282.7655)" class="st3 st4 st5">Metal</text>
		</g>
	</g>
	<g>
		<g>
			<path class="st8" d="M370.4,55.7c62.7,10.8,116.9,36.7,153.9,71.8"/>
			<g>
				<polygon class="st9" points="510.4,129.4 521.7,125 526.3,113.9 536.8,140.4 				"/>
			</g>
		</g>
	</g>
	<g>
		<g>
			<path class="st8" d="M73.3,139.4c33-36.7,83.6-65,143.6-79.2"/>
			<g>
				<polygon class="st9" points="211,72.9 213.3,61.1 206.3,51.2 234.4,56.5 				"/>
			</g>
		</g>
	</g>
	<g>
		<g>
			<text transform="matrix(1 0 0 1 280.7849 133.6112)" class="st3 st4 st5">Earth</text>
		</g>
		<g>
			<path class="st10" d="M305.5,4.3c-29.3,0-53.2,23.9-53.2,53.2s23.9,53.2,53.2,53.2s53.2-23.9,53.2-53.2S334.8,4.3,305.5,4.3z"/>
			
				<linearGradient id="SVGID_3_" gradientUnits="userSpaceOnUse" x1="252.3" y1="234.5" x2="358.7" y2="234.5" gradientTransform="matrix(1 0 0 -1 0 292)">
				<stop  offset="0" style="stop-color:#FFFAC2"/>
				<stop  offset="1" style="stop-color:#F8BB5B"/>
			</linearGradient>
			<path class="st11" d="M305.5,4.3c-29.3,0-53.2,23.9-53.2,53.2s23.9,53.2,53.2,53.2s53.2-23.9,53.2-53.2S334.8,4.3,305.5,4.3z"/>
			<path class="st12" d="M305.5,112.5c-30.3,0-55-24.7-55-55s24.7-55,55-55s55,24.7,55,55S335.8,112.5,305.5,112.5z M305.5,4.3
				c-29.3,0-53.2,23.9-53.2,53.2s23.9,53.2,53.2,53.2s53.2-23.9,53.2-53.2S334.8,4.3,305.5,4.3z"/>
			<path class="st12" d="M318.5,47.7c-12.2,0-24.1-3.4-34.4-9.9c-3.5-2.2-7.4-3.4-11.3-3.6c-0.3,0-0.6,0-1,0
				c-6.5,0-12.8,2.8-17.2,7.6c-0.3,0.4-0.9,0.4-1.3,0.1c-0.4-0.3-0.4-0.9-0.1-1.3c4.8-5.2,11.5-8.2,18.5-8.2c0.4,0,0.7,0,1,0
				c4.2,0.2,8.5,1.5,12.2,3.9c10,6.3,21.6,9.6,33.4,9.6c12.9,0,25.3-3.9,35.9-11.2c0.4-0.3,1-0.2,1.3,0.2s0.2,1-0.2,1.3
				C344.5,43.7,331.7,47.7,318.5,47.7z"/>
			<path class="st12" d="M304.2,46.2c-0.4,0-0.7-0.2-0.8-0.3c-0.6-0.4-0.5-1.2-0.5-1.3c0,0,0,0,0-0.1c1.2-9.7-3.5-10.7-7.2-11.6
				c-0.3-0.1-0.6-0.1-0.9-0.2c-0.5-0.1-1.1-0.3-1.7-0.4c-3.4-0.8-7.6-1.8-9.9-4.2c-0.3-0.3-3.1-3.5-0.2-11.5c0.1-0.4,0.5-0.6,1-0.6
				c0.4,0,0.7,0.4,0.8,0.8c0,0.1,0.5,2.7,5.2,3.6c0.7,0.1,1.4,0.2,2.2,0.4c5,0.7,11.2,1.7,12.3,11.2c0.9,8,1,10.5,0.9,13.3
				c0,0.4-0.3,0.7-0.7,0.8C304.5,46.1,304.3,46.2,304.2,46.2z M284,19.3c-0.6,2.5-1,6,0.4,7.5c1.9,2,5.9,3,9,3.7
				c0.6,0.1,1.2,0.3,1.7,0.4c0.3,0.1,0.5,0.1,0.8,0.2c2.1,0.5,4.9,1.1,6.8,3.6c-0.1-0.8-0.2-1.6-0.3-2.6c-1-8.1-5.7-8.8-10.7-9.6
				c-0.8-0.1-1.5-0.2-2.3-0.4C286.5,21.6,284.9,20.4,284,19.3z"/>
			<path class="st12" d="M304.1,38.7c-0.5,0-0.9-0.4-0.9-0.8v-0.4c-0.6-7.2-1-11.2,6.7-16.1l0.4-0.2c6.8-4.3,9.6-6.1,9.6-8.5
				c0-0.7-0.2-1.2-0.5-1.5c-0.7-0.5-1.9-0.5-2.2-0.4c-0.5,0.1-1-0.2-1.1-0.7s0.2-1,0.7-1.1c0.2,0,2.3-0.4,3.7,0.8
				c0.5,0.5,1.2,1.3,1.2,2.9c-0.1,3.4-3.1,5.3-10.4,10l-0.4,0.2c-6.7,4.3-6.4,7.2-5.8,14.4v0.4C305,38.3,304.6,38.7,304.1,38.7
				L304.1,38.7z"/>
			<path class="st12" d="M305.5,46.4c-0.5,0-0.9-0.4-0.9-0.9c-0.1-7.7,0.8-11.7,3.2-14.3c1.2-1.3,3.2-2.1,5.5-3.2
				c3.2-1.4,6.8-3,8.3-5.7c2.5-4.5-2-10.7-2.1-10.7c-0.3-0.4-0.2-1,0.2-1.3c0.4-0.3,1-0.2,1.3,0.2c0.2,0.3,5.3,7.2,2.2,12.7
				c-1.9,3.3-5.7,5-9.2,6.5c-2.1,0.9-4,1.8-4.9,2.8c-1.7,1.8-2.8,4.7-2.7,13C306.4,46,306,46.4,305.5,46.4L305.5,46.4z"/>
			<path class="st12" d="M316.4,19.1c-0.2,0-0.4-0.1-0.6-0.2c-0.4-0.3-0.4-0.9-0.1-1.3c1.5-1.8,2.1-3.4,1.9-4.7
				c-0.2-1.4-1.3-2.1-1.3-2.1c-0.4-0.3-0.5-0.8-0.3-1.2c0.3-0.4,0.8-0.6,1.2-0.3c0.1,0,1.8,1.1,2.2,3.4c0.3,1.9-0.5,4-2.3,6.2
				C317,19,316.7,19.1,316.4,19.1z"/>
			<path class="st12" d="M267.3,59.9c-0.2,0-0.3,0-0.5-0.1l-12.3-8c-0.4-0.3-0.5-0.8-0.3-1.2l7.4-12c0.1-0.2,0.4-0.4,0.6-0.4
				l8.1-1.2c0.3,0,0.6,0.1,0.8,0.3l8.6,9.3c0.2,0.3,0.3,0.7,0.2,1l-4.3,9.5c-0.1,0.2-0.3,0.4-0.5,0.5l-7.4,2.4
				C267.5,59.9,267.4,59.9,267.3,59.9z M256.2,50.8l11.2,7.3l6.7-2.1l3.9-8.6l-7.8-8.5L263,40L256.2,50.8z"/>
			<path class="st12" d="M301.6,65.8c-0.2,0-0.3,0-0.5-0.1l-9.5-5.9c-0.1-0.1-0.2-0.1-0.3-0.2l-6.3-8.9c-0.1-0.2-0.2-0.4-0.2-0.7
				l1.1-6.8c0-0.3,0.2-0.5,0.4-0.6c0.2-0.1,0.5-0.2,0.7-0.1l11.1,3.4c0.1,0,0.2,0.1,0.3,0.2L306,52c0.3,0.2,0.4,0.6,0.3,1l-3.9,12.2
				c-0.1,0.3-0.3,0.5-0.5,0.6C301.8,65.8,301.7,65.8,301.6,65.8z M292.7,58.4l8.3,5.2l3.4-10.5l-6.9-5.4l-10-3l-0.8,5.4L292.7,58.4z
				"/>
			<path class="st12" d="M312.2,75.6c-0.3,0-0.5-0.1-0.7-0.3l-6.7-7.5c-0.2-0.2-0.3-0.5-0.2-0.8l1.5-8.1c0-0.2,0.1-0.4,0.3-0.5
				l8.3-8.1c0.3-0.2,0.6-0.3,1-0.2l6.1,2.3c0.1,0,0.2,0.1,0.3,0.2l6.6,7.1c0.2,0.2,0.3,0.6,0.2,0.9L325,72.8
				c-0.1,0.3-0.4,0.6-0.7,0.6l-11.9,2.1C312.3,75.6,312.3,75.6,312.2,75.6z M306.4,66.9l6.1,6.8l10.9-1.9l3.6-11.2l-6.1-6.6l-5.4-2
				l-7.7,7.5L306.4,66.9z"/>
			<path class="st12" d="M351.4,62.3c-0.2,0-0.5-0.1-0.6-0.2l-7.8-7.4c-0.2-0.2-0.3-0.5-0.3-0.8l2.1-9.9c0.1-0.2,0.2-0.5,0.4-0.6
				l9.2-5.6c0.4-0.3,1-0.1,1.2,0.3c0.3,0.4,0.1,1-0.3,1.2l-8.9,5.4l-1.9,9l7.1,6.7l7.7-0.8c0.5-0.1,0.9,0.3,1,0.8s-0.3,0.9-0.8,1
				L351.4,62.3L351.4,62.3z"/>
			<path class="st12" d="M342,74.7c-0.1,0-0.2,0-0.3-0.1l-13.2-5.1c-0.2-0.1-0.4-0.3-0.5-0.5s-0.1-0.5,0-0.7l7.7-14.5
				c0.2-0.4,0.6-0.6,1-0.4l5.7,1.6c0.2,0,0.3,0.1,0.4,0.2l10.5,11c0.2,0.2,0.3,0.5,0.2,0.7c0,0.3-0.2,0.5-0.4,0.7l-10.7,7.1
				C342.3,74.6,342.2,74.7,342,74.7z M330,68.2l11.8,4.6l9.4-6.2l-9.6-10l-4.8-1.3L330,68.2z"/>
			<path class="st12" d="M279.8,80.1c-0.2,0-0.3-0.1-0.5-0.1l-9.8-6.5c-0.3-0.2-0.5-0.6-0.4-0.9l1.5-8.8c0-0.3,0.2-0.5,0.4-0.6
				l12.3-7.2c0.2-0.1,0.5-0.2,0.8-0.1l5.4,2.2c0.1,0.1,0.3,0.2,0.4,0.3l7.5,9.9c0.3,0.3,0.2,0.8,0,1.1l-6.6,7.5
				c-0.1,0.1-0.3,0.2-0.4,0.3L280,80C279.9,80.1,279.9,80.1,279.8,80.1z M271,72.3l8.9,5.9l9.7-2.5l5.9-6.8l-6.9-9.1l-4.8-2
				l-11.6,6.7L271,72.3z"/>
			<path class="st12" d="M282.5,102.8c-0.2,0-0.3,0-0.5-0.1l-6.9-4.5c-0.3-0.2-0.4-0.5-0.4-0.8v-4.5c0-0.3,0.2-0.6,0.5-0.8l5.3-2.9
				c0.3-0.1,0.6-0.1,0.8,0l8.9,4.2c0.3,0.2,0.5,0.5,0.5,0.9l-0.6,6.6c0,0.4-0.3,0.7-0.8,0.8l-6.6,1.1
				C282.6,102.8,282.6,102.8,282.5,102.8z M276.5,96.9l6.2,4.1l5.6-0.9l0.5-5.3l-7.9-3.7l-4.4,2.4L276.5,96.9L276.5,96.9z"/>
			<path class="st12" d="M306.9,109.5h-0.1l-6.7-0.8c-0.3,0-0.5-0.2-0.7-0.4c-0.1-0.2-0.2-0.5-0.1-0.8l4.2-11.9
				c0.1-0.4,0.5-0.6,0.9-0.6h4.2c0.5,0,0.9,0.4,0.9,0.8l0.8,8.3c0,0.2,0,0.4-0.1,0.5l-2.5,4.4C307.5,109.4,307.2,109.5,306.9,109.5z
				 M301.4,107.1l5,0.6l2.1-3.6l-0.7-7.2H305L301.4,107.1z"/>
			<path class="st12" d="M303.7,90c-0.2,0-0.3,0-0.5-0.1L293,83.2c-0.2-0.1-0.4-0.4-0.4-0.7c0-0.3,0.1-0.5,0.3-0.7l9.3-9.5
				c0.3-0.3,0.8-0.4,1.2-0.1l8,6.2c0.3,0.2,0.4,0.7,0.3,1l-2,5.2c0,0.1-0.1,0.2-0.2,0.3l-5,4.7C304.2,89.9,304,90,303.7,90z
				 M294.9,82.3l8.8,5.6l4.4-4.1l1.7-4.4l-6.8-5.3L294.9,82.3z"/>
			<path class="st12" d="M332.5,90c-0.2,0-0.3,0-0.5-0.1l-9.3-5.4c-0.4-0.2-0.6-0.7-0.4-1.2l4.8-9.9c0.2-0.4,0.6-0.6,1-0.5l10.8,2.9
				c0.4,0.1,0.6,0.4,0.7,0.8l0.8,7.1c0,0.3-0.1,0.6-0.3,0.8l-7.1,5.4C332.9,89.9,332.7,90,332.5,90z M324.4,83.3l8,4.7l6.2-4.7
				l-0.6-5.9l-9.5-2.5L324.4,83.3z"/>
			<path class="st12" d="M317.5,94.5c-0.2,0-0.3,0-0.5-0.1l-5.3-3.3c-0.2-0.1-0.3-0.3-0.4-0.6c-0.1-0.2,0-0.5,0.1-0.7l4.2-6.8
				c0.3-0.4,0.8-0.5,1.2-0.3l9.2,5.6c0.3,0.2,0.4,0.5,0.4,0.8s-0.2,0.6-0.5,0.8l-8.1,4.5C317.8,94.5,317.7,94.5,317.5,94.5z
				 M313.4,90l4.1,2.5l6.3-3.5l-7.1-4.3L313.4,90z"/>
			<path class="st12" d="M256.8,76.6c-0.3,0-0.6-0.1-0.7-0.4l-3.9-5.4c-0.3-0.4-0.2-1,0.2-1.3s1-0.2,1.3,0.2l3.6,5l8.3-0.9l0.6-10.4
				l-6.2-2l-7.5,2c-0.5,0.1-1-0.2-1.1-0.6c-0.1-0.5,0.2-1,0.6-1.1l7.8-2c0.2,0,0.3,0,0.5,0l7.1,2.3c0.4,0.1,0.6,0.5,0.6,0.9
				l-0.6,11.9c0,0.4-0.4,0.8-0.8,0.8L256.8,76.6C256.9,76.6,256.8,76.6,256.8,76.6z"/>
			<path class="st12" d="M264.5,88.9c-0.3,0-0.7-0.2-0.8-0.5l-3.2-7c-0.2-0.4,0-1,0.4-1.2l6.5-3.2c0.2-0.1,0.5-0.1,0.7,0l5,2
				c0.3,0.1,0.6,0.5,0.6,0.8v7.5c0,0.5-0.4,0.9-0.8,0.9L264.5,88.9C264.6,88.9,264.6,88.9,264.5,88.9z M262.5,81.5l2.6,5.6l6.7-0.6
				v-6.1l-4-1.6L262.5,81.5z"/>
			<path class="st12" d="M293.5,89.5h-7.7c-0.3,0-0.5-0.1-0.7-0.3l-5-6.4c-0.2-0.3-0.2-0.6-0.1-0.9s0.4-0.5,0.7-0.6l6.6-1.1
				c0.2,0,0.4,0,0.6,0.1l3.8,1.9c0.2,0.1,0.4,0.3,0.4,0.5l2.3,5.6c0.1,0.3,0.1,0.6-0.1,0.8C294,89.3,293.8,89.5,293.5,89.5z
				 M286.2,87.7h5.9l-1.6-4.1l-3.2-1.6l-4.8,0.8L286.2,87.7z"/>
			<path class="st12" d="M325.6,103.2c-0.1,0-0.2,0-0.4-0.1c-0.2-0.1-0.4-0.3-0.5-0.6l-2.4-7.5c-0.1-0.2,0-0.5,0.1-0.7
				s0.3-0.4,0.6-0.4l5.5-1.2c0.4-0.1,0.8,0.1,1,0.5l2.7,5.9c0.2,0.4,0,1-0.4,1.2l-5.8,2.8C325.9,103.1,325.7,103.2,325.6,103.2z
				 M324.4,95.5l1.7,5.5l4.1-2l-2-4.4L324.4,95.5z"/>
			<path class="st12" d="M352.7,84.9C352.6,84.9,352.6,84.9,352.7,84.9l-6.4-0.5c-0.5,0-0.8-0.4-0.8-0.9v-7.8c0-0.4,0.3-0.8,0.7-0.9
				l10.7-2c0.5-0.1,1,0.2,1,0.7c0.1,0.5-0.2,1-0.7,1l-10,1.8v6.2l5.5,0.4c0.5,0,0.9,0.5,0.8,1C353.5,84.5,353.1,84.9,352.7,84.9z"/>
		</g>
	</g>
</g>
<g>
	<text transform="matrix(1 0 0 1 401.1527 42.0923)" class="st3 st4 st5">Earth bears Metal</text>
</g>
<g>
	<text transform="matrix(1 0 0 1 20.7916 42.0923)" class="st3 st4 st5">Fire creates Earth(Ash)</text>
</g>
</svg>
