<?xml version="1.0" encoding="utf-8"?>
<!-- Generator: Adobe Illustrator 19.2.1, SVG Export Plug-In . SVG Version: 6.00 Build 0)  -->
<svg version="1.1" id="Layer_1" xmlns="http://www.w3.org/2000/svg" xmlns:xlink="http://www.w3.org/1999/xlink" x="0px" y="0px"
	 viewBox="0 0 155 145" style="enable-background:new 0 0 155 145;" xml:space="preserve">
<style type="text/css">
	.st0{fill:#828282;}
</style>
<g>
	<path class="st0" d="M26.4,65.6c-2.9,0-4.5-2.4-4.5-5.7c0-3.4,1.6-5.8,4.5-5.8H70V12.7c0-3,2.4-4.9,6.1-4.9s6.3,1.9,6.3,4.9v41.4
		h46.9c2.8,0,4.6,2.5,4.6,5.8s-1.8,5.7-4.6,5.7H82.4v60h59.1c2.8,0,4.5,2.5,4.5,5.8s-1.7,5.9-4.5,5.9H13.6c-3,0-4.6-2.6-4.6-5.9
		c0-3.4,1.6-5.8,4.6-5.8H70v-60H26.4z"/>
</g>
</svg>
