<?xml version="1.0" encoding="utf-8"?>
<!-- Generator: Adobe Illustrator 19.2.1, SVG Export Plug-In . SVG Version: 6.00 Build 0)  -->
<svg version="1.1" id="Layer_1" xmlns="http://www.w3.org/2000/svg" xmlns:xlink="http://www.w3.org/1999/xlink" x="0px" y="0px"
	 viewBox="0 0 110 110" style="enable-background:new 0 0 110 110;" xml:space="preserve">
<style type="text/css">
	.st0{fill:#FFFFFF;}
	.st1{opacity:0.5;fill:url(#SVGID_1_);}
	.st2{fill:#F8BB5B;}
</style>
<g>
	<path class="st0" d="M54.8,2C25.5,2,1.6,25.8,1.6,55.2s23.9,53.2,53.2,53.2S108,84.5,108,55.2S84.1,2,54.8,2z"/>
	<linearGradient id="SVGID_1_" gradientUnits="userSpaceOnUse" x1="1.605" y1="55.1617" x2="107.9985" y2="55.1617">
		<stop  offset="0" style="stop-color:#FFFAC2"/>
		<stop  offset="1" style="stop-color:#F8BB5B"/>
	</linearGradient>
	<path class="st1" d="M54.8,2C25.5,2,1.6,25.8,1.6,55.2s23.9,53.2,53.2,53.2S108,84.5,108,55.2S84.1,2,54.8,2z"/>
	<path class="st2" d="M54.8,110.2c-30.3,0-55-24.7-55-55s24.7-55,55-55s55,24.7,55,55S85.1,110.2,54.8,110.2z M54.8,2
		C25.5,2,1.6,25.8,1.6,55.2s23.9,53.2,53.2,53.2S108,84.5,108,55.2S84.1,2,54.8,2z"/>
	<path class="st2" d="M67.8,45.3c-12.2,0-24.1-3.4-34.4-9.9c-3.5-2.2-7.4-3.4-11.3-3.6c-0.3,0-0.6,0-1,0c-6.5,0-12.8,2.8-17.2,7.6
		c-0.3,0.4-0.9,0.4-1.3,0.1c-0.4-0.3-0.4-0.9-0.1-1.3C7.3,33,14.1,30,21.1,30c0.4,0,0.7,0,1,0c4.2,0.2,8.5,1.5,12.2,3.9
		c10,6.3,21.6,9.6,33.4,9.6c12.9,0,25.3-3.9,35.9-11.2c0.4-0.3,1-0.2,1.3,0.2s0.2,1-0.2,1.3C93.8,41.3,81.1,45.3,67.8,45.3z"/>
	<path class="st2" d="M53.5,43.8c-0.4,0-0.7-0.2-0.8-0.3c-0.6-0.4-0.5-1.2-0.5-1.3c0,0,0,0,0-0.1c1.2-9.7-3.5-10.7-7.2-11.6
		c-0.3-0.1-0.6-0.1-0.9-0.2c-0.5-0.1-1.1-0.3-1.7-0.4c-3.4-0.8-7.6-1.8-9.9-4.2c-0.3-0.3-3.1-3.5-0.2-11.5c0.1-0.4,0.5-0.6,1-0.6
		c0.4,0,0.7,0.4,0.8,0.8c0,0.1,0.5,2.7,5.2,3.6c0.7,0.1,1.4,0.2,2.2,0.4c5,0.7,11.2,1.7,12.3,11.2c0.9,8,1,10.5,0.9,13.3
		c0,0.4-0.3,0.7-0.7,0.8C53.8,43.8,53.6,43.8,53.5,43.8z M33.3,17c-0.6,2.5-1,6,0.4,7.5c1.9,2,5.9,3,9,3.7c0.6,0.1,1.2,0.3,1.7,0.4
		c0.3,0.1,0.5,0.1,0.8,0.2c2.1,0.5,4.9,1.1,6.8,3.6c-0.1-0.8-0.2-1.6-0.3-2.6c-1-8.1-5.7-8.8-10.7-9.6c-0.8-0.1-1.5-0.2-2.3-0.4
		C35.9,19.3,34.2,18.1,33.3,17z"/>
	<path class="st2" d="M53.4,36.4c-0.5,0-0.9-0.4-0.9-0.8l0-0.4c-0.6-7.2-1-11.2,6.7-16.1l0.4-0.2c6.8-4.3,9.6-6.1,9.6-8.5
		c0-0.7-0.2-1.2-0.5-1.5c-0.7-0.5-1.9-0.5-2.2-0.4c-0.5,0.1-1-0.2-1.1-0.7c-0.1-0.5,0.2-1,0.7-1.1c0.2,0,2.3-0.4,3.7,0.8
		c0.5,0.5,1.2,1.3,1.2,2.9c-0.1,3.4-3.1,5.3-10.4,10l-0.4,0.2c-6.7,4.3-6.4,7.2-5.8,14.4l0,0.4C54.3,35.9,54,36.3,53.4,36.4
		C53.4,36.4,53.4,36.4,53.4,36.4z"/>
	<path class="st2" d="M54.8,44c-0.5,0-0.9-0.4-0.9-0.9c-0.1-7.7,0.8-11.7,3.2-14.3c1.2-1.3,3.2-2.1,5.5-3.2c3.2-1.4,6.8-3,8.3-5.7
		c2.5-4.5-2-10.7-2.1-10.7c-0.3-0.4-0.2-1,0.2-1.3c0.4-0.3,1-0.2,1.3,0.2c0.2,0.3,5.3,7.2,2.2,12.7c-1.9,3.3-5.7,5-9.2,6.5
		c-2.1,0.9-4,1.8-4.9,2.8c-1.7,1.8-2.8,4.7-2.7,13C55.7,43.6,55.3,44,54.8,44C54.8,44,54.8,44,54.8,44z"/>
	<path class="st2" d="M65.8,16.7c-0.2,0-0.4-0.1-0.6-0.2c-0.4-0.3-0.4-0.9-0.1-1.3c1.5-1.8,2.1-3.4,1.9-4.7
		c-0.2-1.4-1.3-2.1-1.3-2.1c-0.4-0.3-0.5-0.8-0.3-1.2c0.3-0.4,0.8-0.6,1.2-0.3c0.1,0,1.8,1.1,2.2,3.4c0.3,1.9-0.5,4-2.3,6.2
		C66.3,16.6,66,16.7,65.8,16.7z"/>
	<path class="st2" d="M16.7,57.6c-0.2,0-0.3,0-0.5-0.1l-12.3-8c-0.4-0.3-0.5-0.8-0.3-1.2l7.4-12c0.1-0.2,0.4-0.4,0.6-0.4l8.1-1.2
		c0.3,0,0.6,0.1,0.8,0.3l8.6,9.3c0.2,0.3,0.3,0.7,0.2,1l-4.3,9.5c-0.1,0.2-0.3,0.4-0.5,0.5l-7.4,2.4C16.9,57.5,16.8,57.6,16.7,57.6z
		 M5.6,48.4l11.2,7.3l6.7-2.1l3.9-8.6l-7.8-8.5l-7.2,1.1L5.6,48.4z"/>
	<path class="st2" d="M50.9,63.4c-0.2,0-0.3,0-0.5-0.1L41,57.4c-0.1-0.1-0.2-0.1-0.3-0.2l-6.3-8.9c-0.1-0.2-0.2-0.4-0.2-0.7l1.1-6.8
		c0-0.3,0.2-0.5,0.4-0.6c0.2-0.1,0.5-0.2,0.7-0.1l11.1,3.4c0.1,0,0.2,0.1,0.3,0.2l7.5,5.9c0.3,0.2,0.4,0.6,0.3,1l-3.9,12.2
		c-0.1,0.3-0.3,0.5-0.5,0.6C51.1,63.4,51,63.4,50.9,63.4z M42.1,56l8.3,5.2l3.4-10.5l-6.9-5.4l-10-3l-0.8,5.4L42.1,56z"/>
	<path class="st2" d="M61.5,73.2c-0.3,0-0.5-0.1-0.7-0.3l-6.7-7.5c-0.2-0.2-0.3-0.5-0.2-0.8l1.5-8.1c0-0.2,0.1-0.4,0.3-0.5l8.3-8.1
		c0.3-0.2,0.6-0.3,1-0.2L71,50c0.1,0,0.2,0.1,0.3,0.2l6.6,7.1c0.2,0.2,0.3,0.6,0.2,0.9l-3.9,12.2c-0.1,0.3-0.4,0.6-0.7,0.6
		l-11.9,2.1C61.6,73.2,61.6,73.2,61.5,73.2z M55.8,64.5l6.1,6.8l10.9-1.9l3.6-11.2l-6.1-6.6l-5.4-2l-7.7,7.5L55.8,64.5z"/>
	<path class="st2" d="M100.7,60c-0.2,0-0.5-0.1-0.6-0.2l-7.8-7.4c-0.2-0.2-0.3-0.5-0.3-0.8l2.1-9.9c0.1-0.2,0.2-0.5,0.4-0.6l9.2-5.6
		c0.4-0.3,1-0.1,1.2,0.3c0.3,0.4,0.1,1-0.3,1.2l-8.9,5.4l-1.9,9l7.1,6.7l7.7-0.8c0.5-0.1,0.9,0.3,1,0.8c0.1,0.5-0.3,0.9-0.8,1
		L100.7,60C100.8,60,100.7,60,100.7,60z"/>
	<path class="st2" d="M91.3,72.3c-0.1,0-0.2,0-0.3-0.1l-13.2-5.1c-0.2-0.1-0.4-0.3-0.5-0.5c-0.1-0.2-0.1-0.5,0-0.7L85,51.4
		c0.2-0.4,0.6-0.6,1-0.4l5.7,1.6c0.2,0,0.3,0.1,0.4,0.2l10.5,11c0.2,0.2,0.3,0.5,0.2,0.7c0,0.3-0.2,0.5-0.4,0.7l-10.7,7.1
		C91.7,72.2,91.5,72.3,91.3,72.3z M79.4,65.8l11.8,4.6l9.4-6.2l-9.6-10l-4.8-1.3L79.4,65.8z"/>
	<path class="st2" d="M29.1,77.7c-0.2,0-0.3-0.1-0.5-0.1l-9.8-6.5c-0.3-0.2-0.5-0.6-0.4-0.9l1.5-8.8c0-0.3,0.2-0.5,0.4-0.6l12.3-7.2
		c0.2-0.1,0.5-0.2,0.8-0.1l5.4,2.2c0.1,0.1,0.3,0.2,0.4,0.3l7.5,9.9c0.3,0.3,0.2,0.8,0,1.1l-6.6,7.5c-0.1,0.1-0.3,0.2-0.4,0.3
		l-10.4,2.7C29.3,77.7,29.2,77.7,29.1,77.7z M20.3,69.9l8.9,5.9l9.7-2.5l5.9-6.8L38,57.4l-4.8-2l-11.6,6.7L20.3,69.9z"/>
	<path class="st2" d="M31.8,100.4c-0.2,0-0.3,0-0.5-0.1l-6.9-4.5C24.2,95.6,24,95.3,24,95v-4.5c0-0.3,0.2-0.6,0.5-0.8l5.3-2.9
		c0.3-0.1,0.6-0.1,0.8,0l8.9,4.2c0.3,0.2,0.5,0.5,0.5,0.9l-0.6,6.6c0,0.4-0.3,0.7-0.8,0.8l-6.6,1.1
		C31.9,100.4,31.9,100.4,31.8,100.4z M25.8,94.5l6.2,4.1l5.6-0.9l0.5-5.3l-7.9-3.7L25.8,91V94.5z"/>
	<path class="st2" d="M56.2,107.2c0,0-0.1,0-0.1,0l-6.7-0.8c-0.3,0-0.5-0.2-0.7-0.4c-0.1-0.2-0.2-0.5-0.1-0.8l4.2-11.9
		c0.1-0.4,0.5-0.6,0.9-0.6H58c0.5,0,0.9,0.4,0.9,0.8l0.8,8.3c0,0.2,0,0.4-0.1,0.5l-2.5,4.4C56.8,107,56.5,107.2,56.2,107.2z
		 M50.8,104.7l5,0.6l2.1-3.6l-0.7-7.2h-2.8L50.8,104.7z"/>
	<path class="st2" d="M53.1,87.6c-0.2,0-0.3,0-0.5-0.1l-10.3-6.6c-0.2-0.1-0.4-0.4-0.4-0.7c0-0.3,0.1-0.5,0.3-0.7l9.3-9.5
		c0.3-0.3,0.8-0.4,1.2-0.1l8,6.2c0.3,0.2,0.4,0.7,0.3,1l-2,5.2c0,0.1-0.1,0.2-0.2,0.3l-5,4.7C53.5,87.5,53.3,87.6,53.1,87.6z
		 M44.2,79.9l8.8,5.6l4.4-4.1l1.7-4.4l-6.8-5.3L44.2,79.9z"/>
	<path class="st2" d="M81.9,87.6c-0.2,0-0.3,0-0.5-0.1l-9.3-5.4c-0.4-0.2-0.6-0.7-0.4-1.2l4.8-9.9c0.2-0.4,0.6-0.6,1-0.5l10.8,2.9
		c0.4,0.1,0.6,0.4,0.7,0.8l0.8,7.1c0,0.3-0.1,0.6-0.3,0.8l-7.1,5.4C82.2,87.6,82,87.6,81.9,87.6z M73.8,80.9l8,4.7l6.2-4.7L87.3,75
		l-9.5-2.5L73.8,80.9z"/>
	<path class="st2" d="M66.9,92.1c-0.2,0-0.3,0-0.5-0.1l-5.3-3.3c-0.2-0.1-0.3-0.3-0.4-0.6c-0.1-0.2,0-0.5,0.1-0.7l4.2-6.8
		c0.3-0.4,0.8-0.5,1.2-0.3l9.2,5.6c0.3,0.2,0.4,0.5,0.4,0.8c0,0.3-0.2,0.6-0.5,0.8L67.3,92C67.2,92.1,67,92.1,66.9,92.1z M62.8,87.6
		l4.1,2.5l6.3-3.5l-7.1-4.3L62.8,87.6z"/>
	<path class="st2" d="M6.1,74.2c-0.3,0-0.6-0.1-0.7-0.4l-3.9-5.4c-0.3-0.4-0.2-1,0.2-1.3c0.4-0.3,1-0.2,1.3,0.2l3.6,5l8.3-0.9
		l0.6-10.4l-6.2-2l-7.5,2c-0.5,0.1-1-0.2-1.1-0.6c-0.1-0.5,0.2-1,0.6-1.1l7.8-2c0.2,0,0.3,0,0.5,0l7.1,2.3c0.4,0.1,0.6,0.5,0.6,0.9
		l-0.6,11.9c0,0.4-0.4,0.8-0.8,0.8L6.1,74.2C6.2,74.2,6.1,74.2,6.1,74.2z"/>
	<path class="st2" d="M13.9,86.6c-0.3,0-0.7-0.2-0.8-0.5l-3.2-7c-0.2-0.4,0-1,0.4-1.2l6.5-3.2c0.2-0.1,0.5-0.1,0.7,0l5,2
		c0.3,0.1,0.6,0.5,0.6,0.8v7.5c0,0.5-0.4,0.9-0.8,0.9L13.9,86.6C13.9,86.6,13.9,86.6,13.9,86.6z M11.8,79.1l2.6,5.6l6.7-0.6V78
		l-4-1.6L11.8,79.1z"/>
	<path class="st2" d="M42.8,87.1h-7.7c-0.3,0-0.5-0.1-0.7-0.3l-5-6.4c-0.2-0.3-0.2-0.6-0.1-0.9c0.1-0.3,0.4-0.5,0.7-0.6l6.6-1.1
		c0.2,0,0.4,0,0.6,0.1l3.8,1.9c0.2,0.1,0.4,0.3,0.4,0.5l2.3,5.6c0.1,0.3,0.1,0.6-0.1,0.8C43.4,86.9,43.1,87.1,42.8,87.1z M35.6,85.3
		h5.9l-1.6-4.1l-3.2-1.6l-4.8,0.8L35.6,85.3z"/>
	<path class="st2" d="M74.9,100.8c-0.1,0-0.2,0-0.4-0.1c-0.2-0.1-0.4-0.3-0.5-0.6l-2.4-7.5c-0.1-0.2,0-0.5,0.1-0.7
		c0.1-0.2,0.3-0.4,0.6-0.4l5.5-1.2c0.4-0.1,0.8,0.1,1,0.5l2.7,5.9c0.2,0.4,0,1-0.4,1.2l-5.8,2.8C75.2,100.8,75.1,100.8,74.9,100.8z
		 M73.7,93.1l1.7,5.5l4.1-2l-2-4.4L73.7,93.1z"/>
	<path class="st2" d="M102,82.5C102,82.5,101.9,82.5,102,82.5l-6.4-0.5c-0.5,0-0.8-0.4-0.8-0.9v-7.8c0-0.4,0.3-0.8,0.7-0.9l10.7-2
		c0.5-0.1,1,0.2,1,0.7c0.1,0.5-0.2,1-0.7,1l-10,1.8v6.2l5.5,0.4c0.5,0,0.9,0.5,0.8,1C102.9,82.2,102.5,82.5,102,82.5z"/>
</g>
</svg>
