<?xml version="1.0" encoding="utf-8"?>
<!-- Generator: Adobe Illustrator 19.2.1, SVG Export Plug-In . SVG Version: 6.00 Build 0)  -->
<svg version="1.1" id="Layer_1" xmlns="http://www.w3.org/2000/svg" xmlns:xlink="http://www.w3.org/1999/xlink" x="0px" y="0px"
	 viewBox="0 0 205 205" style="enable-background:new 0 0 205 205;" xml:space="preserve">
<style type="text/css">
	.st0{fill:url(#SVGID_1_);}
</style>
<linearGradient id="SVGID_1_" gradientUnits="userSpaceOnUse" x1="3.1803" y1="103.1165" x2="203.1803" y2="103.1165">
	<stop  offset="0" style="stop-color:#FFFFFF"/>
	<stop  offset="1" style="stop-color:#B5B7B9"/>
</linearGradient>
<path class="st0" d="M194.6,62.5c0-0.2-0.1-0.4-0.2-0.5c-15.7-34.7-50.7-58.9-91.1-58.9c-44.5,0-82.3,29.2-95.2,69.5
	c-0.1,0.1-0.1,0.3-0.2,0.5c-3,9.5-4.6,19.6-4.6,30c0,8.1,1,16,2.8,23.5c0,0.1,0,0.2,0.1,0.3c10.7,43.7,50.2,76.2,97.1,76.2
	c37.3,0,69.8-20.5,87-50.8c0.1-0.2,0.2-0.3,0.3-0.5c3.2-5.8,5.9-12,8-18.4c0.1-0.1,0.1-0.3,0.1-0.4c2.4-7.7,3.9-15.8,4.4-24.2
	c0,0,0,0,0-0.1c0.1-1.8,0.2-3.7,0.2-5.6C203.2,88.7,200.1,74.9,194.6,62.5z M103.2,6.4c38.8,0,72.3,22.9,87.7,55.9
	c-19,12.8-41.1,19.6-64.1,19.6c-7.4,0-14.8-0.7-22-2.1c0-14.1,1.9-19.1,4.9-22.3c1.7-1.8,5.2-3.4,9-5c6.2-2.7,13.3-5.9,16.7-11.8
	c5.7-10-3.6-22.6-4-23.1c0,0,0,0,0,0c-0.3-0.5-0.7-0.8-1-1.1c-2.6-2.2-6.4-1.5-6.8-1.4c0,0,0,0,0,0c0,0-0.1,0-0.1,0
	c-0.8,0.2-1.3,1-1.2,1.9c0.1,0.3,0.2,0.6,0.5,0.9c0,0,0,0,0,0c0.1,0.1,0.2,0.1,0.2,0.2c0,0,0,0,0,0c0.1,0.1,2,1.3,2.4,3.9
	c0.4,2.4-0.8,5.3-3.4,8.4c-2.6,1.9-6,4-10.3,6.8l-0.6,0.4c-6.6,4.2-9.9,8-11.4,12.3c-3.9-11-13.1-12.4-20.8-13.5
	c-1.4-0.2-2.7-0.4-4-0.6c-8.7-1.6-9.5-6.4-9.5-6.6c-0.1-0.8-0.7-1.3-1.4-1.4c-0.8-0.1-1.5,0.4-1.7,1.1c-5.2,14.5-0.2,20.3,0.4,20.9
	c4.2,4.4,11.9,6.2,18.1,7.6c1.1,0.3,2.1,0.5,3.1,0.7c0.5,0.1,1,0.2,1.6,0.4c6.7,1.5,15,3.4,13.2,20C87,75.5,76.1,70.8,66,64.5
	c-6.8-4.3-14.5-6.7-22.2-7c-0.6,0-1.3,0-1.9,0c-10.5,0-20.6,3.6-28.6,10.1C27.5,31.8,62.4,6.4,103.2,6.4z M102.2,66.4
	c-1.1-13-1.6-18.4,10.6-26.2l0.6-0.4c4.3-2.8,7.9-5,10.6-7c0,0,0,0,0.1,0c4.1-2.9,6.6-5.3,7.6-7.9c1.8,4,3.3,9.6,0.7,14.1
	c-2.9,5-9.4,7.9-15.1,10.4c-4.2,1.9-7.9,3.5-10,5.8c-2.6,2.7-4.2,6.5-5,12.1c0-0.1,0-0.1,0-0.2c0,0,0,0,0,0L102.2,66.4z M128.6,21.3
	c-0.2-1-0.5-1.9-0.9-2.7c0.2,0.1,0.3,0.2,0.5,0.3c0.7,0.6,1,1.4,0.9,2.7c0,0.7-0.2,1.4-0.5,2.1C128.7,23,128.7,22.1,128.6,21.3z
	 M98.4,61.6C95,57.2,89.8,56,86,55.2c-0.5-0.1-1-0.2-1.5-0.4c-1-0.3-2.1-0.5-3.2-0.8c-5.8-1.3-12.9-3-16.4-6.7
	c-2.6-2.8-1.9-9.1-0.8-13.7c1.7,2,4.7,4.2,10.1,5.2c1.4,0.3,2.8,0.5,4.1,0.7c9.2,1.4,17.8,2.6,19.5,17.4
	C98.1,58.7,98.2,60.2,98.4,61.6z M7.1,113.8l13.3-3.5l11.2,3.6l-1,18.9l-15.2,1.7l-6.3-8.7C8.2,121.8,7.5,117.8,7.1,113.8z
	 M188,149.5l-8.9-0.7v-11.3l15.5-2.8C192.8,139.9,190.6,144.8,188,149.5z M195.7,131.2l-18.5,3.4c-0.8,0.1-1.3,0.8-1.3,1.6v14.2
	c0,0.9,0.7,1.6,1.5,1.6l8.8,0.7c-16.9,28.2-47.8,47.2-83,47.2c-42.1,0-78-27-91.2-64.6l1.4,1.9c0.3,0.4,0.8,0.7,1.3,0.7
	c0.1,0,0.1,0,0.2,0l17.5-1.9c0.8-0.1,1.4-0.7,1.5-1.5l1.2-21.6c0-0.7-0.4-1.4-1.1-1.7L20.9,107c-0.3-0.1-0.6-0.1-0.9,0l-13.2,3.5
	c-0.2-2.4-0.3-4.9-0.3-7.4C6.5,93,8,83.3,10.9,74.2c8-8.6,19.3-13.5,31-13.5c0.6,0,1.2,0,1.8,0c7.1,0.3,14.2,2.6,20.6,6.5
	C75.2,74.1,87,79,99.4,82c0.3,0.2,0.7,0.5,1.4,0.5c0.1,0,0.3,0,0.4,0c0.5,0.1,1,0.2,1.5,0.3c0.1,0,0.2,0.1,0.4,0.1
	c7.8,1.6,15.7,2.4,23.7,2.4c23.5,0,46-6.9,65.4-19.8c0.2,0.5,0.4,1.1,0.7,1.6c-0.3,0-0.5,0.1-0.8,0.2l-16.7,10.2
	c-0.4,0.2-0.7,0.6-0.8,1.1l-3.8,18c-0.1,0.6,0.1,1.1,0.5,1.5l14.2,13.4c0.3,0.3,0.7,0.4,1.1,0.4c0.1,0,0.1,0,0.2,0l12.8-1.4
	C199.1,117.6,197.8,124.5,195.7,131.2z M199.8,107.1l-12.6,1.4l-13-12.2l3.5-16.4l16.1-9.8c0.1,0,0.1-0.1,0.2-0.1
	c3.8,10.4,5.9,21.6,5.9,33.3C199.9,104.5,199.9,105.8,199.8,107.1z M48.9,102.1l7.8-17.2c0.3-0.6,0.2-1.3-0.3-1.8L40.8,66.2
	c-0.4-0.4-0.9-0.6-1.4-0.5l-14.8,2.2c-0.5,0.1-0.9,0.4-1.2,0.8L10,90.5c-0.5,0.8-0.2,1.7,0.5,2.2L33,107.2c0.3,0.2,0.6,0.3,0.9,0.3
	c0.2,0,0.3,0,0.5-0.1l13.5-4.4C48.3,102.9,48.7,102.6,48.9,102.1z M34.1,104L13.7,90.8L25.8,71L39,69.1l14.3,15.5l-7,15.6L34.1,104z
	 M77.5,106.8c0.1,0.2,0.3,0.3,0.5,0.4l17.2,10.7c0.3,0.2,0.6,0.2,0.9,0.2c0.2,0,0.4,0,0.6-0.1c0.5-0.2,0.8-0.6,1-1l7.1-22.1
	c0.2-0.7,0-1.4-0.5-1.8L90.5,82.3c-0.2-0.1-0.3-0.2-0.5-0.3l-20.2-6.1c-0.5-0.1-0.9-0.1-1.3,0.2c-0.4,0.3-0.7,0.7-0.7,1.1l-1.9,12.3
	c-0.1,0.4,0,0.9,0.3,1.2L77.5,106.8z M70.6,79.6l18.1,5.5l12.5,9.9l-6.1,19L80,104.6L69.1,89.3L70.6,79.6z M104.3,105.5l-2.7,14.8
	c-0.1,0.5,0.1,1,0.4,1.4l12.2,13.7c0.3,0.4,0.8,0.5,1.2,0.5c0.1,0,0.2,0,0.3,0l21.7-3.8c0.6-0.1,1.1-0.5,1.3-1.1l7.1-22.1
	c0.2-0.6,0-1.2-0.4-1.6l-12.1-13c-0.2-0.2-0.4-0.3-0.6-0.4l-11.1-4.2c-0.6-0.2-1.3-0.1-1.7,0.4l-15,14.7
	C104.5,104.9,104.3,105.2,104.3,105.5z M107.4,106.6L121.3,93l9.8,3.7l11.2,12l-6.5,20.3l-19.8,3.5l-11.1-12.4L107.4,106.6z
	 M170.3,98.3l-10.4-2.9c-0.7-0.2-1.5,0.1-1.9,0.8l-13.9,26.4c-0.2,0.4-0.3,0.9-0.1,1.3c0.2,0.4,0.5,0.8,0.9,1l24,9.3
	c0.2,0.1,0.4,0.1,0.6,0.1c0.3,0,0.6-0.1,0.9-0.3l19.4-12.8c0.4-0.3,0.7-0.7,0.7-1.2c0.1-0.5-0.1-1-0.4-1.3L171,98.7
	C170.8,98.5,170.6,98.3,170.3,98.3z M169.4,130.8l-21.5-8.3l12.5-23.6l8.7,2.4l17.5,18.2L169.4,130.8z M39.8,114.5l-2.7,15.9
	c-0.1,0.6,0.2,1.3,0.7,1.6l17.8,11.7c0.3,0.2,0.6,0.3,0.9,0.3c0.1,0,0.3,0,0.4-0.1l18.9-4.9c0.3-0.1,0.6-0.3,0.8-0.5l12-13.7
	c0.5-0.6,0.5-1.5,0.1-2.1l-13.7-18c-0.2-0.2-0.4-0.4-0.7-0.5l-9.8-4.1c-0.5-0.2-1-0.2-1.5,0.1l-22.4,13
	C40.2,113.6,39.9,114,39.8,114.5z M64,103.6l8.7,3.6l12.6,16.6l-10.8,12.3l-17.7,4.6l-16.3-10.8l2.4-14.1L64,103.6z M75.2,168.3
	l-16.1-7.7c-0.5-0.2-1-0.2-1.5,0l-9.6,5.2c-0.5,0.3-0.9,0.8-0.9,1.4v8.2c0,0.6,0.3,1.1,0.7,1.4l12.6,8.2c0.3,0.2,0.6,0.3,0.9,0.3
	c0.1,0,0.2,0,0.3,0l12-1.9c0.7-0.1,1.3-0.7,1.4-1.5l1.1-12C76.2,169.2,75.8,168.6,75.2,168.3z M71.9,180.4L61.8,182l-11.3-7.4v-6.3
	l8-4.3l14.3,6.8L71.9,180.4z M108.9,171.3h-7.7c-0.7,0-1.3,0.4-1.5,1.1l-7.6,21.7c-0.2,0.5-0.1,1,0.2,1.4c0.3,0.4,0.7,0.7,1.2,0.8
	l12.1,1.4c0.1,0,0.1,0,0.2,0c0.6,0,1.1-0.3,1.4-0.8l4.5-7.9c0.2-0.3,0.2-0.6,0.2-1l-1.4-15.2C110.5,171.9,109.8,171.3,108.9,171.3z
	 M104.9,194.3l-9-1l6.6-18.7h5l1.2,13.2L104.9,194.3z M99.3,130c-0.7-0.5-1.6-0.4-2.2,0.1l-16.9,17.2c-0.3,0.4-0.5,0.8-0.5,1.3
	c0.1,0.5,0.3,0.9,0.7,1.2l18.7,12c0.3,0.2,0.6,0.3,0.9,0.3c0.4,0,0.8-0.2,1.1-0.4l9.1-8.6c0.2-0.2,0.3-0.4,0.4-0.6l3.6-9.5
	c0.3-0.7,0-1.4-0.5-1.9L99.3,130z M107.8,151l-7.9,7.4l-15.9-10.2l14.5-14.7l12.4,9.6L107.8,151z M164.3,136.2l-19.7-5.2
	c-0.8-0.2-1.6,0.2-1.9,0.9l-8.6,18c-0.4,0.8-0.1,1.7,0.7,2.1l16.8,9.8c0.3,0.2,0.5,0.2,0.8,0.2c0.4,0,0.7-0.1,1-0.3l12.8-9.8
	c0.5-0.3,0.7-0.9,0.6-1.5l-1.4-12.8C165.4,137,164.9,136.4,164.3,136.2z M152.2,158.5l-14.6-8.5l7.4-15.4l17.3,4.6l1.1,10.8
	L152.2,158.5z M141.4,160.5c0-0.6-0.3-1.1-0.8-1.4L124,149c-0.8-0.5-1.8-0.2-2.2,0.5l-7.7,12.3c-0.2,0.4-0.3,0.8-0.2,1.2
	c0.1,0.4,0.4,0.8,0.7,1l9.7,6c0.3,0.2,0.6,0.2,0.9,0.2c0.3,0,0.6-0.1,0.8-0.2l14.7-8.2C141.1,161.6,141.4,161.1,141.4,160.5z
	 M125.1,166.8l-7.5-4.6l6-9.5l12.9,7.8L125.1,166.8z M44.2,142l-9-3.6c-0.4-0.2-0.9-0.1-1.3,0.1l-11.7,5.9c-0.8,0.4-1.1,1.4-0.8,2.2
	l5.9,12.7c0.3,0.6,0.9,1,1.5,1c0,0,0.1,0,0.2,0l14.9-1.4c0.8-0.1,1.5-0.8,1.5-1.6v-13.7C45.3,142.9,44.8,142.3,44.2,142z M42,155.7
	l-12.2,1.1L25,146.6l9.7-4.8l7.3,2.9V155.7z M78.7,148.7c-0.1-0.4-0.4-0.7-0.8-0.9l-6.8-3.4c-0.3-0.2-0.7-0.2-1-0.1l-12,2
	c-0.6,0.1-1,0.5-1.3,1c-0.2,0.5-0.1,1.1,0.2,1.6l9,11.6c0.3,0.4,0.8,0.6,1.3,0.6h13.9c0.5,0,1.1-0.3,1.4-0.7c0.3-0.5,0.4-1,0.2-1.5
	L78.7,148.7z M68.2,157.9l-6.8-8.8l8.8-1.5l5.8,2.9l3,7.4H68.2z M147,168c-0.3-0.7-1.1-1.1-1.8-0.9l-10,2.2
	c-0.4,0.1-0.8,0.4-1.1,0.8c-0.2,0.4-0.3,0.9-0.1,1.3l4.3,13.6c0.1,0.5,0.5,0.8,0.9,1c0.2,0.1,0.4,0.1,0.6,0.1c0.2,0,0.5-0.1,0.7-0.2
	l10.6-5.1c0.8-0.4,1.1-1.3,0.8-2.2L147,168z M140.8,182.2l-3.2-10.1l7-1.5l3.6,8L140.8,182.2z"/>
</svg>
