<?xml version="1.0" encoding="utf-8"?>
<!-- Generator: Adobe Illustrator 19.2.1, SVG Export Plug-In . SVG Version: 6.00 Build 0)  -->
<svg version="1.1" id="Layer_1" xmlns="http://www.w3.org/2000/svg" xmlns:xlink="http://www.w3.org/1999/xlink" x="0px" y="0px"
	 viewBox="0 0 110 110" style="enable-background:new 0 0 110 110;" xml:space="preserve">
<style type="text/css">
	.st0{fill:#FFFFFF;stroke:#F9846B;stroke-miterlimit:10;}
	.st1{opacity:0.5;fill:url(#SVGID_1_);stroke:#F9846B;stroke-miterlimit:10;}
	.st2{fill:#F56157;}
</style>
<g>
	<path class="st0" d="M55,1.8C25.7,1.8,1.8,25.7,1.8,55s23.9,53.2,53.2,53.2s53.2-23.9,53.2-53.2S84.3,1.8,55,1.8z"/>
	<linearGradient id="SVGID_1_" gradientUnits="userSpaceOnUse" x1="1.8033" y1="55" x2="108.1967" y2="55">
		<stop  offset="0" style="stop-color:#F59F8E"/>
		<stop  offset="1" style="stop-color:#F56157"/>
	</linearGradient>
	<path class="st1" d="M55,1.8C25.7,1.8,1.8,25.7,1.8,55s23.9,53.2,53.2,53.2s53.2-23.9,53.2-53.2S84.3,1.8,55,1.8z"/>
	<path class="st2" d="M55,110C24.7,110,0,85.3,0,55S24.7,0,55,0s55,24.7,55,55S85.3,110,55,110z M55,1.8C25.7,1.8,1.8,25.7,1.8,55
		s23.9,53.2,53.2,53.2s53.2-23.9,53.2-53.2S84.3,1.8,55,1.8z"/>
	<path class="st2" d="M33.3,93.7c-0.2,0-0.4-0.1-0.6-0.2c-5.3-4.5-8.3-11-8.3-17.9c0-11.2,5.7-19.5,15.3-22.3
		C48,49.9,53.3,42,53.3,33c0-8.1-4.4-15.4-11.5-19.2c-0.4-0.2-0.6-0.8-0.4-1.2c0.2-0.4,0.8-0.6,1.2-0.4c7.7,4.1,12.5,12.1,12.5,20.8
		c0,9.7-5.8,18.3-14.8,21.9c0,0-0.1,0-0.1,0c-8.8,2.6-14.1,10.3-14.1,20.6c0,6.4,2.8,12.4,7.6,16.6c0.4,0.3,0.4,0.9,0.1,1.3
		C33.8,93.6,33.5,93.7,33.3,93.7z"/>
	<path class="st2" d="M24.1,80.1c-0.2,0-0.5-0.1-0.6-0.3c-4.5-4.5-7-10.4-7-16.8c0-7.3,5-15,9.6-19.1c7.8-6.9,11.8-16.8,11.1-27.2
		c0-0.4,0.2-0.7,0.5-0.9c0.4-0.2,0.8-0.1,1,0.2c1.9,2.1,3.5,4.3,5,6.6c0.3,0.4,0.1,1-0.3,1.2c-0.4,0.3-1,0.1-1.2-0.3
		c-0.9-1.5-2-3-3.1-4.4c-0.1,9.9-4.3,19.3-11.8,26c-4.3,3.8-8.9,10.9-8.9,17.7c0,5.9,2.3,11.4,6.5,15.5c0.4,0.3,0.4,0.9,0,1.3
		C24.5,80,24.3,80.1,24.1,80.1z"/>
	<path class="st2" d="M70.4,99.8c-0.2,0-0.4-0.1-0.6-0.2c-0.4-0.3-0.4-0.9-0.1-1.3c6-7.4,9.5-16.7,9.5-24.8
		c0-11.6-5.3-22.6-14.2-29.8c0.3,2.1,0.5,4.2,0.5,6.3c0,9.5-3.4,18.7-9.5,26c-0.3,0.4-0.9,0.4-1.3,0.1c-0.4-0.3-0.4-0.9-0.1-1.3
		c5.9-6.9,9.1-15.7,9.1-24.8c0-2.8-0.3-5.5-0.9-8.2c-0.1-0.4,0.1-0.7,0.4-0.9c0.3-0.2,0.7-0.2,1,0C74.7,48.3,81,60.5,81,73.5
		c0,8.7-3.6,18.1-9.9,26C70.9,99.6,70.7,99.8,70.4,99.8z"/>
	<path class="st2" d="M59.1,103.4c-12,0-23.2-5.3-30.9-14.5c-0.3-0.4-0.3-1,0.1-1.3c0.4-0.3,1-0.3,1.3,0.1
		c7.3,8.8,18.1,13.9,29.5,13.9c21.1,0,38.3-17.2,38.3-38.3c0-14.9-8.8-28.6-22.4-34.9c-0.5-0.2-0.7-0.7-0.4-1.2
		c0.2-0.5,0.7-0.7,1.2-0.4C90,33.3,99.2,47.7,99.2,63.3C99.2,85.4,81.2,103.4,59.1,103.4z"/>
	<g>
		<path class="st2" d="M61,103.4c-8.1,0-14.7-6.6-14.7-14.7c0-2.7,0.8-5.4,2.2-7.7c0.9-1.4,2-2.7,3.2-3.7c6.9-5.5,12.1-14.2,14-23.4
			c0.1-0.3,0.3-0.6,0.7-0.7c0.3-0.1,0.7,0,0.9,0.3c6.4,7.3,9.9,16.7,9.9,26.4c0,4-0.6,8-1.8,11.9c0,0.1-0.8,2.8-1.6,4.4l0,0
			c-0.4,0.8-1.1,1.8-1.8,2.5C69.2,101.7,65.2,103.4,61,103.4z M67,56.1c-2.2,8.9-7.4,17.2-14.2,22.6c-1.1,0.9-2,2-2.8,3.2
			c-1.3,2-1.9,4.4-1.9,6.8c0,7.1,5.8,12.9,12.9,12.9c3.6,0,7.1-1.6,9.6-4.3c0.5-0.6,1.2-1.5,1.5-2.1l0,0c0.8-1.4,1.5-4,1.5-4
			c1.1-3.7,1.7-7.5,1.7-11.4C75.3,71.2,72.4,62.8,67,56.1z"/>
	</g>
	<path class="st2" d="M49.6,99.4c-7.6,0-14.9-3.2-20.1-8.7c-4.8-5.1-7.4-11.8-7.4-18.8c0-7.9,3.2-15.3,8.8-20.4
		c9.9-10.1,13.5-24.7,9.3-38.2c-0.1-0.3,0-0.6,0.1-0.8c0.2-0.2,0.4-0.4,0.7-0.4c13.5,0,28.4,6.8,35.4,16.1
		c9.2,7.7,14.5,18.9,14.5,30.9c0,11.1-4.7,21.8-12.8,29.4c-0.4,0.3-0.9,0.3-1.3,0c-0.3-0.4-0.3-0.9,0-1.3c7.8-7.2,12.2-17.4,12.2-28
		c0-11.5-5.1-22.3-13.9-29.6c-0.1,0-0.1-0.1-0.1-0.2c-6.5-8.7-20.2-15-32.8-15.4c3.8,13.8,0,28.5-10.1,38.7c0,0-0.1,0.1-0.1,0.1
		c-5.2,4.8-8.2,11.7-8.2,19.1c0,6.5,2.5,12.8,6.9,17.6c4.9,5.2,11.6,8.1,18.7,8.1c0.5,0,0.9,0.4,0.9,0.9S50.1,99.4,49.6,99.4z"/>
</g>
</svg>
