<?xml version="1.0" encoding="utf-8"?>
<!-- Generator: Adobe Illustrator 19.2.1, SVG Export Plug-In . SVG Version: 6.00 Build 0)  -->
<svg version="1.1" id="Layer_1" xmlns="http://www.w3.org/2000/svg" xmlns:xlink="http://www.w3.org/1999/xlink" x="0px" y="0px"
	 viewBox="0 0 105 105" style="enable-background:new 0 0 105 105;" xml:space="preserve">
<style type="text/css">
	.st0{fill:#FFFFFF;}
</style>
<path class="st0" d="M52.5,2.5c-27.6,0-50,22.4-50,50s22.4,50,50,50s50-22.4,50-50S80.1,2.5,52.5,2.5z M52.5,100.9
	c-26.7,0-48.4-21.7-48.4-48.4S25.8,4.1,52.5,4.1s48.4,21.7,48.4,48.4S79.2,100.9,52.5,100.9z M40.9,33.8c0,0-0.6,0.8-1.6,2l0,0
	L40.9,33.8z M35.1,59.1c-3.8,0-6.9-5.8-6.9-13c0-0.5,0-0.9,0-1.4l0,0c4.2-1.2,8.7-6.1,11.1-8.9c1.6,2.4,2.7,6.1,2.7,10.3
	C42,53.3,38.9,59.1,35.1,59.1z M77.4,44.7c0,0.5,0,0.9,0,1.4c0,7.2-3.1,13-6.9,13c-3.8,0-6.9-5.8-6.9-13c0-4.2,1-7.9,2.7-10.3
	C68.6,38.6,73.1,43.5,77.4,44.7L77.4,44.7z M66.3,35.8C66.3,35.8,66.3,35.8,66.3,35.8c-1-1.2-1.6-2-1.6-2L66.3,35.8z M68.3,72.6
	c-0.2,0.4-0.7,0.6-1.1,0.3c-0.1,0-6.7-3.4-14.7-3.4c-8,0-14.1,3.4-14.1,3.4c-0.1,0.1-0.3,0.1-0.4,0.1c-0.3,0-0.6-0.1-0.7-0.4
	c-0.2-0.4-0.1-0.9,0.3-1.1c0.3-0.1,6.5-3.6,14.9-3.6c8.4,0,15.2,3.5,15.4,3.6C68.3,71.7,68.5,72.2,68.3,72.6z"/>
</svg>
