<?xml version="1.0" encoding="utf-8"?>
<!-- Generator: Adobe Illustrator 19.2.1, SVG Export Plug-In . SVG Version: 6.00 Build 0)  -->
<svg version="1.1" id="Layer_1" xmlns="http://www.w3.org/2000/svg" xmlns:xlink="http://www.w3.org/1999/xlink" x="0px" y="0px"
	 viewBox="0 0 105 105" style="enable-background:new 0 0 105 105;" xml:space="preserve">
<style type="text/css">
	.st0{fill:#FFFFFF;}
</style>
<g>
	<g>
		<path class="st0" d="M52.5,102.5c-27.6,0-50-22.4-50-50s22.4-50,50-50s50,22.4,50,50S80.1,102.5,52.5,102.5z M52.5,4.1
			C25.8,4.1,4.1,25.8,4.1,52.5s21.7,48.4,48.4,48.4s48.4-21.7,48.4-48.4S79.2,4.1,52.5,4.1z"/>
	</g>
	<g>
		<path class="st0" d="M77.3,41.9c0.2,1.3,0.4,2.7,0.4,4.2c0,7.2-3.1,13-6.9,13c-3.8,0-6.9-5.8-6.9-13c0-1.6,0.1-3.1,0.4-4.5"/>
	</g>
	<g>
		<path class="st0" d="M41.6,40.9c0.4,1.6,0.6,3.4,0.6,5.2c0,7.2-3.1,13-6.9,13s-6.9-5.8-6.9-13c0-4.4,1.2-8.3,2.9-10.7"/>
	</g>
	<path class="st0" d="M72,42.8c-9.3,0-14.8-1.2-16.4-3.5c-0.7-1.1-0.3-2.1-0.2-2.2c0.2-0.4,0.7-0.6,1.1-0.4c0.4,0.2,0.6,0.7,0.4,1.1
		c0,0.1-0.1,0.3,0.2,0.6c0.8,1.1,4.9,3.6,24.9,2.4c0.5,0,0.8,0.3,0.9,0.8s-0.3,0.8-0.8,0.9C78.3,42.7,74.9,42.8,72,42.8z"/>
	<path class="st0" d="M44.2,42.1c-2.3,0-5.1-1-8.2-3c-10.6-6.7-13.4-5.7-15.5-4c-0.4,0.3-0.9,0.2-1.2-0.1c-0.3-0.4-0.2-0.9,0.1-1.2
		c3.2-2.6,7.1-2.8,17.4,3.9c3.6,2.3,6.7,3.2,9,2.5c1.8-0.6,2.5-2,2.5-2c0.2-0.4,0.7-0.6,1.1-0.4c0.4,0.2,0.6,0.7,0.4,1.1
		c0,0.1-0.9,2.2-3.5,3C45.7,42,45,42.1,44.2,42.1z"/>
	<path class="st0" d="M68.2,81.3c-0.3,0-0.6-0.2-0.7-0.4c-3.8-7.2-10.8-10.3-19.2-8.7c-6.5,1.3-12.1-1.9-12.3-2
		c-0.4-0.2-0.5-0.7-0.3-1.1c0.2-0.4,0.7-0.5,1.1-0.3c0.1,0,5.3,3,11.2,1.8c9.1-1.8,16.8,1.7,20.9,9.5c0.2,0.4,0.1,0.9-0.3,1.1
		C68.5,81.3,68.4,81.3,68.2,81.3z"/>
	<path class="st0" d="M55.1,79.4c-0.2,0-0.4-0.1-0.6-0.2c-0.9-0.9-5.2-1.1-7.9-1c-0.5,0-0.8-0.3-0.9-0.8c0-0.5,0.3-0.8,0.8-0.9
		c1.2,0,7.5-0.2,9.2,1.5c0.3,0.3,0.3,0.8,0,1.2C55.5,79.3,55.3,79.4,55.1,79.4z"/>
</g>
</svg>
