<?xml version="1.0" encoding="utf-8"?>
<!-- Generator: Adobe Illustrator 19.2.1, SVG Export Plug-In . SVG Version: 6.00 Build 0)  -->
<svg version="1.1" id="Layer_1" xmlns="http://www.w3.org/2000/svg" xmlns:xlink="http://www.w3.org/1999/xlink" x="0px" y="0px"
	 viewBox="0 0 610 290" style="enable-background:new 0 0 610 290;" xml:space="preserve">
<style type="text/css">
	.st0{fill:#FFFFFF;}
	.st1{opacity:0.5;fill:url(#SVGID_1_);enable-background:new    ;}
	.st2{opacity:0.5;fill:#014776;enable-background:new    ;}
	.st3{fill:#858585;}
	.st4{font-family:'AvantGarde-Book';}
	.st5{font-size:20px;}
	.st6{fill:url(#SVGID_2_);}
	.st7{fill:#B8BABC;}
	.st8{opacity:0.5;fill:url(#SVGID_3_);enable-background:new    ;}
	.st9{fill:#F8BB5B;}
	.st10{fill:none;stroke:#8BD3CA;stroke-width:10;stroke-miterlimit:10;}
	.st11{fill:#8BD3CA;}
</style>
<g>
	<g>
		<g>
			<path class="st0" d="M553.4,153.5c-29.3,0-53.2,23.9-53.2,53.2s23.9,53.2,53.2,53.2s53.2-23.9,53.2-53.2S582.7,153.5,553.4,153.5
				z"/>
			
				<linearGradient id="SVGID_1_" gradientUnits="userSpaceOnUse" x1="500.2" y1="85.3" x2="606.6" y2="85.3" gradientTransform="matrix(1 0 0 -1 0 292)">
				<stop  offset="0" style="stop-color:#8BD3CA"/>
				<stop  offset="1" style="stop-color:#8199A6"/>
			</linearGradient>
			<path class="st1" d="M553.4,153.5c-29.3,0-53.2,23.9-53.2,53.2s23.9,53.2,53.2,53.2s53.2-23.9,53.2-53.2S582.7,153.5,553.4,153.5
				z"/>
			<path class="st2" d="M578.7,222.2c-0.5,0-0.9-0.4-0.9-0.9s0.4-0.9,0.9-0.9c12.1,0,21.9-9.8,21.9-21.9c0-7.7-4.2-15-10.9-18.9
				c-4.9-3.3-10.6-5-16.5-5c-6.1,0-12,1.9-17,5.4c-0.4,0.3-1,0.2-1.3-0.2s-0.2-1,0.2-1.3c5.3-3.7,11.6-5.7,18.1-5.7
				c6.2,0,12.3,1.8,17.4,5.2c7.2,4.2,11.7,12,11.7,20.4C602.3,211.5,591.7,222.2,578.7,222.2z"/>
			<g>
				<path class="st2" d="M553.4,261.7c-30.3,0-55-24.7-55-55s24.7-55,55-55s55,24.7,55,55S583.7,261.7,553.4,261.7z M553.4,153.5
					c-29.3,0-53.2,23.9-53.2,53.2s23.9,53.2,53.2,53.2s53.2-23.9,53.2-53.2S582.7,153.5,553.4,153.5z"/>
				<path class="st2" d="M546.7,196.7c-0.1,0-0.1,0-0.2,0c-0.5-0.1-0.8-0.6-0.7-1.1c3.4-15.8,17.6-27.2,33.7-27.2
					c6,0,12,1.6,17.2,4.6c0.4,0.2,0.6,0.8,0.3,1.2c-0.2,0.4-0.8,0.6-1.2,0.3c-4.9-2.8-10.6-4.3-16.3-4.3c-15.3,0-28.7,10.8-32,25.8
					C547.5,196.4,547.1,196.7,546.7,196.7z"/>
				<path class="st2" d="M562.8,214.4c-0.4,0-0.8-0.3-0.9-0.7c-0.1-0.5,0.2-1,0.7-1.1c6.8-1.5,11.8-7.7,11.8-14.7
					c0-6.3-4-12-9.8-14.2c-0.5-0.2-0.7-0.7-0.5-1.2s0.7-0.7,1.2-0.5c6.6,2.4,11,8.8,11,15.9c0,7.8-5.5,14.8-13.2,16.5
					C562.9,214.4,562.9,214.4,562.8,214.4z"/>
				<path class="st2" d="M547.4,206c-0.5,0-0.9-0.4-0.9-0.9c0-2.7,0.4-5.3,1.3-7.9c3.3-9.5,12.3-15.9,22.4-15.9
					c0.5,0,0.9,0.4,0.9,0.9s-0.4,0.9-0.9,0.9c-9.3,0-17.6,5.9-20.7,14.7c-0.8,2.3-1.2,4.8-1.2,7.3C548.3,205.6,547.9,206,547.4,206z
					"/>
				<path class="st2" d="M503.5,228.7c-0.2,0-0.4-0.1-0.5-0.2c-0.4-0.3-0.5-0.9-0.2-1.3c9-12.3,23.5-19.7,38.7-19.7
					c10.8,0,20.9,3.5,29.4,10.1c0.4,0.3,0.5,0.9,0.2,1.3c-0.3,0.4-0.9,0.5-1.3,0.2c-8.1-6.3-17.9-9.7-28.3-9.7
					c-14.7,0-28.6,7.1-37.2,18.9C504.1,228.5,503.8,228.7,503.5,228.7z"/>
				<path class="st2" d="M516.3,247c-0.1,0-0.1,0-0.2,0c-0.5-0.1-0.8-0.6-0.7-1.1c4.4-18.3,20.6-31.1,39.5-31.1
					c6.2,0,13.1,1.4,18.1,3.6c0.5,0.2,0.7,0.7,0.4,1.2c-0.2,0.5-0.7,0.7-1.2,0.4c-4.7-2.2-11.4-3.5-17.3-3.5
					c-18,0-33.5,12.2-37.7,29.7C517.1,246.8,516.7,247,516.3,247z"/>
				<path class="st2" d="M547.2,261.4c-0.4,0-0.7-0.2-0.8-0.6c-1.3-3.4-2-7.1-2-10.8c0-16.4,13.4-29.8,29.8-29.8
					c2.2,0,4.4,0.2,6.5,0.7c0.5,0.1,0.8,0.6,0.7,1.1s-0.6,0.8-1.1,0.7c-2-0.4-4-0.7-6.1-0.7c-15.4,0-28,12.6-28,28
					c0,3.5,0.6,6.9,1.9,10.1c0.2,0.5,0,1-0.5,1.2C547.4,261.3,547.3,261.4,547.2,261.4z"/>
				<path class="st2" d="M570.9,215.5c-2.4,0-4.8-0.5-6.9-1.5c-0.5-0.2-1.1-0.5-1.6-0.8c-0.4-0.3-0.6-0.8-0.3-1.2s0.8-0.6,1.2-0.3
					c0.5,0.3,0.9,0.5,1.4,0.7c2,0.9,4,1.3,6.2,1.3c8.2,0,15.1-7.1,15.1-15.6c0-8.3-6.8-15.1-15.1-15.1c-0.5,0-0.9-0.4-0.9-0.9
					s0.4-0.9,0.9-0.9c9.3,0,16.9,7.6,16.9,16.9C587.7,207.6,580,215.5,570.9,215.5z"/>
				<path class="st2" d="M582.1,253.4L582.1,253.4c-8.1-1.2-14.1-8.2-14.1-16.3c0-9.1,7.4-16.5,16.5-16.5c0.5,0,0.9,0.4,0.9,0.9
					s-0.4,0.9-0.9,0.9c-8.1,0-14.7,6.6-14.7,14.7c0,7.2,5.4,13.4,12.5,14.5c0.5,0.1,0.8,0.5,0.8,1
					C583,253.1,582.6,253.4,582.1,253.4z"/>
				<path class="st2" d="M583.3,222.5c-6.7,0-13.1-2.4-18-6.9c-9.9-9-19-10.8-31.3-10.8s-24,4.5-33.1,12.8c-0.4,0.3-0.9,0.3-1.3-0.1
					c-0.3-0.4-0.3-0.9,0.1-1.3c9.4-8.5,21.6-13.2,34.3-13.2c12.8,0,22.2,1.8,32.6,11.3c4.6,4.1,10.6,6.4,16.8,6.4
					c10.3,0,19.4-6.1,23.3-15.6c0.2-0.5,0.7-0.7,1.2-0.5s0.7,0.7,0.5,1.2C604.1,215.9,594.3,222.5,583.3,222.5z"/>
			</g>
		</g>
		<g>
			<text transform="matrix(1 0 0 1 524.0231 282.7877)" class="st3 st4 st5">Water</text>
		</g>
	</g>
	<g>
		<g>
			
				<linearGradient id="SVGID_2_" gradientUnits="userSpaceOnUse" x1="252.7" y1="235.2" x2="359.1" y2="235.2" gradientTransform="matrix(1 0 0 -1 0 292)">
				<stop  offset="0" style="stop-color:#EDEEEE"/>
				<stop  offset="1" style="stop-color:#CDCFD0"/>
			</linearGradient>
			<path class="st6" d="M305.9,3.6c-29.3,0-53.2,23.9-53.2,53.2s23.9,53.2,53.2,53.2s53.2-23.9,53.2-53.2S335.2,3.6,305.9,3.6z"/>
			<g>
				<path class="st7" d="M305.9,111.8c-30.3,0-55-24.7-55-55s24.7-55,55-55s55,24.7,55,55C360.9,87.2,336.2,111.8,305.9,111.8z
					 M305.9,3.6c-29.3,0-53.2,23.9-53.2,53.2s23.9,53.2,53.2,53.2s53.2-23.9,53.2-53.2S335.2,3.6,305.9,3.6z"/>
				<path class="st7" d="M319.1,43.6h-26.4c-0.3,0-0.6-0.1-0.7-0.4c-0.2-0.2-0.2-0.5-0.1-0.8l5.1-14.2c0.1-0.4,0.5-0.6,0.8-0.6H314
					c0.4,0,0.7,0.2,0.8,0.6l5.1,14.2c0.1,0.3,0.1,0.6-0.1,0.8C319.7,43.5,319.4,43.6,319.1,43.6z M294,41.8h23.9l-4.5-12.4h-14.9
					L294,41.8z"/>
				<g>
					<path class="st7" d="M334.1,61.9h-26.4c-0.3,0-0.6-0.1-0.7-0.4c-0.2-0.2-0.2-0.5-0.1-0.8l5.1-14.2c0.1-0.4,0.5-0.6,0.8-0.6H329
						c0.4,0,0.7,0.2,0.8,0.6l5.1,14.2c0.1,0.3,0.1,0.6-0.1,0.8C334.7,61.7,334.4,61.9,334.1,61.9z M309,60.1h23.9l-4.5-12.4h-14.9
						L309,60.1z"/>
					<path class="st7" d="M304.1,61.9h-26.4c-0.3,0-0.6-0.1-0.7-0.4c-0.2-0.2-0.2-0.5-0.1-0.8l5.1-14.2c0.1-0.4,0.5-0.6,0.8-0.6H299
						c0.4,0,0.7,0.2,0.8,0.6l5.1,14.2c0.1,0.3,0.1,0.6-0.1,0.8C304.7,61.7,304.4,61.9,304.1,61.9z M278.9,60.1h23.9l-4.5-12.4h-14.9
						L278.9,60.1z"/>
				</g>
				<g>
					<path class="st7" d="M349.2,80.1h-26.4c-0.3,0-0.6-0.1-0.7-0.4c-0.2-0.2-0.2-0.5-0.1-0.8l5.1-14.2c0.1-0.4,0.5-0.6,0.8-0.6
						h16.2c0.4,0,0.7,0.2,0.8,0.6l5.1,14.2c0.1,0.3,0.1,0.6-0.1,0.8C349.8,80,349.5,80.1,349.2,80.1z M324,78.3h23.9L343.4,66h-14.9
						L324,78.3z"/>
					<path class="st7" d="M319.1,80.1h-26.4c-0.3,0-0.6-0.1-0.7-0.4c-0.2-0.2-0.2-0.5-0.1-0.8l5.1-14.2c0.1-0.4,0.5-0.6,0.8-0.6H314
						c0.4,0,0.7,0.2,0.8,0.6l5.1,14.2c0.1,0.3,0.1,0.6-0.1,0.8C319.7,80,319.4,80.1,319.1,80.1z M294,78.3h23.9L313.4,66h-14.9
						L294,78.3z"/>
					<path class="st7" d="M289.1,80.1h-26.4c-0.3,0-0.6-0.1-0.7-0.4c-0.2-0.2-0.2-0.5-0.1-0.8l5.1-14.2c0.1-0.4,0.5-0.6,0.8-0.6H284
						c0.4,0,0.7,0.2,0.8,0.6l5.1,14.2c0.1,0.3,0.1,0.6-0.1,0.8C289.6,80,289.3,80.1,289.1,80.1z M263.9,78.3h23.9L283.3,66h-14.9
						L263.9,78.3z"/>
				</g>
			</g>
			<path class="st7" d="M292.7,43.6c-0.3,0-0.5-0.1-0.7-0.4c-0.3-0.4-0.2-1,0.2-1.3l9.4-7.1c0.4-0.3,1-0.2,1.3,0.2s0.2,1-0.2,1.3
				l-9.4,7.1C293.1,43.6,292.9,43.6,292.7,43.6z"/>
			<path class="st7" d="M297.2,43.6c-0.3,0-0.5-0.1-0.7-0.4c-0.3-0.4-0.2-1,0.2-1.3l4.9-3.7c0.4-0.3,1-0.2,1.3,0.2s0.2,1-0.2,1.3
				l-4.9,3.7C297.5,43.6,297.4,43.6,297.2,43.6z"/>
			<path class="st7" d="M292.7,51.3c-0.3,0-0.5-0.1-0.7-0.4c-0.3-0.4-0.2-1,0.2-1.3l4.6-3.5c0.4-0.3,1-0.2,1.3,0.2s0.2,1-0.2,1.3
				l-4.6,3.5C293.1,51.2,292.9,51.3,292.7,51.3z"/>
			<path class="st7" d="M297.2,51.3c-0.3,0-0.5-0.1-0.7-0.4c-0.3-0.4-0.2-1,0.2-1.3l2.4-1.8c0.4-0.3,1-0.2,1.3,0.2s0.2,1-0.2,1.3
				l-2.4,1.8C297.5,51.2,297.4,51.3,297.2,51.3z"/>
			<path class="st7" d="M262.6,80.1c-0.3,0-0.5-0.1-0.7-0.4c-0.3-0.4-0.2-1,0.2-1.3l9.4-7.1c0.4-0.3,1-0.2,1.3,0.2
				c0.3,0.4,0.2,1-0.2,1.3l-9.4,7.1C263,80.1,262.8,80.1,262.6,80.1z"/>
			<path class="st7" d="M267.1,80.1c-0.3,0-0.5-0.1-0.7-0.4c-0.3-0.4-0.2-1,0.2-1.3l4.9-3.7c0.4-0.3,1-0.2,1.3,0.2
				c0.3,0.4,0.2,1-0.2,1.3l-4.9,3.7C267.5,80.1,267.3,80.1,267.1,80.1z"/>
			<path class="st7" d="M318.1,57.1c-0.3,0-0.5-0.1-0.7-0.4c-0.3-0.4-0.2-1,0.2-1.3l9.4-7.1c0.4-0.3,1-0.2,1.3,0.2s0.2,1-0.2,1.3
				l-9.4,7.1C318.4,57.1,318.2,57.1,318.1,57.1z"/>
			<path class="st7" d="M322.5,57.1c-0.3,0-0.5-0.1-0.7-0.4c-0.3-0.4-0.2-1,0.2-1.3l4.9-3.7c0.4-0.3,1-0.2,1.3,0.2s0.2,1-0.2,1.3
				l-4.9,3.7C322.9,57.1,322.7,57.1,322.5,57.1z"/>
			<path class="st7" d="M301.2,75.5c-0.3,0-0.5-0.1-0.7-0.4c-0.3-0.4-0.2-1,0.2-1.3l9.4-7.1c0.4-0.3,1-0.2,1.3,0.2
				c0.3,0.4,0.2,1-0.2,1.3l-9.4,7.1C301.6,75.5,301.4,75.5,301.2,75.5z"/>
			<path class="st7" d="M305.7,75.5c-0.3,0-0.5-0.1-0.7-0.4c-0.3-0.4-0.2-1,0.2-1.3l4.9-3.7c0.4-0.3,1-0.2,1.3,0.2
				c0.3,0.4,0.2,1-0.2,1.3l-4.9,3.7C306.1,75.5,305.9,75.5,305.7,75.5z"/>
			<path class="st7" d="M327.5,80.1c-0.3,0-0.5-0.1-0.7-0.4c-0.3-0.4-0.2-1,0.2-1.3l9.4-7.1c0.4-0.3,1-0.2,1.3,0.2
				c0.3,0.4,0.2,1-0.2,1.3L328,80C327.8,80.1,327.6,80.1,327.5,80.1z"/>
			<path class="st7" d="M331.9,80.1c-0.3,0-0.5-0.1-0.7-0.4c-0.3-0.4-0.2-1,0.2-1.3l4.9-3.7c0.4-0.3,1-0.2,1.3,0.2
				c0.3,0.4,0.2,1-0.2,1.3l-4.9,3.7C332.3,80.1,332.1,80.1,331.9,80.1z"/>
		</g>
		<g>
			<text transform="matrix(1 0 0 1 277.9939 132.9065)" class="st3 st4 st5">Metal</text>
		</g>
	</g>
	<g>
		<g>
			<text transform="matrix(1 0 0 1 31.9561 282.7347)" class="st3 st4 st5">Earth</text>
		</g>
		<g>
			<path class="st0" d="M56.6,153.5c-29.3,0-53.2,23.9-53.2,53.2s23.9,53.2,53.2,53.2s53.2-23.9,53.2-53.2S86,153.5,56.6,153.5z"/>
			
				<linearGradient id="SVGID_3_" gradientUnits="userSpaceOnUse" x1="3.4" y1="85.3" x2="109.8" y2="85.3" gradientTransform="matrix(1 0 0 -1 0 292)">
				<stop  offset="0" style="stop-color:#FFFAC2"/>
				<stop  offset="1" style="stop-color:#F8BB5B"/>
			</linearGradient>
			<path class="st8" d="M56.6,153.5c-29.3,0-53.2,23.9-53.2,53.2s23.9,53.2,53.2,53.2s53.2-23.9,53.2-53.2S86,153.5,56.6,153.5z"/>
			<path class="st9" d="M56.6,261.7c-30.3,0-55-24.7-55-55s24.7-55,55-55s55,24.7,55,55S87,261.7,56.6,261.7z M56.6,153.5
				c-29.3,0-53.2,23.9-53.2,53.2s23.9,53.2,53.2,53.2s53.2-23.9,53.2-53.2S86,153.5,56.6,153.5z"/>
			<path class="st9" d="M69.6,196.8c-12.2,0-24.1-3.4-34.4-9.9c-3.5-2.2-7.4-3.4-11.3-3.6c-0.3,0-0.6,0-1,0
				c-6.5,0-12.8,2.8-17.2,7.6c-0.3,0.4-0.9,0.4-1.3,0.1c-0.4-0.3-0.4-0.9-0.1-1.3c4.8-5.2,11.5-8.2,18.5-8.2c0.4,0,0.7,0,1,0
				c4.2,0.2,8.5,1.5,12.2,3.9c10,6.3,21.6,9.6,33.4,9.6c12.9,0,25.3-3.9,35.9-11.2c0.4-0.3,1-0.2,1.3,0.2s0.2,1-0.2,1.3
				C95.7,192.8,82.9,196.8,69.6,196.8z"/>
			<path class="st9" d="M55.3,195.3c-0.4,0-0.7-0.2-0.8-0.3c-0.6-0.4-0.5-1.2-0.5-1.3c0,0,0,0,0-0.1c1.2-9.7-3.5-10.7-7.2-11.6
				c-0.3-0.1-0.6-0.1-0.9-0.2c-0.5-0.1-1.1-0.3-1.7-0.4c-3.4-0.8-7.6-1.8-9.9-4.2c-0.3-0.3-3.1-3.5-0.2-11.5c0.1-0.4,0.5-0.6,1-0.6
				c0.4,0,0.7,0.4,0.8,0.8c0,0.1,0.5,2.7,5.2,3.6c0.7,0.1,1.4,0.2,2.2,0.4c5,0.7,11.2,1.7,12.3,11.2c0.9,8,1,10.5,0.9,13.3
				c0,0.4-0.3,0.7-0.7,0.8C55.6,195.3,55.5,195.3,55.3,195.3z M35.1,168.4c-0.6,2.5-1,6,0.4,7.5c1.9,2,5.9,3,9,3.7
				c0.6,0.1,1.2,0.3,1.7,0.4c0.3,0.1,0.5,0.1,0.8,0.2c2.1,0.5,4.9,1.1,6.8,3.6c-0.1-0.8-0.2-1.6-0.3-2.6c-1-8.1-5.7-8.8-10.7-9.6
				c-0.8-0.1-1.5-0.2-2.3-0.4C37.7,170.8,36.1,169.6,35.1,168.4z"/>
			<path class="st9" d="M55.2,187.9c-0.5,0-0.9-0.4-0.9-0.8v-0.4c-0.6-7.2-1-11.2,6.7-16.1l0.4-0.2c6.8-4.3,9.6-6.1,9.6-8.5
				c0-0.7-0.2-1.2-0.5-1.5c-0.7-0.5-1.9-0.5-2.2-0.4c-0.5,0.1-1-0.2-1.1-0.7s0.2-1,0.7-1.1c0.2,0,2.3-0.4,3.7,0.8
				c0.5,0.5,1.2,1.3,1.2,2.9c-0.1,3.4-3.1,5.3-10.4,10l-0.4,0.2c-6.7,4.3-6.4,7.2-5.8,14.4v0.4C56.2,187.4,55.8,187.8,55.2,187.9
				C55.3,187.9,55.3,187.9,55.2,187.9z"/>
			<path class="st9" d="M56.6,195.5c-0.5,0-0.9-0.4-0.9-0.9c-0.1-7.7,0.8-11.7,3.2-14.3c1.2-1.3,3.2-2.1,5.5-3.2
				c3.2-1.4,6.8-3,8.3-5.7c2.5-4.5-2-10.7-2.1-10.7c-0.3-0.4-0.2-1,0.2-1.3c0.4-0.3,1-0.2,1.3,0.2c0.2,0.3,5.3,7.2,2.2,12.7
				c-1.9,3.3-5.7,5-9.2,6.5c-2.1,0.9-4,1.8-4.9,2.8c-1.7,1.8-2.8,4.7-2.7,13C57.6,195.1,57.2,195.5,56.6,195.5
				C56.7,195.5,56.6,195.5,56.6,195.5z"/>
			<path class="st9" d="M67.6,168.2c-0.2,0-0.4-0.1-0.6-0.2c-0.4-0.3-0.4-0.9-0.1-1.3c1.5-1.8,2.1-3.4,1.9-4.7
				c-0.2-1.4-1.3-2.1-1.3-2.1c-0.4-0.3-0.5-0.8-0.3-1.2c0.3-0.4,0.8-0.6,1.2-0.3c0.1,0,1.8,1.1,2.2,3.4c0.3,1.9-0.5,4-2.3,6.2
				C68.1,168.1,67.9,168.2,67.6,168.2z"/>
			<path class="st9" d="M18.5,209c-0.2,0-0.3,0-0.5-0.1l-12.3-8c-0.4-0.3-0.5-0.8-0.3-1.2l7.4-12c0.1-0.2,0.4-0.4,0.6-0.4l8.1-1.2
				c0.3,0,0.6,0.1,0.8,0.3l8.6,9.3c0.2,0.3,0.3,0.7,0.2,1l-4.3,9.5c-0.1,0.2-0.3,0.4-0.5,0.5l-7.4,2.4C18.7,209,18.6,209,18.5,209z
				 M7.4,199.9l11.2,7.3l6.7-2.1l3.9-8.6l-7.8-8.5l-7.2,1.1L7.4,199.9z"/>
			<path class="st9" d="M52.7,214.9c-0.2,0-0.3,0-0.5-0.1l-9.5-5.9c-0.1-0.1-0.2-0.1-0.3-0.2l-6.3-8.9c-0.1-0.2-0.2-0.4-0.2-0.7
				l1.1-6.8c0-0.3,0.2-0.5,0.4-0.6s0.5-0.2,0.7-0.1l11.1,3.4c0.1,0,0.2,0.1,0.3,0.2l7.5,5.9c0.3,0.2,0.4,0.6,0.3,1l-3.9,12.2
				c-0.1,0.3-0.3,0.5-0.5,0.6C52.9,214.9,52.8,214.9,52.7,214.9z M43.9,207.5l8.3,5.2l3.4-10.5l-6.9-5.4l-10-3l-0.8,5.4L43.9,207.5z
				"/>
			<path class="st9" d="M63.4,224.7c-0.3,0-0.5-0.1-0.7-0.3l-6.7-7.5c-0.2-0.2-0.3-0.5-0.2-0.8l1.5-8.1c0-0.2,0.1-0.4,0.3-0.5
				l8.3-8.1c0.3-0.2,0.6-0.3,1-0.2l6.1,2.3c0.1,0,0.2,0.1,0.3,0.2l6.6,7.1c0.2,0.2,0.3,0.6,0.2,0.9l-4,12.3
				c-0.1,0.3-0.4,0.6-0.7,0.6L63.4,224.7C63.5,224.7,63.4,224.7,63.4,224.7z M57.6,216l6.1,6.8l10.9-1.9l3.6-11.2l-6.1-6.6l-5.4-2
				l-7.7,7.5L57.6,216z"/>
			<path class="st9" d="M102.5,211.5c-0.2,0-0.5-0.1-0.6-0.2l-7.8-7.4c-0.2-0.2-0.3-0.5-0.3-0.8l2.1-9.9c0.1-0.2,0.2-0.5,0.4-0.6
				l9.2-5.6c0.4-0.3,1-0.1,1.2,0.3c0.3,0.4,0.1,1-0.3,1.2l-8.9,5.4l-1.9,9l7.1,6.7l7.7-0.8c0.5-0.1,0.9,0.3,1,0.8s-0.3,0.9-0.8,1
				L102.5,211.5C102.6,211.4,102.6,211.5,102.5,211.5z"/>
			<path class="st9" d="M93.2,223.8c-0.1,0-0.2,0-0.3-0.1l-13.2-5.1c-0.2-0.1-0.4-0.3-0.5-0.5s-0.1-0.5,0-0.7l7.7-14.5
				c0.2-0.4,0.6-0.6,1-0.4l5.7,1.6c0.2,0,0.3,0.1,0.4,0.2l10.5,11c0.2,0.2,0.3,0.5,0.2,0.7c0,0.3-0.2,0.5-0.4,0.7l-10.7,7.1
				C93.5,223.7,93.3,223.8,93.2,223.8z M81.2,217.3l11.8,4.6l9.4-6.2l-9.6-10l-4.8-1.3L81.2,217.3z"/>
			<path class="st9" d="M30.9,229.2c-0.2,0-0.3-0.1-0.5-0.1l-9.8-6.5c-0.3-0.2-0.5-0.6-0.4-0.9l1.5-8.8c0-0.3,0.2-0.5,0.4-0.6
				l12.3-7.2c0.2-0.1,0.5-0.2,0.8-0.1l5.4,2.2c0.1,0.1,0.3,0.2,0.4,0.3l7.5,9.9c0.3,0.3,0.2,0.8,0,1.1l-6.6,7.5
				c-0.1,0.1-0.3,0.2-0.4,0.3L31.1,229C31.1,229.2,31,229.2,30.9,229.2z M22.2,221.4l8.9,5.9l9.7-2.5l5.9-6.8l-6.9-9.1l-4.8-2
				l-11.6,6.7L22.2,221.4z"/>
			<path class="st9" d="M33.7,251.9c-0.2,0-0.3,0-0.5-0.1l-6.9-4.5c-0.3-0.2-0.4-0.5-0.4-0.8V242c0-0.3,0.2-0.6,0.5-0.8l5.3-2.9
				c0.3-0.1,0.6-0.1,0.8,0l8.9,4.2c0.3,0.2,0.5,0.5,0.5,0.9l-0.6,6.6c0,0.4-0.3,0.7-0.8,0.8l-6.6,1.1
				C33.8,251.9,33.7,251.9,33.7,251.9z M27.6,246l6.2,4.1l5.6-0.9l0.5-5.3l-7.9-3.7l-4.4,2.4C27.6,242.6,27.6,246,27.6,246z"/>
			<path class="st9" d="M58.1,258.6L58.1,258.6l-6.8-0.8c-0.3,0-0.5-0.2-0.7-0.4c-0.1-0.2-0.2-0.5-0.1-0.8l4.2-11.9
				c0.1-0.4,0.5-0.6,0.9-0.6h4.2c0.5,0,0.9,0.4,0.9,0.8l0.8,8.3c0,0.2,0,0.4-0.1,0.5l-2.5,4.4C58.7,258.5,58.4,258.6,58.1,258.6z
				 M52.6,256.2l5,0.6l2.1-3.6L59,246h-2.8L52.6,256.2z"/>
			<path class="st9" d="M54.9,239.1c-0.2,0-0.3,0-0.5-0.1l-10.3-6.6c-0.2-0.1-0.4-0.4-0.4-0.7s0.1-0.5,0.3-0.7l9.3-9.5
				c0.3-0.3,0.8-0.4,1.2-0.1l8,6.2c0.3,0.2,0.4,0.7,0.3,1l-2,5.2c0,0.1-0.1,0.2-0.2,0.3l-5,4.7C55.4,239,55.1,239.1,54.9,239.1z
				 M46.1,231.4l8.8,5.6l4.4-4.1l1.7-4.4l-6.8-5.3L46.1,231.4z"/>
			<path class="st9" d="M83.7,239.1c-0.2,0-0.3,0-0.5-0.1l-9.3-5.4c-0.4-0.2-0.6-0.7-0.4-1.2l4.8-9.9c0.2-0.4,0.6-0.6,1-0.5
				l10.8,2.9c0.4,0.1,0.6,0.4,0.7,0.8l0.8,7.1c0,0.3-0.1,0.6-0.3,0.8l-7.1,5.4C84.1,239,83.9,239.1,83.7,239.1z M75.6,232.4l8,4.7
				l6.2-4.7l-0.6-5.9l-9.5-2.5L75.6,232.4z"/>
			<path class="st9" d="M68.7,243.6c-0.2,0-0.3,0-0.5-0.1l-5.3-3.3c-0.2-0.1-0.3-0.3-0.4-0.6c-0.1-0.2,0-0.5,0.1-0.7l4.2-6.8
				c0.3-0.4,0.8-0.5,1.2-0.3l9.2,5.6c0.3,0.2,0.4,0.5,0.4,0.8s-0.2,0.6-0.5,0.8l-8.1,4.5C69,243.6,68.9,243.6,68.7,243.6z
				 M64.6,239.1l4.1,2.5l6.3-3.5l-7.1-4.3L64.6,239.1z"/>
			<path class="st9" d="M8,225.7c-0.3,0-0.6-0.1-0.7-0.4l-4-5.3c-0.3-0.4-0.2-1,0.2-1.3s1-0.2,1.3,0.2l3.6,5l8.3-0.9l0.6-10.4
				l-6.2-2l-7.5,2c-0.5,0.1-1-0.2-1.1-0.6c-0.1-0.5,0.2-1,0.6-1.1l7.8-2c0.2,0,0.3,0,0.5,0l7.1,2.3c0.4,0.1,0.6,0.5,0.6,0.9
				L18.5,224c0,0.4-0.4,0.8-0.8,0.8L8,225.7L8,225.7z"/>
			<path class="st9" d="M15.7,238.1c-0.3,0-0.7-0.2-0.8-0.5l-3.2-7c-0.2-0.4,0-1,0.4-1.2l6.5-3.2c0.2-0.1,0.5-0.1,0.7,0l5,2
				c0.3,0.1,0.6,0.5,0.6,0.8v7.5c0,0.5-0.4,0.9-0.8,0.9L15.7,238.1C15.8,238.1,15.7,238.1,15.7,238.1z M13.7,230.6l2.6,5.6l6.7-0.6
				v-6.1l-4-1.6L13.7,230.6z"/>
			<path class="st9" d="M44.6,238.6H37c-0.3,0-0.5-0.1-0.7-0.3l-5-6.4c-0.2-0.3-0.2-0.6-0.1-0.9c0.1-0.3,0.4-0.5,0.7-0.6l6.6-1.1
				c0.2,0,0.4,0,0.6,0.1l3.8,1.9c0.2,0.1,0.4,0.3,0.4,0.5l2.3,5.6c0.1,0.3,0.1,0.6-0.1,0.8C45.2,238.4,44.9,238.6,44.6,238.6z
				 M37.4,236.8h5.9l-1.6-4.1l-3.2-1.6l-4.8,0.8L37.4,236.8z"/>
			<path class="st9" d="M76.8,252.3c-0.1,0-0.2,0-0.4-0.1c-0.2-0.1-0.4-0.3-0.5-0.6l-2.4-7.5c-0.1-0.2,0-0.5,0.1-0.7
				s0.3-0.4,0.6-0.4l5.5-1.2c0.4-0.1,0.8,0.1,1,0.5l2.7,5.9c0.2,0.4,0,1-0.4,1.2l-5.8,2.8C77.1,252.3,76.9,252.3,76.8,252.3z
				 M75.6,244.6l1.7,5.5l4.1-2l-2-4.4L75.6,244.6z"/>
			<path class="st9" d="M103.8,234L103.8,234l-6.4-0.5c-0.5,0-0.8-0.4-0.8-0.9v-7.8c0-0.4,0.3-0.8,0.7-0.9l10.7-2
				c0.5-0.1,1,0.2,1,0.7c0.1,0.5-0.2,1-0.7,1l-10,1.8v6.2l5.5,0.4c0.5,0,0.9,0.5,0.8,1C104.7,233.7,104.3,234,103.8,234z"/>
		</g>
	</g>
	<g>
		<g>
			<path class="st10" d="M370.4,55.4c62.7,10.8,116.9,36.7,153.9,71.8"/>
			<g>
				<polygon class="st11" points="510.4,129.1 521.6,124.7 526.3,113.6 536.8,140.1 				"/>
			</g>
		</g>
	</g>
	<g>
		<g>
			<path class="st10" d="M73.3,139.1c33-36.7,83.6-65,143.6-79.2"/>
			<g>
				<polygon class="st11" points="211,72.6 213.3,60.8 206.3,50.9 234.4,56.2 				"/>
			</g>
		</g>
	</g>
</g>
<g>
	<text transform="matrix(1 0 0 1 391.1447 42.0923)" class="st3 st4 st5">Metal enriches Water</text>
</g>
<g>
	<text transform="matrix(1 0 0 1 30.7996 42.0923)" class="st3 st4 st5">Earth bears Metal</text>
</g>
</svg>
