<?xml version="1.0" encoding="utf-8"?>
<!-- Generator: Adobe Illustrator 19.2.1, SVG Export Plug-In . SVG Version: 6.00 Build 0)  -->
<svg version="1.1" id="Layer_1" xmlns="http://www.w3.org/2000/svg" xmlns:xlink="http://www.w3.org/1999/xlink" x="0px" y="0px"
	 viewBox="0 0 205 205" style="enable-background:new 0 0 205 205;" xml:space="preserve">
<style type="text/css">
	.st0{fill:url(#SVGID_1_);}
</style>
<linearGradient id="SVGID_1_" gradientUnits="userSpaceOnUse" x1="178.4551" y1="169.0364" x2="28.0815" y2="37.3094">
	<stop  offset="0" style="stop-color:#FFFFFF"/>
	<stop  offset="1" style="stop-color:#B8BABC"/>
</linearGradient>
<path class="st0" d="M102.5,2.5c-55.1,0-100,44.9-100,100s44.9,100,100,100s100-44.9,100-100S157.6,2.5,102.5,2.5z M102.5,199.2
	c-53.3,0-96.7-43.4-96.7-96.7S49.2,5.8,102.5,5.8c53.3,0,96.7,43.4,96.7,96.7S155.8,199.2,102.5,199.2z M113.5,83.7l-9.3,25.8
	c-0.2,0.5-0.1,1.1,0.2,1.5c0.3,0.4,0.8,0.7,1.3,0.7h48c0.5,0,1-0.3,1.3-0.7c0.3-0.4,0.4-1,0.2-1.5l-9.3-25.8
	c-0.2-0.6-0.9-1.1-1.5-1.1h-29.5C114.4,82.7,113.8,83.1,113.5,83.7z M143.4,85.9l8.1,22.5h-43.4l8.1-22.5H143.4z M51.1,111.7h48
	c0.5,0,1-0.3,1.3-0.7c0.3-0.4,0.4-1,0.2-1.5l-9.3-25.8c-0.2-0.6-0.9-1.1-1.5-1.1H60.4c-0.7,0-1.3,0.4-1.5,1.1l-9.3,25.8
	c-0.2,0.5-0.1,1.1,0.2,1.5C50.1,111.4,50.6,111.7,51.1,111.7z M61.6,85.9h20.5l-4.6,3.5c-0.7,0.5-0.9,1.6-0.3,2.3
	c0.3,0.4,0.8,0.7,1.3,0.7c0.3,0,0.7-0.1,1-0.3l8.1-6.1h1.2l0.3,0.9l-3.5,2.6c-0.7,0.5-0.9,1.6-0.3,2.3c0.3,0.4,0.8,0.7,1.3,0.7
	c0.3,0,0.7-0.1,1-0.3l2.6-2l6.6,18.4H53.5L61.6,85.9z M182.7,142.7l-9.3-25.8c-0.2-0.6-0.9-1.1-1.5-1.1h-29.5
	c-0.7,0-1.3,0.4-1.5,1.1l-9.3,25.8c-0.2,0.5-0.1,1.1,0.2,1.5c0.3,0.4,0.8,0.7,1.3,0.7h48c0.5,0,1-0.3,1.3-0.7
	C182.8,143.8,182.9,143.2,182.7,142.7z M154.7,141.6l5.1-3.8c0.7-0.5,0.9-1.6,0.3-2.3c-0.5-0.7-1.6-0.9-2.3-0.3l-8.5,6.4h-2.7
	l13.2-9.9c0.7-0.5,0.9-1.6,0.3-2.3c-0.5-0.7-1.6-0.9-2.3-0.3l-16.7,12.6h-5.7l8.1-22.5h27.2l8.1,22.5H154.7z M118.8,116.9
	c-0.2-0.6-0.9-1.1-1.5-1.1H87.8c-0.7,0-1.3,0.4-1.5,1.1l-9.3,25.8c-0.2,0.5-0.1,1.1,0.2,1.5c0.3,0.4,0.8,0.7,1.3,0.7h48
	c0.5,0,1-0.3,1.3-0.7c0.3-0.4,0.4-1,0.2-1.5L118.8,116.9z M80.8,141.6l8.1-22.5h27.2l8.1,22.5H80.8z M64.1,116.9
	c-0.2-0.7-0.9-1.1-1.5-1.1H33.1c-0.7,0-1.3,0.4-1.5,1.1l-9.3,25.8c0,0,0,0,0,0c0,0.1-0.1,0.2-0.1,0.4c0,0,0,0.1,0,0.1
	c0,0.1,0,0.2,0,0.3c0,0,0,0.1,0,0.1c0,0.1,0,0.2,0.1,0.2c0,0,0,0.1,0,0.1c0,0.1,0.1,0.2,0.1,0.2c0,0,0,0.1,0,0.1c0,0,0,0,0,0
	c0,0,0,0,0,0c0,0,0.1,0.1,0.1,0.1c0,0,0.1,0.1,0.1,0.1c0.1,0.1,0.1,0.1,0.2,0.1c0,0,0.1,0.1,0.1,0.1c0.1,0,0.2,0.1,0.2,0.1
	c0,0,0.1,0,0.1,0c0.1,0,0.2,0,0.4,0c0,0,0,0,0,0h48c0.5,0,1-0.3,1.3-0.7c0.3-0.4,0.4-1,0.2-1.5L64.1,116.9z M36.8,141.6l5.1-3.8
	c0.7-0.5,0.9-1.6,0.3-2.3c-0.5-0.7-1.6-0.9-2.3-0.3l-8.5,6.4h-2.7l13.2-9.9c0.7-0.5,0.9-1.6,0.3-2.3c-0.5-0.7-1.6-0.9-2.3-0.3
	l-12.7,9.6l7-19.5h27.2l8.1,22.5H36.8z M76.9,77.1c0,0.1,0,0.2,0.1,0.2c0,0,0,0.1,0,0.1c0,0.1,0.1,0.2,0.1,0.2c0,0,0,0.1,0,0.1
	c0,0,0,0,0,0c0,0,0,0,0,0c0,0,0.1,0.1,0.1,0.1c0,0,0.1,0.1,0.1,0.1c0.1,0.1,0.1,0.1,0.2,0.1c0,0,0.1,0.1,0.1,0.1
	c0.1,0,0.2,0.1,0.2,0.1c0,0,0.1,0,0.1,0c0.1,0,0.2,0,0.4,0c0,0,0,0,0,0h48c0.5,0,1-0.3,1.3-0.7c0.3-0.4,0.4-1,0.2-1.5l-9.3-25.8
	c-0.2-0.6-0.9-1.1-1.5-1.1H87.8c-0.7,0-1.3,0.4-1.5,1.1l-9.3,25.8c0,0,0,0,0,0c0,0.1-0.1,0.2-0.1,0.4c0,0,0,0.1,0,0.1
	c0,0.1,0,0.2,0,0.3C76.9,77.1,76.9,77.1,76.9,77.1z M88.9,52.7h27.2l8.1,22.5H91.5l5.1-3.8c0.7-0.5,0.9-1.6,0.3-2.3
	c-0.5-0.7-1.6-0.9-2.3-0.3l-8.5,6.4h-2.7l13.2-9.9c0.7-0.5,0.9-1.6,0.3-2.3c-0.5-0.7-1.6-0.9-2.3-0.3l-12.7,9.6L88.9,52.7z
	 M123.3,102.4c-0.5-0.7-0.4-1.8,0.3-2.3l17.1-12.9c0.7-0.5,1.8-0.4,2.3,0.3c0.5,0.7,0.4,1.8-0.3,2.3l-17.1,12.9
	c-0.3,0.2-0.6,0.3-1,0.3C124.1,103,123.6,102.8,123.3,102.4z M143,93.6c0.5,0.7,0.4,1.8-0.3,2.3l-9,6.8c-0.3,0.2-0.6,0.3-1,0.3
	c-0.5,0-1-0.2-1.3-0.7c-0.5-0.7-0.4-1.8,0.3-2.3l9-6.8C141.4,92.8,142.5,92.9,143,93.6z M112.4,121c0.5,0.7,0.4,1.8-0.3,2.3
	l-17.1,12.9c-0.3,0.2-0.6,0.3-1,0.3c-0.5,0-1-0.2-1.3-0.7c-0.5-0.7-0.4-1.8,0.3-2.3l17.1-12.9C110.8,120.1,111.8,120.3,112.4,121z
	 M112.4,127.1c0.5,0.7,0.4,1.8-0.3,2.3l-9,6.8c-0.3,0.2-0.6,0.3-1,0.3c-0.5,0-1-0.2-1.3-0.7c-0.5-0.7-0.4-1.8,0.3-2.3l9-6.8
	C110.8,126.2,111.8,126.4,112.4,127.1z"/>
</svg>
