<?xml version="1.0" encoding="utf-8"?>
<!-- Generator: Adobe Illustrator 19.2.1, SVG Export Plug-In . SVG Version: 6.00 Build 0)  -->
<svg version="1.1" id="Layer_1" xmlns="http://www.w3.org/2000/svg" xmlns:xlink="http://www.w3.org/1999/xlink" x="0px" y="0px"
	 viewBox="0 0 155 145" style="enable-background:new 0 0 155 145;" xml:space="preserve">
<style type="text/css">
	.st0{fill:#858585;}
</style>
<g>
	<path class="st0" d="M145.7,51.1c2.7,1.1,4,3.5,4,5.9c0,1.1-0.2,2-0.6,2.7c-0.9,2.3-2.9,3.8-5.5,3.8c-0.9,0-2-0.2-3.1-0.8
		c-23.3-10.2-47.1-27.2-61.6-43.9c-0.8-0.9-1.5-1.4-2.1-1.4c-0.8,0-1.4,0.5-2.3,1.4C59.5,37,36.5,53.1,14,62.8
		c-0.9,0.6-2,0.8-2.9,0.8c-2.4,0-4.4-1.4-5.3-3.8c-0.3-0.9-0.5-1.8-0.5-2.6c0-2.4,1.2-4.4,4-5.6C31.4,42.7,52.2,27.4,67.7,9
		c2.3-2.7,5.6-4,9-4c3.4,0,6.6,1.2,8.8,3.8C100.8,27,122.8,41.5,145.7,51.1z M48.1,59.3c-2.7,0-4.4-2-4.4-5c0-3.2,1.7-5.3,4.4-5.3
		h58.1c2.7,0,4.6,2.1,4.6,5.3c0,3.1-1.8,5-4.6,5H81.9v19.5h54.5c2.7,0,4.4,2.1,4.4,5.3c0,3.1-1.7,5.3-4.4,5.3H81.9v39.7h58.9
		c2.9,0,4.4,2.3,4.4,5.3c0,3.2-1.5,5.5-4.4,5.5H13.9c-2.9,0-4.4-2.3-4.4-5.5c0-3.1,1.5-5.3,4.4-5.3h56.4V89.5h-52
		c-2.7,0-4.4-2.3-4.4-5.3c0-3.2,1.7-5.3,4.4-5.3h52V59.3H48.1z M37.4,94.1c2,0,3.8,0.9,4.9,2.6c4.3,6.9,7.8,13.9,9.9,19.7
		c0.5,1.1,0.6,2,0.6,2.9c0,2.4-1.5,4.1-3.7,4.9c-0.8,0.3-1.5,0.5-2.4,0.5c-2.3,0-4.4-1.2-5.3-3.7c-2-5.5-5.6-13-9.3-18.9
		c-0.6-0.9-0.9-1.8-0.9-2.7c0-2,1.4-3.5,3.1-4.4C35.2,94.4,36.3,94.1,37.4,94.1z M122.7,99c0,0.9-0.2,1.8-0.6,2.7
		c-3.4,7.8-7.5,15.7-11.6,21.1c-1.5,2-3.4,2.9-5.2,2.9c-1.1,0-2.1-0.3-3.2-0.9c-1.7-1.1-2.4-2.6-2.4-4.1c0-1.2,0.5-2.4,1.1-3.4
		c4-5.5,8.2-13.1,11-20.1c1.1-2.3,2.6-3.4,4.6-3.4c0.9,0,2,0.2,2.9,0.6C121.3,95.2,122.7,96.8,122.7,99z"/>
</g>
</svg>
