<?xml version="1.0" encoding="utf-8"?>
<!-- Generator: Adobe Illustrator 19.2.1, SVG Export Plug-In . SVG Version: 6.00 Build 0)  -->
<svg version="1.1" id="Layer_1" xmlns="http://www.w3.org/2000/svg" xmlns:xlink="http://www.w3.org/1999/xlink" x="0px" y="0px"
	 viewBox="0 0 103 103" style="enable-background:new 0 0 103 103;" xml:space="preserve">
<style type="text/css">
	.st0{opacity:0.8;}
	.st1{fill:#FFFFFF;}
	.st2{opacity:0.2;}
</style>
<g>
	<g>
		<g class="st0">
			<path class="st1" d="M26.6,26.6c6.4-6.4,15.2-10.3,24.9-10.3c9.6,0,18.4,3.9,24.7,10.2l0,0L51.3,51.7L26.8,26.8"/>
		</g>
		<g>
			<path class="st1" d="M15.4,51.5c0-19.9,16.2-36.1,36.1-36.1c19.9,0,36.1,16.2,36.1,36.1c0,19.9-16.2,36.1-36.1,36.1
				C31.6,87.6,15.4,71.4,15.4,51.5z M85.9,51.5c0-19-15.4-34.4-34.4-34.4c-19,0-34.4,15.4-34.4,34.4s15.4,34.4,34.4,34.4
				C70.5,85.9,85.9,70.5,85.9,51.5z"/>
		</g>
		<g>
			<path class="st1" d="M57.2,27.6c0-0.1,0-0.1,0-0.2c0.1-0.4,0.6-0.7,1-0.6c8.6,2.4,15.5,9.2,17.9,17.8c0.1,0.4-0.1,0.9-0.6,1
				c-0.4,0.1-0.9-0.1-1-0.6c-2.2-8.1-8.7-14.5-16.7-16.7C57.5,28.3,57.2,28,57.2,27.6z"/>
		</g>
		<g>
			<path class="st1" d="M26.8,45c0-0.1,0-0.1,0-0.2c2.4-8.6,9.2-15.5,17.8-17.9c0.4-0.1,0.9,0.1,1,0.6c0.1,0.4-0.1,0.9-0.6,1
				c-8.1,2.2-14.5,8.7-16.7,16.7c-0.1,0.4-0.6,0.7-1,0.6C27,45.6,26.8,45.3,26.8,45z"/>
		</g>
		<g>
			<path class="st1" d="M27.1,59c0-0.3,0.2-0.7,0.6-0.8c0.4-0.1,0.9,0.1,1,0.5c2.5,7.8,8.6,13.7,16.5,15.8c0.4,0.1,0.7,0.6,0.6,1
				c-0.1,0.4-0.6,0.7-1,0.6c-8.4-2.3-15-8.6-17.6-16.9C27.1,59.2,27.1,59.1,27.1,59z"/>
		</g>
		<g>
			<path class="st1" d="M57.3,75.3c0-0.4,0.2-0.7,0.6-0.8c8.1-2.2,14.5-8.7,16.7-16.7c0.1-0.4,0.6-0.7,1-0.6c0.4,0.1,0.7,0.6,0.6,1
				c-2.4,8.6-9.2,15.5-17.8,17.9c-0.4,0.1-0.9-0.1-1-0.6C57.3,75.5,57.3,75.4,57.3,75.3z"/>
		</g>
		<g>
			<path class="st1" d="M40.6,61.5c0-0.2,0.1-0.4,0.2-0.6l10.1-10c0.3-0.3,0.8-0.3,1.2,0l10.2,10.3c0.2,0.2,0.3,0.5,0.2,0.8
				l-10.2,38.9c-0.1,0.4-0.4,0.6-0.8,0.6s-0.7-0.3-0.8-0.6L40.6,61.7C40.6,61.6,40.6,61.5,40.6,61.5z M51.5,52.7l-9.2,9.1l9.2,35.7
				l9.3-35.4L51.5,52.7z"/>
		</g>
		<g>
			<path class="st1" d="M50.7,51.5c0-0.2,0.1-0.4,0.2-0.6l10.3-10.2c0.2-0.2,0.5-0.3,0.8-0.2l38.9,10.2c0.4,0.1,0.6,0.4,0.6,0.8
				c0,0,0,0,0,0c0,0.4-0.3,0.7-0.6,0.8L61.7,62.4c-0.3,0.1-0.6,0-0.8-0.2l-10-10.1C50.8,51.9,50.7,51.7,50.7,51.5z M62.1,42.2
				l-9.4,9.3l9.1,9.2l35.7-9.2L62.1,42.2z"/>
		</g>
		<g class="st2">
			<polygon class="st1" points="100.7,51.5 61.5,61.6 51.5,51.5 			"/>
		</g>
		<g>
			<path class="st1" d="M40.5,41.2c0-0.1,0-0.1,0-0.2L50.7,2.1c0.1-0.4,0.4-0.6,0.8-0.6c0.4,0,0.7,0.3,0.8,0.6l10.1,39.2
				c0.1,0.3,0,0.6-0.2,0.8l-10.1,10c-0.3,0.3-0.8,0.3-1.2,0L40.7,41.7C40.6,41.6,40.5,41.4,40.5,41.2z"/>
		</g>
		<g>
			<path class="st1" d="M1.5,51.5C1.5,51.5,1.5,51.5,1.5,51.5c0-0.4,0.3-0.7,0.6-0.8l39.2-10.1c0.3-0.1,0.6,0,0.8,0.2l10,10.1
				c0.3,0.3,0.3,0.8,0,1.2L41.7,62.3c-0.2,0.2-0.5,0.3-0.8,0.2L2.1,52.3C1.8,52.2,1.5,51.9,1.5,51.5z M41.3,42.3L5.6,51.5l35.4,9.3
				l9.4-9.3L41.3,42.3z"/>
		</g>
		<g class="st2">
			<polygon class="st1" points="51.5,100.7 41.4,61.5 51.5,51.5 			"/>
		</g>
		<g class="st2">
			<polygon class="st1" points="2.3,51.5 41.5,41.4 51.5,51.5 			"/>
		</g>
	</g>
	<g>
		<g>
			<path class="st1" d="M1.8,46.3C1.8,46.3,1.8,46.2,1.8,46.3C4.2,22.8,23.1,4.1,46.5,1.7c0.5,0,0.9,0.3,0.9,0.7
				c0,0.5-0.3,0.9-0.7,0.9C24,5.6,5.8,23.7,3.4,46.4c0,0.5-0.5,0.8-0.9,0.7C2.1,47.1,1.8,46.7,1.8,46.3z"/>
		</g>
		<g>
			<path class="st1" d="M1.7,56.3c0-0.4,0.3-0.8,0.7-0.8c0.5,0,0.9,0.3,0.9,0.7c2.2,22.8,20.4,41,43.2,43.4c0.5,0,0.8,0.4,0.7,0.9
				c0,0.5-0.4,0.8-0.9,0.7C22.8,98.8,4,80,1.7,56.3C1.7,56.4,1.7,56.4,1.7,56.3z"/>
		</g>
		<g>
			<path class="st1" d="M55.7,100.4c0-0.4,0.3-0.8,0.7-0.8c22.9-2.3,41-20.6,43.2-43.5c0-0.5,0.4-0.8,0.9-0.7c0.5,0,0.8,0.4,0.7,0.9
				c-2.3,23.6-21,42.5-44.7,44.9C56.2,101.3,55.8,101,55.7,100.4C55.7,100.5,55.7,100.5,55.7,100.4z"/>
		</g>
		<g>
			<path class="st1" d="M55.6,2.6C55.6,2.5,55.6,2.5,55.6,2.6c0-0.5,0.5-0.9,0.9-0.8C80,4.1,98.8,22.8,101.2,46.3
				c0,0.4-0.3,0.9-0.7,0.9c-0.5,0-0.9-0.3-0.9-0.7C97.3,23.8,79.1,5.6,56.3,3.4C55.9,3.3,55.6,3,55.6,2.6z"/>
		</g>
	</g>
</g>
</svg>
