<?xml version="1.0" encoding="utf-8"?>
<!-- Generator: Adobe Illustrator 19.2.1, SVG Export Plug-In . SVG Version: 6.00 Build 0)  -->
<svg version="1.1" id="Layer_1" xmlns="http://www.w3.org/2000/svg" xmlns:xlink="http://www.w3.org/1999/xlink" x="0px" y="0px"
	 viewBox="0 0 103 103" style="enable-background:new 0 0 103 103;" xml:space="preserve">
<style type="text/css">
	.st0{opacity:0.8;}
	.st1{fill:#FFFFFF;}
	.st2{opacity:0.2;}
</style>
<g>
	<g>
		<g class="st0">
			<path class="st1" d="M76.4,76.4C70,82.8,61.2,86.7,51.5,86.7c-9.6,0-18.4-3.9-24.7-10.2l0,0l24.9-25.2l24.6,24.9"/>
		</g>
		<g>
			<path class="st1" d="M87.6,51.5c0,19.9-16.2,36.1-36.1,36.1c-19.9,0-36.1-16.2-36.1-36.1c0-19.9,16.2-36.1,36.1-36.1
				C71.4,15.4,87.6,31.6,87.6,51.5z M17.1,51.5c0,19,15.4,34.4,34.4,34.4c19,0,34.4-15.4,34.4-34.4S70.5,17.1,51.5,17.1
				C32.5,17.1,17.1,32.5,17.1,51.5z"/>
		</g>
		<g>
			<path class="st1" d="M45.8,75.4c0,0.1,0,0.1,0,0.2c-0.1,0.4-0.6,0.7-1,0.6c-8.6-2.4-15.5-9.2-17.9-17.8c-0.1-0.4,0.1-0.9,0.6-1
				c0.4-0.1,0.9,0.1,1,0.6c2.2,8.1,8.7,14.5,16.7,16.7C45.5,74.7,45.8,75,45.8,75.4z"/>
		</g>
		<g>
			<path class="st1" d="M76.2,58c0,0.1,0,0.1,0,0.2c-2.4,8.6-9.2,15.5-17.8,17.9c-0.4,0.1-0.9-0.1-1-0.6c-0.1-0.4,0.1-0.9,0.6-1
				c8.1-2.2,14.5-8.7,16.7-16.7c0.1-0.4,0.6-0.7,1-0.6C76,57.4,76.2,57.7,76.2,58z"/>
		</g>
		<g>
			<path class="st1" d="M75.9,44c0,0.3-0.2,0.7-0.6,0.8c-0.4,0.1-0.9-0.1-1-0.5c-2.5-7.8-8.6-13.7-16.5-15.8c-0.4-0.1-0.7-0.6-0.6-1
				c0.1-0.4,0.6-0.7,1-0.6c8.4,2.3,15,8.6,17.6,16.9C75.9,43.8,75.9,43.9,75.9,44z"/>
		</g>
		<g>
			<path class="st1" d="M45.7,27.7c0,0.4-0.2,0.7-0.6,0.8c-8.1,2.2-14.5,8.7-16.7,16.7c-0.1,0.4-0.6,0.7-1,0.6
				c-0.4-0.1-0.7-0.6-0.6-1c2.4-8.6,9.2-15.5,17.8-17.9c0.4-0.1,0.9,0.1,1,0.6C45.7,27.5,45.7,27.6,45.7,27.7z"/>
		</g>
		<g>
			<path class="st1" d="M62.4,41.5c0,0.2-0.1,0.4-0.2,0.6l-10.1,10c-0.3,0.3-0.8,0.3-1.2,0L40.7,41.7c-0.2-0.2-0.3-0.5-0.2-0.8
				L50.7,2.1c0.1-0.4,0.4-0.6,0.8-0.6c0.4,0,0.7,0.3,0.8,0.6l10.1,39.2C62.4,41.4,62.4,41.5,62.4,41.5z M51.5,50.3l9.2-9.1L51.5,5.6
				l-9.3,35.4L51.5,50.3z"/>
		</g>
		<g>
			<path class="st1" d="M52.3,51.5c0,0.2-0.1,0.4-0.2,0.6L41.7,62.3c-0.2,0.2-0.5,0.3-0.8,0.2L2.1,52.3c-0.4-0.1-0.6-0.4-0.6-0.8
				c0,0,0,0,0,0c0-0.4,0.3-0.7,0.6-0.8l39.2-10.1c0.3-0.1,0.6,0,0.8,0.2l10,10.1C52.2,51.1,52.3,51.3,52.3,51.5z M40.9,60.8l9.4-9.3
				l-9.1-9.2L5.6,51.5L40.9,60.8z"/>
		</g>
		<g class="st2">
			<polygon class="st1" points="2.3,51.5 41.5,41.4 51.5,51.5 			"/>
		</g>
		<g>
			<path class="st1" d="M62.5,61.8c0,0.1,0,0.1,0,0.2l-10.2,38.9c-0.1,0.4-0.4,0.6-0.8,0.6s-0.7-0.3-0.8-0.6L40.6,61.7
				c-0.1-0.3,0-0.6,0.2-0.8l10.1-10c0.3-0.3,0.8-0.3,1.2,0l10.2,10.3C62.4,61.4,62.5,61.6,62.5,61.8z"/>
		</g>
		<g>
			<path class="st1" d="M101.5,51.5C101.5,51.5,101.5,51.5,101.5,51.5c0,0.4-0.3,0.7-0.6,0.8L61.7,62.4c-0.3,0.1-0.6,0-0.8-0.2
				l-10-10.1c-0.3-0.3-0.3-0.8,0-1.2l10.3-10.2c0.2-0.2,0.5-0.3,0.8-0.2l38.9,10.2C101.2,50.8,101.5,51.1,101.5,51.5z M61.7,60.7
				l35.7-9.2l-35.4-9.3l-9.4,9.3L61.7,60.7z"/>
		</g>
		<g class="st2">
			<polygon class="st1" points="51.5,2.3 61.6,41.5 51.5,51.5 			"/>
		</g>
		<g class="st2">
			<polygon class="st1" points="100.7,51.5 61.5,61.6 51.5,51.5 			"/>
		</g>
	</g>
	<g>
		<g>
			<path class="st1" d="M101.2,56.7C101.2,56.7,101.2,56.8,101.2,56.7c-2.5,23.5-21.3,42.2-44.7,44.5c-0.5,0-0.9-0.3-0.9-0.7
				c0-0.5,0.3-0.9,0.7-0.9c22.7-2.2,40.9-20.3,43.3-43c0-0.5,0.5-0.8,0.9-0.7C100.9,55.9,101.2,56.3,101.2,56.7z"/>
		</g>
		<g>
			<path class="st1" d="M101.3,46.7c0,0.4-0.3,0.8-0.7,0.8c-0.5,0-0.9-0.3-0.9-0.7c-2.2-22.8-20.4-41-43.2-43.4
				c-0.5,0-0.8-0.4-0.7-0.9c0-0.5,0.4-0.8,0.9-0.7C80.2,4.2,99,23,101.3,46.7C101.3,46.6,101.3,46.6,101.3,46.7z"/>
		</g>
		<g>
			<path class="st1" d="M47.3,2.6c0,0.4-0.3,0.8-0.7,0.8C23.7,5.7,5.5,24,3.4,46.9c0,0.5-0.4,0.8-0.9,0.7c-0.5,0-0.8-0.4-0.7-0.9
				C4,23.1,22.8,4.2,46.4,1.8C46.8,1.7,47.2,2,47.3,2.6C47.3,2.5,47.3,2.5,47.3,2.6z"/>
		</g>
		<g>
			<path class="st1" d="M47.4,100.4C47.4,100.5,47.4,100.5,47.4,100.4c0,0.5-0.5,0.9-0.9,0.8C23,98.9,4.2,80.2,1.8,56.7
				c0-0.4,0.3-0.9,0.7-0.9c0.5,0,0.9,0.3,0.9,0.7c2.3,22.7,20.5,40.9,43.3,43.1C47.1,99.7,47.4,100,47.4,100.4z"/>
		</g>
	</g>
</g>
</svg>
