<?xml version="1.0" encoding="utf-8"?>
<!-- Generator: Adobe Illustrator 19.2.1, SVG Export Plug-In . SVG Version: 6.00 Build 0)  -->
<svg version="1.1" id="Layer_1" xmlns="http://www.w3.org/2000/svg" xmlns:xlink="http://www.w3.org/1999/xlink" x="0px" y="0px"
	 viewBox="0 0 103 103" style="enable-background:new 0 0 103 103;" xml:space="preserve">
<style type="text/css">
	.st0{fill:#FFFFFF;}
	.st1{clip-path:url(#SVGID_2_);}
	.st2{clip-path:url(#SVGID_4_);}
	.st3{clip-path:url(#SVGID_6_);}
	.st4{clip-path:url(#SVGID_8_);}
</style>
<g>
	<g>
		<path class="st0" d="M51.5,101.5c-27.6,0-50-22.4-50-50s22.4-50,50-50s50,22.4,50,50S79.1,101.5,51.5,101.5z M51.5,3.1
			C24.8,3.1,3.1,24.8,3.1,51.5s21.7,48.4,48.4,48.4s48.4-21.7,48.4-48.4S78.2,3.1,51.5,3.1z"/>
		<path class="st0" d="M51.5,101.5c-0.2,0-0.4-0.1-0.6-0.3c-0.5-0.6-12.8-14.1-11.7-29.6C39.8,63.8,43.8,56.9,51,51
			c6.9-5.5,10.6-12.1,11.2-19.5C63.2,16.7,51,3.2,50.9,3.1c-0.3-0.3-0.3-0.9,0-1.2c0.3-0.3,0.9-0.3,1.2,0
			c0.5,0.6,12.8,14.1,11.7,29.7c-0.6,7.9-4.5,14.8-11.8,20.6c-6.9,5.5-10.6,12.1-11.2,19.5C39.8,86.6,52,100,52.1,100.1
			c0.3,0.3,0.3,0.9,0,1.2C51.9,101.4,51.7,101.5,51.5,101.5z"/>
		<path class="st0" d="M73.6,64c-0.7,0-1.4,0-2-0.1c-7.9-0.6-14.8-4.5-20.6-11.8C45.4,45.3,38.8,41.5,31.4,41
			C16.6,39.9,3.1,52.1,3,52.2c-0.3,0.3-0.9,0.3-1.2,0c-0.3-0.3-0.3-0.9,0-1.2C2.4,50.5,16,38.2,31.6,39.3
			c7.9,0.6,14.8,4.5,20.6,11.8c5.5,6.9,12.1,10.6,19.5,11.2C86.4,63.3,99.9,51.1,100,51c0.3-0.3,0.9-0.3,1.2,0
			c0.3,0.3,0.3,0.9,0,1.2C100.6,52.7,88.2,64,73.6,64z"/>
	</g>
	<g>
		<defs>
			<path id="SVGID_1_" d="M51.5,2.8c0,0,25.9,28.2,0.1,49.1l0,0c-20.9-26-49.1,0-49.1,0H2.3c0,0,0-0.1,0-0.1
				c0-27.2,22-49.2,49.2-49.2h0L51.5,2.8z"/>
		</defs>
		<clipPath id="SVGID_2_">
			<use xlink:href="#SVGID_1_"  style="overflow:visible;"/>
		</clipPath>
		<g class="st1">
			<path class="st0" d="M53.4,23.9c-0.2,0-0.3,0-0.4-0.1c-0.4-0.2-0.5-0.8-0.2-1.1L65,3.5c0.2-0.4,0.8-0.5,1.1-0.2
				c0.4,0.2,0.5,0.8,0.2,1.1L54.1,23.5C53.9,23.8,53.7,23.9,53.4,23.9z"/>
			<path class="st0" d="M68.7,9.7C68.7,9.7,68.6,9.7,68.7,9.7l-5.9-0.5c-0.3,0-0.5-0.2-0.6-0.4l-2.8-5c-0.2-0.4-0.1-0.9,0.3-1.1
				c0.4-0.2,0.9-0.1,1.1,0.3l2.6,4.7l5.4,0.5c0.5,0,0.8,0.4,0.7,0.9C69.5,9.4,69.1,9.7,68.7,9.7z"/>
			<path class="st0" d="M67.2,12C67.2,12,67.2,12,67.2,12l-5.9-0.5c-0.3,0-0.5-0.2-0.6-0.4l-2.8-5c-0.2-0.4-0.1-0.9,0.3-1.1
				c0.4-0.2,0.9-0.1,1.1,0.3l2.6,4.7l5.4,0.5c0.5,0,0.8,0.4,0.7,0.9C68,11.7,67.6,12,67.2,12z"/>
			<g>
				<path class="st0" d="M53.4,23.9c-0.3,0-0.6-0.2-0.7-0.4c-0.2-0.4,0-0.9,0.4-1.1l13.1-6.7c0.4-0.2,0.9,0,1.1,0.4
					c0.2,0.4,0,0.9-0.4,1.1l-13.1,6.7C53.6,23.9,53.5,23.9,53.4,23.9z"/>
				<path class="st0" d="M66,19.7c-0.1,0-0.2,0-0.3-0.1l-2.1-1.5c-0.1-0.1-0.2-0.3-0.2-0.5l0-2.5c0-0.3,0.2-0.5,0.5-0.5c0,0,0,0,0,0
					c0.3,0,0.5,0.3,0.5,0.6l0,2.2l1.8,1.3c0.2,0.2,0.3,0.5,0.1,0.8C66.4,19.6,66.2,19.7,66,19.7z"/>
				<path class="st0" d="M64.5,20.5c-0.1,0-0.2,0-0.3-0.1l-2.1-1.5c-0.1-0.1-0.2-0.3-0.2-0.5l0-2.5c0-0.3,0.2-0.5,0.5-0.5
					c0,0,0,0,0,0c0.3,0,0.5,0.3,0.5,0.6l0,2.2l1.8,1.3c0.2,0.2,0.3,0.5,0.1,0.8C64.8,20.4,64.7,20.5,64.5,20.5z"/>
			</g>
			<path class="st0" d="M60.6,28.3c-0.3,0-0.5-0.2-0.5-0.4l-0.8-4.3c0-0.1,0-0.2,0-0.3l1.1-3.7l-3.7-1.3c-0.1,0-0.2-0.1-0.2-0.1
				l-2.7-2.8l-2.9,2.6c-0.2,0.2-0.6,0.2-0.8-0.1c-0.2-0.2-0.2-0.6,0.1-0.8l3.3-2.9c0.2-0.2,0.6-0.2,0.8,0l2.9,3.1l4,1.4
				c0.3,0.1,0.4,0.4,0.3,0.7l-1.2,4.1l0.8,4.2c0.1,0.3-0.1,0.6-0.4,0.6C60.6,28.3,60.6,28.3,60.6,28.3z"/>
			<path class="st0" d="M76.1,25C76.1,25,76.1,25,76.1,25l-22.7-1.1c-0.5,0-0.8-0.4-0.8-0.9c0-0.5,0.4-0.8,0.9-0.8l22.7,1.1
				c0.5,0,0.8,0.4,0.8,0.9C76.9,24.7,76.5,25,76.1,25z"/>
			<path class="st0" d="M73.3,30.1c-0.3,0-0.6-0.2-0.7-0.5l-2.5-5.3c-0.1-0.2-0.1-0.5,0-0.8l3-5c0.2-0.4,0.7-0.5,1.1-0.3
				c0.4,0.2,0.5,0.7,0.3,1.1L71.8,24l2.3,4.9c0.2,0.4,0,0.9-0.4,1.1C73.5,30,73.4,30.1,73.3,30.1z"/>
			<path class="st0" d="M70.6,29.9c-0.3,0-0.6-0.2-0.7-0.5l-2.5-5.3c-0.1-0.2-0.1-0.5,0-0.8l3-5c0.2-0.4,0.7-0.5,1.1-0.3
				c0.4,0.2,0.5,0.7,0.3,1.1l-2.7,4.6l2.3,4.9c0.2,0.4,0,0.9-0.4,1.1C70.8,29.9,70.7,29.9,70.6,29.9z"/>
			<g>
				<path class="st0" d="M65.7,31.9c-0.2,0-0.3,0-0.4-0.1l-12.3-8c-0.4-0.2-0.5-0.8-0.2-1.1c0.2-0.4,0.8-0.5,1.1-0.2l12.3,8
					c0.4,0.2,0.5,0.8,0.2,1.1C66.3,31.7,66,31.9,65.7,31.9z"/>
				<path class="st0" d="M63.1,32.6C63.1,32.6,63.1,32.6,63.1,32.6c-0.4,0-0.6-0.3-0.5-0.6l0.2-2.5c0-0.2,0.1-0.3,0.3-0.4l2.2-1.2
					c0.3-0.1,0.6-0.1,0.7,0.2c0.1,0.3,0.1,0.6-0.2,0.7l-1.9,1.1l-0.2,2.2C63.6,32.4,63.4,32.6,63.1,32.6z"/>
				<path class="st0" d="M61.7,31.7C61.6,31.7,61.6,31.7,61.7,31.7c-0.4,0-0.6-0.3-0.5-0.6l0.2-2.5c0-0.2,0.1-0.3,0.3-0.4l2.2-1.2
					c0.3-0.1,0.6-0.1,0.7,0.2c0.1,0.3,0.1,0.6-0.2,0.7l-1.9,1.1l-0.2,2.2C62.2,31.4,61.9,31.7,61.7,31.7z"/>
			</g>
			<path class="st0" d="M63.8,44.1c-0.3,0-0.6-0.2-0.7-0.4L52.7,23.5c-0.2-0.4,0-0.9,0.4-1.1c0.4-0.2,0.9,0,1.1,0.4l10.4,20.2
				c0.2,0.4,0,0.9-0.4,1.1C64,44.1,63.9,44.1,63.8,44.1z"/>
			<path class="st0" d="M58,44.2c-0.2,0-0.3,0-0.5-0.1c-0.4-0.3-0.5-0.8-0.2-1.1l3.4-4.8c0.2-0.2,0.4-0.4,0.7-0.3l5.8,0.1
				c0.5,0,0.8,0.4,0.8,0.8c0,0.5-0.4,0.8-0.8,0.8l-5.3-0.1l-3.1,4.4C58.5,44.1,58.3,44.2,58,44.2z"/>
			<path class="st0" d="M56.8,41.8c-0.2,0-0.3,0-0.5-0.1c-0.4-0.3-0.5-0.8-0.2-1.1l3.4-4.8c0.2-0.2,0.4-0.3,0.7-0.3l5.8,0.1
				c0.5,0,0.8,0.4,0.8,0.8c0,0.5-0.4,0.8-0.8,0.8l-5.3-0.1l-3.1,4.4C57.3,41.7,57,41.8,56.8,41.8z"/>
			<g>
				<path class="st0" d="M52.7,38.6C52.7,38.6,52.6,38.6,52.7,38.6c-0.5,0-0.8-0.4-0.8-0.9L52.6,23c0-0.5,0.4-0.8,0.9-0.8
					c0.5,0,0.8,0.4,0.8,0.9l-0.7,14.7C53.5,38.2,53.1,38.6,52.7,38.6z"/>
				<path class="st0" d="M54.9,36.8c-0.1,0-0.2,0-0.3-0.1l-1.9-1.1l-2,0.9c-0.3,0.1-0.6,0-0.7-0.3c-0.1-0.3,0-0.6,0.3-0.7l2.3-1.1
					c0.2-0.1,0.4-0.1,0.5,0l2.1,1.3c0.3,0.2,0.3,0.5,0.2,0.7C55.3,36.7,55.1,36.8,54.9,36.8z"/>
				<path class="st0" d="M55,35c-0.1,0-0.2,0-0.3-0.1l-1.9-1.1l-2,0.9c-0.3,0.1-0.6,0-0.7-0.3c-0.1-0.3,0-0.6,0.3-0.7l2.3-1.1
					c0.2-0.1,0.4-0.1,0.5,0l2.1,1.3c0.3,0.2,0.3,0.5,0.2,0.7C55.4,34.9,55.2,35,55,35z"/>
			</g>
			<path class="st0" d="M41.1,43c-0.2,0-0.3,0-0.4-0.1c-0.4-0.2-0.5-0.8-0.2-1.1l12.3-19.1c0.2-0.4,0.8-0.5,1.1-0.2
				c0.4,0.2,0.5,0.8,0.2,1.1L41.8,42.6C41.6,42.9,41.3,43,41.1,43z"/>
			<path class="st0" d="M46.7,43.6c-0.3,0-0.6-0.2-0.7-0.4l-2.6-4.7L38,38.1c-0.5,0-0.8-0.4-0.7-0.9c0-0.5,0.4-0.8,0.9-0.7L44,37
				c0.3,0,0.5,0.2,0.6,0.4l2.8,5c0.2,0.4,0.1,0.9-0.3,1.1C47,43.6,46.9,43.6,46.7,43.6z"/>
			<path class="st0" d="M48.2,41.4c-0.3,0-0.6-0.2-0.7-0.4l-2.6-4.7l-5.4-0.5c-0.5,0-0.8-0.4-0.7-0.9c0-0.5,0.4-0.8,0.9-0.7l5.8,0.5
				c0.3,0,0.5,0.2,0.6,0.4l2.8,5c0.2,0.4,0.1,0.9-0.3,1.1C48.5,41.3,48.3,41.4,48.2,41.4z"/>
			<g>
				<path class="st0" d="M40.3,30.6c-0.3,0-0.6-0.2-0.7-0.4c-0.2-0.4,0-0.9,0.4-1.1L53,22.3c0.4-0.2,0.9,0,1.1,0.4
					c0.2,0.4,0,0.9-0.4,1.1l-13.1,6.7C40.6,30.6,40.4,30.6,40.3,30.6z"/>
				<path class="st0" d="M42.8,31.5C42.8,31.5,42.8,31.5,42.8,31.5c-0.3,0-0.6-0.3-0.5-0.6l0-2.2l-1.8-1.3c-0.2-0.2-0.3-0.5-0.1-0.8
					c0.2-0.2,0.5-0.3,0.8-0.1l2.1,1.5c0.1,0.1,0.2,0.3,0.2,0.5l0,2.5C43.3,31.3,43.1,31.5,42.8,31.5z"/>
				<path class="st0" d="M44.3,30.7C44.3,30.7,44.3,30.7,44.3,30.7c-0.3,0-0.6-0.3-0.5-0.6l0-2.2L42,26.7c-0.2-0.2-0.3-0.5-0.1-0.8
					c0.2-0.2,0.5-0.3,0.8-0.1l2.1,1.5c0.1,0.1,0.2,0.3,0.2,0.5l0,2.5C44.9,30.5,44.6,30.7,44.3,30.7z"/>
			</g>
			<path class="st0" d="M53.4,23.9C53.4,23.9,53.4,23.9,53.4,23.9l-22.7-1.1c-0.5,0-0.8-0.4-0.8-0.9c0-0.5,0.4-0.8,0.9-0.8l22.7,1.1
				c0.5,0,0.8,0.4,0.8,0.9C54.2,23.6,53.8,23.9,53.4,23.9z"/>
			<path class="st0" d="M32.9,28c-0.1,0-0.3,0-0.4-0.1c-0.4-0.2-0.5-0.7-0.3-1.1l2.7-4.6l-2.3-4.9c-0.2-0.4,0-0.9,0.4-1.1
				c0.4-0.2,0.9,0,1.1,0.4l2.5,5.3c0.1,0.2,0.1,0.5,0,0.8l-3,5C33.5,27.9,33.2,28,32.9,28z"/>
			<path class="st0" d="M35.7,28.1c-0.1,0-0.3,0-0.4-0.1c-0.4-0.2-0.5-0.7-0.3-1.1l2.7-4.6l-2.3-4.9c-0.2-0.4,0-0.9,0.4-1.1
				c0.4-0.2,0.9,0,1.1,0.4l2.5,5.3c0.1,0.2,0.1,0.5,0,0.8l-3,5C36.2,28,35.9,28.1,35.7,28.1z"/>
			<g>
				<path class="st0" d="M53.4,23.9c-0.2,0-0.3,0-0.4-0.1l-12.3-8c-0.4-0.2-0.5-0.8-0.2-1.1c0.2-0.4,0.8-0.5,1.1-0.2l12.3,8
					c0.4,0.2,0.5,0.8,0.2,1.1C53.9,23.8,53.7,23.9,53.4,23.9z"/>
				<path class="st0" d="M41.2,18.4c-0.2,0-0.4-0.1-0.5-0.3c-0.1-0.3-0.1-0.6,0.2-0.7l1.9-1.1l0.2-2.2c0-0.3,0.3-0.5,0.6-0.5
					c0.3,0,0.5,0.3,0.5,0.6L44,16.7c0,0.2-0.1,0.3-0.3,0.4l-2.2,1.2C41.4,18.4,41.3,18.4,41.2,18.4z"/>
				<path class="st0" d="M42.7,19.3c-0.2,0-0.4-0.1-0.5-0.3c-0.1-0.3-0.1-0.6,0.2-0.7l1.9-1.1l0.2-2.2c0-0.3,0.3-0.5,0.6-0.5
					c0.3,0,0.5,0.3,0.5,0.6l-0.2,2.5c0,0.2-0.1,0.3-0.3,0.4L43,19.3C42.9,19.3,42.8,19.3,42.7,19.3z"/>
			</g>
			<path class="st0" d="M53,32.2c-0.1,0-0.3-0.1-0.4-0.2l-2.9-3.1l-4-1.4c-0.3-0.1-0.4-0.4-0.3-0.7l1.2-4.1l-0.8-4.2
				c-0.1-0.3,0.1-0.6,0.4-0.6l4.3-1c0.3-0.1,0.6,0.1,0.7,0.4c0.1,0.3-0.1,0.6-0.4,0.7l-3.8,0.9l0.7,3.8c0,0.1,0,0.2,0,0.3l-1.1,3.7
				l3.7,1.3c0.1,0,0.2,0.1,0.2,0.1l2.7,2.8l2.9-2.6c0.1-0.1,0.1-0.1,0.2-0.1l4.3-1c0.3-0.1,0.6,0.1,0.7,0.4c0.1,0.3-0.1,0.6-0.4,0.7
				l-4.2,1L53.3,32C53.2,32.1,53.1,32.2,53,32.2z"/>
			<path class="st0" d="M53.4,23.9c-0.3,0-0.6-0.2-0.7-0.4L42.3,3.2c-0.2-0.4,0-0.9,0.4-1.1c0.4-0.2,0.9,0,1.1,0.4l10.4,20.2
				c0.2,0.4,0,0.9-0.4,1.1C53.6,23.9,53.5,23.9,53.4,23.9z"/>
			<path class="st0" d="M45.4,8.3C45.4,8.3,45.4,8.3,45.4,8.3l-5.8-0.1c-0.5,0-0.8-0.4-0.8-0.8c0-0.5,0.4-0.8,0.8-0.8L45,6.7
				l3.1-4.4c0.3-0.4,0.8-0.5,1.1-0.2s0.5,0.8,0.2,1.1L46.1,8C45.9,8.2,45.6,8.3,45.4,8.3z"/>
			<path class="st0" d="M46.6,10.8C46.6,10.8,46.6,10.8,46.6,10.8l-5.8-0.1c-0.5,0-0.8-0.4-0.8-0.8C40,9.4,40.4,9,40.9,9l5.3,0.1
				l3.1-4.4c0.3-0.4,0.8-0.5,1.1-0.2c0.4,0.3,0.5,0.8,0.2,1.1l-3.4,4.8C47.1,10.6,46.9,10.8,46.6,10.8z"/>
			<g>
				<path class="st0" d="M53.4,23.9C53.4,23.9,53.4,23.9,53.4,23.9c-0.5,0-0.8-0.4-0.8-0.9l0.7-14.7c0-0.5,0.4-0.8,0.9-0.8
					c0.5,0,0.8,0.4,0.8,0.9l-0.7,14.7C54.2,23.6,53.8,23.9,53.4,23.9z"/>
				<path class="st0" d="M54,11.8c-0.1,0-0.2,0-0.3-0.1l-2.1-1.3c-0.3-0.2-0.3-0.5-0.2-0.7c0.2-0.3,0.5-0.3,0.7-0.2l1.9,1.1l2-0.9
					c0.3-0.1,0.6,0,0.7,0.3c0.1,0.3,0,0.6-0.3,0.7l-2.3,1.1C54.1,11.7,54.1,11.8,54,11.8z"/>
				<path class="st0" d="M53.9,13.5c-0.1,0-0.2,0-0.3-0.1l-2.1-1.3c-0.3-0.2-0.3-0.5-0.2-0.7c0.2-0.3,0.5-0.3,0.7-0.2l1.9,1.1l2-0.9
					c0.3-0.1,0.6,0,0.7,0.3c0.1,0.3,0,0.6-0.3,0.7l-2.3,1.1C54.1,13.5,54,13.5,53.9,13.5z"/>
			</g>
		</g>
	</g>
	<g>
		<defs>
			<path id="SVGID_3_" d="M51.6,51.9C51.5,51.9,51.5,51.9,51.6,51.9c-26,21-0.1,49.1-0.1,49.1C24.4,101,2.4,79,2.3,51.9h0.1
				C2.4,51.9,30.6,26,51.6,51.9L51.6,51.9z"/>
		</defs>
		<clipPath id="SVGID_4_">
			<use xlink:href="#SVGID_3_"  style="overflow:visible;"/>
		</clipPath>
		<g class="st2">
			<g>
				<path class="st0" d="M12.4,72.7c-0.3,0-0.5-0.1-0.7-0.3c-0.2-0.2-0.2-0.5-0.1-0.8l1.3-3.4c0.1-0.2,0.2-0.4,0.3-0.6
					c-1.1,0.4-2.4,0.8-3.5,0.9c-3.4,0.3-9.9-3.7-10.7-4.1c-0.4-0.2-0.5-0.7-0.3-1.1c0.4-0.7,4.3-7.1,5.9-8.3
					c1.3-0.9,4.8-0.3,7.1,0.3c-1-2.5-2.8-7.3-3.1-8.6c-0.4-1.8,2.2-11,3-13.8c0.1-0.3,0.3-0.5,0.5-0.5c0.2-0.1,0.5-0.1,0.7,0.1
					c2.4,1.6,10.4,7,11.2,8.6c0.6,1.2,2.3,6,3.2,8.5c1.4-1.9,3.6-4.7,5.2-4.8c2-0.2,8.7,2.3,10,2.8c0.4,0.2,0.6,0.6,0.5,1
					c-0.3,0.8-2.7,7.7-5.5,9.7c-1,0.7-2.1,1.2-3.3,1.6c0.3,0.1,0.6,0.2,0.8,0.4l3,1.7c0.2,0.1,0.4,0.4,0.4,0.6
					c0,0.3-0.1,0.5-0.3,0.7c-0.5,0.4-4.8,3.9-6.9,4.3c-2.2,0.4-6-0.7-6.1-0.7c-0.2-0.1-0.3-0.2-0.4-0.3c0,0.2,0,0.4-0.1,0.5
					c-0.1,0.1-2.2,3.4-4.1,4.5C18.6,72.6,13.1,72.7,12.4,72.7C12.4,72.7,12.4,72.7,12.4,72.7z M16.9,64.1c0.2,0,0.5,0.1,0.7,0.3
					c0.3,0.3,0.2,0.8-0.1,1.1l-2.2,2c-0.4,0.3-0.6,0.8-0.8,1.2L13.6,71c2.2-0.1,5.1-0.4,6.1-1c1.3-0.8,3-3.1,3.6-4
					c0.2-0.4,0.8-0.5,1.1-0.2c0.1,0.1,0.2,0.1,0.2,0.2c0-0.1,0-0.2,0-0.3c0.1-0.4,0.6-0.7,1-0.6c1,0.3,3.9,1,5.4,0.7
					c1.1-0.2,3.5-1.9,5.3-3.2l-1.9-1.1c-0.5-0.3-1.2-0.5-1.8-0.5L29.8,61c-0.4,0-0.8-0.3-0.8-0.8c0-0.4,0.3-0.8,0.7-0.9
					c0,0,4.4-0.8,6.9-2.5c1.8-1.3,3.7-5.8,4.6-8.1c-3-1.1-7.4-2.5-8.5-2.4c-0.9,0.1-3.3,2.9-4.9,5.5c-0.2,0.3-0.5,0.4-0.8,0.4
					c-0.3,0-0.6-0.3-0.7-0.6c-0.8-2.3-3-8.6-3.6-9.8c-0.4-0.8-5.2-4.2-9.8-7.4c-1.5,5.4-2.8,11-2.6,11.9c0.3,1.3,2.7,7.5,3.6,9.8
					c0.1,0.3,0.1,0.6-0.2,0.9c-0.2,0.2-0.5,0.3-0.8,0.2c-2.9-0.9-6.6-1.4-7.3-0.9c-0.9,0.7-3.4,4.4-5,7.1c2.3,1.3,6.8,3.6,8.9,3.5
					c3-0.3,6.9-2.5,6.9-2.6C16.6,64.2,16.7,64.1,16.9,64.1z"/>
				<path class="st0" d="M25.9,77c-0.1,0-0.2,0-0.3-0.1c-0.1-0.1-0.2-0.3-0.2-0.4c0.2-7.6-13.2-42.5-13.3-42.9
					c-0.1-0.3,0-0.6,0.3-0.7c0.3-0.1,0.6,0,0.7,0.3c0.6,1.4,15.3,34.9,15.1,42.8c0,0.2-0.2,0.4-0.4,0.5L26.1,77C26,77,26,77,25.9,77
					z M21.5,56.7c2.6,7.8,4.7,15.3,4.9,19l0.6-0.2C27,72.2,24.5,64.5,21.5,56.7z"/>
				<path class="st0" d="M-0.5,64.2C-0.8,64.2-1,64-1,63.7c0-0.3,0.2-0.6,0.5-0.6c0.1,0,12.7-1.2,21.6-5.6c0.3-0.1,0.6,0,0.7,0.2
					c0.1,0.3,0,0.6-0.2,0.7C12.5,63-0.3,64.2-0.5,64.2C-0.5,64.2-0.5,64.2-0.5,64.2z"/>
				<path class="st0" d="M12.4,72.4c-0.2,0-0.4-0.1-0.5-0.3c-0.1-0.3,0-0.6,0.3-0.7c0.1,0,7.5-3.4,10.8-7.2c0.2-0.2,0.5-0.3,0.8-0.1
					c0.2,0.2,0.3,0.5,0.1,0.8c-3.4,4-10.8,7.3-11.1,7.5C12.6,72.4,12.5,72.4,12.4,72.4z"/>
				<path class="st0" d="M16.9,65.5c-0.2,0-0.4-0.1-0.5-0.3c-0.2-0.3-0.1-0.6,0.2-0.8c0,0,4.4-2.7,5.5-3.6c0.2-0.2,0.6-0.2,0.8,0.1
					c0.2,0.2,0.2,0.6-0.1,0.8c-1.1,0.9-5.4,3.5-5.6,3.7C17.1,65.5,17,65.5,16.9,65.5z"/>
				<path class="st0" d="M18.2,59.9c-0.1,0-0.1,0-0.2,0c-2.3-1-5-2.9-5.2-3c-0.2-0.2-0.3-0.5-0.1-0.8c0.2-0.2,0.5-0.3,0.8-0.1
					c0,0,2.8,1.9,4.9,2.9c0.3,0.1,0.4,0.4,0.3,0.7C18.7,59.7,18.5,59.9,18.2,59.9z"/>
				<path class="st0" d="M15.2,47.8c-2.6,0-5.7-0.8-5.8-0.8c-0.3-0.1-0.5-0.4-0.4-0.7c0.1-0.3,0.4-0.5,0.7-0.4
					c0.1,0,5.3,1.4,7.7,0.5c0.3-0.1,0.6,0,0.7,0.3c0.1,0.3,0,0.6-0.3,0.7C17,47.7,16.1,47.8,15.2,47.8z"/>
				<path class="st0" d="M15.3,48.5c-2.6,0-5.5-0.7-5.6-0.7c-0.3-0.1-0.5-0.4-0.4-0.7c0.1-0.3,0.4-0.5,0.7-0.4
					c0.1,0,5.2,1.2,7.7,0.4c0.3-0.1,0.6,0.1,0.7,0.3c0.1,0.3-0.1,0.6-0.3,0.7C17.2,48.4,16.3,48.5,15.3,48.5z"/>
				<path class="st0" d="M19.3,57.3c-3.4,0-6.5-1.4-6.7-1.5c-0.3-0.1-0.4-0.4-0.3-0.7c0.1-0.3,0.4-0.4,0.7-0.3c0,0,4,1.8,7.6,1.3
					c0.3,0,0.6,0.2,0.6,0.5c0,0.3-0.2,0.6-0.5,0.6C20.3,57.3,19.8,57.3,19.3,57.3z"/>
				<path class="st0" d="M18.2,54.6c-3.2,0-6.3-1-6.4-1c-0.3-0.1-0.4-0.4-0.4-0.7c0.1-0.3,0.4-0.4,0.7-0.4c0,0,4.2,1.3,7.7,0.9
					c0.3,0,0.6,0.2,0.6,0.5c0,0.3-0.2,0.6-0.5,0.6C19.4,54.6,18.8,54.6,18.2,54.6z"/>
				<path class="st0" d="M18.4,55.2c-3.2,0-6.3-1-6.4-1c-0.3-0.1-0.4-0.4-0.4-0.7c0.1-0.3,0.4-0.4,0.7-0.4c0,0,4.2,1.3,7.7,0.9
					c0.3,0,0.6,0.2,0.6,0.5c0,0.3-0.2,0.6-0.5,0.6C19.6,55.2,19,55.2,18.4,55.2z"/>
				<path class="st0" d="M16.8,45.2c-0.1,0-0.2,0-0.3-0.1c-2.6-1.6-5.9-5.7-6-5.9c-0.2-0.2-0.1-0.6,0.1-0.8c0.2-0.2,0.6-0.1,0.8,0.1
					c0,0,3.3,4.1,5.7,5.6c0.3,0.2,0.3,0.5,0.2,0.8C17.1,45.1,16.9,45.2,16.8,45.2z"/>
				<path class="st0" d="M14.6,66.7c-0.2,0-0.3-0.1-0.4-0.2c-0.2-0.2-0.2-0.6,0.1-0.8c2.6-2.2,5.3-7.2,5.3-7.3
					c0.1-0.3,0.5-0.4,0.7-0.2c0.3,0.1,0.4,0.5,0.2,0.7c-0.1,0.2-2.8,5.3-5.6,7.6C14.9,66.6,14.7,66.7,14.6,66.7z"/>
				<path class="st0" d="M7.9,68c-0.2,0-0.4-0.1-0.5-0.3c-0.1-0.3-0.1-0.6,0.2-0.7c1.4-0.8,4.9-5,6.1-6.5c0.2-0.2,0.5-0.3,0.8-0.1
					c0.2,0.2,0.3,0.5,0.1,0.8c-0.2,0.2-4.5,5.7-6.4,6.8C8.1,68,8,68,7.9,68z"/>
				<path class="st0" d="M12.3,61.8c-0.2,0-0.4-0.1-0.5-0.3C11.1,60,7,56.9,5.4,55.8c-0.2-0.2-0.3-0.5-0.1-0.8
					c0.2-0.2,0.5-0.3,0.8-0.1c0.6,0.4,5.8,4.1,6.7,6.1c0.1,0.3,0,0.6-0.3,0.7C12.4,61.8,12.4,61.8,12.3,61.8z"/>
				<path class="st0" d="M7.5,62.9c-0.2,0-0.3-0.1-0.4-0.2c-0.7-1-3.6-2.6-4.7-3.1c-0.3-0.1-0.4-0.5-0.3-0.7
					c0.1-0.3,0.5-0.4,0.7-0.3c0.4,0.2,4.1,2,5.1,3.4c0.2,0.2,0.1,0.6-0.1,0.8C7.8,62.9,7.7,62.9,7.5,62.9z"/>
				<path class="st0" d="M2.5,65.7c-0.2,0-0.4-0.1-0.5-0.3c-0.1-0.3-0.1-0.6,0.2-0.7c0,0,2-1.1,3.3-2.4c0.2-0.2,0.6-0.2,0.8,0
					c0.2,0.2,0.2,0.6,0,0.8c-1.3,1.3-3.4,2.5-3.5,2.5C2.6,65.7,2.5,65.7,2.5,65.7z"/>
				<path class="st0" d="M16.4,42.9c-0.1,0-0.2,0-0.3-0.1c-0.2-0.2-0.3-0.5-0.1-0.8c1.6-2,1.8-4.9,1.8-4.9c0-0.3,0.3-0.5,0.6-0.5
					c0.3,0,0.5,0.3,0.5,0.6c0,0.1-0.2,3.3-2,5.6C16.7,42.8,16.5,42.9,16.4,42.9z"/>
				<path class="st0" d="M19.5,50.5c-0.1,0-0.3,0-0.4-0.1c-0.2-0.2-0.2-0.5,0-0.8c2.4-2.7,3.8-8.3,3.8-8.4c0.1-0.3,0.4-0.5,0.7-0.4
					c0.3,0.1,0.5,0.4,0.4,0.7c-0.1,0.2-1.5,5.9-4.1,8.8C19.8,50.4,19.6,50.5,19.5,50.5z"/>
				<path class="st0" d="M25.8,57.8c-0.1,0-0.1,0-0.2,0c-0.3-0.1-0.4-0.4-0.3-0.7c1.3-3.1,1.3-5.7,1.3-5.7c0-0.3,0.2-0.6,0.5-0.6
					c0.3,0,0.6,0.2,0.6,0.5c0,0.1,0.1,2.9-1.4,6.2C26.2,57.6,26,57.8,25.8,57.8z"/>
				<path class="st0" d="M21.7,56.2c-0.1,0-0.3,0-0.4-0.1c-0.2-0.2-0.3-0.5-0.1-0.8c2.9-3.4,4-7.5,4-7.5c0.1-0.3,0.4-0.5,0.7-0.4
					c0.3,0.1,0.5,0.4,0.4,0.7c0,0.2-1.2,4.4-4.3,8C22,56.1,21.9,56.2,21.7,56.2z"/>
				<path class="st0" d="M23.6,61.4c-0.3,0-0.5-0.2-0.5-0.5c0-0.3,0.2-0.6,0.5-0.6c0,0,4.1-0.3,6.6-0.9c0.3-0.1,0.6,0.1,0.7,0.4
					c0.1,0.3-0.1,0.6-0.4,0.7C27.9,61.1,23.8,61.4,23.6,61.4C23.7,61.4,23.7,61.4,23.6,61.4z"/>
				<path class="st0" d="M22.7,58.8c-0.2,0-0.5-0.2-0.5-0.4c-0.1-0.3,0.1-0.6,0.4-0.7c6.7-1.9,19.3-10,19.5-10.1
					c0.3-0.2,0.6-0.1,0.8,0.2c0.2,0.3,0.1,0.6-0.2,0.8c-0.5,0.3-12.9,8.3-19.8,10.2C22.8,58.8,22.7,58.8,22.7,58.8z"/>
				<path class="st0" d="M32.7,54.4c-0.3,0-0.5-0.2-0.5-0.5c-0.3-2.9-0.1-8.2-0.1-8.5c0-0.3,0.3-0.5,0.6-0.5c0.3,0,0.5,0.3,0.5,0.6
					c0,0.1-0.2,5.5,0.1,8.3C33.3,54.1,33.1,54.3,32.7,54.4C32.7,54.4,32.7,54.4,32.7,54.4z"/>
				<path class="st0" d="M36.5,52.2c-0.3,0-0.5-0.2-0.5-0.4c-0.3-1.6-0.3-5.5-0.3-5.6c0-0.3,0.2-0.5,0.5-0.5h0
					c0.3,0,0.5,0.2,0.5,0.5c0,0,0,3.9,0.3,5.4c0.1,0.3-0.1,0.6-0.4,0.6C36.6,52.2,36.6,52.2,36.5,52.2z"/>
				<path class="st0" d="M28.5,56.5c-0.3,0-0.5-0.2-0.5-0.5c-0.2-2.9,0.4-7.2,0.4-7.4c0-0.3,0.3-0.5,0.6-0.5c0.3,0,0.5,0.3,0.5,0.6
					c0,0-0.6,4.4-0.4,7.2C29.1,56.2,28.9,56.5,28.5,56.5C28.6,56.5,28.6,56.5,28.5,56.5z"/>
				<path class="st0" d="M38.6,51.1c-0.1,0-0.1,0-0.1,0c-0.3,0-0.5-0.3-0.5-0.6c0-0.3,0.3-0.5,0.6-0.5c0.5,0,2.1,0,2.9-0.4
					c0.3-0.1,0.6,0,0.7,0.3c0.1,0.3,0,0.6-0.3,0.7C40.7,51,39,51.1,38.6,51.1z"/>
				<path class="st0" d="M38.3,54.3c-2.2,0-4.6-0.4-4.8-0.4c-0.3,0-0.5-0.3-0.5-0.6s0.3-0.5,0.6-0.5c0,0,4,0.6,6.1,0.3
					c0.3,0,0.6,0.2,0.6,0.5c0,0.3-0.2,0.6-0.5,0.6C39.5,54.3,38.9,54.3,38.3,54.3z"/>
				<path class="st0" d="M37.1,58c-3.3,0-7.3-2.1-7.5-2.2c-0.3-0.1-0.4-0.5-0.2-0.7c0.1-0.3,0.5-0.4,0.7-0.2c0,0,4,2.1,7,2.1
					c0,0,0,0,0,0c0.3,0,0.5,0.2,0.5,0.5C37.6,57.8,37.4,58,37.1,58z"/>
				<path class="st0" d="M30.1,60.6C30,60.6,30,60.6,30.1,60.6c-2.4-0.2-5.3-2.5-5.5-2.6c-0.2-0.2-0.3-0.5-0.1-0.8
					c0.2-0.2,0.5-0.3,0.8-0.1c0,0,2.8,2.2,4.8,2.4c0.3,0,0.5,0.3,0.5,0.6C30.6,60.4,30.3,60.6,30.1,60.6z"/>
				<path class="st0" d="M19.6,50.8c-0.1,0-0.3-0.1-0.4-0.2c-0.2-0.2-0.2-0.6,0-0.8c3.1-3,4-7.9,4-7.9c0.1-0.3,0.3-0.5,0.6-0.4
					c0.3,0.1,0.5,0.3,0.4,0.6c0,0.2-0.9,5.2-4.3,8.5C19.9,50.8,19.7,50.8,19.6,50.8z"/>
				<path class="st0" d="M28.5,63.7c-1.6,0-3.1-0.1-4.3-0.3c-0.3-0.1-0.5-0.4-0.4-0.6c0.1-0.3,0.4-0.5,0.6-0.4
					c3.9,0.8,13.1-0.3,13.2-0.3c0.3,0,0.6,0.2,0.6,0.5c0,0.3-0.2,0.6-0.5,0.6C37.5,63.1,32.7,63.7,28.5,63.7z"/>
				<path class="st0" d="M22.9,65.6c-0.1,0-0.2,0-0.3-0.1c-1.2-1-3.7-1.3-3.7-1.3c-0.3,0-0.5-0.3-0.5-0.6c0-0.3,0.3-0.5,0.6-0.5
					c0.1,0,2.8,0.4,4.2,1.6c0.2,0.2,0.3,0.5,0.1,0.8C23.3,65.5,23.1,65.6,22.9,65.6z"/>
				<path class="st0" d="M21.5,67c-0.1,0-0.3,0-0.4-0.1c-0.8-0.7-3.3-0.9-4.8-0.8c-0.3,0-0.6-0.2-0.6-0.5c0-0.3,0.2-0.6,0.5-0.6
					c0.4,0,4.2-0.2,5.6,1.1c0.2,0.2,0.2,0.5,0,0.8C21.8,66.9,21.6,67,21.5,67z"/>
				<path class="st0" d="M20.1,71.3c-0.1,0-0.3-0.1-0.4-0.2c-0.2-0.2-0.2-0.6,0-0.8c2-2.1,2-4.4,2-4.5c0-0.3,0.2-0.5,0.5-0.5
					c0,0,0,0,0,0c0.3,0,0.5,0.2,0.5,0.5c0,0.1,0,2.8-2.3,5.2C20.4,71.3,20.3,71.3,20.1,71.3z"/>
				<path class="st0" d="M16.6,72.1c-0.2,0-0.4-0.1-0.5-0.3c-0.1-0.3,0-0.6,0.3-0.7c1-0.5,2.2-2.6,2.5-3.4c0.1-0.3,0.4-0.4,0.7-0.3
					c0.3,0.1,0.4,0.4,0.3,0.7c-0.1,0.3-1.5,3.2-3,3.9C16.8,72.1,16.7,72.1,16.6,72.1z"/>
				<path class="st0" d="M18.3,69.3c-0.2,0-0.3-0.1-0.5-0.2c-0.4-0.6-2.4-0.8-3.7-0.8c-0.3,0-0.6-0.2-0.6-0.5c0-0.3,0.2-0.6,0.5-0.6
					c0.6,0,3.8-0.1,4.7,1.2c0.2,0.3,0.1,0.6-0.1,0.8C18.5,69.2,18.4,69.3,18.3,69.3z"/>
				<path class="st0" d="M30.4,63.6c-0.2,0-0.3-0.1-0.4-0.2c-0.2-0.2-0.2-0.6,0.1-0.8c1.6-1.4,3.2-2.6,3.2-2.6
					c0.2-0.2,0.6-0.1,0.8,0.1c0.2,0.2,0.1,0.6-0.1,0.8c0,0-1.6,1.2-3.2,2.6C30.7,63.6,30.6,63.6,30.4,63.6z"/>
				<path class="st0" d="M31.2,67.2c-0.1,0-0.2,0-0.3-0.1c-0.1-0.1-3-1.6-4.3-3.6c-0.2-0.3-0.1-0.6,0.2-0.8c0.3-0.2,0.6-0.1,0.8,0.2
					c1.2,1.8,3.9,3.3,3.9,3.3c0.3,0.1,0.4,0.5,0.2,0.7C31.6,67.1,31.4,67.2,31.2,67.2z"/>
				<path class="st0" d="M25.6,63.6c-0.1,0-0.2,0-0.3-0.1c-0.2-0.2-0.3-0.5-0.1-0.8c0.9-1.2,3.7-2.7,4-2.9c0.3-0.1,0.6,0,0.7,0.2
					c0.1,0.3,0,0.6-0.2,0.7c-0.8,0.4-3,1.7-3.6,2.5C26,63.5,25.8,63.6,25.6,63.6z"/>
				<path class="st0" d="M34.4,65.6c-0.1,0-0.1,0-0.2,0c-0.1,0-1.7-0.8-2.9-2c-0.2-0.2-0.2-0.6,0-0.8c0.2-0.2,0.6-0.2,0.8,0
					c1.1,1.1,2.6,1.8,2.6,1.8c0.3,0.1,0.4,0.4,0.3,0.7C34.8,65.5,34.6,65.6,34.4,65.6z"/>
				<path class="st0" d="M16.2,42.4c-0.1,0-0.3-0.1-0.4-0.2c-0.2-0.2-0.2-0.6,0-0.8c1-1,1.5-3.7,1.6-4.7c0-0.3,0.3-0.5,0.6-0.5
					c0.3,0,0.5,0.3,0.5,0.6c0,0.2-0.5,3.9-1.9,5.3C16.5,42.4,16.3,42.4,16.2,42.4z"/>
				<path class="st0" d="M11.8,62.1c-0.2,0-0.4-0.1-0.5-0.3c-0.5-1.2-4.2-4.1-6.4-5.7c-0.2-0.2-0.3-0.5-0.1-0.8
					C4.9,55,5.3,55,5.5,55.1c0.6,0.4,6.1,4.3,6.8,6.2c0.1,0.3,0,0.6-0.3,0.7C12,62.1,11.9,62.1,11.8,62.1z"/>
				<path class="st0" d="M36,58.3c-3.2,0-6.6-2.2-6.7-2.3c-0.3-0.2-0.3-0.5-0.2-0.8c0.2-0.3,0.5-0.3,0.8-0.2c0,0,3.5,2.3,6.4,2.1
					c0.3,0,0.6,0.2,0.6,0.5c0,0.3-0.2,0.6-0.5,0.6C36.3,58.3,36.2,58.3,36,58.3z"/>
				<path class="st0" d="M2.8,66c-0.2,0-0.4-0.1-0.5-0.3c-0.2-0.3-0.1-0.6,0.2-0.8c0.7-0.4,2.7-1.7,3.3-2.5c0.2-0.2,0.5-0.3,0.8-0.1
					c0.2,0.2,0.3,0.5,0.1,0.8c-0.8,1.1-3.3,2.6-3.5,2.8C3,66,2.9,66,2.8,66z"/>
				<path class="st0" d="M15.9,66c-0.1,0-0.3,0-0.4-0.1c-0.2-0.2-0.3-0.5-0.1-0.8c2.6-3.1,4.5-6.8,4.5-6.9c0.1-0.3,0.5-0.4,0.7-0.2
					c0.3,0.1,0.4,0.5,0.2,0.7c-0.1,0.2-2,3.9-4.7,7.1C16.2,66,16.1,66,15.9,66z"/>
				<path class="st0" d="M32.4,54.5c-0.3,0-0.5-0.2-0.5-0.5c-0.6-3.5-0.3-8.3-0.3-8.5c0-0.3,0.3-0.5,0.6-0.5c0.3,0,0.5,0.3,0.5,0.6
					c0,0-0.3,4.8,0.3,8.2C33,54.2,32.8,54.5,32.4,54.5C32.4,54.5,32.4,54.5,32.4,54.5z"/>
				<path class="st0" d="M36.9,51.8c-0.3,0-0.5-0.2-0.5-0.5c0-0.1-0.4-3.2-0.3-5.1c0-0.3,0.3-0.5,0.6-0.5c0.3,0,0.5,0.3,0.5,0.6
					c-0.1,1.8,0.3,4.8,0.3,4.9C37.5,51.4,37.3,51.7,36.9,51.8C36.9,51.8,36.9,51.8,36.9,51.8z"/>
				<path class="st0" d="M25.3,57.9c-0.1,0-0.2,0-0.2-0.1c-0.3-0.1-0.4-0.5-0.2-0.7c1.4-2.8,1.6-6.5,1.6-6.6c0-0.3,0.3-0.5,0.6-0.5
					c0.3,0,0.5,0.3,0.5,0.6c0,0.2-0.2,4-1.7,7C25.6,57.8,25.5,57.9,25.3,57.9z"/>
				<path class="st0" d="M30,63.7c-0.1,0-0.3-0.1-0.4-0.2c-0.2-0.2-0.2-0.6,0-0.8c0,0,1.7-1.5,3.3-2.8c0.2-0.2,0.6-0.1,0.8,0.1
					c0.2,0.2,0.1,0.6-0.1,0.8c-1.6,1.3-3.2,2.7-3.3,2.8C30.2,63.6,30.1,63.7,30,63.7z"/>
				<path class="st0" d="M31.7,67.1c-0.1,0-0.1,0-0.2,0c-2.2-0.7-4.4-3.3-4.5-3.4c-0.2-0.2-0.2-0.6,0.1-0.8c0.2-0.2,0.6-0.2,0.8,0.1
					c0,0,2.1,2.4,4,3c0.3,0.1,0.4,0.4,0.3,0.7C32.1,66.9,31.9,67.1,31.7,67.1z"/>
				<path class="st0" d="M21.1,67.1c-0.1,0-0.2,0-0.3-0.1c-0.6-0.4-3.3-0.6-4.9-0.7c-0.3,0-0.5-0.3-0.5-0.6c0-0.3,0.3-0.5,0.6-0.5
					c0.7,0,4.3,0.2,5.4,0.9c0.3,0.2,0.3,0.5,0.2,0.8C21.5,67,21.3,67.1,21.1,67.1z"/>
				<path class="st0" d="M16.1,72.2c-0.2,0-0.4-0.1-0.5-0.3c-0.1-0.3,0-0.6,0.2-0.7c1.2-0.6,2.2-2.4,2.5-3.1
					c0.1-0.3,0.5-0.4,0.7-0.3c0.3,0.1,0.4,0.5,0.3,0.7c-0.1,0.1-1.3,2.7-3,3.6C16.3,72.2,16.2,72.2,16.1,72.2z"/>
				<path class="st0" d="M27.2,76.7c-0.1,0-0.2,0-0.3-0.1c-0.1-0.1-0.2-0.3-0.2-0.5c0.2-7.7-14.4-42.2-14.5-42.5
					c-0.1-0.3,0-0.6,0.3-0.7c0.3-0.1,0.6,0,0.7,0.3c0.6,1.4,15.3,34.9,15.1,42.8c0,0.2-0.1,0.4-0.4,0.5l-0.5,0.2
					C27.3,76.7,27.2,76.7,27.2,76.7z"/>
			</g>
		</g>
	</g>
	<g>
		<defs>
			<path id="SVGID_5_" d="M100.6,51.9h0.1C100.6,79,78.6,101,51.5,101c0,0-26-28.1,0-49c0,0,0,0,0.1,0
				C72.5,77.9,100.6,51.9,100.6,51.9z"/>
		</defs>
		<clipPath id="SVGID_6_">
			<use xlink:href="#SVGID_5_"  style="overflow:visible;"/>
		</clipPath>
		<g class="st3">
			<path class="st0" d="M58.2,98.1c-7.4,0-13.4-6-13.4-13.5c0-7.4,6-13.4,13.4-13.4c7.4,0,13.5,6,13.5,13.4
				C71.7,92.1,65.6,98.1,58.2,98.1z M58.2,72.9c-6.5,0-11.8,5.3-11.8,11.8c0,6.5,5.3,11.8,11.8,11.8c6.5,0,11.8-5.3,11.8-11.8
				C70,78.2,64.7,72.9,58.2,72.9z"/>
			<path class="st0" d="M60.7,70.3c0,0-0.1,0-0.1,0c-1.6-0.3-3.1-0.3-4.7,0c-0.4,0.1-0.8-0.2-0.9-0.6c-0.1-0.3-0.3-2.3,2.5-8
				c0.1-0.3,0.4-0.4,0.7-0.5c0.3,0,0.6,0.1,0.7,0.4c0.1,0.1,2.4,3.5,2.6,7.9c0,0.2-0.1,0.5-0.3,0.7C61.1,70.2,60.9,70.3,60.7,70.3z
				 M58.3,63.7c-1.1,2.5-1.5,4-1.7,4.8c1.1-0.1,2.1-0.1,3.2,0C59.5,66.5,58.8,64.8,58.3,63.7z"/>
			<path class="st0" d="M47.3,74.6c-0.2,0-0.4-0.1-0.5-0.2c-0.3-0.2-1.6-1.7-2.7-8c0-0.3,0.1-0.6,0.3-0.8c0.2-0.2,0.5-0.2,0.8-0.1
				c0.2,0.1,4,1.5,6.8,4.9c0.2,0.2,0.2,0.4,0.2,0.7c-0.1,0.2-0.2,0.5-0.4,0.6c-1.4,0.7-2.7,1.6-3.8,2.8
				C47.7,74.6,47.5,74.6,47.3,74.6z M45.9,67.7c0.5,2.6,1.1,4.1,1.5,4.8c0.8-0.7,1.6-1.3,2.6-1.9C48.6,69.3,47,68.3,45.9,67.7z"/>
			<path class="st0" d="M43,83.2C42.9,83.2,42.9,83.2,43,83.2c-0.4,0-2.3-0.4-6.9-4.9c-0.2-0.2-0.3-0.5-0.2-0.8
				c0.1-0.3,0.3-0.5,0.6-0.6c0.2,0,4.1-1.2,8.3-0.1c0.2,0.1,0.4,0.2,0.5,0.5c0.1,0.2,0.1,0.5,0,0.7c-0.7,1.4-1.2,2.9-1.5,4.5
				C43.7,82.9,43.4,83.2,43,83.2z M38.3,78.2c2,1.8,3.3,2.7,4,3c0.2-1,0.6-2,1-3C41.3,77.9,39.5,78,38.3,78.2z"/>
			<path class="st0" d="M41.5,93c-1.2,0-2.9-0.1-5.1-0.4c-0.3,0-0.5-0.2-0.6-0.5c-0.1-0.3-0.1-0.6,0.1-0.8c0.1-0.1,2.6-3.3,6.7-4.9
				c0.2-0.1,0.5-0.1,0.7,0.1c0.2,0.1,0.4,0.3,0.4,0.6c0.2,1.6,0.7,3.1,1.4,4.5c0.2,0.4,0.1,0.9-0.3,1.1C44.7,92.6,43.9,93,41.5,93z
				 M38.3,91.1c2.7,0.3,4.2,0.2,5,0.1c-0.4-1-0.8-2-1-3C40.5,89.1,39.1,90.3,38.3,91.1z"/>
			<path class="st0" d="M44.8,103.9c-0.2,0-0.3,0-0.4-0.1c-0.2-0.2-0.4-0.4-0.4-0.7c0-0.2,0.2-4.2,2.5-7.9c0.1-0.2,0.4-0.3,0.6-0.4
				c0.2,0,0.5,0.1,0.7,0.2c1.1,1.1,2.4,2,3.8,2.8c0.4,0.2,0.6,0.7,0.4,1.1c-0.1,0.3-1.1,2-6.8,5C45.1,103.9,45,103.9,44.8,103.9z
				 M47.4,96.9c-0.9,1.8-1.4,3.5-1.6,4.7c2.4-1.3,3.6-2.3,4.1-2.9C49.1,98.2,48.2,97.6,47.4,96.9z"/>
			<path class="st0" d="M58.2,108.3c-0.3,0-0.5-0.1-0.7-0.4c-0.1-0.1-2.4-3.5-2.6-7.9c0-0.2,0.1-0.5,0.3-0.7
				c0.2-0.2,0.4-0.2,0.7-0.2c1.6,0.3,3.1,0.3,4.7,0c0.4-0.1,0.8,0.2,0.9,0.6c0.1,0.3,0.3,2.3-2.5,8
				C58.8,108.1,58.6,108.2,58.2,108.3C58.2,108.3,58.2,108.3,58.2,108.3z M56.6,100.9c0.3,2,1,3.7,1.5,4.8c1.1-2.5,1.5-4,1.7-4.8
				C58.7,101,57.7,101,56.6,100.9z"/>
			<path class="st0" d="M71.6,103.9c-0.1,0-0.2,0-0.3,0c-0.2-0.1-4-1.5-6.8-4.9c-0.2-0.2-0.2-0.4-0.2-0.7c0.1-0.2,0.2-0.5,0.4-0.6
				c1.4-0.7,2.7-1.6,3.8-2.8c0.3-0.3,0.8-0.3,1.1,0c0.3,0.2,1.6,1.7,2.7,8c0.1,0.3-0.1,0.6-0.3,0.8
				C71.9,103.8,71.8,103.9,71.6,103.9z M66.4,98.7c1.4,1.4,2.9,2.4,4,3c-0.5-2.7-1.1-4.1-1.5-4.8C68.2,97.6,67.4,98.2,66.4,98.7z"/>
			<path class="st0" d="M75.7,93.1c-1.2,0-2.6-0.1-4-0.5c-0.2-0.1-0.4-0.2-0.5-0.5c-0.1-0.2-0.1-0.5,0-0.7c0.7-1.4,1.2-2.9,1.5-4.5
				c0.1-0.4,0.4-0.7,0.9-0.7c0.3,0,2.3,0.4,6.9,4.9c0.2,0.2,0.3,0.5,0.2,0.8c-0.1,0.3-0.3,0.5-0.6,0.6
				C79.9,92.5,78.2,93.1,75.7,93.1z M73.1,91.2c2,0.3,3.8,0.2,5,0c-2-1.8-3.3-2.7-4-3C73.9,89.2,73.5,90.2,73.1,91.2z"/>
			<path class="st0" d="M73.5,83.2c-0.1,0-0.3,0-0.4-0.1c-0.2-0.1-0.4-0.3-0.4-0.6c-0.2-1.6-0.7-3.1-1.4-4.5
				c-0.2-0.4-0.1-0.9,0.3-1.1c0.3-0.2,2.1-1,8.4-0.1c0.3,0,0.5,0.2,0.6,0.5c0.1,0.3,0.1,0.6-0.1,0.8c-0.1,0.1-2.6,3.3-6.7,4.9
				C73.7,83.2,73.6,83.2,73.5,83.2z M73.1,78.2c0.4,1,0.8,2,1,3c1.8-0.9,3.2-2.1,4.1-2.9C75.5,78,73.9,78.1,73.1,78.2z"/>
			<path class="st0" d="M69.2,74.7c-0.2,0-0.4-0.1-0.6-0.2c-1.1-1.1-2.4-2-3.8-2.8c-0.4-0.2-0.6-0.7-0.4-1.1c0.1-0.3,1.1-2,6.8-5
				c0.3-0.1,0.6-0.1,0.8,0c0.2,0.2,0.4,0.4,0.4,0.7c0,0.2-0.2,4.2-2.5,7.9C69.7,74.5,69.5,74.6,69.2,74.7
				C69.2,74.7,69.2,74.7,69.2,74.7z M66.4,70.7c0.9,0.5,1.8,1.2,2.6,1.9c0.9-1.8,1.4-3.5,1.6-4.7C68.2,69.1,67,70.1,66.4,70.7z"/>
		</g>
	</g>
	<g>
		<defs>
			<path id="SVGID_7_" d="M100.6,51.9c0,0-28.1,26-49,0C77.4,31,51.5,2.8,51.5,2.8l0-0.2c27.2,0,49.2,22,49.2,49.2c0,0,0,0.1,0,0.1
				H100.6z"/>
		</defs>
		<clipPath id="SVGID_8_">
			<use xlink:href="#SVGID_7_"  style="overflow:visible;"/>
		</clipPath>
		<g class="st4">
			<path class="st0" d="M84.3,54.6c-4.2,0-7.6-3.4-7.6-7.6s3.4-7.6,7.6-7.6s7.6,3.4,7.6,7.6S88.6,54.6,84.3,54.6z M84.3,40.9
				c-3.3,0-6,2.7-6,6c0,3.3,2.7,6,6,6c3.3,0,6-2.7,6-6C90.3,43.6,87.6,40.9,84.3,40.9z"/>
			<path class="st0" d="M86.9,39.1c-0.1,0-0.2,0-0.2,0c-1.5-0.5-3.1-0.5-4.6,0c-0.3,0.1-0.7,0-0.9-0.3c-4.3-6.4-2.6-9.9-2.4-10.3
				c0.9-1.6,2.7-2.5,5.5-2.5c2.7,0,4.6,0.8,5.5,2.5c2,3.7-2,10.1-2.2,10.4C87.5,39,87.2,39.1,86.9,39.1z M84.3,37.1
				c0.7,0,1.5,0.1,2.2,0.3c1.1-1.9,3-6,1.8-8.2c-0.6-1.1-1.9-1.6-4-1.6c-2.1,0-3.5,0.5-4.1,1.6c-1.1,2.1,0.8,6.2,2,8.2
				C83,37.2,83.6,37.1,84.3,37.1z"/>
			<path class="st0" d="M84.5,38.5c-0.2,0-0.4-0.1-0.5-0.3c-0.3-0.4-2.7-4.4-0.7-5.7c0.3-0.2,0.6-0.1,0.8,0.2
				c0.2,0.3,0.1,0.6-0.2,0.8c-0.8,0.5,0.1,2.8,1,4.2c0.2,0.3,0.1,0.6-0.2,0.8C84.7,38.4,84.6,38.5,84.5,38.5z"/>
			<path class="st0" d="M74,45.6c-6.4,0-8.3-2.8-8.5-3.1c-1-1.6-0.8-3.6,0.6-6l0,0c1.3-2.3,2.9-3.5,4.8-3.5c0,0,0.1,0,0.1,0
				c4.2,0.1,7.8,6.8,7.9,7.1c0.2,0.3,0.1,0.7-0.2,1c-1.1,1.1-1.9,2.4-2.3,3.9c-0.1,0.3-0.4,0.6-0.7,0.6C75.1,45.6,74.5,45.6,74,45.6
				z M67.5,37.2c-1.1,1.9-1.3,3.3-0.7,4.3c1.3,2.1,5.8,2.4,8.1,2.3c0.4-1.4,1.2-2.6,2.2-3.7c-1.1-1.9-3.7-5.6-6.2-5.7
				C69.7,34.5,68.6,35.4,67.5,37.2L67.5,37.2z"/>
			<path class="st0" d="M76.3,42.9c-1.2,0-4.8-0.2-4.9-2.3c0-0.3,0.2-0.6,0.5-0.6c0.3,0,0.6,0.2,0.6,0.5c0,0.9,2.5,1.3,4.1,1.2
				c0.3,0,0.6,0.2,0.6,0.5c0,0.3-0.2,0.6-0.5,0.6C76.5,42.9,76.4,42.9,76.3,42.9z"/>
			<path class="st0" d="M70.9,61c-1.8,0-3.4-1.2-4.8-3.6c-1.4-2.4-1.6-4.4-0.6-6c2.2-3.6,9.7-3.3,10.1-3.3c0.4,0,0.7,0.3,0.8,0.6
				c0.4,1.5,1.1,2.9,2.3,4c0.3,0.2,0.3,0.6,0.2,0.9C75.4,60.7,71.5,61,71,61C71,61,70.9,61,70.9,61z M74.9,49.8
				c-2.2,0-6.7,0.4-8,2.5c-0.6,1-0.4,2.5,0.6,4.3l0,0c1,1.8,2.2,2.7,3.4,2.7c0,0,0.1,0,0.1,0c2.4-0.1,5-3.9,6.1-5.8
				C76.1,52.5,75.3,51.2,74.9,49.8z"/>
			<path class="st0" d="M73.1,55.2c-0.2,0-0.5-0.1-0.7-0.2c-0.3-0.1-0.4-0.5-0.2-0.7c0.1-0.3,0.5-0.4,0.7-0.2c0.8,0.4,2.3-1.5,3.1-3
				c0.1-0.3,0.5-0.4,0.7-0.2c0.3,0.1,0.4,0.5,0.2,0.7C76.7,52,75,55.2,73.1,55.2z"/>
			<path class="st0" d="M84.3,68c-2.7,0-4.6-0.8-5.5-2.5c-2-3.7,2-10.1,2.2-10.4c0.2-0.3,0.6-0.5,0.9-0.3c1.5,0.5,3.1,0.5,4.6,0
				c0.3-0.1,0.7,0,0.9,0.3c4.3,6.4,2.6,9.9,2.4,10.3C89,67.1,87.1,68,84.3,68z M82.1,56.5c-1.1,1.9-3,6-1.8,8.2
				c0.6,1.1,1.9,1.6,4,1.6c2.1,0,3.5-0.5,4.1-1.6c1.1-2.1-0.8-6.2-2-8.2C85,56.9,83.5,56.9,82.1,56.5z"/>
			<path class="st0" d="M85,61.4c-0.2,0-0.4-0.1-0.5-0.2c-0.2-0.3-0.1-0.6,0.2-0.8c0.8-0.5-0.1-2.8-1-4.2c-0.2-0.3-0.1-0.6,0.2-0.8
				c0.3-0.2,0.6-0.1,0.8,0.2c0.3,0.4,2.7,4.4,0.7,5.7C85.2,61.4,85.1,61.4,85,61.4z"/>
			<path class="st0" d="M97.8,61C97.7,61,97.7,61,97.8,61c-4.3-0.1-7.8-6.8-8-7.1c-0.2-0.3-0.1-0.7,0.2-1c1.1-1.1,1.9-2.4,2.3-3.9
				c0.1-0.3,0.4-0.6,0.7-0.6c7.7-0.5,9.9,2.7,10.1,3.1c1,1.6,0.8,3.6-0.6,6l0,0C101.2,59.8,99.6,61,97.8,61z M91.5,53.7
				c1.1,1.9,3.7,5.6,6.2,5.7c1.2,0,2.4-0.9,3.4-2.7c1.1-1.9,1.3-3.3,0.7-4.3c-1.3-2.1-5.8-2.4-8.1-2.3
				C93.3,51.3,92.5,52.6,91.5,53.7z M101.8,57L101.8,57L101.8,57z"/>
			<path class="st0" d="M99.6,55.1c-0.3,0-0.5-0.2-0.5-0.5c0-0.7-2.9-1.8-7.1-2.4c-0.3,0-0.5-0.3-0.5-0.6c0-0.3,0.3-0.5,0.6-0.5
				c1.9,0.3,7.9,1.3,8,3.5C100.2,54.8,100,55,99.6,55.1C99.6,55.1,99.6,55.1,99.6,55.1z"/>
			<path class="st0" d="M93.7,45.7c-0.3,0-0.5,0-0.6,0c-0.4,0-0.7-0.3-0.8-0.6c-0.4-1.5-1.1-2.9-2.3-4c-0.3-0.2-0.3-0.6-0.2-0.9
				c3.4-6.9,7.3-7.2,7.7-7.2c1.8-0.1,3.5,1.1,4.9,3.5l0,0c1.4,2.4,1.6,4.4,0.6,6C101.3,45.4,95.6,45.7,93.7,45.7z M91.6,40.3
				c1,1.1,1.7,2.3,2.1,3.7c2.2,0,6.7-0.4,8-2.5c0.6-1,0.4-2.5-0.6-4.3l0,0c-1.1-1.9-2.2-2.8-3.4-2.7C95.3,34.6,92.7,38.4,91.6,40.3z
				"/>
			<path class="st0" d="M92.2,43.1c-0.1,0-0.2,0-0.3-0.1c-0.3-0.1-0.4-0.5-0.2-0.7c0.2-0.5,2.5-4.5,4.6-3.4c0.3,0.1,0.4,0.5,0.2,0.7
				c-0.1,0.3-0.5,0.4-0.7,0.2c-0.8-0.4-2.3,1.5-3.1,3C92.6,43,92.4,43.1,92.2,43.1z"/>
			<path class="st0" d="M84.5,38.5c-0.1,0-0.2,0-0.3-0.1c-0.2-0.2-0.3-0.5-0.1-0.8c1.4-2,3.1-5.4,2.5-6.3c-0.2-0.2-0.1-0.6,0.1-0.8
				c0.2-0.2,0.6-0.1,0.8,0.1c1.3,1.8-1.9,6.6-2.5,7.5C84.8,38.4,84.6,38.5,84.5,38.5z"/>
			<path class="st0" d="M76.6,42c-0.2,0-0.4-0.1-0.5-0.2c0,0-0.8-1.1-1.8-1.1c-0.3,0-0.6-0.2-0.6-0.5c0-0.3,0.2-0.6,0.5-0.6
				c1.7-0.1,2.8,1.5,2.8,1.6c0.2,0.3,0.1,0.6-0.2,0.8C76.8,41.9,76.7,42,76.6,42z"/>
			<path class="st0" d="M92.7,44.1c-0.3,0-0.5-0.2-0.5-0.5c0-0.3,0.2-0.6,0.5-0.6c1.3-0.1,2.6-0.4,2.9-0.7c0-0.3,0.2-0.5,0.4-0.5
				c0.3-0.1,0.6,0.1,0.7,0.4c0.1,0.3,0,0.5-0.1,0.7C95.9,43.7,93.7,44,92.7,44.1C92.7,44.1,92.7,44.1,92.7,44.1z"/>
			<path class="st0" d="M95.8,56.1c-0.4,0-1.4-0.3-4.1-3c-0.2-0.2-0.2-0.6,0-0.8c0.2-0.2,0.6-0.2,0.8,0c1.3,1.2,2.9,2.5,3.3,2.7
				c0.3,0,0.5,0.1,0.6,0.4c0.1,0.3-0.1,0.6-0.4,0.7C95.9,56.1,95.9,56.1,95.8,56.1z"/>
			<path class="st0" d="M83.1,63.6c-0.2,0-0.3-0.1-0.4-0.2c-2.4-2.8-0.2-7.2-0.1-7.4c0.1-0.3,0.5-0.4,0.7-0.2
				c0.3,0.1,0.4,0.5,0.2,0.7c0,0-2,3.9-0.1,6.1c0.2,0.2,0.2,0.6,0,0.8C83.3,63.6,83.2,63.6,83.1,63.6z"/>
			<path class="st0" d="M72.7,52.1c-0.1,0-0.2,0-0.2-0.1c-0.6-0.3-0.6-0.7-0.5-0.9c0-0.3,0.2-1,3.9-1.5c0.3,0,0.6,0.2,0.6,0.5
				c0,0.3-0.2,0.6-0.5,0.6c-1.1,0.2-2.2,0.4-2.8,0.6c0,0.1,0,0.3,0,0.4C73.1,52,72.9,52.1,72.7,52.1z"/>
		</g>
	</g>
</g>
</svg>
