<?xml version="1.0" encoding="utf-8"?>
<!-- Generator: Adobe Illustrator 19.2.1, SVG Export Plug-In . SVG Version: 6.00 Build 0)  -->
<svg version="1.1" id="Layer_1" xmlns="http://www.w3.org/2000/svg" xmlns:xlink="http://www.w3.org/1999/xlink" x="0px" y="0px"
	 viewBox="0 0 610 290" enable-background="new 0 0 610 290" xml:space="preserve">
<g>
	<g>
		<g>
			<text transform="matrix(1 0 0 1 527.2606 283.1993)" fill="#858585" font-family="'AvantGarde-Book'" font-size="20px">Earth</text>
		</g>
		<g>
			<path fill="#FFFFFF" d="M552,153.9c-29.3,0-53.2,23.9-53.2,53.2s23.9,53.2,53.2,53.2s53.2-23.9,53.2-53.2S581.3,153.9,552,153.9z
				"/>
			<linearGradient id="SVGID_1_" gradientUnits="userSpaceOnUse" x1="498.7533" y1="207.117" x2="605.1467" y2="207.117">
				<stop  offset="0" style="stop-color:#FFFAC2"/>
				<stop  offset="1" style="stop-color:#F8BB5B"/>
			</linearGradient>
			<path opacity="0.5" fill="url(#SVGID_1_)" d="M552,153.9c-29.3,0-53.2,23.9-53.2,53.2s23.9,53.2,53.2,53.2s53.2-23.9,53.2-53.2
				S581.3,153.9,552,153.9z"/>
			<path fill="#F8BB5B" d="M552,262.1c-30.3,0-55-24.7-55-55s24.7-55,55-55s55,24.7,55,55S582.3,262.1,552,262.1z M552,153.9
				c-29.3,0-53.2,23.9-53.2,53.2s23.9,53.2,53.2,53.2s53.2-23.9,53.2-53.2S581.3,153.9,552,153.9z"/>
			<path fill="#F8BB5B" d="M564.9,197.3c-12.2,0-24.1-3.4-34.4-9.9c-3.5-2.2-7.4-3.4-11.3-3.6c-0.3,0-0.6,0-1,0
				c-6.5,0-12.8,2.8-17.2,7.6c-0.3,0.4-0.9,0.4-1.3,0.1c-0.4-0.3-0.4-0.9-0.1-1.3c4.8-5.2,11.5-8.2,18.5-8.2c0.4,0,0.7,0,1,0
				c4.2,0.2,8.5,1.5,12.2,3.9c10,6.3,21.6,9.6,33.4,9.6c12.9,0,25.3-3.9,35.9-11.2c0.4-0.3,1-0.2,1.3,0.2c0.3,0.4,0.2,1-0.2,1.3
				C591,193.3,578.2,197.3,564.9,197.3z"/>
			<path fill="#F8BB5B" d="M550.6,195.8c-0.4,0-0.7-0.2-0.8-0.3c-0.6-0.4-0.5-1.2-0.5-1.3c0,0,0,0,0-0.1c1.2-9.7-3.5-10.7-7.2-11.6
				c-0.3-0.1-0.6-0.1-0.9-0.2c-0.5-0.1-1.1-0.3-1.7-0.4c-3.4-0.8-7.6-1.8-9.9-4.2c-0.3-0.3-3.1-3.5-0.2-11.5c0.1-0.4,0.5-0.6,1-0.6
				c0.4,0,0.7,0.4,0.8,0.8c0,0.1,0.5,2.7,5.2,3.6c0.7,0.1,1.4,0.2,2.2,0.4c5,0.7,11.2,1.7,12.3,11.2c0.9,8,1,10.5,0.9,13.3
				c0,0.4-0.3,0.7-0.7,0.8C550.9,195.7,550.8,195.8,550.6,195.8z M530.4,168.9c-0.6,2.5-1,6,0.4,7.5c1.9,2,5.9,3,9,3.7
				c0.6,0.1,1.2,0.3,1.7,0.4c0.3,0.1,0.5,0.1,0.8,0.2c2.1,0.5,4.9,1.1,6.8,3.6c-0.1-0.8-0.2-1.6-0.3-2.6c-1-8.1-5.7-8.8-10.7-9.6
				c-0.8-0.1-1.5-0.2-2.3-0.4C533,171.2,531.4,170,530.4,168.9z"/>
			<path fill="#F8BB5B" d="M550.5,188.3c-0.5,0-0.9-0.4-0.9-0.8l0-0.4c-0.6-7.2-1-11.2,6.7-16.1l0.4-0.2c6.8-4.3,9.6-6.1,9.6-8.5
				c0-0.7-0.2-1.2-0.5-1.5c-0.7-0.5-1.9-0.5-2.2-0.4c-0.5,0.1-1-0.2-1.1-0.7c-0.1-0.5,0.2-1,0.7-1.1c0.2,0,2.3-0.4,3.7,0.8
				c0.5,0.5,1.2,1.3,1.2,2.9c-0.1,3.4-3.1,5.3-10.4,10l-0.4,0.2c-6.7,4.3-6.4,7.2-5.8,14.4l0,0.4
				C551.5,187.8,551.1,188.3,550.5,188.3C550.6,188.3,550.6,188.3,550.5,188.3z"/>
			<path fill="#F8BB5B" d="M551.9,196c-0.5,0-0.9-0.4-0.9-0.9c-0.1-7.7,0.8-11.7,3.2-14.3c1.2-1.3,3.2-2.1,5.5-3.2
				c3.2-1.4,6.8-3,8.3-5.7c2.5-4.5-2-10.7-2.1-10.7c-0.3-0.4-0.2-1,0.2-1.3c0.4-0.3,1-0.2,1.3,0.2c0.2,0.3,5.3,7.2,2.2,12.7
				c-1.9,3.3-5.7,5-9.2,6.5c-2.1,0.9-4,1.8-4.9,2.8c-1.7,1.8-2.8,4.7-2.7,13C552.9,195.5,552.5,195.9,551.9,196
				C552,196,552,196,551.9,196z"/>
			<path fill="#F8BB5B" d="M562.9,168.7c-0.2,0-0.4-0.1-0.6-0.2c-0.4-0.3-0.4-0.9-0.1-1.3c1.5-1.8,2.1-3.4,1.9-4.7
				c-0.2-1.4-1.3-2.1-1.3-2.1c-0.4-0.3-0.5-0.8-0.3-1.2c0.3-0.4,0.8-0.6,1.2-0.3c0.1,0,1.8,1.1,2.2,3.4c0.3,1.9-0.5,4-2.3,6.2
				C563.4,168.5,563.2,168.7,562.9,168.7z"/>
			<path fill="#F8BB5B" d="M513.8,209.5c-0.2,0-0.3,0-0.5-0.1l-12.3-8c-0.4-0.3-0.5-0.8-0.3-1.2l7.4-12c0.1-0.2,0.4-0.4,0.6-0.4
				l8.1-1.2c0.3,0,0.6,0.1,0.8,0.3l8.6,9.3c0.2,0.3,0.3,0.7,0.2,1l-4.3,9.5c-0.1,0.2-0.3,0.4-0.5,0.5l-7.4,2.4
				C514,209.5,513.9,209.5,513.8,209.5z M502.7,200.4l11.2,7.3l6.7-2.1l3.9-8.6l-7.8-8.5l-7.2,1.1L502.7,200.4z"/>
			<path fill="#F8BB5B" d="M548,215.4c-0.2,0-0.3,0-0.5-0.1l-9.5-5.9c-0.1-0.1-0.2-0.1-0.3-0.2l-6.3-8.9c-0.1-0.2-0.2-0.4-0.2-0.7
				l1.1-6.8c0-0.3,0.2-0.5,0.4-0.6c0.2-0.1,0.5-0.2,0.7-0.1l11.1,3.4c0.1,0,0.2,0.1,0.3,0.2l7.5,5.9c0.3,0.2,0.4,0.6,0.3,1
				l-3.9,12.2c-0.1,0.3-0.3,0.5-0.5,0.6C548.3,215.4,548.1,215.4,548,215.4z M539.2,207.9l8.3,5.2l3.4-10.5l-6.9-5.4l-10-3l-0.8,5.4
				L539.2,207.9z"/>
			<path fill="#F8BB5B" d="M558.7,225.1c-0.3,0-0.5-0.1-0.7-0.3l-6.7-7.5c-0.2-0.2-0.3-0.5-0.2-0.8l1.5-8.1c0-0.2,0.1-0.4,0.3-0.5
				l8.3-8.1c0.3-0.2,0.6-0.3,1-0.2l6.1,2.3c0.1,0,0.2,0.1,0.3,0.2l6.6,7.1c0.2,0.2,0.3,0.6,0.2,0.9l-3.9,12.2
				c-0.1,0.3-0.4,0.6-0.7,0.6l-11.9,2.1C558.8,225.1,558.7,225.1,558.7,225.1z M552.9,216.5l6.1,6.8l10.9-1.9l3.6-11.2l-6.1-6.6
				l-5.4-2l-7.7,7.5L552.9,216.5z"/>
			<path fill="#F8BB5B" d="M597.8,211.9c-0.2,0-0.5-0.1-0.6-0.2l-7.8-7.4c-0.2-0.2-0.3-0.5-0.3-0.8l2.1-9.9c0.1-0.2,0.2-0.5,0.4-0.6
				l9.2-5.6c0.4-0.3,1-0.1,1.2,0.3c0.3,0.4,0.1,1-0.3,1.2l-8.9,5.4l-1.9,9l7.1,6.7l7.7-0.8c0.5-0.1,0.9,0.3,1,0.8
				c0.1,0.5-0.3,0.9-0.8,1L597.8,211.9C597.9,211.9,597.9,211.9,597.8,211.9z"/>
			<path fill="#F8BB5B" d="M588.5,224.2c-0.1,0-0.2,0-0.3-0.1l-13.2-5.1c-0.2-0.1-0.4-0.3-0.5-0.5c-0.1-0.2-0.1-0.5,0-0.7l7.7-14.5
				c0.2-0.4,0.6-0.6,1-0.4l5.7,1.6c0.2,0,0.3,0.1,0.4,0.2l10.5,11c0.2,0.2,0.3,0.5,0.2,0.7c0,0.3-0.2,0.5-0.4,0.7l-10.7,7.1
				C588.8,224.2,588.6,224.2,588.5,224.2z M576.5,217.8l11.8,4.6l9.4-6.2l-9.6-10l-4.8-1.3L576.5,217.8z"/>
			<path fill="#F8BB5B" d="M526.3,229.7c-0.2,0-0.3-0.1-0.5-0.1L516,223c-0.3-0.2-0.5-0.6-0.4-0.9l1.5-8.8c0-0.3,0.2-0.5,0.4-0.6
				l12.3-7.2c0.2-0.1,0.5-0.2,0.8-0.1l5.4,2.2c0.1,0.1,0.3,0.2,0.4,0.3l7.5,9.9c0.3,0.3,0.2,0.8,0,1.1l-6.6,7.5
				c-0.1,0.1-0.3,0.2-0.4,0.3l-10.4,2.7C526.4,229.6,526.3,229.7,526.3,229.7z M517.5,221.9l8.9,5.9l9.7-2.5l5.9-6.8l-6.9-9.1
				l-4.8-2l-11.6,6.7L517.5,221.9z"/>
			<path fill="#F8BB5B" d="M529,252.3c-0.2,0-0.3,0-0.5-0.1l-6.9-4.5c-0.3-0.2-0.4-0.5-0.4-0.8v-4.5c0-0.3,0.2-0.6,0.5-0.8l5.3-2.9
				c0.3-0.1,0.6-0.1,0.8,0l8.9,4.2c0.3,0.2,0.5,0.5,0.5,0.9l-0.6,6.6c0,0.4-0.3,0.7-0.8,0.8l-6.6,1.1
				C529.1,252.3,529,252.3,529,252.3z M522.9,246.4l6.2,4.1l5.6-0.9l0.5-5.3l-7.9-3.7l-4.4,2.4V246.4z"/>
			<path fill="#F8BB5B" d="M553.4,259.1c0,0-0.1,0-0.1,0l-6.7-0.8c-0.3,0-0.5-0.2-0.7-0.4c-0.1-0.2-0.2-0.5-0.1-0.8l4.2-11.9
				c0.1-0.4,0.5-0.6,0.9-0.6h4.2c0.5,0,0.9,0.4,0.9,0.8l0.8,8.3c0,0.2,0,0.4-0.1,0.5l-2.5,4.4C554,258.9,553.7,259.1,553.4,259.1z
				 M547.9,256.7l5,0.6l2.1-3.6l-0.7-7.2h-2.8L547.9,256.7z"/>
			<path fill="#F8BB5B" d="M550.2,239.6c-0.2,0-0.3,0-0.5-0.1l-10.3-6.6c-0.2-0.1-0.4-0.4-0.4-0.7c0-0.3,0.1-0.5,0.3-0.7l9.3-9.5
				c0.3-0.3,0.8-0.4,1.2-0.1l8,6.2c0.3,0.2,0.4,0.7,0.3,1l-2,5.2c0,0.1-0.1,0.2-0.2,0.3l-5,4.7C550.7,239.5,550.4,239.6,550.2,239.6
				z M541.4,231.9l8.8,5.6l4.4-4.1l1.7-4.4l-6.8-5.3L541.4,231.9z"/>
			<path fill="#F8BB5B" d="M579,239.6c-0.2,0-0.3,0-0.5-0.1l-9.3-5.4c-0.4-0.2-0.6-0.7-0.4-1.2l4.8-9.9c0.2-0.4,0.6-0.6,1-0.5
				l10.8,2.9c0.4,0.1,0.6,0.4,0.7,0.8l0.8,7.1c0,0.3-0.1,0.6-0.3,0.8l-7.1,5.4C579.4,239.5,579.2,239.6,579,239.6z M570.9,232.9
				l8,4.7l6.2-4.7l-0.6-5.9l-9.5-2.5L570.9,232.9z"/>
			<path fill="#F8BB5B" d="M564,244.1c-0.2,0-0.3,0-0.5-0.1l-5.3-3.3c-0.2-0.1-0.3-0.3-0.4-0.6c-0.1-0.2,0-0.5,0.1-0.7l4.2-6.8
				c0.3-0.4,0.8-0.5,1.2-0.3l9.2,5.6c0.3,0.2,0.4,0.5,0.4,0.8c0,0.3-0.2,0.6-0.5,0.8l-8.1,4.5C564.3,244,564.2,244.1,564,244.1z
				 M559.9,239.6l4.1,2.5l6.3-3.5l-7.1-4.3L559.9,239.6z"/>
			<path fill="#F8BB5B" d="M503.3,226.2c-0.3,0-0.6-0.1-0.7-0.4l-3.9-5.4c-0.3-0.4-0.2-1,0.2-1.3c0.4-0.3,1-0.2,1.3,0.2l3.6,5
				l8.3-0.9l0.6-10.4l-6.2-2l-7.5,2c-0.5,0.1-1-0.2-1.1-0.6c-0.1-0.5,0.2-1,0.6-1.1l7.8-2c0.2,0,0.3,0,0.5,0l7.1,2.3
				c0.4,0.1,0.6,0.5,0.6,0.9l-0.6,11.9c0,0.4-0.4,0.8-0.8,0.8L503.3,226.2C503.3,226.2,503.3,226.2,503.3,226.2z"/>
			<path fill="#F8BB5B" d="M511,238.5c-0.3,0-0.7-0.2-0.8-0.5l-3.2-7c-0.2-0.4,0-1,0.4-1.2l6.5-3.2c0.2-0.1,0.5-0.1,0.7,0l5,2
				c0.3,0.1,0.6,0.5,0.6,0.8v7.5c0,0.5-0.4,0.9-0.8,0.9L511,238.5C511.1,238.5,511,238.5,511,238.5z M509,231.1l2.6,5.6l6.7-0.6V230
				l-4-1.6L509,231.1z"/>
			<path fill="#F8BB5B" d="M539.9,239.1h-7.7c-0.3,0-0.5-0.1-0.7-0.3l-5-6.4c-0.2-0.3-0.2-0.6-0.1-0.9c0.1-0.3,0.4-0.5,0.7-0.6
				l6.6-1.1c0.2,0,0.4,0,0.6,0.1l3.8,1.9c0.2,0.1,0.4,0.3,0.4,0.5l2.3,5.6c0.1,0.3,0.1,0.6-0.1,0.8
				C540.5,238.9,540.2,239.1,539.9,239.1z M532.7,237.2h5.9l-1.6-4.1l-3.2-1.6l-4.8,0.8L532.7,237.2z"/>
			<path fill="#F8BB5B" d="M572.1,252.8c-0.1,0-0.2,0-0.4-0.1c-0.2-0.1-0.4-0.3-0.5-0.6l-2.4-7.5c-0.1-0.2,0-0.5,0.1-0.7
				c0.1-0.2,0.3-0.4,0.6-0.4l5.5-1.2c0.4-0.1,0.8,0.1,1,0.5l2.7,5.9c0.2,0.4,0,1-0.4,1.2l-5.8,2.8
				C572.4,252.7,572.2,252.8,572.1,252.8z M570.9,245.1l1.7,5.5l4.1-2l-2-4.4L570.9,245.1z"/>
			<path fill="#F8BB5B" d="M599.1,234.5C599.1,234.5,599.1,234.5,599.1,234.5l-6.4-0.5c-0.5,0-0.8-0.4-0.8-0.9v-7.8
				c0-0.4,0.3-0.8,0.7-0.9l10.7-2c0.5-0.1,1,0.2,1,0.7c0.1,0.5-0.2,1-0.7,1l-10,1.8v6.2l5.5,0.4c0.5,0,0.9,0.5,0.8,1
				C600,234.1,599.6,234.5,599.1,234.5z"/>
		</g>
	</g>
	<g>
		<g>
			<path fill="#FFFFFF" d="M308.9,4.2c-29.3,0-53.2,23.9-53.2,53.2s23.9,53.2,53.2,53.2c29.3,0,53.2-23.9,53.2-53.2
				S338.2,4.2,308.9,4.2z"/>
			<linearGradient id="SVGID_2_" gradientUnits="userSpaceOnUse" x1="255.6837" y1="57.3604" x2="362.0771" y2="57.3604">
				<stop  offset="0" style="stop-color:#8BD3CA"/>
				<stop  offset="1" style="stop-color:#8199A6"/>
			</linearGradient>
			<path opacity="0.5" fill="url(#SVGID_2_)" d="M308.9,4.2c-29.3,0-53.2,23.9-53.2,53.2s23.9,53.2,53.2,53.2
				c29.3,0,53.2-23.9,53.2-53.2S338.2,4.2,308.9,4.2z"/>
			<path opacity="0.5" fill="#014776" d="M334.2,72.8c-0.5,0-0.9-0.4-0.9-0.9s0.4-0.9,0.9-0.9c12.1,0,21.9-9.8,21.9-21.9
				c0-7.7-4.2-15-10.9-18.9c-4.9-3.3-10.6-5-16.5-5c-6.1,0-12,1.9-17,5.4c-0.4,0.3-1,0.2-1.3-0.2c-0.3-0.4-0.2-1,0.2-1.3
				c5.3-3.7,11.6-5.7,18.1-5.7c6.2,0,12.3,1.8,17.4,5.2c7.2,4.2,11.7,12,11.7,20.4C357.9,62.2,347.2,72.8,334.2,72.8z"/>
			<g>
				<path opacity="0.5" fill="#014776" d="M308.9,112.4c-30.3,0-55-24.7-55-55s24.7-55,55-55c30.3,0,55,24.7,55,55
					S339.2,112.4,308.9,112.4z M308.9,4.2c-29.3,0-53.2,23.9-53.2,53.2s23.9,53.2,53.2,53.2c29.3,0,53.2-23.9,53.2-53.2
					S338.2,4.2,308.9,4.2z"/>
				<path opacity="0.5" fill="#014776" d="M302.2,47.3c-0.1,0-0.1,0-0.2,0c-0.5-0.1-0.8-0.6-0.7-1.1C304.7,30.5,318.9,19,335,19
					c6,0,12,1.6,17.2,4.6c0.4,0.2,0.6,0.8,0.3,1.2c-0.2,0.4-0.8,0.6-1.2,0.3c-4.9-2.8-10.6-4.3-16.3-4.3c-15.3,0-28.7,10.8-32,25.8
					C303,47,302.6,47.3,302.2,47.3z"/>
				<path opacity="0.5" fill="#014776" d="M318.3,65.1c-0.4,0-0.8-0.3-0.9-0.7c-0.1-0.5,0.2-1,0.7-1.1c6.8-1.5,11.8-7.7,11.8-14.7
					c0-6.3-4-12-9.8-14.2c-0.5-0.2-0.7-0.7-0.5-1.2c0.2-0.5,0.7-0.7,1.2-0.5c6.6,2.4,11,8.8,11,15.9c0,7.8-5.5,14.8-13.2,16.5
					C318.5,65,318.4,65.1,318.3,65.1z"/>
				<path opacity="0.5" fill="#014776" d="M303,56.6c-0.5,0-0.9-0.4-0.9-0.9c0-2.7,0.4-5.3,1.3-7.9c3.3-9.5,12.3-15.9,22.4-15.9
					c0.5,0,0.9,0.4,0.9,0.9s-0.4,0.9-0.9,0.9c-9.3,0-17.6,5.9-20.7,14.7c-0.8,2.3-1.2,4.8-1.2,7.3C303.9,56.2,303.5,56.6,303,56.6z"
					/>
				<path opacity="0.5" fill="#014776" d="M259,79.3c-0.2,0-0.4-0.1-0.5-0.2c-0.4-0.3-0.5-0.9-0.2-1.3c9-12.3,23.5-19.7,38.7-19.7
					c10.8,0,20.9,3.5,29.4,10.1c0.4,0.3,0.5,0.9,0.2,1.3c-0.3,0.4-0.9,0.5-1.3,0.2c-8.1-6.3-17.9-9.7-28.3-9.7
					c-14.7,0-28.6,7.1-37.2,18.9C259.6,79.2,259.3,79.3,259,79.3z"/>
				<path opacity="0.5" fill="#014776" d="M271.8,97.7c-0.1,0-0.1,0-0.2,0c-0.5-0.1-0.8-0.6-0.7-1.1c4.4-18.3,20.6-31.1,39.5-31.1
					c6.2,0,13.1,1.4,18.1,3.6c0.5,0.2,0.7,0.7,0.4,1.2c-0.2,0.5-0.7,0.7-1.2,0.4c-4.7-2.2-11.4-3.5-17.3-3.5
					c-18,0-33.5,12.2-37.7,29.7C272.6,97.4,272.2,97.7,271.8,97.7z"/>
				<path opacity="0.5" fill="#014776" d="M302.7,112c-0.4,0-0.7-0.2-0.8-0.6c-1.3-3.4-2-7.1-2-10.8c0-16.4,13.4-29.8,29.8-29.8
					c2.2,0,4.4,0.2,6.5,0.7c0.5,0.1,0.8,0.6,0.7,1.1c-0.1,0.5-0.6,0.8-1.1,0.7c-2-0.4-4-0.7-6.1-0.7c-15.4,0-28,12.6-28,28
					c0,3.5,0.6,6.9,1.9,10.1c0.2,0.5,0,1-0.5,1.2C302.9,112,302.8,112,302.7,112z"/>
				<path opacity="0.5" fill="#014776" d="M326.4,66.2c-2.4,0-4.8-0.5-6.9-1.5c-0.5-0.2-1.1-0.5-1.6-0.8c-0.4-0.3-0.6-0.8-0.3-1.2
					c0.3-0.4,0.8-0.6,1.2-0.3c0.5,0.3,0.9,0.5,1.4,0.7c2,0.9,4,1.3,6.2,1.3c8.2,0,15.1-7.1,15.1-15.6c0-8.3-6.8-15.1-15.1-15.1
					c-0.5,0-0.9-0.4-0.9-0.9s0.4-0.9,0.9-0.9c9.3,0,16.9,7.6,16.9,16.9C343.2,58.2,335.5,66.2,326.4,66.2z"/>
				<path opacity="0.5" fill="#014776" d="M337.7,104.1c0,0-0.1,0-0.1,0c-8-1.2-14-8.2-14-16.3c0-9.1,7.4-16.5,16.5-16.5
					c0.5,0,0.9,0.4,0.9,0.9s-0.4,0.9-0.9,0.9c-8.1,0-14.7,6.6-14.7,14.7c0,7.2,5.4,13.4,12.5,14.5c0.5,0.1,0.8,0.5,0.8,1
					C338.5,103.8,338.1,104.1,337.7,104.1z"/>
				<path opacity="0.5" fill="#014776" d="M338.8,73.1c-6.7,0-13.1-2.4-18-6.9c-9.9-9-19-10.8-31.3-10.8c-12.3,0-24,4.5-33.1,12.8
					c-0.4,0.3-0.9,0.3-1.3-0.1c-0.3-0.4-0.3-0.9,0.1-1.3c9.4-8.5,21.6-13.2,34.3-13.2c12.8,0,22.2,1.8,32.6,11.3
					c4.6,4.1,10.6,6.4,16.8,6.4c10.3,0,19.4-6.1,23.3-15.6c0.2-0.5,0.7-0.7,1.2-0.5c0.5,0.2,0.7,0.7,0.5,1.2
					C359.6,66.5,349.8,73.1,338.8,73.1z"/>
			</g>
		</g>
		<g>
			<text transform="matrix(1 0 0 1 279.5525 133.4426)" fill="#858585" font-family="'AvantGarde-Book'" font-size="20px">Water</text>
		</g>
	</g>
	<g>
		<g>
			<path fill="#FFFFFF" stroke="#F9846B" stroke-miterlimit="10" d="M58,153.4c-29.3,0-53.2,23.9-53.2,53.2s23.9,53.2,53.2,53.2
				s53.2-23.9,53.2-53.2S87.4,153.4,58,153.4z"/>
			<linearGradient id="SVGID_3_" gradientUnits="userSpaceOnUse" x1="4.8533" y1="206.5781" x2="111.2467" y2="206.5781">
				<stop  offset="0" style="stop-color:#F59F8E"/>
				<stop  offset="1" style="stop-color:#F56157"/>
			</linearGradient>
			<path opacity="0.5" fill="url(#SVGID_3_)" stroke="#F9846B" stroke-miterlimit="10" d="M58,153.4c-29.3,0-53.2,23.9-53.2,53.2
				s23.9,53.2,53.2,53.2s53.2-23.9,53.2-53.2S87.4,153.4,58,153.4z"/>
			<path fill="#F56157" d="M58,261.6c-30.3,0-55-24.7-55-55s24.7-55,55-55s55,24.7,55,55S88.4,261.6,58,261.6z M58,153.4
				c-29.3,0-53.2,23.9-53.2,53.2s23.9,53.2,53.2,53.2s53.2-23.9,53.2-53.2S87.4,153.4,58,153.4z"/>
			<path fill="#F56157" d="M36.3,245.3c-0.2,0-0.4-0.1-0.6-0.2c-5.3-4.5-8.3-11-8.3-17.9c0-11.2,5.7-19.5,15.3-22.3
				c8.3-3.4,13.6-11.3,13.6-20.2c0-8.1-4.4-15.4-11.5-19.2c-0.4-0.2-0.6-0.8-0.4-1.2c0.2-0.4,0.8-0.6,1.2-0.4
				c7.7,4.1,12.5,12.1,12.5,20.8c0,9.7-5.8,18.3-14.8,21.9c0,0-0.1,0-0.1,0c-8.8,2.6-14.1,10.3-14.1,20.6c0,6.4,2.8,12.4,7.6,16.6
				c0.4,0.3,0.4,0.9,0.1,1.3C36.8,245.2,36.6,245.3,36.3,245.3z"/>
			<path fill="#F56157" d="M27.1,231.7c-0.2,0-0.5-0.1-0.6-0.3c-4.5-4.5-7-10.4-7-16.8c0-7.3,5-15,9.6-19.1
				c7.8-6.9,11.8-16.8,11.1-27.2c0-0.4,0.2-0.7,0.5-0.9c0.4-0.2,0.8-0.1,1,0.2c1.9,2.1,3.5,4.3,5,6.6c0.3,0.4,0.1,1-0.3,1.2
				c-0.4,0.3-1,0.1-1.2-0.3c-0.9-1.5-2-3-3.1-4.4c-0.1,9.9-4.3,19.3-11.8,26c-4.3,3.8-8.9,10.9-8.9,17.7c0,5.9,2.3,11.4,6.5,15.5
				c0.4,0.3,0.4,0.9,0,1.3C27.6,231.6,27.4,231.7,27.1,231.7z"/>
			<path fill="#F56157" d="M73.4,251.3c-0.2,0-0.4-0.1-0.6-0.2c-0.4-0.3-0.4-0.9-0.1-1.3c6-7.4,9.5-16.7,9.5-24.8
				c0-11.6-5.3-22.6-14.2-29.8c0.3,2.1,0.5,4.2,0.5,6.3c0,9.5-3.4,18.7-9.5,26c-0.3,0.4-0.9,0.4-1.3,0.1c-0.4-0.3-0.4-0.9-0.1-1.3
				c5.9-6.9,9.1-15.7,9.1-24.8c0-2.8-0.3-5.5-0.9-8.2c-0.1-0.4,0.1-0.7,0.4-0.9c0.3-0.2,0.7-0.2,1,0c10.5,7.5,16.8,19.7,16.8,32.7
				c0,8.7-3.6,18.1-9.9,26C74,251.2,73.7,251.3,73.4,251.3z"/>
			<path fill="#F56157" d="M62.1,255c-12,0-23.2-5.3-30.9-14.5c-0.3-0.4-0.3-1,0.1-1.3c0.4-0.3,1-0.3,1.3,0.1
				c7.3,8.8,18.1,13.9,29.5,13.9c21.1,0,38.3-17.2,38.3-38.3c0-14.9-8.8-28.6-22.4-34.9c-0.5-0.2-0.7-0.7-0.4-1.2
				c0.2-0.5,0.7-0.7,1.2-0.4c14.2,6.5,23.4,20.8,23.4,36.5C102.2,237,84.2,255,62.1,255z"/>
			<g>
				<path fill="#F56157" d="M64.1,255c-8.1,0-14.7-6.6-14.7-14.7c0-2.7,0.8-5.4,2.2-7.7c0.9-1.4,2-2.7,3.2-3.7
					c6.9-5.5,12.1-14.2,14-23.4c0.1-0.3,0.3-0.6,0.7-0.7c0.3-0.1,0.7,0,0.9,0.3c6.4,7.3,9.9,16.7,9.9,26.4c0,4-0.6,8-1.8,11.9
					c0,0.1-0.8,2.8-1.6,4.4l0,0c-0.4,0.8-1.1,1.8-1.8,2.5C72.2,253.2,68.2,255,64.1,255z M70.1,207.6c-2.2,8.9-7.4,17.2-14.2,22.6
					c-1.1,0.9-2,2-2.8,3.2c-1.3,2-1.9,4.4-1.9,6.8c0,7.1,5.8,12.9,12.9,12.9c3.6,0,7.1-1.6,9.6-4.3c0.5-0.6,1.2-1.5,1.5-2.1l0,0
					c0.8-1.4,1.5-4,1.5-4c1.1-3.7,1.7-7.5,1.7-11.4C78.4,222.8,75.4,214.4,70.1,207.6z"/>
			</g>
			<path fill="#F56157" d="M52.7,250.9c-7.6,0-14.9-3.2-20.1-8.7c-4.8-5.1-7.4-11.8-7.4-18.8c0-7.9,3.2-15.3,8.8-20.4
				c9.9-10.1,13.5-24.7,9.3-38.2c-0.1-0.3,0-0.6,0.1-0.8s0.4-0.4,0.7-0.4c13.5,0,28.4,6.8,35.4,16.1c9.2,7.7,14.5,18.9,14.5,30.9
				c0,11.1-4.7,21.8-12.8,29.4c-0.4,0.3-0.9,0.3-1.3,0c-0.3-0.4-0.3-0.9,0-1.3c7.8-7.2,12.2-17.4,12.2-28c0-11.5-5.1-22.3-13.9-29.6
				c-0.1,0-0.1-0.1-0.1-0.2c-6.5-8.7-20.2-15-32.8-15.4c3.8,13.8,0,28.5-10.1,38.7c0,0-0.1,0.1-0.1,0.1c-5.2,4.8-8.2,11.7-8.2,19.1
				c0,6.5,2.5,12.8,6.9,17.6c4.9,5.2,11.6,8.1,18.7,8.1c0.5,0,0.9,0.4,0.9,0.9C53.6,250.5,53.2,250.9,52.7,250.9z"/>
		</g>
		<g>
			<text transform="matrix(1 0 0 1 41.6902 282.6604)" fill="#858585" font-family="'AvantGarde-Book'" font-size="20px">Fire</text>
		</g>
	</g>
	<g>
		<g>
			<path fill="none" stroke="#8096A3" stroke-width="10" stroke-miterlimit="10" d="M237.1,56.6c-62.7,10.8-116.9,36.7-153.9,71.8"
				/>
			<g>
				<polygon fill="#8096A3" points="81.3,114.7 85.9,125.8 97.1,130.3 70.7,141.3 				"/>
			</g>
		</g>
	</g>
	<g>
		<g>
			<path fill="none" stroke="#8096A3" stroke-width="10" stroke-miterlimit="10" d="M534.2,140.2c-33-36.7-83.6-65-143.6-79.2"/>
			<g>
				<polygon fill="#8096A3" points="401.2,52.1 394.3,61.9 396.5,73.8 373.1,57.3 				"/>
			</g>
		</g>
	</g>
</g>
</svg>
