<?xml version="1.0" encoding="utf-8"?>
<!-- Generator: Adobe Illustrator 19.2.1, SVG Export Plug-In . SVG Version: 6.00 Build 0)  -->
<svg version="1.1" id="Layer_1" xmlns="http://www.w3.org/2000/svg" xmlns:xlink="http://www.w3.org/1999/xlink" x="0px" y="0px"
	 viewBox="0 0 610 290" style="enable-background:new 0 0 610 290;" xml:space="preserve">
<style type="text/css">
	.st0{fill:#FFFFFF;}
	.st1{opacity:0.5;fill:url(#SVGID_1_);enable-background:new    ;}
	.st2{fill:#6E9981;}
	.st3{fill:#858585;}
	.st4{font-family:'AvantGarde-Book';}
	.st5{font-size:20px;}
	.st6{opacity:0.5;fill:url(#SVGID_2_);enable-background:new    ;}
	.st7{opacity:0.5;fill:#014776;enable-background:new    ;}
	.st8{fill:url(#SVGID_3_);}
	.st9{fill:#B8BABC;}
	.st10{fill:none;stroke:#8BD3CA;stroke-width:10;stroke-miterlimit:10;}
	.st11{fill:#8BD3CA;}
</style>
<g>
	<g>
		<g>
			<path class="st0" d="M553.2,154.3c-29.3,0-53.2,23.9-53.2,53.2s23.9,53.2,53.2,53.2s53.2-23.9,53.2-53.2S582.6,154.3,553.2,154.3
				z"/>
			
				<linearGradient id="SVGID_1_" gradientUnits="userSpaceOnUse" x1="500" y1="84.5" x2="606.4" y2="84.5" gradientTransform="matrix(1 0 0 -1 0 292)">
				<stop  offset="0" style="stop-color:#B0D79C"/>
				<stop  offset="1" style="stop-color:#6E9981"/>
			</linearGradient>
			<path class="st1" d="M553.2,154.3c-29.3,0-53.2,23.9-53.2,53.2s23.9,53.2,53.2,53.2s53.2-23.9,53.2-53.2S582.6,154.3,553.2,154.3
				z"/>
			<path class="st2" d="M553.2,262.5c-30.3,0-55-24.7-55-55s24.7-55,55-55s55,24.7,55,55S583.5,262.5,553.2,262.5z M553.2,154.3
				c-29.3,0-53.2,23.9-53.2,53.2s23.9,53.2,53.2,53.2s53.2-23.9,53.2-53.2S582.6,154.3,553.2,154.3z"/>
			<g>
				<path class="st2" d="M559.3,254.1c-5.7,0-25-5-29.7-9.3c-1.9-1.8-4.4-3.6-6.8-5.3c-3.3-2.4-6.5-4.6-7.7-6.7
					c-1.9-3.2-7.2-17-6.5-25.4c0.3-4.2,1.8-9.2,3.2-14c1.3-4.4,2.5-8.6,2.5-11.1c0-6.1,10.7-14.1,14.1-15c0.4-0.1,5.9-1.7,11.2-2.4
					c5-0.6,7.9-1.8,10.2-4.1c1.8-1.8,6.3-1.3,12-0.6c1.9,0.2,3.6,0.5,4.3,0.4c3.3-0.5,13.2,6.2,16.9,10.7
					c4.3,5.3,12.7,13.7,16.3,16.3c3.1,2.3,1.9,8.2,1,12.6c-0.3,1.5-0.6,2.9-0.6,3.6c0,3.3-0.2,14-2.1,15.2c-0.7,0.6-3.6,5.4-5.9,9.3
					c-4.1,6.8-6.8,11.3-8.1,12.4c-2.3,2-18.7,12.9-23.7,13.3C559.7,254.1,559.5,254.1,559.3,254.1z M554.5,161.5
					c-1.6,0-2.9,0.2-3.5,0.7c-2.6,2.6-5.9,3.9-11.3,4.6c-5.2,0.7-10.9,2.3-10.9,2.3l0,0c-3.2,0.8-12.8,8.5-12.8,13.2
					c0,2.8-1.2,7.1-2.6,11.6c-1.4,4.7-2.8,9.6-3.1,13.7c-0.7,8,4.4,21.2,6.3,24.3c1.1,1.8,4.1,3.9,7.2,6.1c2.5,1.7,5,3.5,7,5.4
					c4.5,4.1,24.3,9.1,28.9,8.8c4.3-0.3,20.1-10.7,22.6-12.9c1.1-1,4.8-7,7.7-11.9c4.3-7.2,5.7-9.4,6.5-9.9
					c0.8-1.1,1.3-8.9,1.3-13.7c0-0.9,0.3-2.3,0.6-4c0.8-3.6,1.9-9.1-0.3-10.7c-3.8-2.7-12.2-11.1-16.6-16.6
					c-4.3-5.2-13.4-10.4-15.3-10.1c-0.9,0.1-2.6-0.1-4.8-0.4C559.5,161.9,556.7,161.5,554.5,161.5z"/>
				<path class="st2" d="M557.6,247.8c-3.2,0-7.4-0.6-12.8-2.9c-8.4-3.7-19.8-10.3-22-12.8c-0.4-0.4-9.5-10.9-8.1-21.1
					c0.7-5.2,1.8-9.6,2.7-13.1c0.6-2.5,1.2-4.6,1.4-6.4c0.2-1.2,0.8-5.4,2.6-9.4c1.9-4.2,4.4-6.9,7.5-7.9c0.5-0.2,9.6-3.3,13.1-3.6
					c1.9-0.2,5.1-1.4,8-2.5c2.6-1,4.8-1.8,6.1-1.9c1.1-0.1,11-1.1,16.4,4.1c2.5,2.4,3.8,3.5,5,4.5c1,0.8,1.8,1.5,3.1,2.9
					c1.4,1.4,3.1,3.5,4.7,5.5c1.8,2.2,3.5,4.3,4.5,5.2c2.3,2,4,7.9,4,11.9c0,3.4-1.5,8.9-2.6,12.9c-0.3,1-0.5,1.9-0.7,2.6
					c-0.9,3.6-9.6,17.4-12,19.5c-0.2,0.2-0.5,0.5-0.9,0.8c-5.5,4.9-12.3,10.6-15,11.1C561.6,247.5,559.9,247.8,557.6,247.8z
					 M559.1,167.3c-1.5,0-2.5,0.1-2.8,0.1c-1.1,0.1-3.4,1-5.8,1.9c-3.1,1.2-6.3,2.4-8.4,2.5c-3.4,0.3-12.7,3.5-12.8,3.5l0,0
					c-7.2,2.3-9.1,14.9-9.3,16.3c-0.2,1.9-0.8,4-1.4,6.5c-0.9,3.5-2,7.8-2.7,12.9c-1.3,9.6,7.4,19.7,7.8,20.1
					c1.9,2.2,12.8,8.7,21.6,12.5c8.9,3.9,14.4,2.9,17.3,2.3c2.8-0.5,11.5-8.3,14.4-10.8c0.4-0.3,0.7-0.6,0.9-0.8
					c2.3-2,10.8-15.5,11.6-18.8c0.2-0.7,0.4-1.6,0.7-2.6c1.1-3.9,2.5-9.4,2.5-12.6c0-4.1-1.8-9.4-3.6-11c-1.1-1-2.8-3.1-4.7-5.3
					c-1.6-2-3.3-4.1-4.7-5.5c-1.3-1.3-2.1-2-3.1-2.8c-1.1-0.9-2.5-2.1-5-4.6C568.2,167.9,562.5,167.3,559.1,167.3z"/>
				<path class="st2" d="M553.7,244.3c-5.2,0-14.6-3.7-16.9-4.7c-1.7-0.7-10-4.7-11.6-9.3c-0.5-1.4-1.6-3.6-2.7-5.8
					c-2.2-4.3-4.7-9.2-4.9-12.5c-0.2-3.1,1.5-7.9,3.2-12.6c1.1-3,2.1-5.9,2.4-7.8c0.6-4.5,1.8-9.1,5.8-12.3c0.4-0.4,5.9-5.4,9.7-5.1
					c2.3,0.2,6.7-0.8,10.7-1.8c2.1-0.5,4.1-1,5.5-1.2c4.1-0.6,13.8,0.2,17,4.2c0.9,1.1,2.4,2.7,4.1,4.6c3.9,4.3,8.3,9.1,9.3,11.5
					c0.1,0.3,0.3,0.6,0.4,0.9c1.3,3,2.6,6.2,1.6,13c-0.4,2.7-0.6,4.7-0.7,6.4c-0.3,2.8-0.4,4.8-1.3,7.9c-1.4,5.2-6.8,13.5-10.5,16.2
					c-3.8,2.8-15.6,8.1-20.4,8.4C554.1,244.3,553.9,244.3,553.7,244.3z M538.3,175.3c-2.8,0-7.1,3.4-8.5,4.8l0,0
					c-3.7,2.9-4.8,7.3-5.4,11.5c-0.3,2-1.3,4.9-2.5,8c-1.6,4.3-3.4,9.3-3.2,12.1c0.2,3.1,2.8,8.1,4.8,12.1c1.2,2.4,2.3,4.5,2.8,6
					c1.1,3.2,6.6,6.6,10.9,8.6c3.5,1.6,12.7,4.9,17,4.6c4.6-0.3,16.2-5.5,19.8-8.2c3.5-2.5,8.7-10.7,10-15.6c0.8-3.1,1-4.9,1.3-7.7
					c0.2-1.6,0.3-3.7,0.7-6.4c0.9-6.4-0.4-9.4-1.6-12.3c-0.1-0.3-0.3-0.6-0.4-1c-0.9-2.2-5.4-7.1-9-11.1c-1.7-1.9-3.2-3.5-4.1-4.6
					c-2.8-3.4-11.9-4.4-15.9-3.8c-1.4,0.2-3.4,0.7-5.5,1.2c-4,1-8.6,2-11,1.8C538.5,175.3,538.4,175.3,538.3,175.3z"/>
				<path class="st2" d="M550.2,238.3c-4.2,0-7.9-0.6-10.2-2.4c-5-3.8-12.5-18.6-13.5-24.2c-0.7-3.7,1.3-9.7,2.9-14.5
					c0.8-2.3,1.4-4.3,1.5-5.3c0.4-3.9,5.8-14.5,19.7-13.6c0.1,0,0.1,0,0.2,0c0.1,0.1,13.3,5.2,17.4,6c3.9,0.7,8,2.4,11.5,9.2
					c3.5,7.1,0.9,19.5,0.1,23.6c-1.2,5.9-8.6,18.1-15.4,19.5C560,237.6,554.8,238.3,550.2,238.3z M548.9,179.5
					c-12.7,0-16.5,10.4-16.7,12.5c-0.1,1.1-0.8,3.1-1.6,5.6c-1.5,4.4-3.5,10.5-2.9,13.9c1,5.4,8.2,19.8,13,23.5
					c4.7,3.6,16.7,1.8,23.4,0.5c5.9-1.2,13.1-12.4,14.4-18.6c0.8-4,3.4-16.1,0.1-22.8c-3-6-6.4-7.8-10.6-8.6
					c-4.1-0.8-16.3-5.5-17.5-6C550,179.5,549.4,179.5,548.9,179.5z"/>
				<path class="st2" d="M552.3,235c-3.9,0-8-1.4-11.7-6.1c-7.9-10.3-10.7-19.8-8.7-29.1c1.8-8.3,9.6-19.3,18.8-17.6
					c8.9,1.6,14.4,3.6,18.4,6.5c1.1,0.3,8.1,2.8,6.5,15.7c-1.7,13.9-4.2,28.2-10.3,28.2l0,0c-1.3,0-3,0.4-4.9,1
					C558,234.2,555.2,235,552.3,235z M548.8,183.2c-7.7,0-14.1,9.6-15.7,16.8c-2,8.9,0.8,18,8.5,28.1c5.9,7.7,12.9,5.8,18.5,4.3
					c2-0.5,3.8-1,5.2-1l0,0c5.9,0,8.3-20.4,9.1-27.1c1.5-12.6-5.4-14.3-5.7-14.4c-0.1,0-0.2-0.1-0.2-0.1c-3.8-2.8-9.4-4.8-18-6.4
					C550,183.3,549.4,183.2,548.8,183.2z"/>
				<path class="st2" d="M558.8,228.5c-5,0-11.1-3.2-13.1-5.6c-6.7-8.1-6.9-15.6-6.4-21.3c0.5-5.9,4.4-10.3,10.3-11.8
					c4.5-1.2,12.8-1.6,15.7,3.9l0,0c0.1,0.2,7.6,16.6,0,31.2c-1.1,2-2.9,3.2-5.5,3.5C559.5,228.5,559.1,228.5,558.8,228.5z
					 M555.4,190.3c-2,0-4,0.3-5.6,0.7c-5.4,1.4-8.9,5.4-9.4,10.8c-0.5,5.4-0.2,12.6,6.2,20.4c2,2.4,8.5,5.6,13.1,5.2
					c2.1-0.2,3.6-1.2,4.5-2.9c7.3-13.9,0.2-29.6,0-30.1C562.6,191.2,559,190.3,555.4,190.3z"/>
				<path class="st2" d="M557.1,222.1c-3.4,0-7.5-2.2-8.8-3.8c-4.5-5.4-4.7-10.5-4.3-14.3c0.4-4,3-7,7-8c3-0.8,8.7-1.1,10.7,2.7l0,0
					c0.2,0.4,5.1,11.1,0,20.9c-0.7,1.4-2,2.2-3.8,2.4C557.6,222.1,557.4,222.1,557.1,222.1z M554.9,196.7c-1.3,0-2.7,0.2-3.7,0.5
					c-3.5,0.9-5.8,3.5-6.1,7c-0.3,3.6-0.2,8.3,4,13.4c1.3,1.5,5.5,3.7,8.5,3.4c1.3-0.1,2.3-0.7,2.8-1.8c4.8-9.1,0.2-19.4,0-19.8
					C559.6,197.3,557.2,196.7,554.9,196.7z"/>
			</g>
		</g>
		<g>
			<text transform="matrix(1 0 0 1 523.6718 283.5561)" class="st3 st4 st5">Wood</text>
		</g>
	</g>
	<g>
		<g>
			<path class="st0" d="M305.4,3.8c-29.3,0-53.2,23.9-53.2,53.2s23.9,53.2,53.2,53.2s53.2-23.9,53.2-53.2S334.8,3.8,305.4,3.8z"/>
			
				<linearGradient id="SVGID_2_" gradientUnits="userSpaceOnUse" x1="252.2" y1="235" x2="358.6" y2="235" gradientTransform="matrix(1 0 0 -1 0 292)">
				<stop  offset="0" style="stop-color:#8BD3CA"/>
				<stop  offset="1" style="stop-color:#8199A6"/>
			</linearGradient>
			<path class="st6" d="M305.4,3.8c-29.3,0-53.2,23.9-53.2,53.2s23.9,53.2,53.2,53.2s53.2-23.9,53.2-53.2S334.8,3.8,305.4,3.8z"/>
			<path class="st7" d="M330.8,72.5c-0.5,0-0.9-0.4-0.9-0.9s0.4-0.9,0.9-0.9c12.1,0,21.9-9.8,21.9-21.9c0-7.7-4.2-15-10.9-18.9
				c-4.9-3.3-10.6-5-16.5-5c-6.1,0-12,1.9-17,5.4c-0.4,0.3-1,0.2-1.3-0.2c-0.3-0.4-0.2-1,0.2-1.3c5.3-3.7,11.6-5.7,18.1-5.7
				c6.2,0,12.3,1.8,17.4,5.2c7.2,4.2,11.7,12,11.7,20.4C354.4,61.8,343.8,72.5,330.8,72.5z"/>
			<g>
				<path class="st7" d="M305.4,112c-30.3,0-55-24.7-55-55s24.7-55,55-55s55,24.7,55,55S335.8,112,305.4,112z M305.4,3.8
					c-29.3,0-53.2,23.9-53.2,53.2s23.9,53.2,53.2,53.2s53.2-23.9,53.2-53.2S334.8,3.8,305.4,3.8z"/>
				<path class="st7" d="M298.8,47c-0.1,0-0.1,0-0.2,0c-0.5-0.1-0.8-0.6-0.7-1.1c3.4-15.8,17.6-27.2,33.7-27.2c6,0,12,1.6,17.2,4.6
					c0.4,0.2,0.6,0.8,0.3,1.2c-0.2,0.4-0.8,0.6-1.2,0.3c-4.9-2.8-10.6-4.3-16.3-4.3c-15.3,0-28.7,10.8-32,25.8
					C299.6,46.7,299.2,47,298.8,47z"/>
				<path class="st7" d="M314.9,64.7c-0.4,0-0.8-0.3-0.9-0.7c-0.1-0.5,0.2-1,0.7-1.1c6.8-1.5,11.8-7.7,11.8-14.7
					c0-6.3-4-12-9.8-14.2c-0.5-0.2-0.7-0.7-0.5-1.2s0.7-0.7,1.2-0.5c6.6,2.4,11,8.8,11,15.9c0,7.8-5.5,14.8-13.2,16.5
					C315,64.7,314.9,64.7,314.9,64.7z"/>
				<path class="st7" d="M299.5,56.3c-0.5,0-0.9-0.4-0.9-0.9c0-2.7,0.4-5.3,1.3-7.9c3.3-9.5,12.3-15.9,22.4-15.9
					c0.5,0,0.9,0.4,0.9,0.9s-0.4,0.9-0.9,0.9c-9.3,0-17.6,5.9-20.7,14.7c-0.8,2.3-1.2,4.8-1.2,7.3C300.4,55.9,300,56.3,299.5,56.3z"
					/>
				<path class="st7" d="M255.6,79c-0.2,0-0.4-0.1-0.5-0.2c-0.4-0.3-0.5-0.9-0.2-1.3c9-12.3,23.5-19.7,38.7-19.7
					c10.8,0,20.9,3.5,29.4,10.1c0.4,0.3,0.5,0.9,0.2,1.3s-0.9,0.5-1.3,0.2c-8.1-6.3-17.9-9.7-28.3-9.7c-14.7,0-28.6,7.1-37.2,18.9
					C256.1,78.8,255.9,79,255.6,79z"/>
				<path class="st7" d="M268.4,97.3c-0.1,0-0.1,0-0.2,0c-0.5-0.1-0.8-0.6-0.7-1.1c4.4-18.3,20.6-31.1,39.5-31.1
					c6.2,0,13.1,1.4,18.1,3.6c0.5,0.2,0.7,0.7,0.4,1.2c-0.2,0.5-0.7,0.7-1.2,0.4c-4.7-2.2-11.4-3.5-17.3-3.5
					c-18,0-33.5,12.2-37.7,29.7C269.2,97.1,268.8,97.3,268.4,97.3z"/>
				<path class="st7" d="M299.3,111.7c-0.4,0-0.7-0.2-0.8-0.6c-1.3-3.4-2-7.1-2-10.8c0-16.4,13.4-29.8,29.8-29.8
					c2.2,0,4.4,0.2,6.5,0.7c0.5,0.1,0.8,0.6,0.7,1.1c-0.1,0.5-0.6,0.8-1.1,0.7c-2-0.4-4-0.7-6.1-0.7c-15.4,0-28,12.6-28,28
					c0,3.5,0.6,6.9,1.9,10.1c0.2,0.5,0,1-0.5,1.2C299.5,111.6,299.4,111.7,299.3,111.7z"/>
				<path class="st7" d="M323,65.8c-2.4,0-4.8-0.5-6.9-1.5c-0.5-0.2-1.1-0.5-1.6-0.8c-0.4-0.3-0.6-0.8-0.3-1.2
					c0.3-0.4,0.8-0.6,1.2-0.3c0.5,0.3,0.9,0.5,1.4,0.7c2,0.9,4,1.3,6.2,1.3c8.2,0,15.1-7.1,15.1-15.6c0-8.3-6.8-15.1-15.1-15.1
					c-0.5,0-0.9-0.4-0.9-0.9s0.4-0.9,0.9-0.9c9.3,0,16.9,7.6,16.9,16.9C339.8,57.9,332.1,65.8,323,65.8z"/>
				<path class="st7" d="M334.2,103.7h-0.1c-8-1.2-14-8.2-14-16.3c0-9.1,7.4-16.5,16.5-16.5c0.5,0,0.9,0.4,0.9,0.9s-0.4,0.9-0.9,0.9
					c-8.1,0-14.7,6.6-14.7,14.7c0,7.2,5.4,13.4,12.5,14.5c0.5,0.1,0.8,0.5,0.8,1C335.1,103.4,334.7,103.7,334.2,103.7z"/>
				<path class="st7" d="M335.4,72.8c-6.7,0-13.1-2.4-18-6.9c-9.9-9-19-10.8-31.3-10.8s-24,4.5-33.1,12.8c-0.4,0.3-0.9,0.3-1.3-0.1
					c-0.3-0.4-0.3-0.9,0.1-1.3c9.4-8.5,21.6-13.2,34.3-13.2c12.8,0,22.2,1.8,32.6,11.3c4.6,4.1,10.6,6.4,16.8,6.4
					c10.3,0,19.4-6.1,23.3-15.6c0.2-0.5,0.7-0.7,1.2-0.5s0.7,0.7,0.5,1.2C356.2,66.2,346.4,72.8,335.4,72.8z"/>
			</g>
		</g>
		<g>
			<text transform="matrix(1 0 0 1 276.1189 133.0852)" class="st3 st4 st5">Water</text>
		</g>
	</g>
	<g>
		<g>
			
				<linearGradient id="SVGID_3_" gradientUnits="userSpaceOnUse" x1="3.6" y1="85.4" x2="110" y2="85.4" gradientTransform="matrix(1 0 0 -1 0 292)">
				<stop  offset="0" style="stop-color:#EDEEEE"/>
				<stop  offset="1" style="stop-color:#CDCFD0"/>
			</linearGradient>
			<path class="st8" d="M56.8,153.4c-29.3,0-53.2,23.9-53.2,53.2s23.9,53.2,53.2,53.2S110,236,110,206.6
				C110,177.3,86.1,153.4,56.8,153.4z"/>
			<g>
				<path class="st9" d="M56.8,261.6c-30.3,0-55-24.7-55-55s24.7-55,55-55s55,24.7,55,55S87.1,261.6,56.8,261.6z M56.8,153.4
					c-29.3,0-53.2,23.9-53.2,53.2s23.9,53.2,53.2,53.2S110,236,110,206.6C110,177.3,86.1,153.4,56.8,153.4z"/>
				<path class="st9" d="M70,193.4H43.6c-0.3,0-0.6-0.1-0.7-0.4c-0.2-0.2-0.2-0.5-0.1-0.8l5.1-14.2c0.1-0.4,0.5-0.6,0.8-0.6h16.2
					c0.4,0,0.7,0.2,0.8,0.6l5.1,14.2c0.1,0.3,0.1,0.6-0.1,0.8C70.6,193.3,70.3,193.4,70,193.4z M44.8,191.6h23.9l-4.5-12.4H49.3
					L44.8,191.6z"/>
				<g>
					<path class="st9" d="M85,211.7H58.6c-0.3,0-0.6-0.1-0.7-0.4c-0.2-0.2-0.2-0.5-0.1-0.8l5.1-14.2c0.1-0.4,0.5-0.6,0.8-0.6h16.2
						c0.4,0,0.7,0.2,0.8,0.6l5.1,14.2c0.1,0.3,0.1,0.6-0.1,0.8C85.6,211.5,85.3,211.7,85,211.7z M59.9,209.9h23.9l-4.5-12.4h-15
						L59.9,209.9z"/>
					<path class="st9" d="M55,211.7H28.5c-0.3,0-0.6-0.1-0.7-0.4c-0.2-0.2-0.2-0.5-0.1-0.8l5.1-14.2c0.1-0.4,0.5-0.6,0.8-0.6h16.2
						c0.4,0,0.7,0.2,0.8,0.6l5.1,14.2c0.1,0.3,0.1,0.6-0.1,0.8C55.5,211.5,55.3,211.7,55,211.7z M29.8,209.9h23.9l-4.5-12.4H34.3
						L29.8,209.9z"/>
				</g>
				<g>
					<path class="st9" d="M100.1,229.9H73.6c-0.3,0-0.6-0.1-0.7-0.4c-0.2-0.2-0.2-0.5-0.1-0.8l5.1-14.2c0.1-0.4,0.5-0.6,0.8-0.6H95
						c0.4,0,0.7,0.2,0.8,0.6l5.1,14.2c0.1,0.3,0.1,0.6-0.1,0.8C100.6,229.8,100.4,229.9,100.1,229.9z M74.9,228.1h23.9l-4.5-12.4
						H79.4L74.9,228.1z"/>
					<path class="st9" d="M70,229.9H43.6c-0.3,0-0.6-0.1-0.7-0.4c-0.2-0.2-0.2-0.5-0.1-0.8l5.1-14.2c0.1-0.4,0.5-0.6,0.8-0.6h16.2
						c0.4,0,0.7,0.2,0.8,0.6l5.1,14.2c0.1,0.3,0.1,0.6-0.1,0.8C70.6,229.8,70.3,229.9,70,229.9z M44.8,228.1h23.9l-4.5-12.4H49.3
						L44.8,228.1z"/>
					<path class="st9" d="M39.9,229.9H13.5c-0.3,0-0.6-0.1-0.7-0.4c-0.2-0.2-0.2-0.5-0.1-0.8l5.1-14.2c0.1-0.4,0.5-0.6,0.8-0.6h16.2
						c0.4,0,0.7,0.2,0.8,0.6l5.1,14.2c0.1,0.3,0.1,0.6-0.1,0.8C40.5,229.8,40.2,229.9,39.9,229.9z M14.8,228.1h23.9l-4.5-12.4h-15
						L14.8,228.1z"/>
				</g>
			</g>
			<path class="st9" d="M43.6,193.4c-0.3,0-0.5-0.1-0.7-0.4c-0.3-0.4-0.2-1,0.2-1.3l9.4-7.1c0.4-0.3,1-0.2,1.3,0.2s0.2,1-0.2,1.3
				l-9.4,7.1C43.9,193.4,43.8,193.4,43.6,193.4z"/>
			<path class="st9" d="M48,193.4c-0.3,0-0.5-0.1-0.7-0.4c-0.3-0.4-0.2-1,0.2-1.3l4.9-3.7c0.4-0.3,1-0.2,1.3,0.2s0.2,1-0.2,1.3
				l-4.9,3.7C48.4,193.4,48.2,193.4,48,193.4z"/>
			<path class="st9" d="M43.6,201c-0.3,0-0.5-0.1-0.7-0.4c-0.3-0.4-0.2-1,0.2-1.3l4.6-3.5c0.4-0.3,1-0.2,1.3,0.2s0.2,1-0.2,1.3
				l-4.6,3.5C43.9,201,43.8,201,43.6,201z"/>
			<path class="st9" d="M48,201c-0.3,0-0.5-0.1-0.7-0.4c-0.3-0.4-0.2-1,0.2-1.3l2.4-1.8c0.4-0.3,1-0.2,1.3,0.2s0.2,1-0.2,1.3
				l-2.4,1.8C48.4,201,48.2,201,48,201z"/>
			<path class="st9" d="M13.5,229.9c-0.3,0-0.5-0.1-0.7-0.4c-0.3-0.4-0.2-1,0.2-1.3l9.4-7.1c0.4-0.3,1-0.2,1.3,0.2s0.2,1-0.2,1.3
				l-9.4,7.1C13.9,229.9,13.7,229.9,13.5,229.9z"/>
			<path class="st9" d="M18,229.9c-0.3,0-0.5-0.1-0.7-0.4c-0.3-0.4-0.2-1,0.2-1.3l4.9-3.7c0.4-0.3,1-0.2,1.3,0.2s0.2,1-0.2,1.3
				l-4.9,3.7C18.4,229.9,18.2,229.9,18,229.9z"/>
			<path class="st9" d="M68.9,206.9c-0.3,0-0.5-0.1-0.7-0.4c-0.3-0.4-0.2-1,0.2-1.3l9.4-7.1c0.4-0.3,1-0.2,1.3,0.2s0.2,1-0.2,1.3
				l-9.4,7.1C69.3,206.8,69.1,206.9,68.9,206.9z"/>
			<path class="st9" d="M73.4,206.9c-0.3,0-0.5-0.1-0.7-0.4c-0.3-0.4-0.2-1,0.2-1.3l4.9-3.7c0.4-0.3,1-0.2,1.3,0.2s0.2,1-0.2,1.3
				l-4.9,3.7C73.8,206.8,73.6,206.9,73.4,206.9z"/>
			<path class="st9" d="M52.1,225.3c-0.3,0-0.5-0.1-0.7-0.4c-0.3-0.4-0.2-1,0.2-1.3l9.4-7.1c0.4-0.3,1-0.2,1.3,0.2s0.2,1-0.2,1.3
				l-9.4,7.1C52.5,225.3,52.3,225.3,52.1,225.3z"/>
			<path class="st9" d="M56.5,225.3c-0.3,0-0.5-0.1-0.7-0.4c-0.3-0.4-0.2-1,0.2-1.3l4.9-3.7c0.4-0.3,1-0.2,1.3,0.2s0.2,1-0.2,1.3
				l-4.9,3.7C56.9,225.3,56.7,225.3,56.5,225.3z"/>
			<path class="st9" d="M78.3,229.9c-0.3,0-0.5-0.1-0.7-0.4c-0.3-0.4-0.2-1,0.2-1.3l9.4-7.1c0.4-0.3,1-0.2,1.3,0.2s0.2,1-0.2,1.3
				l-9.4,7.1C78.7,229.9,78.5,229.9,78.3,229.9z"/>
			<path class="st9" d="M82.8,229.9c-0.3,0-0.5-0.1-0.7-0.4c-0.3-0.4-0.2-1,0.2-1.3l4.9-3.7c0.4-0.3,1-0.2,1.3,0.2s0.2,1-0.2,1.3
				l-4.9,3.7C83.2,229.9,83,229.9,82.8,229.9z"/>
		</g>
		<g>
			<text transform="matrix(1 0 0 1 28.8685 282.7018)" class="st3 st4 st5">Metal</text>
		</g>
	</g>
	<g>
		<g>
			<path class="st10" d="M370,55.4c62.7,10.8,116.9,36.7,153.9,71.8"/>
			<g>
				<polygon class="st11" points="510,129.1 521.2,124.6 525.8,113.5 536.3,140.1 				"/>
			</g>
		</g>
	</g>
	<g>
		<g>
			<path class="st10" d="M72.8,139c33-36.7,83.6-65,143.6-79.2"/>
			<g>
				<polygon class="st11" points="210.5,72.6 212.8,60.7 205.8,50.8 233.9,56.1 				"/>
			</g>
		</g>
	</g>
</g>
<g>
	<text transform="matrix(1 0 0 1 381.1367 42.0923)" class="st3 st4 st5">Water nourishes Wood</text>
</g>
<g>
	<text transform="matrix(1 0 0 1 20.7916 42.0923)" class="st3 st4 st5">Metal enriches Water</text>
</g>
</svg>
