<?xml version="1.0" encoding="utf-8"?>
<!-- Generator: Adobe Illustrator 19.2.1, SVG Export Plug-In . SVG Version: 6.00 Build 0)  -->
<svg version="1.1" id="Layer_1" xmlns="http://www.w3.org/2000/svg" xmlns:xlink="http://www.w3.org/1999/xlink" x="0px" y="0px"
	 viewBox="0 0 110 110" style="enable-background:new 0 0 110 110;" xml:space="preserve">
<style type="text/css">
	.st0{fill:#FFFFFF;}
	.st1{opacity:0.5;fill:url(#SVGID_1_);enable-background:new    ;}
	.st2{opacity:0.5;fill:#014776;enable-background:new    ;}
</style>
<g>
	<path class="st0" d="M55,1.8C25.7,1.8,1.8,25.7,1.8,55s23.9,53.2,53.2,53.2s53.2-23.9,53.2-53.2S84.3,1.8,55,1.8z"/>
	
		<linearGradient id="SVGID_1_" gradientUnits="userSpaceOnUse" x1="1.8" y1="55" x2="108.2" y2="55" gradientTransform="matrix(1 0 0 -1 0 110)">
		<stop  offset="0" style="stop-color:#8BD3CA"/>
		<stop  offset="1" style="stop-color:#8199A6"/>
	</linearGradient>
	<path class="st1" d="M55,1.8C25.7,1.8,1.8,25.7,1.8,55s23.9,53.2,53.2,53.2s53.2-23.9,53.2-53.2S84.3,1.8,55,1.8z"/>
	<path class="st2" d="M110,53.2c-0.4-11.8-4.5-22.6-11.1-31.4c-0.1-0.2-0.2-0.4-0.4-0.5C88.3,8.4,72.6,0,55,0C24.7,0,0,24.7,0,55
		c0,7.5,1.5,14.6,4.2,21.1c0,0.2,0.1,0.3,0.2,0.5c3,6.9,7.4,13.1,12.8,18.3c0.1,0.1,0.2,0.2,0.3,0.3c8.3,7.8,19,13,30.8,14.4
		c0.1,0.1,0.3,0.1,0.4,0.1c0,0,0.1,0,0.1,0c2,0.2,4,0.3,6.1,0.3c10.7,0,20.6-3.1,29.1-8.3c0.1,0,0.3-0.1,0.4-0.3
		C99.8,91.6,110,74.5,110,55c0-0.3,0-0.6,0-0.9c0,0,0,0,0-0.1C110.1,53.7,110.1,53.4,110,53.2z M1.8,55C1.8,25.7,25.7,1.8,55,1.8
		c15.6,0,29.7,6.8,39.4,17.5c-4.2-1.7-8.7-2.6-13.2-2.6c-9.3,0-17.9,3.7-24.2,9.9c-0.1,0.1-0.2,0.1-0.3,0.2
		c-0.1,0.1-0.2,0.2-0.3,0.4c-4.4,4.5-7.6,10.3-9,16.7c-0.1,0.5,0.2,1,0.7,1.1c0.1,0,0.1,0,0.2,0c0.4,0,0.8-0.3,0.9-0.7
		c1.4-6.3,4.6-11.9,8.9-16.2c4.9-3.4,10.7-5.2,16.7-5.2c5.9,0,11.6,1.7,16.5,5c6.7,3.9,10.9,11.2,10.9,18.9
		c0,11.6-9.1,21.1-20.5,21.9c-4.5-0.6-8.7-2.4-12.2-5.2c1,0.2,2,0.3,3.1,0.3c9.1,0,16.9-7.9,16.9-17.4c0-9.3-7.6-16.9-16.9-16.9
		c-0.2,0-0.3,0.1-0.4,0.1c-0.1,0-0.1,0-0.2,0c-1.9,0-3.8,0.2-5.5,0.7c-0.1,0-0.1,0-0.2,0.1c-7.6,1.9-14,7.5-16.6,15.2
		c-0.8,2.2-1.1,4.4-1.3,6.7c-3.9-0.7-8.1-1-12.6-1c-12.2,0-23.9,4.3-33.1,12.2C2,60.7,1.8,57.9,1.8,55z M77.9,46.2
		c0-6.1-3.3-11.7-8.4-14.7c0.8-0.1,1.6-0.1,2.4-0.1c0.2,0,0.3-0.1,0.4-0.1c0.1,0,0.1,0,0.2,0c8.3,0,15.1,6.8,15.1,15.1
		c0,8.5-6.9,15.6-15.1,15.6c-1.5,0-2.8-0.2-4.2-0.6C74.1,58.6,77.9,52.7,77.9,46.2z M65.8,60.4c-5.2-4.2-10.3-6.6-15.8-7.9
		c0.1-2.2,0.5-4.4,1.2-6.5c2.5-7,8.3-12.2,15.2-14C72.1,34.4,76,40,76,46.2C76,52.6,71.8,58.4,65.8,60.4z M2.8,65.5
		c9-8.1,20.6-12.5,32.8-12.5c4.7,0,9,0.3,13,1.1c0.1,0.1,0.3,0.2,0.5,0.2c0.1,0,0.1,0,0.2,0c4.1,0.9,8,2.5,11.9,5.1
		c-5.7-2.3-11.8-3.5-18.1-3.5c-14.7,0-28.6,6.9-37.7,18.4C4.3,71.4,3.5,68.5,2.8,65.5z M17.5,92.7C12.8,88,8.9,82.4,6.2,76.2
		c8.6-11.5,22.4-18.5,36.9-18.5c8.5,0,16.6,2.3,23.7,6.5c-3.3-0.7-6.8-1.1-10.2-1.1C38.2,63.1,22.4,75.2,17.5,92.7z M19,94.1
		c4.3-17.3,19.7-29.3,37.6-29.3c4.8,0,10.2,0.9,14.5,2.4c0.1,0.1,0.2,0.1,0.3,0.2c0.2,0.2,0.4,0.2,0.7,0.1c0.3,0.1,0.6,0.2,0.8,0.4
		c0.5,0.2,0.9,0.4,1.4,0.7C58.6,69.3,46,82.4,46,98.3c0,3.2,0.5,6.4,1.5,9.4C36.6,106.1,26.7,101.2,19,94.1z M55,108.2
		c-1.9,0-3.7-0.1-5.5-0.3c-1.2-3.1-1.7-6.3-1.7-9.6c0-15.4,12.6-28,28-28c1.1,0,2.2,0.1,3.3,0.2c-5.5,2.7-9.4,8.3-9.4,14.9
		c0,7.3,4.9,13.7,11.7,15.8C73.6,105.6,64.6,108.2,55,108.2z M83.6,99.8c-6.9-1.3-12.1-7.4-12.1-14.4c0-8.1,6.6-14.7,14.7-14.7
		c0.1,0,0.2,0,0.3-0.1c9-0.5,17-5.4,21.6-13C107.3,75.3,97.7,90.8,83.6,99.8z M90.1,68.4c8.2-3.7,13.9-12.1,13.8-21.7
		c0-8.4-4.5-16.2-11.7-20.4c-5.1-3.4-11.2-5.2-17.4-5.2c-3.1,0-6.2,0.5-9.1,1.4c4.7-2.5,10-4,15.5-4c5.6,0,11.1,1.4,15.9,4.1
		c6.7,8.6,10.7,19.4,11,31C104.9,61.3,98.1,66.8,90.1,68.4z"/>
</g>
</svg>
