<?xml version="1.0" encoding="utf-8"?>
<!-- Generator: Adobe Illustrator 19.2.1, SVG Export Plug-In . SVG Version: 6.00 Build 0)  -->
<svg version="1.1" id="Layer_1" xmlns="http://www.w3.org/2000/svg" xmlns:xlink="http://www.w3.org/1999/xlink" x="0px" y="0px"
	 viewBox="0 0 155 145" style="enable-background:new 0 0 155 145;" xml:space="preserve">
<style type="text/css">
	.st0{fill:#838383;}
</style>
<g>
	<path class="st0" d="M15.9,52.6c-2.8,0-4.6-2.2-4.6-5.7s1.8-5.7,4.6-5.7h37.3c7.2,0,10.6,3.1,10.6,9.6c0,1.9-0.3,4.2-0.9,6.9
		c-3,11.4-8.5,24-15.6,34.6c-8.1,12.3-18.4,22.6-28.8,30.1c-1.5,1-3,1.7-4.4,1.7c-1.9,0-3.6-0.9-4.8-2.7c-0.9-1.2-1.3-2.4-1.3-3.8
		c0-1.8,0.9-3.8,3-5.1c9.8-6.9,18.9-16,24.9-24.6C43.5,77.3,48.9,66.1,51.6,56c0.3-0.9,0.4-1.5,0.4-2.1c0-1-0.6-1.4-2.4-1.4H15.9z
		 M83.8,31.7c2.2,10.5,6.9,21.6,12.3,31.3c11.4-8.7,22.2-20.2,29.5-31c1-1.7,2.7-2.4,4.5-2.4c1.2,0,2.5,0.4,3.9,1.3
		c1.8,1.2,2.7,3.1,2.7,5.2c0,1.2-0.5,2.5-1.2,3.7c-9,11.8-21,23.5-33.6,32.7c2.2,3.3,4.5,6.4,6.8,9.1c9,10.9,21.3,22.3,35.1,30.3
		c2.1,1.2,3.1,3.3,3.1,5.4c0,1.4-0.3,2.6-1,3.8c-1,2-3.5,3.5-5.8,3.5c-1.2,0-2.2-0.3-3.5-1C124,116,111.2,104.1,101.8,92
		C93.5,81.3,85,64.9,80.9,50.8c1.5,12.4,2.8,23.7,2.8,34v40.8c0,10.8-6.3,14.8-17.5,14.8c-5.8,0-11.4-0.6-15.6-1.5
		c-3-0.6-4.5-2.5-4.5-5.2c0-0.6,0-1.1,0.1-1.7c0.5-3,2.4-4.8,4.8-4.8c0.3,0,0.8,0,1.2,0.2c3.4,0.9,8.1,1.5,12.3,1.5
		c5.4,0,7.2-1.4,7.2-6.8V9.1c0-2.9,2.4-4.5,6-4.5c3.6,0,6,1.6,6,4.5V31.7z"/>
</g>
</svg>
