<?xml version="1.0" encoding="utf-8"?>
<!-- Generator: Adobe Illustrator 19.2.1, SVG Export Plug-In . SVG Version: 6.00 Build 0)  -->
<svg version="1.1" id="Layer_1" xmlns="http://www.w3.org/2000/svg" xmlns:xlink="http://www.w3.org/1999/xlink" x="0px" y="0px"
	 viewBox="0 0 103 103" style="enable-background:new 0 0 103 103;" xml:space="preserve">
<style type="text/css">
	.st0{opacity:0.8;}
	.st1{fill:#FFFFFF;}
	.st2{opacity:0.2;}
</style>
<g>
	<g>
		<g class="st0">
			<path class="st1" d="M26.6,76.4C20.2,70,16.3,61.2,16.3,51.5c0-9.6,3.9-18.4,10.2-24.7l0,0l25.2,24.9L26.8,76.2"/>
		</g>
		<g>
			<path class="st1" d="M51.5,87.6c-19.9,0-36.1-16.2-36.1-36.1c0-19.9,16.2-36.1,36.1-36.1c19.9,0,36.1,16.2,36.1,36.1
				C87.6,71.4,71.4,87.6,51.5,87.6z M51.5,17.1c-19,0-34.4,15.4-34.4,34.4c0,19,15.4,34.4,34.4,34.4s34.4-15.4,34.4-34.4
				C85.9,32.5,70.5,17.1,51.5,17.1z"/>
		</g>
		<g>
			<path class="st1" d="M27.6,45.8c-0.1,0-0.1,0-0.2,0c-0.4-0.1-0.7-0.6-0.6-1c2.4-8.6,9.2-15.5,17.8-17.9c0.4-0.1,0.9,0.1,1,0.6
				c0.1,0.4-0.1,0.9-0.6,1c-8.1,2.2-14.5,8.7-16.7,16.7C28.3,45.5,28,45.8,27.6,45.8z"/>
		</g>
		<g>
			<path class="st1" d="M45,76.2c-0.1,0-0.1,0-0.2,0c-8.6-2.4-15.5-9.2-17.9-17.8c-0.1-0.4,0.1-0.9,0.6-1c0.4-0.1,0.9,0.1,1,0.6
				c2.2,8.1,8.7,14.5,16.7,16.7c0.4,0.1,0.7,0.6,0.6,1C45.6,76,45.3,76.2,45,76.2z"/>
		</g>
		<g>
			<path class="st1" d="M59,75.9c-0.3,0-0.7-0.2-0.8-0.6c-0.1-0.4,0.1-0.9,0.5-1c7.8-2.5,13.7-8.6,15.8-16.5c0.1-0.4,0.6-0.7,1-0.6
				c0.4,0.1,0.7,0.6,0.6,1c-2.3,8.4-8.6,15-16.9,17.6C59.2,75.9,59.1,75.9,59,75.9z"/>
		</g>
		<g>
			<path class="st1" d="M75.3,45.7c-0.4,0-0.7-0.2-0.8-0.6c-2.2-8.1-8.7-14.5-16.7-16.7c-0.4-0.1-0.7-0.6-0.6-1
				c0.1-0.4,0.6-0.7,1-0.6c8.6,2.4,15.5,9.2,17.9,17.8c0.1,0.4-0.1,0.9-0.6,1C75.5,45.7,75.4,45.7,75.3,45.7z"/>
		</g>
		<g>
			<path class="st1" d="M61.5,62.4c-0.2,0-0.4-0.1-0.6-0.2l-10-10.1c-0.3-0.3-0.3-0.8,0-1.2l10.3-10.2c0.2-0.2,0.5-0.3,0.8-0.2
				l38.9,10.2c0.4,0.1,0.6,0.4,0.6,0.8s-0.3,0.7-0.6,0.8L61.7,62.4C61.6,62.4,61.5,62.4,61.5,62.4z M52.7,51.5l9.1,9.2l35.7-9.2
				l-35.4-9.3L52.7,51.5z"/>
		</g>
		<g>
			<path class="st1" d="M51.5,52.3c-0.2,0-0.4-0.1-0.6-0.2L40.7,41.7c-0.2-0.2-0.3-0.5-0.2-0.8L50.7,2.1c0.1-0.4,0.4-0.6,0.8-0.6
				c0,0,0,0,0,0c0.4,0,0.7,0.3,0.8,0.6l10.1,39.2c0.1,0.3,0,0.6-0.2,0.8l-10.1,10C51.9,52.2,51.7,52.3,51.5,52.3z M42.2,40.9
				l9.3,9.4l9.2-9.1L51.5,5.6L42.2,40.9z"/>
		</g>
		<g class="st2">
			<polygon class="st1" points="51.5,2.3 61.6,41.5 51.5,51.5 			"/>
		</g>
		<g>
			<path class="st1" d="M41.2,62.5c-0.1,0-0.1,0-0.2,0L2.1,52.3c-0.4-0.1-0.6-0.4-0.6-0.8c0-0.4,0.3-0.7,0.6-0.8l39.2-10.1
				c0.3-0.1,0.6,0,0.8,0.2l10,10.1c0.3,0.3,0.3,0.8,0,1.2L41.7,62.3C41.6,62.4,41.4,62.5,41.2,62.5z"/>
		</g>
		<g>
			<path class="st1" d="M51.5,101.5C51.5,101.5,51.5,101.5,51.5,101.5c-0.4,0-0.7-0.3-0.8-0.6L40.6,61.7c-0.1-0.3,0-0.6,0.2-0.8
				l10.1-10c0.3-0.3,0.8-0.3,1.2,0l10.2,10.3c0.2,0.2,0.3,0.5,0.2,0.8l-10.2,38.9C52.2,101.2,51.9,101.5,51.5,101.5z M42.3,61.7
				l9.2,35.7l9.3-35.4l-9.3-9.4L42.3,61.7z"/>
		</g>
		<g class="st2">
			<polygon class="st1" points="100.7,51.5 61.5,61.6 51.5,51.5 			"/>
		</g>
		<g class="st2">
			<polygon class="st1" points="51.5,100.7 41.4,61.5 51.5,51.5 			"/>
		</g>
	</g>
	<g>
		<g>
			<path class="st1" d="M46.3,101.2C46.3,101.2,46.2,101.2,46.3,101.2C22.8,98.8,4.1,79.9,1.7,56.5c0-0.5,0.3-0.9,0.7-0.9
				c0.5,0,0.9,0.3,0.9,0.7c2.2,22.7,20.3,40.9,43,43.3c0.5,0,0.8,0.5,0.7,0.9C47.1,100.9,46.7,101.2,46.3,101.2z"/>
		</g>
		<g>
			<path class="st1" d="M56.3,101.3c-0.4,0-0.8-0.3-0.8-0.7c0-0.5,0.3-0.9,0.7-0.9c22.8-2.2,41-20.4,43.4-43.2
				c0-0.5,0.4-0.8,0.9-0.7c0.5,0,0.8,0.4,0.7,0.9C98.8,80.2,80,99,56.3,101.3C56.4,101.3,56.4,101.3,56.3,101.3z"/>
		</g>
		<g>
			<path class="st1" d="M100.4,47.3c-0.4,0-0.8-0.3-0.8-0.7C97.3,23.7,79,5.5,56.1,3.4c-0.5,0-0.8-0.4-0.7-0.9
				c0-0.5,0.4-0.8,0.9-0.7c23.6,2.3,42.5,21,44.9,44.7C101.3,46.8,101,47.2,100.4,47.3C100.5,47.3,100.5,47.3,100.4,47.3z"/>
		</g>
		<g>
			<path class="st1" d="M2.6,47.4C2.5,47.4,2.5,47.4,2.6,47.4c-0.5,0-0.9-0.5-0.8-0.9C4.1,23,22.8,4.2,46.3,1.8
				c0.4,0,0.9,0.3,0.9,0.7c0,0.5-0.3,0.9-0.7,0.9C23.8,5.7,5.6,23.9,3.4,46.7C3.3,47.1,3,47.4,2.6,47.4z"/>
		</g>
	</g>
</g>
</svg>
