<?xml version="1.0" encoding="utf-8"?>
<!-- Generator: Adobe Illustrator 19.2.1, SVG Export Plug-In . SVG Version: 6.00 Build 0)  -->
<svg version="1.1" id="Layer_1" xmlns="http://www.w3.org/2000/svg" xmlns:xlink="http://www.w3.org/1999/xlink" x="0px" y="0px"
	 viewBox="0 0 205 205" style="enable-background:new 0 0 205 205;" xml:space="preserve">
<style type="text/css">
	.st0{fill:url(#SVGID_1_);}
</style>
<linearGradient id="SVGID_1_" gradientUnits="userSpaceOnUse" x1="2.5" y1="102.5" x2="202.5" y2="102.5">
	<stop  offset="0" style="stop-color:#FFFFFF"/>
	<stop  offset="1" style="stop-color:#B8BABC"/>
</linearGradient>
<path class="st0" d="M102.5,202.5c-55.1,0-100-44.9-100-100s44.9-100,100-100s100,44.9,100,100S157.6,202.5,102.5,202.5z M102.5,5.8
	c-53.3,0-96.7,43.4-96.7,96.7s43.4,96.7,96.7,96.7s96.7-43.4,96.7-96.7S155.8,5.8,102.5,5.8z M113.6,187.3c-10.3,0-45.5-9-54-16.9
	c-3.5-3.3-8.1-6.5-12.4-9.6c-6.1-4.3-11.8-8.3-14.1-12.1c-3.5-5.9-13.1-30.9-11.8-46.1c0.6-7.6,3.3-16.7,5.8-25.5
	c2.3-8,4.5-15.6,4.5-20.2c0-11,19.5-25.6,25.6-27.2c0.7-0.2,10.7-3.1,20.4-4.3c9-1.1,14.4-3.3,18.6-7.5c3.2-3.2,11.4-2.4,21.8-1.1
	c3.4,0.4,6.6,0.8,7.8,0.7c6.1-0.8,24.1,11.2,30.8,19.5c7.8,9.6,23,24.8,29.6,29.6c5.7,4.1,3.4,15,1.8,22.8c-0.6,2.7-1.1,5.2-1.1,6.6
	c0,6-0.3,25.5-3.8,27.6c-1.2,1.1-6.5,9.9-10.8,17c-7.4,12.3-12.4,20.6-14.7,22.5c-4.2,3.6-34,23.5-43.1,24.2
	C114.3,187.3,114,187.3,113.6,187.3z M104.8,18.9c-2.9,0-5.3,0.3-6.3,1.3C93.8,25,87.9,27.4,78,28.6c-9.5,1.2-19.8,4.2-19.9,4.2
	c0,0,0,0,0,0c-5.8,1.5-23.2,15.4-23.2,24c0,5-2.3,12.8-4.7,21.1c-2.5,8.6-5.1,17.5-5.7,24.8c-1.2,14.5,8,38.5,11.4,44.2
	c1.9,3.2,7.4,7.1,13.2,11.2c4.5,3.2,9.1,6.4,12.8,9.8c8.1,7.5,44.2,16.6,52.5,16c7.8-0.6,36.5-19.4,41.2-23.4
	c2-1.7,8.7-12.8,14-21.7c7.8-13.1,10.4-17.2,11.8-18.1c1.4-2,2.3-16.2,2.3-24.9c0-1.7,0.5-4.3,1.2-7.2c1.4-6.6,3.5-16.6-0.5-19.5
	c-6.9-5-22.1-20.2-30.2-30.2c-7.7-9.5-24.4-18.8-27.8-18.3c-1.6,0.2-4.7-0.2-8.6-0.7C114,19.6,108.9,18.9,104.8,18.9z M110.4,175.8
	c-5.8,0-13.5-1.1-23.3-5.3c-15.4-6.7-35.9-18.6-40-23.3c-0.7-0.8-17.2-19.9-14.7-38.4c1.3-9.5,3.3-17.4,4.9-23.7
	c1.2-4.5,2.1-8.4,2.6-11.6c0.3-2.2,1.5-9.8,4.8-17.2c3.5-7.7,8.1-12.5,13.6-14.3c0.9-0.3,17.4-5.9,23.8-6.5
	c3.4-0.3,9.3-2.5,14.6-4.5c4.7-1.8,8.8-3.3,11.1-3.5c2-0.2,20-1.9,29.8,7.5c4.6,4.4,6.9,6.4,9,8.2c1.8,1.5,3.3,2.8,5.7,5.2
	c2.5,2.5,5.6,6.3,8.6,10.1c3.2,4,6.3,7.8,8.2,9.4c4.2,3.6,7.3,14.4,7.3,21.7c0,6.1-2.7,16.1-4.7,23.4c-0.5,1.8-0.9,3.4-1.2,4.7
	c-1.6,6.6-17.4,31.6-21.8,35.4c-0.4,0.4-1,0.9-1.6,1.5c-10.1,8.9-22.3,19.3-27.3,20.2C117.7,175.2,114.6,175.8,110.4,175.8z
	 M113.2,29.4c-2.7,0-4.6,0.2-5.2,0.3c-2,0.2-6.2,1.8-10.5,3.4c-5.7,2.1-11.5,4.3-15.2,4.6C76.1,38.2,59.2,44,59,44.1c0,0,0,0,0,0
	c-13.2,4.2-16.6,27-16.9,29.6c-0.5,3.4-1.5,7.3-2.6,11.9c-1.6,6.3-3.6,14.1-4.9,23.5c-2.3,17.5,13.5,35.9,14.2,36.6
	c3.5,4,23.2,15.8,39.3,22.8c16.2,7,26.1,5.2,31.5,4.2c5-0.9,21-15.1,26.2-19.7c0.7-0.6,1.2-1.1,1.7-1.5c4.1-3.6,19.5-28.1,21.1-34.3
	c0.3-1.3,0.8-2.9,1.3-4.8c1.9-7.2,4.6-17,4.6-22.8c0-7.4-3.2-17.2-6.6-20.1c-2-1.7-5.2-5.6-8.5-9.7c-3-3.7-6.1-7.5-8.5-9.9
	c-2.3-2.3-3.8-3.6-5.6-5.1c-2-1.7-4.5-3.8-9.2-8.3C129.7,30.5,119.5,29.4,113.2,29.4z M103.3,169.4c-9.5,0-26.6-6.7-30.8-8.6
	c-3-1.3-18.3-8.5-21.1-16.9c-0.8-2.5-2.8-6.5-5-10.6c-4-7.9-8.6-16.8-9-22.8c-0.4-5.6,2.8-14.4,5.9-22.9c2-5.5,3.9-10.8,4.4-14.1
	c1.2-8.2,3.3-16.6,10.6-22.4c0.8-0.7,10.8-9.9,17.7-9.3c4.2,0.4,12.2-1.5,19.4-3.2c3.8-0.9,7.4-1.8,10.1-2.2
	c7.4-1.2,25.1,0.5,30.9,7.6c1.7,2,4.3,5,7.4,8.4c7.1,7.7,15.1,16.5,16.8,20.9c0.2,0.6,0.5,1.1,0.7,1.7c2.3,5.5,4.7,11.3,3,23.5
	c-0.7,5-1,8.5-1.3,11.6c-0.5,5.1-0.8,8.7-2.3,14.4c-2.5,9.4-12.3,24.6-19.1,29.5c-6.9,5-28.3,14.6-37.2,15.3
	C104.1,169.4,103.7,169.4,103.3,169.4z M75.4,44c-5.1,0-12.9,6.3-15.5,8.8c0,0-0.1,0-0.1,0.1c-6.8,5.3-8.7,13.2-9.8,21
	c-0.5,3.6-2.4,8.9-4.5,14.5c-2.9,7.9-6.1,16.9-5.8,22c0.4,5.6,5,14.6,8.7,22c2.2,4.4,4.2,8.2,5.1,10.9c2,5.9,11.9,12.1,19.9,15.6
	c6.4,2.8,23.1,8.9,31,8.3c8.4-0.6,29.5-10.1,36-14.9c6.3-4.6,15.9-19.4,18.3-28.3c1.5-5.6,1.8-8.9,2.3-14.1c0.3-3,0.6-6.7,1.3-11.7
	c1.6-11.7-0.7-17.1-2.8-22.4c-0.2-0.6-0.5-1.2-0.7-1.7c-1.6-4-9.8-13-16.4-20.2c-3.1-3.4-5.8-6.4-7.5-8.4c-5.1-6.3-21.6-8-28.9-6.8
	c-2.6,0.4-6.2,1.3-9.9,2.2c-7.3,1.7-15.6,3.7-20.1,3.3C75.7,44,75.5,44,75.4,44z M97,158.6c-7.6,0-14.3-1.1-18.5-4.3
	c-9.1-6.9-22.7-33.8-24.5-44c-1.2-6.7,2.4-17.6,5.3-26.4c1.4-4.2,2.6-7.9,2.8-9.7c0.7-7.2,10.6-26.3,35.8-24.6c0.1,0,0.2,0,0.3,0.1
	c0.2,0.1,24.2,9.5,31.7,10.9c7.1,1.4,14.6,4.3,20.8,16.8c6.4,12.8,1.7,35.4,0.1,42.8c-2.2,10.7-15.6,33-28,35.5
	C114.8,157.2,105.4,158.6,97,158.6z M94.7,51.7c-23.1,0-30,18.9-30.4,22.8c-0.2,2.1-1.4,5.7-2.9,10.2c-2.7,8.1-6.3,19.1-5.2,25.3
	c1.7,9.9,14.9,36,23.7,42.7c8.5,6.5,30.3,3.3,42.5,0.9c10.7-2.1,23.9-22.6,26.3-33.8c1.5-7.2,6.2-29.3,0.1-41.4
	c-5.5-10.9-11.7-14.1-19.3-15.6c-7.4-1.4-29.6-10-31.9-10.9C96.6,51.7,95.6,51.7,94.7,51.7z M100.8,152.5c-7.1,0-14.6-2.5-21.2-11.2
	c-14.3-18.8-19.5-36-15.8-52.8c3.3-15,17.4-35.1,34.2-32c16.1,3,26.1,6.5,33.5,11.9c2,0.6,14.7,5.1,11.9,28.5
	c-3,25.3-7.6,51.2-18.7,51.2c0,0-0.1,0-0.1,0c-2.4,0-5.4,0.8-8.9,1.8C111.3,151.1,106.1,152.5,100.8,152.5z M94.5,58.4
	c-14,0-25.6,17.4-28.5,30.6c-3.6,16.1,1.4,32.8,15.4,51c10.7,14,23.5,10.6,33.7,7.8c3.7-1,6.8-1.8,9.5-1.8c0,0,0,0,0,0
	c10.6,0,15.1-37.1,16.5-49.3c2.7-22.9-9.9-26.1-10.4-26.2c-0.1,0-0.3-0.1-0.4-0.2c-7-5.1-17.1-8.7-32.7-11.6
	C96.6,58.5,95.5,58.4,94.5,58.4z M112.6,140.8c-9,0-20.1-5.8-23.8-10.3c-12.1-14.7-12.6-28.4-11.7-38.7c1-10.7,8-18.7,18.7-21.5
	c8.1-2.1,23.3-2.9,28.6,7.1c0,0,0,0,0,0c0.1,0.3,13.9,30.2,0,56.8c-1.9,3.7-5.4,5.9-9.9,6.4C113.9,140.7,113.3,140.8,112.6,140.8z
	 M106.5,71.2c-3.7,0-7.4,0.6-10.1,1.3c-9.8,2.5-16.2,9.8-17.1,19.6c-0.9,9.8-0.4,23,11.2,37.1c3.5,4.3,15.4,10.3,23.8,9.4
	c3.9-0.4,6.6-2.2,8.2-5.2c13.2-25.3,0.4-53.9,0-54.8C119.6,72.9,112.9,71.2,106.5,71.2z M109.6,129.1c-6.2,0-13.6-4-16-6.9
	c-8.2-9.9-8.5-19-7.9-25.9c0.7-7.3,5.4-12.7,12.7-14.6c5.5-1.4,15.8-2,19.4,4.9c0,0,0,0,0,0c0.4,0.8,9.3,20.2,0,38
	c-1.3,2.6-3.7,4.1-6.9,4.4C110.5,129.1,110.1,129.1,109.6,129.1z M105.6,82.9c-2.4,0-4.8,0.4-6.6,0.8c-6.4,1.6-10.5,6.4-11.1,12.7
	c-0.6,6.5-0.3,15.1,7.4,24.3c2.3,2.8,10,6.7,15.5,6.1c2.4-0.3,4.2-1.4,5.2-3.3c8.7-16.6,0.3-35.3,0-36.1
	C114,84,109.8,82.9,105.6,82.9z"/>
</svg>
