<?xml version="1.0" encoding="utf-8"?>
<!-- Generator: Adobe Illustrator 19.2.1, SVG Export Plug-In . SVG Version: 6.00 Build 0)  -->
<svg version="1.1" id="Layer_1" xmlns="http://www.w3.org/2000/svg" xmlns:xlink="http://www.w3.org/1999/xlink" x="0px" y="0px"
	 viewBox="0 0 610 290" enable-background="new 0 0 610 290" xml:space="preserve">
<g>
	<g>
		<g>
			<path fill="#FFFFFF" d="M305.8,3.6c-29.3,0-53.2,23.9-53.2,53.2s23.9,53.2,53.2,53.2c29.3,0,53.2-23.9,53.2-53.2
				S335.2,3.6,305.8,3.6z"/>
			<linearGradient id="SVGID_1_" gradientUnits="userSpaceOnUse" x1="252.6425" y1="56.8444" x2="359.0359" y2="56.8444">
				<stop  offset="0" style="stop-color:#B0D79C"/>
				<stop  offset="1" style="stop-color:#6E9981"/>
			</linearGradient>
			<path opacity="0.5" fill="url(#SVGID_1_)" d="M305.8,3.6c-29.3,0-53.2,23.9-53.2,53.2s23.9,53.2,53.2,53.2
				c29.3,0,53.2-23.9,53.2-53.2S335.2,3.6,305.8,3.6z"/>
			<path fill="#6E9981" d="M305.8,111.8c-30.3,0-55-24.7-55-55s24.7-55,55-55c30.3,0,55,24.7,55,55S336.2,111.8,305.8,111.8z
				 M305.8,3.6c-29.3,0-53.2,23.9-53.2,53.2s23.9,53.2,53.2,53.2c29.3,0,53.2-23.9,53.2-53.2S335.2,3.6,305.8,3.6z"/>
			<g>
				<path fill="#6E9981" d="M312,103.5c-5.7,0-25-5-29.7-9.3c-1.9-1.8-4.4-3.6-6.8-5.3c-3.3-2.4-6.5-4.6-7.7-6.7
					c-1.9-3.2-7.2-17-6.5-25.4c0.3-4.2,1.8-9.2,3.2-14c1.3-4.4,2.5-8.6,2.5-11.1c0-6.1,10.7-14.1,14.1-15c0.4-0.1,5.9-1.7,11.2-2.4
					c5-0.6,7.9-1.8,10.2-4.1c1.8-1.8,6.3-1.3,12-0.6c1.9,0.2,3.6,0.5,4.3,0.4c3.3-0.5,13.2,6.2,16.9,10.7
					c4.3,5.3,12.7,13.7,16.3,16.3c3.1,2.3,1.9,8.2,1,12.6c-0.3,1.5-0.6,2.9-0.6,3.6c0,3.3-0.2,14-2.1,15.2c-0.7,0.6-3.6,5.4-5.9,9.3
					c-4.1,6.8-6.8,11.3-8.1,12.4c-2.3,2-18.7,12.9-23.7,13.3C312.3,103.5,312.1,103.5,312,103.5z M307.1,10.9
					c-1.6,0-2.9,0.2-3.5,0.7c-2.6,2.6-5.9,3.9-11.3,4.6c-5.2,0.7-10.9,2.3-10.9,2.3c0,0,0,0,0,0c-3.2,0.8-12.8,8.5-12.8,13.2
					c0,2.8-1.2,7.1-2.6,11.6c-1.4,4.7-2.8,9.6-3.1,13.7c-0.7,8,4.4,21.2,6.3,24.3c1.1,1.8,4.1,3.9,7.2,6.1c2.5,1.7,5,3.5,7,5.4
					c4.5,4.1,24.3,9.1,28.9,8.8c4.3-0.3,20.1-10.7,22.6-12.9c1.1-1,4.8-7,7.7-11.9c4.3-7.2,5.7-9.4,6.5-9.9
					c0.8-1.1,1.3-8.9,1.3-13.7c0-0.9,0.3-2.3,0.6-4c0.8-3.6,1.9-9.1-0.3-10.7c-3.8-2.7-12.2-11.1-16.6-16.6
					c-4.3-5.2-13.4-10.4-15.3-10.1c-0.9,0.1-2.6-0.1-4.8-0.4C312.1,11.2,309.3,10.9,307.1,10.9z"/>
				<path fill="#6E9981" d="M310.2,97.2c-3.2,0-7.4-0.6-12.8-2.9c-8.4-3.7-19.8-10.3-22-12.8c-0.4-0.4-9.5-10.9-8.1-21.1
					c0.7-5.2,1.8-9.6,2.7-13.1c0.6-2.5,1.2-4.6,1.4-6.4c0.2-1.2,0.8-5.4,2.6-9.4c1.9-4.2,4.4-6.9,7.5-7.9c0.5-0.2,9.6-3.3,13.1-3.6
					c1.9-0.2,5.1-1.4,8-2.5c2.6-1,4.8-1.8,6.1-1.9c1.1-0.1,11-1.1,16.4,4.1c2.5,2.4,3.8,3.5,5,4.5c1,0.8,1.8,1.5,3.1,2.9
					c1.4,1.4,3.1,3.5,4.7,5.5c1.8,2.2,3.5,4.3,4.5,5.2c2.3,2,4,7.9,4,11.9c0,3.4-1.5,8.9-2.6,12.9c-0.3,1-0.5,1.9-0.7,2.6
					c-0.9,3.6-9.6,17.4-12,19.5c-0.2,0.2-0.5,0.5-0.9,0.8c-5.5,4.9-12.3,10.6-15,11.1C314.2,96.9,312.5,97.2,310.2,97.2z
					 M311.7,16.7c-1.5,0-2.5,0.1-2.8,0.1c-1.1,0.1-3.4,1-5.8,1.9c-3.1,1.2-6.3,2.4-8.4,2.5c-3.4,0.3-12.7,3.5-12.8,3.5c0,0,0,0,0,0
					c-7.2,2.3-9.1,14.9-9.3,16.3c-0.2,1.9-0.8,4-1.4,6.5c-0.9,3.5-2,7.8-2.7,12.9c-1.3,9.6,7.4,19.7,7.8,20.1
					c1.9,2.2,12.8,8.7,21.6,12.5c8.9,3.9,14.4,2.9,17.3,2.3c2.8-0.5,11.5-8.3,14.4-10.8c0.4-0.3,0.7-0.6,0.9-0.8
					c2.3-2,10.8-15.5,11.6-18.8c0.2-0.7,0.4-1.6,0.7-2.6c1.1-3.9,2.5-9.4,2.5-12.6c0-4.1-1.8-9.4-3.6-11c-1.1-1-2.8-3.1-4.7-5.3
					c-1.6-2-3.3-4.1-4.7-5.5c-1.3-1.3-2.1-2-3.1-2.8c-1.1-0.9-2.5-2.1-5-4.6C320.8,17.2,315.2,16.7,311.7,16.7z"/>
				<path fill="#6E9981" d="M306.3,93.6c-5.2,0-14.6-3.7-16.9-4.7c-1.7-0.7-10-4.7-11.6-9.3c-0.5-1.4-1.6-3.6-2.7-5.8
					c-2.2-4.3-4.7-9.2-4.9-12.5c-0.2-3.1,1.5-7.9,3.2-12.6c1.1-3,2.1-5.9,2.4-7.8c0.6-4.5,1.8-9.1,5.8-12.3c0.4-0.4,5.9-5.4,9.7-5.1
					c2.3,0.2,6.7-0.8,10.7-1.8c2.1-0.5,4.1-1,5.5-1.2c4.1-0.6,13.8,0.2,17,4.2c0.9,1.1,2.4,2.7,4.1,4.6c3.9,4.3,8.3,9.1,9.3,11.5
					c0.1,0.3,0.3,0.6,0.4,0.9c1.3,3,2.6,6.2,1.6,13c-0.4,2.7-0.6,4.7-0.7,6.4c-0.3,2.8-0.4,4.8-1.3,7.9c-1.4,5.2-6.8,13.5-10.5,16.2
					c-3.8,2.8-15.6,8.1-20.4,8.4C306.7,93.6,306.5,93.6,306.3,93.6z M290.9,24.7c-2.8,0-7.1,3.4-8.5,4.8c0,0,0,0,0,0
					c-3.7,2.9-4.8,7.3-5.4,11.5c-0.3,2-1.3,4.9-2.5,8c-1.6,4.3-3.4,9.3-3.2,12.1c0.2,3.1,2.8,8.1,4.8,12.1c1.2,2.4,2.3,4.5,2.8,6
					c1.1,3.2,6.6,6.6,10.9,8.6c3.5,1.6,12.7,4.9,17,4.6c4.6-0.3,16.2-5.5,19.8-8.2c3.5-2.5,8.7-10.7,10-15.6c0.8-3.1,1-4.9,1.3-7.7
					c0.2-1.6,0.3-3.7,0.7-6.4c0.9-6.4-0.4-9.4-1.6-12.3c-0.1-0.3-0.3-0.6-0.4-1c-0.9-2.2-5.4-7.1-9-11.1c-1.7-1.9-3.2-3.5-4.1-4.6
					c-2.8-3.4-11.9-4.4-15.9-3.8c-1.4,0.2-3.4,0.7-5.5,1.2c-4,1-8.6,2-11,1.8C291.1,24.7,291,24.7,290.9,24.7z"/>
				<path fill="#6E9981" d="M302.8,87.7c-4.2,0-7.9-0.6-10.2-2.4c-5-3.8-12.5-18.6-13.5-24.2c-0.7-3.7,1.3-9.7,2.9-14.5
					c0.8-2.3,1.4-4.3,1.5-5.3c0.4-3.9,5.8-14.5,19.7-13.6c0.1,0,0.1,0,0.2,0c0.1,0.1,13.3,5.2,17.4,6c3.9,0.7,8,2.4,11.5,9.2
					c3.5,7.1,0.9,19.5,0.1,23.6c-1.2,5.9-8.6,18.1-15.4,19.5C312.6,86.9,307.4,87.7,302.8,87.7z M301.5,28.9
					c-12.7,0-16.5,10.4-16.7,12.5c-0.1,1.1-0.8,3.1-1.6,5.6c-1.5,4.4-3.5,10.5-2.9,13.9c1,5.4,8.2,19.8,13,23.5
					c4.7,3.6,16.7,1.8,23.4,0.5c5.9-1.2,13.1-12.4,14.4-18.6c0.8-4,3.4-16.1,0.1-22.8c-3-6-6.4-7.8-10.6-8.6
					c-4.1-0.8-16.3-5.5-17.5-6C302.6,28.9,302.1,28.9,301.5,28.9z"/>
				<path fill="#6E9981" d="M304.9,84.4c-3.9,0-8-1.4-11.7-6.1c-7.9-10.3-10.7-19.8-8.7-29.1c1.8-8.3,9.6-19.3,18.8-17.6
					c8.9,1.6,14.4,3.6,18.4,6.5c1.1,0.3,8.1,2.8,6.5,15.7C326.6,67.7,324.1,82,318,82c0,0,0,0,0,0c-1.3,0-3,0.4-4.9,1
					C310.7,83.6,307.8,84.4,304.9,84.4z M301.4,32.6c-7.7,0-14.1,9.6-15.7,16.8c-2,8.9,0.8,18,8.5,28.1c5.9,7.7,12.9,5.8,18.5,4.3
					c2-0.5,3.8-1,5.2-1c0,0,0,0,0,0c5.9,0,8.3-20.4,9.1-27.1c1.5-12.6-5.4-14.3-5.7-14.4c-0.1,0-0.2-0.1-0.2-0.1
					c-3.8-2.8-9.4-4.8-18-6.4C302.6,32.6,302,32.6,301.4,32.6z"/>
				<path fill="#6E9981" d="M311.4,77.9c-5,0-11.1-3.2-13.1-5.6c-6.7-8.1-6.9-15.6-6.4-21.3c0.5-5.9,4.4-10.3,10.3-11.8
					c4.5-1.2,12.8-1.6,15.7,3.9c0,0,0,0,0,0c0.1,0.2,7.6,16.6,0,31.2c-1.1,2-2.9,3.2-5.5,3.5C312.1,77.9,311.8,77.9,311.4,77.9z
					 M308.1,39.6c-2,0-4,0.3-5.6,0.7c-5.4,1.4-8.9,5.4-9.4,10.8c-0.5,5.4-0.2,12.6,6.2,20.4c2,2.4,8.5,5.6,13.1,5.2
					c2.1-0.2,3.6-1.2,4.5-2.9c7.3-13.9,0.2-29.6,0-30.1C315.2,40.6,311.6,39.6,308.1,39.6z"/>
				<path fill="#6E9981" d="M309.7,71.5c-3.4,0-7.5-2.2-8.8-3.8c-4.5-5.4-4.7-10.5-4.3-14.3c0.4-4,3-7,7-8c3-0.8,8.7-1.1,10.7,2.7
					c0,0,0,0,0,0c0.2,0.4,5.1,11.1,0,20.9c-0.7,1.4-2,2.2-3.8,2.4C310.3,71.5,310,71.5,309.7,71.5z M307.6,46.1
					c-1.3,0-2.7,0.2-3.7,0.5c-3.5,0.9-5.8,3.5-6.1,7c-0.3,3.6-0.2,8.3,4,13.4c1.3,1.5,5.5,3.7,8.5,3.4c1.3-0.1,2.3-0.7,2.8-1.8
					c4.8-9.1,0.2-19.4,0-19.8C312.2,46.7,309.8,46.1,307.6,46.1z"/>
			</g>
		</g>
		<g>
			<text transform="matrix(1 0 0 1 276.2895 132.9266)" fill="#858585" font-family="'AvantGarde-Book'" font-size="20px">Wood</text>
		</g>
	</g>
	<g>
		<g>
			<path fill="#FFFFFF" d="M56.8,154c-29.3,0-53.2,23.9-53.2,53.2s23.9,53.2,53.2,53.2s53.2-23.9,53.2-53.2S86.1,154,56.8,154z"/>
			<linearGradient id="SVGID_2_" gradientUnits="userSpaceOnUse" x1="3.5807" y1="207.1711" x2="109.9742" y2="207.1711">
				<stop  offset="0" style="stop-color:#8BD3CA"/>
				<stop  offset="1" style="stop-color:#8199A6"/>
			</linearGradient>
			<path opacity="0.5" fill="url(#SVGID_2_)" d="M56.8,154c-29.3,0-53.2,23.9-53.2,53.2s23.9,53.2,53.2,53.2s53.2-23.9,53.2-53.2
				S86.1,154,56.8,154z"/>
			<path opacity="0.5" fill="#014776" d="M82.1,222.6c-0.5,0-0.9-0.4-0.9-0.9c0-0.5,0.4-0.9,0.9-0.9c12.1,0,21.9-9.8,21.9-21.9
				c0-7.7-4.2-15-10.9-18.9c-4.9-3.3-10.6-5-16.5-5c-6.1,0-12,1.9-17,5.4c-0.4,0.3-1,0.2-1.3-0.2c-0.3-0.4-0.2-1,0.2-1.3
				c5.3-3.7,11.6-5.7,18.1-5.7c6.2,0,12.3,1.8,17.4,5.2c7.2,4.2,11.7,12,11.7,20.4C105.8,212,95.1,222.6,82.1,222.6z"/>
			<g>
				<path opacity="0.5" fill="#014776" d="M56.8,262.2c-30.3,0-55-24.7-55-55s24.7-55,55-55s55,24.7,55,55S87.1,262.2,56.8,262.2z
					 M56.8,154c-29.3,0-53.2,23.9-53.2,53.2s23.9,53.2,53.2,53.2s53.2-23.9,53.2-53.2S86.1,154,56.8,154z"/>
				<path opacity="0.5" fill="#014776" d="M50.1,197.1c-0.1,0-0.1,0-0.2,0c-0.5-0.1-0.8-0.6-0.7-1.1c3.4-15.8,17.6-27.2,33.7-27.2
					c6,0,12,1.6,17.2,4.6c0.4,0.2,0.6,0.8,0.3,1.2c-0.2,0.4-0.8,0.6-1.2,0.3c-4.9-2.8-10.6-4.3-16.3-4.3c-15.3,0-28.7,10.8-32,25.8
					C50.9,196.9,50.5,197.1,50.1,197.1z"/>
				<path opacity="0.5" fill="#014776" d="M66.2,214.9c-0.4,0-0.8-0.3-0.9-0.7c-0.1-0.5,0.2-1,0.7-1.1c6.8-1.5,11.8-7.7,11.8-14.7
					c0-6.3-4-12-9.8-14.2c-0.5-0.2-0.7-0.7-0.5-1.2c0.2-0.5,0.7-0.7,1.2-0.5c6.6,2.4,11,8.8,11,15.9c0,7.8-5.5,14.8-13.2,16.5
					C66.3,214.9,66.3,214.9,66.2,214.9z"/>
				<path opacity="0.5" fill="#014776" d="M50.9,206.4c-0.5,0-0.9-0.4-0.9-0.9c0-2.7,0.4-5.3,1.3-7.9c3.3-9.5,12.3-15.9,22.4-15.9
					c0.5,0,0.9,0.4,0.9,0.9s-0.4,0.9-0.9,0.9c-9.3,0-17.6,5.9-20.7,14.7c-0.8,2.3-1.2,4.8-1.2,7.3C51.8,206,51.4,206.4,50.9,206.4z"
					/>
				<path opacity="0.5" fill="#014776" d="M6.9,229.1c-0.2,0-0.4-0.1-0.5-0.2c-0.4-0.3-0.5-0.9-0.2-1.3c9-12.3,23.5-19.7,38.7-19.7
					c10.8,0,20.9,3.5,29.4,10.1c0.4,0.3,0.5,0.9,0.2,1.3c-0.3,0.4-0.9,0.5-1.3,0.2c-8.1-6.3-17.9-9.7-28.3-9.7
					c-14.7,0-28.6,7.1-37.2,18.9C7.5,229,7.2,229.1,6.9,229.1z"/>
				<path opacity="0.5" fill="#014776" d="M19.7,247.5c-0.1,0-0.1,0-0.2,0c-0.5-0.1-0.8-0.6-0.7-1.1c4.4-18.3,20.6-31.1,39.5-31.1
					c6.2,0,13.1,1.4,18.1,3.6c0.5,0.2,0.7,0.7,0.4,1.2c-0.2,0.5-0.7,0.7-1.2,0.4c-4.7-2.2-11.4-3.5-17.3-3.5
					c-18,0-33.5,12.2-37.7,29.7C20.5,247.2,20.1,247.5,19.7,247.5z"/>
				<path opacity="0.5" fill="#014776" d="M50.6,261.8c-0.4,0-0.7-0.2-0.8-0.6c-1.3-3.4-2-7.1-2-10.8c0-16.4,13.4-29.8,29.8-29.8
					c2.2,0,4.4,0.2,6.5,0.7c0.5,0.1,0.8,0.6,0.7,1.1c-0.1,0.5-0.6,0.8-1.1,0.7c-2-0.4-4-0.7-6.1-0.7c-15.4,0-28,12.6-28,28
					c0,3.5,0.6,6.9,1.9,10.1c0.2,0.5,0,1-0.5,1.2C50.8,261.8,50.7,261.8,50.6,261.8z"/>
				<path opacity="0.5" fill="#014776" d="M74.3,216c-2.4,0-4.8-0.5-6.9-1.5c-0.5-0.2-1.1-0.5-1.6-0.8c-0.4-0.3-0.6-0.8-0.3-1.2
					c0.3-0.4,0.8-0.6,1.2-0.3c0.5,0.3,0.9,0.5,1.4,0.7c2,0.9,4,1.3,6.2,1.3c8.2,0,15.1-7.1,15.1-15.6c0-8.3-6.8-15.1-15.1-15.1
					c-0.5,0-0.9-0.4-0.9-0.9s0.4-0.9,0.9-0.9c9.3,0,16.9,7.6,16.9,16.9C91.1,208,83.4,216,74.3,216z"/>
				<path opacity="0.5" fill="#014776" d="M85.6,253.9c0,0-0.1,0-0.1,0c-8-1.2-14-8.2-14-16.3c0-9.1,7.4-16.5,16.5-16.5
					c0.5,0,0.9,0.4,0.9,0.9c0,0.5-0.4,0.9-0.9,0.9c-8.1,0-14.7,6.6-14.7,14.7c0,7.2,5.4,13.4,12.5,14.5c0.5,0.1,0.8,0.5,0.8,1
					C86.4,253.6,86,253.9,85.6,253.9z"/>
				<path opacity="0.5" fill="#014776" d="M86.7,222.9c-6.7,0-13.1-2.4-18-6.9c-9.9-9-19-10.8-31.3-10.8c-12.3,0-24,4.5-33.1,12.8
					c-0.4,0.3-0.9,0.3-1.3-0.1c-0.3-0.4-0.3-0.9,0.1-1.3c9.4-8.5,21.6-13.2,34.3-13.2c12.8,0,22.2,1.8,32.6,11.3
					c4.6,4.1,10.6,6.4,16.8,6.4c10.3,0,19.4-6.1,23.3-15.6c0.2-0.5,0.7-0.7,1.2-0.5c0.5,0.2,0.7,0.7,0.5,1.2
					C107.5,216.4,97.7,222.9,86.7,222.9z"/>
			</g>
		</g>
		<g>
			<text transform="matrix(1 0 0 1 27.4495 283.2533)" fill="#858585" font-family="'AvantGarde-Book'" font-size="20px">Water</text>
		</g>
	</g>
	<g>
		<g>
			<path fill="#FFFFFF" stroke="#F9846B" stroke-miterlimit="10" d="M553.2,154.4c-29.3,0-53.2,23.9-53.2,53.2s23.9,53.2,53.2,53.2
				c29.3,0,53.2-23.9,53.2-53.2S582.6,154.4,553.2,154.4z"/>
			<linearGradient id="SVGID_3_" gradientUnits="userSpaceOnUse" x1="500.0258" y1="207.6331" x2="606.4193" y2="207.6331">
				<stop  offset="0" style="stop-color:#F59F8E"/>
				<stop  offset="1" style="stop-color:#F56157"/>
			</linearGradient>
			<path opacity="0.5" fill="url(#SVGID_3_)" stroke="#F9846B" stroke-miterlimit="10" d="M553.2,154.4c-29.3,0-53.2,23.9-53.2,53.2
				s23.9,53.2,53.2,53.2c29.3,0,53.2-23.9,53.2-53.2S582.6,154.4,553.2,154.4z"/>
			<path fill="#F56157" d="M553.2,262.6c-30.3,0-55-24.7-55-55s24.7-55,55-55c30.3,0,55,24.7,55,55S583.5,262.6,553.2,262.6z
				 M553.2,154.4c-29.3,0-53.2,23.9-53.2,53.2s23.9,53.2,53.2,53.2c29.3,0,53.2-23.9,53.2-53.2S582.6,154.4,553.2,154.4z"/>
			<path fill="#F56157" d="M531.5,246.4c-0.2,0-0.4-0.1-0.6-0.2c-5.3-4.5-8.3-11-8.3-17.9c0-11.2,5.7-19.5,15.3-22.3
				c8.3-3.4,13.6-11.3,13.6-20.2c0-8.1-4.4-15.4-11.5-19.2c-0.4-0.2-0.6-0.8-0.4-1.2c0.2-0.4,0.8-0.6,1.2-0.4
				c7.7,4.1,12.5,12.1,12.5,20.8c0,9.7-5.8,18.3-14.8,21.9c0,0-0.1,0-0.1,0c-8.8,2.6-14.1,10.3-14.1,20.6c0,6.4,2.8,12.4,7.6,16.6
				c0.4,0.3,0.4,0.9,0.1,1.3C532,246.3,531.7,246.4,531.5,246.4z"/>
			<path fill="#F56157" d="M522.3,232.8c-0.2,0-0.5-0.1-0.6-0.3c-4.5-4.5-7-10.4-7-16.8c0-7.3,5-15,9.6-19.1
				c7.8-6.9,11.8-16.8,11.1-27.2c0-0.4,0.2-0.7,0.5-0.9c0.4-0.2,0.8-0.1,1,0.2c1.9,2.1,3.5,4.3,5,6.6c0.3,0.4,0.1,1-0.3,1.2
				c-0.4,0.3-1,0.1-1.2-0.3c-0.9-1.5-2-3-3.1-4.4c-0.1,9.9-4.3,19.3-11.8,26c-4.3,3.8-8.9,10.9-8.9,17.7c0,5.9,2.3,11.4,6.5,15.5
				c0.4,0.3,0.4,0.9,0,1.3C522.8,232.7,522.5,232.8,522.3,232.8z"/>
			<path fill="#F56157" d="M568.6,252.4c-0.2,0-0.4-0.1-0.6-0.2c-0.4-0.3-0.4-0.9-0.1-1.3c6-7.4,9.5-16.7,9.5-24.8
				c0-11.6-5.3-22.6-14.2-29.8c0.3,2.1,0.5,4.2,0.5,6.3c0,9.5-3.4,18.7-9.5,26c-0.3,0.4-0.9,0.4-1.3,0.1c-0.4-0.3-0.4-0.9-0.1-1.3
				c5.9-6.9,9.1-15.7,9.1-24.8c0-2.8-0.3-5.5-0.9-8.2c-0.1-0.4,0.1-0.7,0.4-0.9c0.3-0.2,0.7-0.2,1,0c10.5,7.5,16.8,19.7,16.8,32.7
				c0,8.7-3.6,18.1-9.9,26C569.1,252.3,568.9,252.4,568.6,252.4z"/>
			<path fill="#F56157" d="M557.3,256.1c-12,0-23.2-5.3-30.9-14.5c-0.3-0.4-0.3-1,0.1-1.3c0.4-0.3,1-0.3,1.3,0.1
				c7.3,8.8,18.1,13.9,29.5,13.9c21.1,0,38.3-17.2,38.3-38.3c0-14.9-8.8-28.6-22.4-34.9c-0.5-0.2-0.7-0.7-0.4-1.2
				c0.2-0.5,0.7-0.7,1.2-0.4c14.2,6.5,23.4,20.8,23.4,36.5C597.4,238.1,579.4,256.1,557.3,256.1z"/>
			<g>
				<path fill="#F56157" d="M559.2,256.1c-8.1,0-14.7-6.6-14.7-14.7c0-2.7,0.8-5.4,2.2-7.7c0.9-1.4,2-2.7,3.2-3.7
					c6.9-5.5,12.1-14.2,14-23.4c0.1-0.3,0.3-0.6,0.7-0.7c0.3-0.1,0.7,0,0.9,0.3c6.4,7.3,9.9,16.7,9.9,26.4c0,4-0.6,8-1.8,11.9
					c0,0.1-0.8,2.8-1.6,4.4l0,0c-0.4,0.8-1.1,1.8-1.8,2.5C567.4,254.3,563.4,256.1,559.2,256.1z M565.3,208.7
					c-2.2,8.9-7.4,17.2-14.2,22.6c-1.1,0.9-2,2-2.8,3.2c-1.3,2-1.9,4.4-1.9,6.8c0,7.1,5.8,12.9,12.9,12.9c3.6,0,7.1-1.6,9.6-4.3
					c0.5-0.6,1.2-1.5,1.5-2.1l0,0c0.8-1.4,1.5-4,1.5-4c1.1-3.7,1.7-7.5,1.7-11.4C573.5,223.8,570.6,215.5,565.3,208.7z"/>
			</g>
			<path fill="#F56157" d="M547.9,252c-7.6,0-14.9-3.2-20.1-8.7c-4.8-5.1-7.4-11.8-7.4-18.8c0-7.9,3.2-15.3,8.8-20.4
				c9.9-10.1,13.5-24.7,9.3-38.2c-0.1-0.3,0-0.6,0.1-0.8s0.4-0.4,0.7-0.4c13.5,0,28.4,6.8,35.4,16.1c9.2,7.7,14.5,18.9,14.5,30.9
				c0,11.1-4.7,21.8-12.8,29.4c-0.4,0.3-0.9,0.3-1.3,0c-0.3-0.4-0.3-0.9,0-1.3c7.8-7.2,12.2-17.4,12.2-28c0-11.5-5.1-22.3-13.9-29.6
				c-0.1,0-0.1-0.1-0.1-0.2c-6.5-8.7-20.2-15-32.8-15.4c3.8,13.8,0,28.5-10.1,38.7c0,0-0.1,0.1-0.1,0.1c-5.2,4.8-8.2,11.7-8.2,19.1
				c0,6.5,2.5,12.8,6.9,17.6c4.9,5.2,11.6,8.1,18.7,8.1c0.5,0,0.9,0.4,0.9,0.9C548.8,251.6,548.4,252,547.9,252z"/>
		</g>
		<g>
			<text transform="matrix(1 0 0 1 536.8627 283.7153)" fill="#858585" font-family="'AvantGarde-Book'" font-size="20px">Fire</text>
		</g>
	</g>
	<g>
		<g>
			<path fill="none" stroke="#8BD3CA" stroke-width="10" stroke-miterlimit="10" d="M370,55.2C432.7,66,486.8,91.9,523.9,127"/>
			<g>
				<polygon fill="#8BD3CA" points="510,128.9 521.2,124.5 525.8,113.3 536.3,139.9 				"/>
			</g>
		</g>
	</g>
	<g>
		<g>
			<path fill="none" stroke="#8BD3CA" stroke-width="10" stroke-miterlimit="10" d="M72.8,138.8c33-36.7,83.6-65,143.6-79.2"/>
			<g>
				<polygon fill="#8BD3CA" points="210.5,72.4 212.8,60.5 205.8,50.7 233.9,56 				"/>
			</g>
		</g>
	</g>
</g>
</svg>
