<?xml version="1.0" encoding="utf-8"?>
<!-- Generator: Adobe Illustrator 19.2.1, SVG Export Plug-In . SVG Version: 6.00 Build 0)  -->
<svg version="1.1" id="Layer_1" xmlns="http://www.w3.org/2000/svg" xmlns:xlink="http://www.w3.org/1999/xlink" x="0px" y="0px"
	 viewBox="0 0 610 290" enable-background="new 0 0 610 290" xml:space="preserve">
<g>
	<g>
		<g>
			<linearGradient id="SVGID_1_" gradientUnits="userSpaceOnUse" x1="498.7348" y1="207.1702" x2="605.1279" y2="207.1702">
				<stop  offset="0" style="stop-color:#EDEEEE"/>
				<stop  offset="1" style="stop-color:#CDCFD0"/>
			</linearGradient>
			<path fill="url(#SVGID_1_)" d="M551.9,154c-29.3,0-53.2,23.9-53.2,53.2c0,29.3,23.9,53.2,53.2,53.2c29.3,0,53.2-23.9,53.2-53.2
				C605.1,177.8,581.3,154,551.9,154z"/>
			<g>
				<path fill="#B8BABC" d="M551.9,262.2c-30.3,0-55-24.7-55-55c0-30.3,24.7-55,55-55c30.3,0,55,24.7,55,55
					C606.9,237.5,582.3,262.2,551.9,262.2z M551.9,154c-29.3,0-53.2,23.9-53.2,53.2c0,29.3,23.9,53.2,53.2,53.2
					c29.3,0,53.2-23.9,53.2-53.2C605.1,177.8,581.3,154,551.9,154z"/>
				<path fill="#B8BABC" d="M565.1,194h-26.4c-0.3,0-0.6-0.1-0.7-0.4c-0.2-0.2-0.2-0.5-0.1-0.8l5.1-14.2c0.1-0.4,0.5-0.6,0.8-0.6
					H560c0.4,0,0.7,0.2,0.8,0.6l5.1,14.2c0.1,0.3,0.1,0.6-0.1,0.8C565.7,193.8,565.4,194,565.1,194z M540,192.2h23.9l-4.5-12.4
					h-14.9L540,192.2z"/>
				<g>
					<path fill="#B8BABC" d="M580.2,212.2h-26.4c-0.3,0-0.6-0.1-0.7-0.4c-0.2-0.2-0.2-0.5-0.1-0.8l5.1-14.2c0.1-0.4,0.5-0.6,0.8-0.6
						h16.2c0.4,0,0.7,0.2,0.8,0.6L581,211c0.1,0.3,0.1,0.6-0.1,0.8C580.7,212.1,580.5,212.2,580.2,212.2z M555,210.4h23.9l-4.5-12.4
						h-14.9L555,210.4z"/>
					<path fill="#B8BABC" d="M550.1,212.2h-26.4c-0.3,0-0.6-0.1-0.7-0.4c-0.2-0.2-0.2-0.5-0.1-0.8l5.1-14.2c0.1-0.4,0.5-0.6,0.8-0.6
						H545c0.4,0,0.7,0.2,0.8,0.6L551,211c0.1,0.3,0.1,0.6-0.1,0.8C550.7,212.1,550.4,212.2,550.1,212.2z M525,210.4h23.9l-4.5-12.4
						h-14.9L525,210.4z"/>
				</g>
				<g>
					<path fill="#B8BABC" d="M595.2,230.5h-26.4c-0.3,0-0.6-0.1-0.7-0.4c-0.2-0.2-0.2-0.5-0.1-0.8l5.1-14.2c0.1-0.4,0.5-0.6,0.8-0.6
						h16.2c0.4,0,0.7,0.2,0.8,0.6l5.1,14.2c0.1,0.3,0.1,0.6-0.1,0.8C595.8,230.3,595.5,230.5,595.2,230.5z M570.1,228.7h23.9
						l-4.5-12.4h-14.9L570.1,228.7z"/>
					<path fill="#B8BABC" d="M565.1,230.5h-26.4c-0.3,0-0.6-0.1-0.7-0.4c-0.2-0.2-0.2-0.5-0.1-0.8l5.1-14.2c0.1-0.4,0.5-0.6,0.8-0.6
						H560c0.4,0,0.7,0.2,0.8,0.6l5.1,14.2c0.1,0.3,0.1,0.6-0.1,0.8C565.7,230.3,565.4,230.5,565.1,230.5z M540,228.7h23.9l-4.5-12.4
						h-14.9L540,228.7z"/>
					<path fill="#B8BABC" d="M535.1,230.5h-26.4c-0.3,0-0.6-0.1-0.7-0.4c-0.2-0.2-0.2-0.5-0.1-0.8l5.1-14.2c0.1-0.4,0.5-0.6,0.8-0.6
						H530c0.4,0,0.7,0.2,0.8,0.6l5.1,14.2c0.1,0.3,0.1,0.6-0.1,0.8C535.6,230.3,535.4,230.5,535.1,230.5z M509.9,228.7h23.9
						l-4.5-12.4h-14.9L509.9,228.7z"/>
				</g>
			</g>
			<path fill="#B8BABC" d="M538.7,194c-0.3,0-0.5-0.1-0.7-0.4c-0.3-0.4-0.2-1,0.2-1.3l9.4-7.1c0.4-0.3,1-0.2,1.3,0.2
				c0.3,0.4,0.2,1-0.2,1.3l-9.4,7.1C539.1,193.9,538.9,194,538.7,194z"/>
			<path fill="#B8BABC" d="M543.2,194c-0.3,0-0.5-0.1-0.7-0.4c-0.3-0.4-0.2-1,0.2-1.3l4.9-3.7c0.4-0.3,1-0.2,1.3,0.2
				c0.3,0.4,0.2,1-0.2,1.3l-4.9,3.7C543.6,193.9,543.4,194,543.2,194z"/>
			<path fill="#B8BABC" d="M538.7,201.6c-0.3,0-0.5-0.1-0.7-0.4c-0.3-0.4-0.2-1,0.2-1.3l4.6-3.5c0.4-0.3,1-0.2,1.3,0.2
				c0.3,0.4,0.2,1-0.2,1.3l-4.6,3.5C539.1,201.5,538.9,201.6,538.7,201.6z"/>
			<path fill="#B8BABC" d="M543.2,201.6c-0.3,0-0.5-0.1-0.7-0.4c-0.3-0.4-0.2-1,0.2-1.3l2.4-1.8c0.4-0.3,1-0.2,1.3,0.2
				c0.3,0.4,0.2,1-0.2,1.3l-2.4,1.8C543.6,201.5,543.4,201.6,543.2,201.6z"/>
			<path fill="#B8BABC" d="M508.7,230.5c-0.3,0-0.5-0.1-0.7-0.4c-0.3-0.4-0.2-1,0.2-1.3l9.4-7.1c0.4-0.3,1-0.2,1.3,0.2
				c0.3,0.4,0.2,1-0.2,1.3l-9.4,7.1C509,230.4,508.8,230.5,508.7,230.5z"/>
			<path fill="#B8BABC" d="M513.1,230.5c-0.3,0-0.5-0.1-0.7-0.4c-0.3-0.4-0.2-1,0.2-1.3l4.9-3.7c0.4-0.3,1-0.2,1.3,0.2
				c0.3,0.4,0.2,1-0.2,1.3l-4.9,3.7C513.5,230.4,513.3,230.5,513.1,230.5z"/>
			<path fill="#B8BABC" d="M564.1,207.5c-0.3,0-0.5-0.1-0.7-0.4c-0.3-0.4-0.2-1,0.2-1.3l9.4-7.1c0.4-0.3,1-0.2,1.3,0.2
				c0.3,0.4,0.2,1-0.2,1.3l-9.4,7.1C564.5,207.4,564.3,207.5,564.1,207.5z"/>
			<path fill="#B8BABC" d="M568.6,207.5c-0.3,0-0.5-0.1-0.7-0.4c-0.3-0.4-0.2-1,0.2-1.3l4.9-3.7c0.4-0.3,1-0.2,1.3,0.2
				c0.3,0.4,0.2,1-0.2,1.3l-4.9,3.7C568.9,207.4,568.7,207.5,568.6,207.5z"/>
			<path fill="#B8BABC" d="M547.2,225.9c-0.3,0-0.5-0.1-0.7-0.4c-0.3-0.4-0.2-1,0.2-1.3l9.4-7.1c0.4-0.3,1-0.2,1.3,0.2
				c0.3,0.4,0.2,1-0.2,1.3l-9.4,7.1C547.6,225.8,547.4,225.9,547.2,225.9z"/>
			<path fill="#B8BABC" d="M551.7,225.9c-0.3,0-0.5-0.1-0.7-0.4c-0.3-0.4-0.2-1,0.2-1.3l4.9-3.7c0.4-0.3,1-0.2,1.3,0.2
				c0.3,0.4,0.2,1-0.2,1.3l-4.9,3.7C552.1,225.8,551.9,225.9,551.7,225.9z"/>
			<path fill="#B8BABC" d="M573.5,230.5c-0.3,0-0.5-0.1-0.7-0.4c-0.3-0.4-0.2-1,0.2-1.3l9.4-7.1c0.4-0.3,1-0.2,1.3,0.2
				c0.3,0.4,0.2,1-0.2,1.3l-9.4,7.1C573.9,230.4,573.7,230.5,573.5,230.5z"/>
			<path fill="#B8BABC" d="M578,230.5c-0.3,0-0.5-0.1-0.7-0.4c-0.3-0.4-0.2-1,0.2-1.3l4.9-3.7c0.4-0.3,1-0.2,1.3,0.2
				c0.3,0.4,0.2,1-0.2,1.3l-4.9,3.7C578.3,230.4,578.2,230.5,578,230.5z"/>
		</g>
		<g>
			<text transform="matrix(1 0 0 1 524.0216 283.2524)" fill="#858585" font-family="'AvantGarde-Book'" font-size="20px">Metal</text>
		</g>
	</g>
	<g>
		<g>
			<path fill="#FFFFFF" d="M308.7,4c-29.3,0-53.2,23.9-53.2,53.2s23.9,53.2,53.2,53.2c29.3,0,53.2-23.9,53.2-53.2S338.1,4,308.7,4z"
				/>
			<linearGradient id="SVGID_2_" gradientUnits="userSpaceOnUse" x1="255.5218" y1="57.214" x2="361.9152" y2="57.214">
				<stop  offset="0" style="stop-color:#B0D79C"/>
				<stop  offset="1" style="stop-color:#6E9981"/>
			</linearGradient>
			<path opacity="0.5" fill="url(#SVGID_2_)" d="M308.7,4c-29.3,0-53.2,23.9-53.2,53.2s23.9,53.2,53.2,53.2
				c29.3,0,53.2-23.9,53.2-53.2S338.1,4,308.7,4z"/>
			<path fill="#6E9981" d="M308.7,112.2c-30.3,0-55-24.7-55-55s24.7-55,55-55c30.3,0,55,24.7,55,55S339,112.2,308.7,112.2z M308.7,4
				c-29.3,0-53.2,23.9-53.2,53.2s23.9,53.2,53.2,53.2c29.3,0,53.2-23.9,53.2-53.2S338.1,4,308.7,4z"/>
			<g>
				<path fill="#6E9981" d="M314.8,103.9c-5.7,0-25-5-29.7-9.3c-1.9-1.8-4.4-3.6-6.8-5.3c-3.3-2.4-6.5-4.6-7.7-6.7
					c-1.9-3.2-7.2-17-6.5-25.4c0.3-4.2,1.8-9.2,3.2-14c1.3-4.4,2.5-8.6,2.5-11.1c0-6.1,10.7-14.1,14.1-15c0.4-0.1,5.9-1.7,11.2-2.4
					c5-0.6,7.9-1.8,10.2-4.1c1.8-1.8,6.3-1.3,12-0.6c1.9,0.2,3.6,0.5,4.3,0.4c3.3-0.5,13.2,6.2,16.9,10.7
					c4.3,5.3,12.7,13.7,16.3,16.3c3.1,2.3,1.9,8.2,1,12.6c-0.3,1.5-0.6,2.9-0.6,3.6c0,3.3-0.2,14-2.1,15.2c-0.7,0.6-3.6,5.4-5.9,9.3
					c-4.1,6.8-6.8,11.3-8.1,12.4c-2.3,2-18.7,12.9-23.7,13.3C315.2,103.9,315,103.9,314.8,103.9z M310,11.2c-1.6,0-2.9,0.2-3.5,0.7
					c-2.6,2.6-5.9,3.9-11.3,4.6c-5.2,0.7-10.9,2.3-10.9,2.3c0,0,0,0,0,0c-3.2,0.8-12.8,8.5-12.8,13.2c0,2.8-1.2,7.1-2.6,11.6
					c-1.4,4.7-2.8,9.6-3.1,13.7c-0.7,8,4.4,21.2,6.3,24.3c1.1,1.8,4.1,3.9,7.2,6.1c2.5,1.7,5,3.5,7,5.4c4.5,4.1,24.3,9.1,28.9,8.8
					c4.3-0.3,20.1-10.7,22.6-12.9c1.1-1,4.8-7,7.7-11.9c4.3-7.2,5.7-9.4,6.5-9.9c0.8-1.1,1.3-8.9,1.3-13.7c0-0.9,0.3-2.3,0.6-4
					c0.8-3.6,1.9-9.1-0.3-10.7c-3.8-2.7-12.2-11.1-16.6-16.6c-4.3-5.2-13.4-10.4-15.3-10.1c-0.9,0.1-2.6-0.1-4.8-0.4
					C315,11.6,312.2,11.2,310,11.2z"/>
				<path fill="#6E9981" d="M313.1,97.5c-3.2,0-7.4-0.6-12.8-2.9c-8.4-3.7-19.8-10.3-22-12.8c-0.4-0.4-9.5-10.9-8.1-21.1
					c0.7-5.2,1.8-9.6,2.7-13.1c0.6-2.5,1.2-4.6,1.4-6.4c0.2-1.2,0.8-5.4,2.6-9.4c1.9-4.2,4.4-6.9,7.5-7.9c0.5-0.2,9.6-3.3,13.1-3.6
					c1.9-0.2,5.1-1.4,8-2.5c2.6-1,4.8-1.8,6.1-1.9c1.1-0.1,11-1.1,16.4,4.1c2.5,2.4,3.8,3.5,5,4.5c1,0.8,1.8,1.5,3.1,2.9
					c1.4,1.4,3.1,3.5,4.7,5.5c1.8,2.2,3.5,4.3,4.5,5.2c2.3,2,4,7.9,4,11.9c0,3.4-1.5,8.9-2.6,12.9c-0.3,1-0.5,1.9-0.7,2.6
					c-0.9,3.6-9.6,17.4-12,19.5c-0.2,0.2-0.5,0.5-0.9,0.8c-5.5,4.9-12.3,10.6-15,11.1C317.1,97.2,315.4,97.5,313.1,97.5z M314.6,17
					c-1.5,0-2.5,0.1-2.8,0.1c-1.1,0.1-3.4,1-5.8,1.9c-3.1,1.2-6.3,2.4-8.4,2.5c-3.4,0.3-12.7,3.5-12.8,3.5c0,0,0,0,0,0
					c-7.2,2.3-9.1,14.9-9.3,16.3c-0.2,1.9-0.8,4-1.4,6.5c-0.9,3.5-2,7.8-2.7,12.9c-1.3,9.6,7.4,19.7,7.8,20.1
					c1.9,2.2,12.8,8.7,21.6,12.5c8.9,3.9,14.4,2.9,17.3,2.3c2.8-0.5,11.5-8.3,14.4-10.8c0.4-0.3,0.7-0.6,0.9-0.8
					c2.3-2,10.8-15.5,11.6-18.8c0.2-0.7,0.4-1.6,0.7-2.6c1.1-3.9,2.5-9.4,2.5-12.6c0-4.1-1.8-9.4-3.6-11c-1.1-1-2.8-3.1-4.7-5.3
					c-1.6-2-3.3-4.1-4.7-5.5c-1.3-1.3-2.1-2-3.1-2.8c-1.1-0.9-2.5-2.1-5-4.6C323.7,17.6,318,17,314.6,17z"/>
				<path fill="#6E9981" d="M309.2,94c-5.2,0-14.6-3.7-16.9-4.7c-1.7-0.7-10-4.7-11.6-9.3c-0.5-1.4-1.6-3.6-2.7-5.8
					c-2.2-4.3-4.7-9.2-4.9-12.5c-0.2-3.1,1.5-7.9,3.2-12.6c1.1-3,2.1-5.9,2.4-7.8c0.6-4.5,1.8-9.1,5.8-12.3c0.4-0.4,5.9-5.4,9.7-5.1
					c2.3,0.2,6.7-0.8,10.7-1.8c2.1-0.5,4.1-1,5.5-1.2c4.1-0.6,13.8,0.2,17,4.2c0.9,1.1,2.4,2.7,4.1,4.6c3.9,4.3,8.3,9.1,9.3,11.5
					c0.1,0.3,0.3,0.6,0.4,0.9c1.3,3,2.6,6.2,1.6,13c-0.4,2.7-0.6,4.7-0.7,6.4c-0.3,2.8-0.4,4.8-1.3,7.9c-1.4,5.2-6.8,13.5-10.5,16.2
					c-3.8,2.8-15.6,8.1-20.4,8.4C309.6,94,309.4,94,309.2,94z M293.8,25c-2.8,0-7.1,3.4-8.5,4.8c0,0,0,0,0,0
					c-3.7,2.9-4.8,7.3-5.4,11.5c-0.3,2-1.3,4.9-2.5,8c-1.6,4.3-3.4,9.3-3.2,12.1c0.2,3.1,2.8,8.1,4.8,12.1c1.2,2.4,2.3,4.5,2.8,6
					c1.1,3.2,6.6,6.6,10.9,8.6c3.5,1.6,12.7,4.9,17,4.6c4.6-0.3,16.2-5.5,19.8-8.2c3.5-2.5,8.7-10.7,10-15.6c0.8-3.1,1-4.9,1.3-7.7
					c0.2-1.6,0.3-3.7,0.7-6.4c0.9-6.4-0.4-9.4-1.6-12.3c-0.1-0.3-0.3-0.6-0.4-1c-0.9-2.2-5.4-7.1-9-11.1c-1.7-1.9-3.2-3.5-4.1-4.6
					c-2.8-3.4-11.9-4.4-15.9-3.8c-1.4,0.2-3.4,0.7-5.5,1.2c-4,1-8.6,2-11,1.8C294,25.1,293.9,25,293.8,25z"/>
				<path fill="#6E9981" d="M305.7,88.1c-4.2,0-7.9-0.6-10.2-2.4c-5-3.8-12.5-18.6-13.5-24.2c-0.7-3.7,1.3-9.7,2.9-14.5
					c0.8-2.3,1.4-4.3,1.5-5.3c0.4-3.9,5.8-14.5,19.7-13.6c0.1,0,0.1,0,0.2,0c0.1,0.1,13.3,5.2,17.4,6c3.9,0.7,8,2.4,11.5,9.2
					c3.5,7.1,0.9,19.5,0.1,23.6c-1.2,5.9-8.6,18.1-15.4,19.5C315.5,87.3,310.3,88.1,305.7,88.1z M304.4,29.2
					c-12.7,0-16.5,10.4-16.7,12.5c-0.1,1.1-0.8,3.1-1.6,5.6c-1.5,4.4-3.5,10.5-2.9,13.9c1,5.4,8.2,19.8,13,23.5
					c4.7,3.6,16.7,1.8,23.4,0.5c5.9-1.2,13.1-12.4,14.4-18.6c0.8-4,3.4-16.1,0.1-22.8c-3-6-6.4-7.8-10.6-8.6
					c-4.1-0.8-16.3-5.5-17.5-6C305.5,29.3,304.9,29.2,304.4,29.2z"/>
				<path fill="#6E9981" d="M307.8,84.7c-3.9,0-8-1.4-11.7-6.1c-7.9-10.3-10.7-19.8-8.7-29.1c1.8-8.3,9.6-19.3,18.8-17.6
					c8.9,1.6,14.4,3.6,18.4,6.5c1.1,0.3,8.1,2.8,6.5,15.7c-1.7,13.9-4.2,28.2-10.3,28.2c0,0,0,0,0,0c-1.3,0-3,0.4-4.9,1
					C313.5,84,310.7,84.7,307.8,84.7z M304.3,32.9c-7.7,0-14.1,9.6-15.7,16.8c-2,8.9,0.8,18,8.5,28.1c5.9,7.7,12.9,5.8,18.5,4.3
					c2-0.5,3.8-1,5.2-1c0,0,0,0,0,0c5.9,0,8.3-20.4,9.1-27.1c1.5-12.6-5.4-14.3-5.7-14.4c-0.1,0-0.2-0.1-0.2-0.1
					c-3.8-2.8-9.4-4.8-18-6.4C305.5,33,304.9,32.9,304.3,32.9z"/>
				<path fill="#6E9981" d="M314.3,78.3c-5,0-11.1-3.2-13.1-5.6c-6.7-8.1-6.9-15.6-6.4-21.3c0.5-5.9,4.4-10.3,10.3-11.8
					c4.5-1.2,12.8-1.6,15.7,3.9c0,0,0,0,0,0c0.1,0.2,7.6,16.6,0,31.2c-1.1,2-2.9,3.2-5.5,3.5C315,78.2,314.6,78.3,314.3,78.3z
					 M310.9,40c-2,0-4,0.3-5.6,0.7c-5.4,1.4-8.9,5.4-9.4,10.8c-0.5,5.4-0.2,12.6,6.2,20.4c2,2.4,8.5,5.6,13.1,5.2
					c2.1-0.2,3.6-1.2,4.5-2.9c7.3-13.9,0.2-29.6,0-30.1C318.1,40.9,314.5,40,310.9,40z"/>
				<path fill="#6E9981" d="M312.6,71.8c-3.4,0-7.5-2.2-8.8-3.8c-4.5-5.4-4.7-10.5-4.3-14.3c0.4-4,3-7,7-8c3-0.8,8.7-1.1,10.7,2.7
					c0,0,0,0,0,0c0.2,0.4,5.1,11.1,0,20.9c-0.7,1.4-2,2.2-3.8,2.4C313.1,71.8,312.9,71.8,312.6,71.8z M310.4,46.4
					c-1.3,0-2.7,0.2-3.7,0.5c-3.5,0.9-5.8,3.5-6.1,7c-0.3,3.6-0.2,8.3,4,13.4c1.3,1.5,5.5,3.7,8.5,3.4c1.3-0.1,2.3-0.7,2.8-1.8
					c4.8-9.1,0.2-19.4,0-19.8C315.1,47,312.7,46.4,310.4,46.4z"/>
			</g>
		</g>
		<g>
			<text transform="matrix(1 0 0 1 279.1687 133.2962)" fill="#858585" font-family="'AvantGarde-Book'" font-size="20px">Wood</text>
		</g>
	</g>
	<g>
		<g>
			<text transform="matrix(1 0 0 1 33.5052 283.1993)" fill="#858585" font-family="'AvantGarde-Book'" font-size="20px">Earth</text>
		</g>
		<g>
			<path fill="#FFFFFF" d="M58.2,153.9C28.9,153.9,5,177.8,5,207.1s23.9,53.2,53.2,53.2s53.2-23.9,53.2-53.2S87.5,153.9,58.2,153.9z
				"/>
			<linearGradient id="SVGID_3_" gradientUnits="userSpaceOnUse" x1="4.998" y1="207.117" x2="111.3914" y2="207.117">
				<stop  offset="0" style="stop-color:#FFFAC2"/>
				<stop  offset="1" style="stop-color:#F8BB5B"/>
			</linearGradient>
			<path opacity="0.5" fill="url(#SVGID_3_)" d="M58.2,153.9C28.9,153.9,5,177.8,5,207.1s23.9,53.2,53.2,53.2s53.2-23.9,53.2-53.2
				S87.5,153.9,58.2,153.9z"/>
			<path fill="#F8BB5B" d="M58.2,262.1c-30.3,0-55-24.7-55-55s24.7-55,55-55s55,24.7,55,55S88.5,262.1,58.2,262.1z M58.2,153.9
				C28.9,153.9,5,177.8,5,207.1s23.9,53.2,53.2,53.2s53.2-23.9,53.2-53.2S87.5,153.9,58.2,153.9z"/>
			<path fill="#F8BB5B" d="M71.2,197.3c-12.2,0-24.1-3.4-34.4-9.9c-3.5-2.2-7.4-3.4-11.3-3.6c-0.3,0-0.6,0-1,0
				c-6.5,0-12.8,2.8-17.2,7.6c-0.3,0.4-0.9,0.4-1.3,0.1c-0.4-0.3-0.4-0.9-0.1-1.3c4.8-5.2,11.5-8.2,18.5-8.2c0.4,0,0.7,0,1,0
				c4.2,0.2,8.5,1.5,12.2,3.9c10,6.3,21.6,9.6,33.4,9.6c12.9,0,25.3-3.9,35.9-11.2c0.4-0.3,1-0.2,1.3,0.2c0.3,0.4,0.2,1-0.2,1.3
				C97.2,193.3,84.5,197.3,71.2,197.3z"/>
			<path fill="#F8BB5B" d="M56.9,195.8c-0.4,0-0.7-0.2-0.8-0.3c-0.6-0.4-0.5-1.2-0.5-1.3c0,0,0,0,0-0.1c1.2-9.7-3.5-10.7-7.2-11.6
				c-0.3-0.1-0.6-0.1-0.9-0.2c-0.5-0.1-1.1-0.3-1.7-0.4c-3.4-0.8-7.6-1.8-9.9-4.2c-0.3-0.3-3.1-3.5-0.2-11.5c0.1-0.4,0.5-0.6,1-0.6
				c0.4,0,0.7,0.4,0.8,0.8c0,0.1,0.5,2.7,5.2,3.6c0.7,0.1,1.4,0.2,2.2,0.4c5,0.7,11.2,1.7,12.3,11.2c0.9,8,1,10.5,0.9,13.3
				c0,0.4-0.3,0.7-0.7,0.8C57.2,195.7,57,195.8,56.9,195.8z M36.7,168.9c-0.6,2.5-1,6,0.4,7.5c1.9,2,5.9,3,9,3.7
				c0.6,0.1,1.2,0.3,1.7,0.4c0.3,0.1,0.5,0.1,0.8,0.2c2.1,0.5,4.9,1.1,6.8,3.6c-0.1-0.8-0.2-1.6-0.3-2.6c-1-8.1-5.7-8.8-10.7-9.6
				c-0.8-0.1-1.5-0.2-2.3-0.4C39.3,171.2,37.6,170,36.7,168.9z"/>
			<path fill="#F8BB5B" d="M56.8,188.3c-0.5,0-0.9-0.4-0.9-0.8l0-0.4c-0.6-7.2-1-11.2,6.7-16.1l0.4-0.2c6.8-4.3,9.6-6.1,9.6-8.5
				c0-0.7-0.2-1.2-0.5-1.5c-0.7-0.5-1.9-0.5-2.2-0.4c-0.5,0.1-1-0.2-1.1-0.7c-0.1-0.5,0.2-1,0.7-1.1c0.2,0,2.3-0.4,3.7,0.8
				c0.5,0.5,1.2,1.3,1.2,2.9c-0.1,3.4-3.1,5.3-10.4,10l-0.4,0.2c-6.7,4.3-6.4,7.2-5.8,14.4l0,0.4C57.7,187.8,57.4,188.3,56.8,188.3
				C56.8,188.3,56.8,188.3,56.8,188.3z"/>
			<path fill="#F8BB5B" d="M58.2,196c-0.5,0-0.9-0.4-0.9-0.9c-0.1-7.7,0.8-11.7,3.2-14.3c1.2-1.3,3.2-2.1,5.5-3.2
				c3.2-1.4,6.8-3,8.3-5.7c2.5-4.5-2-10.7-2.1-10.7c-0.3-0.4-0.2-1,0.2-1.3c0.4-0.3,1-0.2,1.3,0.2c0.2,0.3,5.3,7.2,2.2,12.7
				c-1.9,3.3-5.7,5-9.2,6.5c-2.1,0.9-4,1.8-4.9,2.8c-1.7,1.8-2.8,4.7-2.7,13C59.1,195.5,58.7,195.9,58.2,196
				C58.2,196,58.2,196,58.2,196z"/>
			<path fill="#F8BB5B" d="M69.2,168.7c-0.2,0-0.4-0.1-0.6-0.2c-0.4-0.3-0.4-0.9-0.1-1.3c1.5-1.8,2.1-3.4,1.9-4.7
				c-0.2-1.4-1.3-2.1-1.3-2.1c-0.4-0.3-0.5-0.8-0.3-1.2c0.3-0.4,0.8-0.6,1.2-0.3c0.1,0,1.8,1.1,2.2,3.4c0.3,1.9-0.5,4-2.3,6.2
				C69.7,168.5,69.4,168.7,69.2,168.7z"/>
			<path fill="#F8BB5B" d="M20.1,209.5c-0.2,0-0.3,0-0.5-0.1l-12.3-8c-0.4-0.3-0.5-0.8-0.3-1.2l7.4-12c0.1-0.2,0.4-0.4,0.6-0.4
				l8.1-1.2c0.3,0,0.6,0.1,0.8,0.3l8.6,9.3c0.2,0.3,0.3,0.7,0.2,1l-4.3,9.5c-0.1,0.2-0.3,0.4-0.5,0.5l-7.4,2.4
				C20.2,209.5,20.2,209.5,20.1,209.5z M9,200.4l11.2,7.3l6.7-2.1l3.9-8.6l-7.8-8.5l-7.2,1.1L9,200.4z"/>
			<path fill="#F8BB5B" d="M54.3,215.4c-0.2,0-0.3,0-0.5-0.1l-9.5-5.9c-0.1-0.1-0.2-0.1-0.3-0.2l-6.3-8.9c-0.1-0.2-0.2-0.4-0.2-0.7
				l1.1-6.8c0-0.3,0.2-0.5,0.4-0.6c0.2-0.1,0.5-0.2,0.7-0.1l11.1,3.4c0.1,0,0.2,0.1,0.3,0.2l7.5,5.9c0.3,0.2,0.4,0.6,0.3,1
				l-3.9,12.2c-0.1,0.3-0.3,0.5-0.5,0.6C54.5,215.4,54.4,215.4,54.3,215.4z M45.4,207.9l8.3,5.2l3.4-10.5l-6.9-5.4l-10-3l-0.8,5.4
				L45.4,207.9z"/>
			<path fill="#F8BB5B" d="M64.9,225.1c-0.3,0-0.5-0.1-0.7-0.3l-6.7-7.5c-0.2-0.2-0.3-0.5-0.2-0.8l1.5-8.1c0-0.2,0.1-0.4,0.3-0.5
				l8.3-8.1c0.3-0.2,0.6-0.3,1-0.2l6.1,2.3c0.1,0,0.2,0.1,0.3,0.2l6.6,7.1c0.2,0.2,0.3,0.6,0.2,0.9l-3.9,12.2
				c-0.1,0.3-0.4,0.6-0.7,0.6l-11.9,2.1C65,225.1,65,225.1,64.9,225.1z M59.2,216.5l6.1,6.8l10.9-1.9l3.6-11.2l-6.1-6.6l-5.4-2
				l-7.7,7.5L59.2,216.5z"/>
			<path fill="#F8BB5B" d="M104.1,211.9c-0.2,0-0.5-0.1-0.6-0.2l-7.8-7.4c-0.2-0.2-0.3-0.5-0.3-0.8l2.1-9.9c0.1-0.2,0.2-0.5,0.4-0.6
				l9.2-5.6c0.4-0.3,1-0.1,1.2,0.3c0.3,0.4,0.1,1-0.3,1.2l-8.9,5.4l-1.9,9l7.1,6.7l7.7-0.8c0.5-0.1,0.9,0.3,1,0.8
				c0.1,0.5-0.3,0.9-0.8,1L104.1,211.9C104.2,211.9,104.1,211.9,104.1,211.9z"/>
			<path fill="#F8BB5B" d="M94.7,224.2c-0.1,0-0.2,0-0.3-0.1l-13.2-5.1c-0.2-0.1-0.4-0.3-0.5-0.5c-0.1-0.2-0.1-0.5,0-0.7l7.7-14.5
				c0.2-0.4,0.6-0.6,1-0.4l5.7,1.6c0.2,0,0.3,0.1,0.4,0.2l10.5,11c0.2,0.2,0.3,0.5,0.2,0.7c0,0.3-0.2,0.5-0.4,0.7l-10.7,7.1
				C95.1,224.2,94.9,224.2,94.7,224.2z M82.8,217.8l11.8,4.6l9.4-6.2l-9.6-10l-4.8-1.3L82.8,217.8z"/>
			<path fill="#F8BB5B" d="M32.5,229.7c-0.2,0-0.3-0.1-0.5-0.1l-9.8-6.5c-0.3-0.2-0.5-0.6-0.4-0.9l1.5-8.8c0-0.3,0.2-0.5,0.4-0.6
				l12.3-7.2c0.2-0.1,0.5-0.2,0.8-0.1l5.4,2.2c0.1,0.1,0.3,0.2,0.4,0.3l7.5,9.9c0.3,0.3,0.2,0.8,0,1.1l-6.6,7.5
				c-0.1,0.1-0.3,0.2-0.4,0.3l-10.4,2.7C32.7,229.6,32.6,229.7,32.5,229.7z M23.7,221.9l8.9,5.9l9.7-2.5l5.9-6.8l-6.9-9.1l-4.8-2
				l-11.6,6.7L23.7,221.9z"/>
			<path fill="#F8BB5B" d="M35.2,252.3c-0.2,0-0.3,0-0.5-0.1l-6.9-4.5c-0.3-0.2-0.4-0.5-0.4-0.8v-4.5c0-0.3,0.2-0.6,0.5-0.8l5.3-2.9
				c0.3-0.1,0.6-0.1,0.8,0l8.9,4.2c0.3,0.2,0.5,0.5,0.5,0.9l-0.6,6.6c0,0.4-0.3,0.7-0.8,0.8l-6.6,1.1
				C35.3,252.3,35.3,252.3,35.2,252.3z M29.2,246.4l6.2,4.1l5.6-0.9l0.5-5.3l-7.9-3.7l-4.4,2.4V246.4z"/>
			<path fill="#F8BB5B" d="M59.6,259.1c0,0-0.1,0-0.1,0l-6.7-0.8c-0.3,0-0.5-0.2-0.7-0.4c-0.1-0.2-0.2-0.5-0.1-0.8l4.2-11.9
				c0.1-0.4,0.5-0.6,0.9-0.6h4.2c0.5,0,0.9,0.4,0.9,0.8l0.8,8.3c0,0.2,0,0.4-0.1,0.5l-2.5,4.4C60.2,258.9,59.9,259.1,59.6,259.1z
				 M54.2,256.7l5,0.6l2.1-3.6l-0.7-7.2h-2.8L54.2,256.7z"/>
			<path fill="#F8BB5B" d="M56.5,239.6c-0.2,0-0.3,0-0.5-0.1l-10.3-6.6c-0.2-0.1-0.4-0.4-0.4-0.7c0-0.3,0.1-0.5,0.3-0.7l9.3-9.5
				c0.3-0.3,0.8-0.4,1.2-0.1l8,6.2c0.3,0.2,0.4,0.7,0.3,1l-2,5.2c0,0.1-0.1,0.2-0.2,0.3l-5,4.7C56.9,239.5,56.7,239.6,56.5,239.6z
				 M47.6,231.9l8.8,5.6l4.4-4.1l1.7-4.4l-6.8-5.3L47.6,231.9z"/>
			<path fill="#F8BB5B" d="M85.2,239.6c-0.2,0-0.3,0-0.5-0.1l-9.3-5.4c-0.4-0.2-0.6-0.7-0.4-1.2l4.8-9.9c0.2-0.4,0.6-0.6,1-0.5
				l10.8,2.9c0.4,0.1,0.6,0.4,0.7,0.8l0.8,7.1c0,0.3-0.1,0.6-0.3,0.8l-7.1,5.4C85.6,239.5,85.4,239.6,85.2,239.6z M77.2,232.9l8,4.7
				l6.2-4.7l-0.6-5.9l-9.5-2.5L77.2,232.9z"/>
			<path fill="#F8BB5B" d="M70.3,244.1c-0.2,0-0.3,0-0.5-0.1l-5.3-3.3c-0.2-0.1-0.3-0.3-0.4-0.6c-0.1-0.2,0-0.5,0.1-0.7l4.2-6.8
				c0.3-0.4,0.8-0.5,1.2-0.3l9.2,5.6c0.3,0.2,0.4,0.5,0.4,0.8c0,0.3-0.2,0.6-0.5,0.8l-8.1,4.5C70.6,244,70.4,244.1,70.3,244.1z
				 M66.2,239.6l4.1,2.5l6.3-3.5l-7.1-4.3L66.2,239.6z"/>
			<path fill="#F8BB5B" d="M9.5,226.2c-0.3,0-0.6-0.1-0.7-0.4l-3.9-5.4c-0.3-0.4-0.2-1,0.2-1.3c0.4-0.3,1-0.2,1.3,0.2l3.6,5l8.3-0.9
				l0.6-10.4l-6.2-2l-7.5,2c-0.5,0.1-1-0.2-1.1-0.6c-0.1-0.5,0.2-1,0.6-1.1l7.8-2c0.2,0,0.3,0,0.5,0l7.1,2.3
				c0.4,0.1,0.6,0.5,0.6,0.9L20,224.3c0,0.4-0.4,0.8-0.8,0.8L9.5,226.2C9.6,226.2,9.5,226.2,9.5,226.2z"/>
			<path fill="#F8BB5B" d="M17.2,238.5c-0.3,0-0.7-0.2-0.8-0.5l-3.2-7c-0.2-0.4,0-1,0.4-1.2l6.5-3.2c0.2-0.1,0.5-0.1,0.7,0l5,2
				c0.3,0.1,0.6,0.5,0.6,0.8v7.5c0,0.5-0.4,0.9-0.8,0.9L17.2,238.5C17.3,238.5,17.3,238.5,17.2,238.5z M15.2,231.1l2.6,5.6l6.7-0.6
				V230l-4-1.6L15.2,231.1z"/>
			<path fill="#F8BB5B" d="M46.2,239.1h-7.7c-0.3,0-0.5-0.1-0.7-0.3l-5-6.4c-0.2-0.3-0.2-0.6-0.1-0.9c0.1-0.3,0.4-0.5,0.7-0.6
				l6.6-1.1c0.2,0,0.4,0,0.6,0.1l3.8,1.9c0.2,0.1,0.4,0.3,0.4,0.5l2.3,5.6c0.1,0.3,0.1,0.6-0.1,0.8
				C46.8,238.9,46.5,239.1,46.2,239.1z M39,237.2h5.9l-1.6-4.1l-3.2-1.6l-4.8,0.8L39,237.2z"/>
			<path fill="#F8BB5B" d="M78.3,252.8c-0.1,0-0.2,0-0.4-0.1c-0.2-0.1-0.4-0.3-0.5-0.6l-2.4-7.5c-0.1-0.2,0-0.5,0.1-0.7
				c0.1-0.2,0.3-0.4,0.6-0.4l5.5-1.2c0.4-0.1,0.8,0.1,1,0.5l2.7,5.9c0.2,0.4,0,1-0.4,1.2l-5.8,2.8C78.6,252.7,78.5,252.8,78.3,252.8
				z M77.1,245.1l1.7,5.5l4.1-2l-2-4.4L77.1,245.1z"/>
			<path fill="#F8BB5B" d="M105.4,234.5C105.4,234.5,105.3,234.5,105.4,234.5L99,234c-0.5,0-0.8-0.4-0.8-0.9v-7.8
				c0-0.4,0.3-0.8,0.7-0.9l10.7-2c0.5-0.1,1,0.2,1,0.7c0.1,0.5-0.2,1-0.7,1l-10,1.8v6.2l5.5,0.4c0.5,0,0.9,0.5,0.8,1
				C106.2,234.1,105.8,234.5,105.4,234.5z"/>
		</g>
	</g>
	<g>
		<g>
			<path fill="none" stroke="#8096A3" stroke-width="10" stroke-miterlimit="10" d="M237.1,56.6c-62.7,10.8-116.9,36.7-153.9,71.8"
				/>
			<g>
				<polygon fill="#8096A3" points="81.3,114.7 85.9,125.8 97.1,130.3 70.7,141.3 				"/>
			</g>
		</g>
	</g>
	<g>
		<g>
			<path fill="none" stroke="#8096A3" stroke-width="10" stroke-miterlimit="10" d="M534.2,140.2c-33-36.7-83.6-65-143.6-79.2"/>
			<g>
				<polygon fill="#8096A3" points="401.2,52.1 394.3,61.9 396.5,73.8 373.1,57.3 				"/>
			</g>
		</g>
	</g>
</g>
</svg>
