<?xml version="1.0" encoding="utf-8"?>
<!-- Generator: Adobe Illustrator 19.2.1, SVG Export Plug-In . SVG Version: 6.00 Build 0)  -->
<svg version="1.1" id="Layer_1" xmlns="http://www.w3.org/2000/svg" xmlns:xlink="http://www.w3.org/1999/xlink" x="0px" y="0px"
	 viewBox="0 0 100 100" style="enable-background:new 0 0 100 100;" xml:space="preserve">
<style type="text/css">
	.st0{fill:#FFFFFF;stroke:#FFFFFF;stroke-width:2;stroke-miterlimit:10;}
</style>
<path class="st0" d="M33.9,96.9c0.2,0.1,0.3,0,0.5,0c-1.7-0.3-3.4-0.8-5-1.4c-7.2-2.9-12.5-9.1-14.2-16.7c-0.4-2-0.6-4-0.6-6
	c0.3-10.5,7.3-19,16.7-21.9c1.4-0.4,2.9-0.7,4.3-0.9c0.9-0.1,1.8-0.1,2.7-0.1c6.4-0.1,11.9-2.4,16.4-6.8c3.1-3.1,5.2-6.7,6.3-11
	c0.3-1.3,0.5-2.7,0.6-4c0.1-1.3,0.1-2.6,0-3.9c-0.3-3.1-1.2-6.1-2.6-8.8C55.8,9.5,50.2,5.1,43.7,3.6c-1-0.3-2.1-0.4-3.2-0.5
	c-1.2-0.1-2.3-0.2-3.5-0.1c-0.2,0-0.4,0-0.7,0C35.7,3,35,3,34.3,3c-0.4,0-0.7,0.1-1.1,0.1l0,0c0-0.1,0.1-0.1,0.2-0.1
	C33.8,3,34.3,3,34.7,3c0.5,0,0.9-0.1,1.4-0.2c1.2,0,2.4,0,3.6,0c0.1,0,0.2,0.1,0.4,0.1C40.7,2.9,41.4,3,42.1,3
	c1.3,0.1,2.7,0.3,4,0.5c2.2,0.4,4.3,0.9,6.4,1.6c6.5,2.1,12.3,5.4,17.3,10c5.9,5.4,10.2,11.8,12.9,19.4c0.9,2.5,1.5,5,2,7.6
	c0.2,1.1,0.4,2.2,0.4,3.4c0.1,0.9,0.1,1.7,0.2,2.6c0,0.2,0,0.4,0.1,0.6c0,1,0,1.9,0,2.9c-0.1,0.2-0.1,0.5-0.1,0.8
	c-0.1,2-0.3,4-0.7,6c-0.5,3.1-1.4,6.1-2.5,9c-2.9,7.2-7.3,13.4-13.2,18.5c-5.1,4.4-10.8,7.5-17.2,9.4c-2.8,0.8-5.6,1.4-8.5,1.7
	c-1.3,0.1-2.6,0.2-3.9,0.2c-0.3,0-0.6,0-0.9,0c-0.1,0-0.2,0-0.2,0.1c-0.5,0-1.1,0-1.6,0c-0.2,0-0.3-0.1-0.5-0.1
	c-0.6,0-1.3-0.1-1.9-0.1C34.1,97,34,97,33.9,96.9L33.9,96.9z M42.7,74.4c0.1-2.2-1.7-4.5-4.5-4.5c-2.6,0-4.5,2.1-4.5,4.4
	c0,2.5,2.1,4.5,4.5,4.5C40.7,78.8,42.7,76.7,42.7,74.4z"/>
</svg>
