<?xml version="1.0" encoding="utf-8"?>
<!-- Generator: Adobe Illustrator 19.2.1, SVG Export Plug-In . SVG Version: 6.00 Build 0)  -->
<svg version="1.1" id="Layer_1" xmlns="http://www.w3.org/2000/svg" xmlns:xlink="http://www.w3.org/1999/xlink" x="0px" y="0px"
	 viewBox="0 0 100 100" style="enable-background:new 0 0 100 100;" xml:space="preserve">
<style type="text/css">
	.st0{fill:#FFFFFF;stroke:#FFFFFF;stroke-width:2;stroke-miterlimit:10;}
	.st1{opacity:0.8;fill:#828282;stroke:#FFFFFF;stroke-width:2;stroke-miterlimit:10;}
	.st2{fill:#828282;}
</style>
<g>
	<path class="st0" d="M45.3,96.9c0.2,0.1,0.3,0,0.5,0c-1.7-0.3-3.4-0.8-5-1.4c-7.2-2.9-12.5-9.1-14.2-16.7c-0.4-2-0.6-4-0.6-6
		c0.3-10.5,7.3-19,16.7-21.9c1.4-0.4,2.9-0.7,4.3-0.9c0.9-0.1,1.8-0.1,2.7-0.1c6.4-0.1,11.9-2.4,16.4-6.8c3.1-3.1,5.2-6.7,6.3-11
		c0.3-1.3,0.5-2.7,0.6-4c0.1-1.3,0.1-2.6,0-3.9c-0.3-3.1-1.2-6.1-2.6-8.8C67.2,9.5,61.6,5.1,55.1,3.6c-1-0.3-2.1-0.4-3.2-0.5
		c-1.2-0.1-2.3-0.2-3.5-0.1c-0.2,0-0.4,0-0.7,0C47,3,46.4,3,45.7,3c-0.4,0-0.7,0.1-1.1,0.1l0,0c0-0.1,0.1-0.1,0.2-0.1
		C45.2,3,45.6,3,46.1,3c0.5,0,0.9-0.1,1.4-0.2c1.2,0,2.4,0,3.6,0c0.1,0,0.2,0.1,0.4,0.1C52.1,2.9,52.8,3,53.4,3
		c1.3,0.1,2.7,0.3,4,0.5c2.2,0.4,4.3,0.9,6.4,1.6c6.5,2.1,12.3,5.4,17.3,10c5.9,5.4,10.2,11.8,12.9,19.4c0.9,2.5,1.5,5,2,7.6
		c0.2,1.1,0.4,2.2,0.4,3.4c0.1,0.9,0.1,1.7,0.2,2.6c0,0.2,0,0.4,0.1,0.6c0,1,0,1.9,0,2.9c-0.1,0.2-0.1,0.5-0.1,0.8
		c-0.1,2-0.3,4-0.7,6c-0.5,3.1-1.4,6.1-2.5,9c-2.9,7.2-7.3,13.4-13.2,18.5c-5.1,4.4-10.8,7.5-17.2,9.4c-2.8,0.8-5.6,1.4-8.5,1.7
		c-1.3,0.1-2.6,0.2-3.9,0.2c-0.3,0-0.6,0-0.9,0c-0.1,0-0.2,0-0.2,0.1c-0.5,0-1.1,0-1.6,0c-0.2,0-0.3-0.1-0.5-0.1
		c-0.6,0-1.3-0.1-1.9-0.1C45.4,97,45.3,97,45.3,96.9L45.3,96.9z"/>
	<path class="st1" d="M54.7,3.1c-0.2-0.1-0.3,0-0.5,0c1.7,0.3,3.4,0.8,5,1.4c7.2,2.9,12.5,9.1,14.2,16.7c0.4,2,0.6,4,0.6,6
		c-0.3,10.5-7.3,19-16.7,21.9c-1.4,0.4-2.9,0.7-4.3,0.9C52.1,50,51.2,50,50.3,50c-6.4,0.1-11.9,2.4-16.4,6.8
		c-3.1,3.1-5.2,6.7-6.3,11c-0.3,1.3-0.5,2.7-0.6,4c-0.1,1.3-0.1,2.6,0,3.9c0.3,3.1,1.2,6.1,2.6,8.8c3.1,5.9,8.8,10.3,15.3,11.9
		c1,0.3,2.1,0.4,3.2,0.5c1.2,0.1,2.3,0.2,3.5,0.1c0.2,0,0.4,0,0.7,0c0.7,0,1.4-0.1,2.1-0.1c0.4,0,0.7-0.1,1.1-0.1l0,0
		c0,0.1-0.1,0.1-0.2,0.1c-0.4,0-0.9,0.1-1.3,0.1c-0.5,0-0.9,0.1-1.4,0.2c-1.2,0-2.4,0-3.6,0c-0.1,0-0.2-0.1-0.4-0.1
		c-0.7-0.1-1.4-0.1-2.1-0.2c-1.3-0.1-2.7-0.3-4-0.5c-2.2-0.4-4.3-0.9-6.4-1.6c-6.5-2.1-12.3-5.4-17.3-10
		C12.9,79.6,8.6,73.1,5.9,65.6c-0.9-2.5-1.5-5-2-7.6c-0.2-1.1-0.4-2.2-0.4-3.4c-0.1-0.9-0.1-1.7-0.2-2.6c0-0.2,0-0.4-0.1-0.6
		c0-1,0-1.9,0-2.9c0.1-0.2,0.1-0.5,0.1-0.8c0.1-2,0.3-4,0.7-6c0.5-3.1,1.4-6.1,2.5-9c2.9-7.2,7.3-13.4,13.2-18.5
		C24.8,9.8,30.6,6.7,37,4.8c2.8-0.8,5.6-1.4,8.5-1.7c1.3-0.1,2.6-0.2,3.9-0.2c0.3,0,0.6,0,0.9,0c0.1,0,0.2,0,0.2-0.1
		c0.5,0,1.1,0,1.6,0c0.2,0,0.3,0.1,0.5,0.1c0.6,0,1.3,0.1,1.9,0.1C54.6,3,54.7,3,54.7,3.1L54.7,3.1z M46,25.6
		c-0.1,2.2,1.7,4.5,4.5,4.5c2.6,0,4.5-2.1,4.5-4.4c0-2.5-2.1-4.5-4.5-4.5C47.9,21.2,45.9,23.3,46,25.6z"/>
	<path class="st2" d="M54,74.4c0.1-2.2-1.7-4.5-4.5-4.5c-2.6,0-4.5,2.1-4.5,4.4c0,2.5,2.1,4.5,4.5,4.5C52.1,78.8,54.1,76.7,54,74.4z
		"/>
</g>
</svg>
