<?xml version="1.0" encoding="utf-8"?>
<!-- Generator: Adobe Illustrator 19.2.1, SVG Export Plug-In . SVG Version: 6.00 Build 0)  -->
<svg version="1.1" id="Layer_1" xmlns="http://www.w3.org/2000/svg" xmlns:xlink="http://www.w3.org/1999/xlink" x="0px" y="0px"
	 viewBox="0 0 105 105" style="enable-background:new 0 0 105 105;" xml:space="preserve">
<style type="text/css">
	.st0{fill:#FFFFFF;}
</style>
<g>
	<g>
		<path class="st0" d="M52.5,102.5c-27.6,0-50-22.4-50-50s22.4-50,50-50s50,22.4,50,50S80.1,102.5,52.5,102.5z M52.5,4.1
			C25.8,4.1,4.1,25.8,4.1,52.5s21.7,48.4,48.4,48.4s48.4-21.7,48.4-48.4S79.2,4.1,52.5,4.1z"/>
	</g>
	<g>
		<path class="st0" d="M70.5,57.9c-4.3,0-7.7-6.1-7.7-13.8c0-0.5,0.4-0.8,0.8-0.8s0.8,0.4,0.8,0.8c0,6.6,2.8,12.2,6.1,12.2
			c3.3,0,6.1-5.6,6.1-12.2c0-0.5,0.4-0.8,0.8-0.8c0.5,0,0.8,0.4,0.8,0.8C78.2,51.8,74.8,57.9,70.5,57.9z"/>
	</g>
	<g>
		<path class="st0" d="M35.1,57.9c-4.3,0-7.7-6.1-7.7-13.8c0-0.5,0.4-0.8,0.8-0.8c0.5,0,0.8,0.4,0.8,0.8c0,6.6,2.8,12.2,6.1,12.2
			c3.3,0,6.1-5.6,6.1-12.2c0-0.5,0.4-0.8,0.8-0.8c0.5,0,0.8,0.4,0.8,0.8C42.8,51.8,39.4,57.9,35.1,57.9z"/>
	</g>
	<path class="st0" d="M52.5,76.4c-8.4,0-14.7-3.5-14.9-3.6c-0.4-0.2-0.5-0.7-0.3-1.1c0.2-0.4,0.7-0.5,1.1-0.3
		c0.1,0,6.1,3.4,14.1,3.4c8,0,14.6-3.4,14.7-3.4c0.4-0.2,0.9-0.1,1.1,0.3c0.2,0.4,0.1,0.9-0.3,1.1C67.7,72.9,60.9,76.4,52.5,76.4z"
		/>
</g>
</svg>
