<?xml version="1.0" encoding="utf-8"?>
<!-- Generator: Adobe Illustrator 19.2.1, SVG Export Plug-In . SVG Version: 6.00 Build 0)  -->
<svg version="1.1" id="Layer_1" xmlns="http://www.w3.org/2000/svg" xmlns:xlink="http://www.w3.org/1999/xlink" x="0px" y="0px"
	 viewBox="0 0 105 105" style="enable-background:new 0 0 105 105;" xml:space="preserve">
<style type="text/css">
	.st0{fill:#FFFFFF;}
</style>
<g>
	<g>
		<path class="st0" d="M52.6,102.5c-9.7,0-19.2-2.8-27.3-8.1c-0.4-0.2-0.5-0.8-0.2-1.1c0.2-0.4,0.8-0.5,1.1-0.2
			c7.8,5.1,17,7.8,26.4,7.8c26.7,0,48.4-21.7,48.4-48.4S79.3,4.1,52.6,4.1S4.3,25.8,4.3,52.5c0,5.4,0.9,10.8,2.7,15.8
			c0.1,0.4-0.1,0.9-0.5,1c-0.4,0.1-0.9-0.1-1-0.5c-1.8-5.3-2.7-10.8-2.7-16.4c0-27.6,22.4-50,50-50s50,22.4,50,50
			S80.2,102.5,52.6,102.5z"/>
	</g>
	<g>
		<ellipse class="st0" cx="70.6" cy="46.1" rx="6.9" ry="13"/>
	</g>
	<g>
		<ellipse class="st0" cx="35.2" cy="46.1" rx="6.9" ry="13"/>
	</g>
	<path class="st0" d="M50.7,84c-1.6,0-3.3-0.3-4.9-0.8c-6.9-2.3-8.5-10.5-8.5-10.8c0-0.3,0-0.5,0.2-0.7c0.2-0.2,0.5-0.3,0.7-0.2
		c0.1,0,6.5,1.3,14.6,1.3c8.1,0,14.6-1.3,14.6-1.3c0.3-0.1,0.7,0.1,0.9,0.4c0.2,0.3,0.2,0.7,0,0.9C62.7,80.3,56.8,84,50.7,84z
		 M39.2,73.3c0.7,2.2,2.6,6.9,7.1,8.4c6.6,2.2,13.1-0.6,19.4-8.2c-2.6,0.4-7.3,1-12.8,1C46.7,74.4,41.5,73.7,39.2,73.3z"/>
	<g>
		<g>
			<path class="st0" d="M20.3,68c-0.3,0-0.7,0-1.1-0.1c-0.6-0.1-1.3-0.2-2.2-0.2c-0.6,0-1.2,0-1.6,0c-3,0.1-3.2-0.5-4.5-4.5l0-0.1
				c-1.3-4.1-0.7-8.6,1.5-11.6c1.3-1.8,3.2-2.9,5-2.9c1.6,0,3,0.7,4.1,2.1c2.1,2.6,2.8,7.2,1.8,12.1C22.5,66.8,22.1,68,20.3,68z
				 M17,66c1,0,1.9,0.1,2.5,0.2c0.9,0.1,1.1,0.1,1.2,0c0.3-0.4,0.7-1.8,1.1-3.7c0.9-4.4,0.3-8.5-1.5-10.7c-0.8-1-1.8-1.5-2.8-1.5
				c-1.3,0-2.6,0.8-3.7,2.2c-1.5,2-2.6,5.7-1.2,10.1l0,0.1c0.5,1.8,0.9,2.8,1.2,3.2c0.2,0.2,0.5,0.2,1.6,0.2
				C15.8,66.1,16.3,66,17,66z"/>
			<path class="st0" d="M7.7,85.1c-0.1,0-0.2,0-0.3,0c-3.2-1.2-5-2.9-5-4.8c0-1.8,1.5-3.4,4.4-4.5c0.4-0.2,0.9,0,1.1,0.5
				c0.2,0.4,0,0.9-0.5,1.1c-2.1,0.9-3.3,2-3.3,3c0,1.2,1.5,2.4,3.9,3.2c0.4,0.2,0.6,0.6,0.5,1C8.3,84.9,8,85.1,7.7,85.1z"/>
			<path class="st0" d="M25.9,84.7c-0.3,0-0.6-0.2-0.8-0.5c-0.2-0.4,0-0.9,0.5-1.1c1.7-0.7,1.7-1.4,1.7-2.7l0-0.3
				c0-1-0.2-1.9-2.6-2.8c-0.4-0.2-0.6-0.6-0.5-1.1c0.2-0.4,0.6-0.6,1.1-0.5c2.6,1,3.6,2.2,3.6,4.3l0,0.2c0,1.4,0,3.1-2.7,4.2
				C26.1,84.7,26,84.7,25.9,84.7z"/>
			<path class="st0" d="M7.6,93.2c-0.1,0-0.2,0-0.3,0c-3.4-1.2-3.8-3.5-3.8-5c0-1.6,0.2-3.2,3-4.4c0.4-0.2,0.9,0,1.1,0.4
				c0.2,0.4,0,0.9-0.4,1.1c-1.9,0.8-2,1.6-2,2.9c0,1.3,0.3,2.6,2.7,3.5c0.4,0.2,0.6,0.6,0.5,1.1C8.3,93,8,93.2,7.6,93.2z"/>
			<path class="st0" d="M24.6,92.7c-0.3,0-0.6-0.2-0.7-0.5c-0.2-0.4,0-0.9,0.4-1.1c1.4-0.7,3-2,3-2.8c0-1.6-0.1-2.7-2.3-3.4
				c-0.4-0.2-0.6-0.6-0.5-1c0.2-0.4,0.6-0.6,1-0.5c3.4,1.2,3.4,3.5,3.4,5c0,2.3-3.5,4.1-3.9,4.3C24.9,92.7,24.8,92.7,24.6,92.7z"/>
			<path class="st0" d="M16,100.5C9.7,100.5,5,98.1,5,95c0-0.9,0.4-2.1,2.2-3.3c0.4-0.2,0.9-0.1,1.1,0.2c0.2,0.4,0.1,0.9-0.2,1.1
				c-0.6,0.4-1.4,1.1-1.4,1.9c0,1.8,3.8,3.8,9.3,3.8s9.3-2,9.3-3.8c0-0.7-0.3-1.6-1.3-2.2c-0.4-0.2-0.5-0.8-0.2-1.1
				c0.2-0.4,0.8-0.5,1.1-0.2c1.3,0.8,2,2.2,2,3.6C26.9,98.1,22.2,100.5,16,100.5z"/>
			<path class="st0" d="M25.2,77c-0.3,0-0.6-0.2-0.8-0.5c-0.2-0.4,0-0.9,0.5-1.1c2.1-0.9,2.4-2.2,2.4-3.3c0-3.1-3.8-4.5-12.3-4.5
				C8.1,67.6,4,70.1,4,72.4c0,1.3,0.1,2.1,2.6,3c0.4,0.1,0.7,0.6,0.5,1c-0.1,0.4-0.6,0.7-1,0.5c-3.1-1.1-3.7-2.5-3.7-4.5
				c0-3.7,5.3-6.5,12.5-6.5c6.5,0,14,0.7,14,6.2c0,2.3-1.1,3.9-3.4,4.9C25.4,77,25.3,77,25.2,77z"/>
		</g>
		<path class="st0" d="M8.6,77.1c-0.4,0-0.7-0.2-0.8-0.6c-0.1-0.4,0.1-0.9,0.6-1c0.3-0.1,8.3-2.2,14.4-0.1c0.4,0.2,0.7,0.6,0.5,1
			c-0.2,0.4-0.6,0.6-1,0.5c-5.6-2-13.4,0.1-13.4,0.1C8.7,77.1,8.7,77.1,8.6,77.1z"/>
		<path class="st0" d="M17.2,85.9c-4.8,0-9.4-0.8-9.7-0.8c-0.4-0.1-0.7-0.5-0.7-0.9c0.1-0.4,0.5-0.7,0.9-0.7c0.1,0,9.1,1.6,15,0.3
			c0.4-0.1,0.9,0.2,1,0.6c0.1,0.4-0.2,0.9-0.6,1C21.3,85.7,19.2,85.9,17.2,85.9z"/>
		<path class="st0" d="M15.4,94c-3.7,0-6-0.7-6.1-0.8c-0.4-0.1-0.7-0.6-0.5-1c0.1-0.4,0.6-0.7,1-0.5c0.1,0,4.8,1.6,12,0
			c0.4-0.1,0.9,0.2,1,0.6c0.1,0.4-0.2,0.9-0.6,1C19.5,93.8,17.2,94,15.4,94z"/>
		<path class="st0" d="M17,63.4c-2.2,0-3.4-0.4-3.5-0.4c-0.4-0.1-0.7-0.6-0.5-1c0.1-0.4,0.6-0.7,1-0.5c0,0,2.5,0.7,6.6,0
			c0.4-0.1,0.9,0.2,1,0.7c0.1,0.4-0.2,0.9-0.7,1C19.4,63.4,18.1,63.4,17,63.4z"/>
	</g>
</g>
</svg>
