<?xml version="1.0" encoding="utf-8"?>
<!-- Generator: Adobe Illustrator 19.2.1, SVG Export Plug-In . SVG Version: 6.00 Build 0)  -->
<svg version="1.1" id="Layer_1" xmlns="http://www.w3.org/2000/svg" xmlns:xlink="http://www.w3.org/1999/xlink" x="0px" y="0px"
	 viewBox="0 0 103 103" style="enable-background:new 0 0 103 103;" xml:space="preserve">
<style type="text/css">
	.st0{opacity:0.8;}
	.st1{fill:#FFFFFF;}
	.st2{opacity:0.2;}
</style>
<g>
	<g>
		<g class="st0">
			<path class="st1" d="M76.4,26.6c6.4,6.4,10.3,15.2,10.3,24.9c0,9.6-3.9,18.4-10.2,24.7l0,0L51.3,51.3l24.9-24.6"/>
		</g>
		<g>
			<path class="st1" d="M51.5,15.4c19.9,0,36.1,16.2,36.1,36.1c0,19.9-16.2,36.1-36.1,36.1c-19.9,0-36.1-16.2-36.1-36.1
				C15.4,31.6,31.6,15.4,51.5,15.4z M51.5,85.9c19,0,34.4-15.4,34.4-34.4c0-19-15.4-34.4-34.4-34.4S17.1,32.5,17.1,51.5
				C17.1,70.5,32.5,85.9,51.5,85.9z"/>
		</g>
		<g>
			<path class="st1" d="M75.4,57.2c0.1,0,0.1,0,0.2,0c0.4,0.1,0.7,0.6,0.6,1c-2.4,8.6-9.2,15.5-17.8,17.9c-0.4,0.1-0.9-0.1-1-0.6
				c-0.1-0.4,0.1-0.9,0.6-1c8.1-2.2,14.5-8.7,16.7-16.7C74.7,57.5,75,57.2,75.4,57.2z"/>
		</g>
		<g>
			<path class="st1" d="M58,26.8c0.1,0,0.1,0,0.2,0c8.6,2.4,15.5,9.2,17.9,17.8c0.1,0.4-0.1,0.9-0.6,1c-0.4,0.1-0.9-0.1-1-0.6
				c-2.2-8.1-8.7-14.5-16.7-16.7c-0.4-0.1-0.7-0.6-0.6-1C57.4,27,57.7,26.8,58,26.8z"/>
		</g>
		<g>
			<path class="st1" d="M44,27.1c0.3,0,0.7,0.2,0.8,0.6c0.1,0.4-0.1,0.9-0.5,1c-7.8,2.5-13.7,8.6-15.8,16.5c-0.1,0.4-0.6,0.7-1,0.6
				c-0.4-0.1-0.7-0.6-0.6-1c2.3-8.4,8.6-15,16.9-17.6C43.8,27.1,43.9,27.1,44,27.1z"/>
		</g>
		<g>
			<path class="st1" d="M27.7,57.3c0.4,0,0.7,0.2,0.8,0.6c2.2,8.1,8.7,14.5,16.7,16.7c0.4,0.1,0.7,0.6,0.6,1c-0.1,0.4-0.6,0.7-1,0.6
				c-8.6-2.4-15.5-9.2-17.9-17.8c-0.1-0.4,0.1-0.9,0.6-1C27.5,57.3,27.6,57.3,27.7,57.3z"/>
		</g>
		<g>
			<path class="st1" d="M41.5,40.6c0.2,0,0.4,0.1,0.6,0.2l10,10.1c0.3,0.3,0.3,0.8,0,1.2L41.7,62.3c-0.2,0.2-0.5,0.3-0.8,0.2
				L2.1,52.3c-0.4-0.1-0.6-0.4-0.6-0.8c0-0.4,0.3-0.7,0.6-0.8l39.2-10.1C41.4,40.6,41.5,40.6,41.5,40.6z M50.3,51.5l-9.1-9.2
				L5.6,51.5l35.4,9.3L50.3,51.5z"/>
		</g>
		<g>
			<path class="st1" d="M51.5,50.7c0.2,0,0.4,0.1,0.6,0.2l10.2,10.3c0.2,0.2,0.3,0.5,0.2,0.8l-10.2,38.9c-0.1,0.4-0.4,0.6-0.8,0.6
				c0,0,0,0,0,0c-0.4,0-0.7-0.3-0.8-0.6L40.6,61.7c-0.1-0.3,0-0.6,0.2-0.8l10.1-10C51.1,50.8,51.3,50.7,51.5,50.7z M60.8,62.1
				l-9.3-9.4l-9.2,9.1l9.2,35.7L60.8,62.1z"/>
		</g>
		<g class="st2">
			<polygon class="st1" points="51.5,100.7 41.4,61.5 51.5,51.5 			"/>
		</g>
		<g>
			<path class="st1" d="M61.8,40.5c0.1,0,0.1,0,0.2,0l38.9,10.2c0.4,0.1,0.6,0.4,0.6,0.8s-0.3,0.7-0.6,0.8L61.7,62.4
				c-0.3,0.1-0.6,0-0.8-0.2l-10-10.1c-0.3-0.3-0.3-0.8,0-1.2l10.3-10.2C61.4,40.6,61.6,40.5,61.8,40.5z"/>
		</g>
		<g>
			<path class="st1" d="M51.5,1.5C51.5,1.5,51.5,1.5,51.5,1.5c0.4,0,0.7,0.3,0.8,0.6l10.1,39.2c0.1,0.3,0,0.6-0.2,0.8l-10.1,10
				c-0.3,0.3-0.8,0.3-1.2,0L40.7,41.7c-0.2-0.2-0.3-0.5-0.2-0.8L50.7,2.1C50.8,1.8,51.1,1.5,51.5,1.5z M60.7,41.3L51.5,5.6
				l-9.3,35.4l9.3,9.4L60.7,41.3z"/>
		</g>
		<g class="st2">
			<polygon class="st1" points="2.3,51.5 41.5,41.4 51.5,51.5 			"/>
		</g>
		<g class="st2">
			<polygon class="st1" points="51.5,2.3 61.6,41.5 51.5,51.5 			"/>
		</g>
	</g>
	<g>
		<g>
			<path class="st1" d="M56.7,1.8C56.7,1.8,56.8,1.8,56.7,1.8c23.5,2.5,42.2,21.3,44.5,44.7c0,0.5-0.3,0.9-0.7,0.9
				c-0.5,0-0.9-0.3-0.9-0.7C97.4,24,79.3,5.8,56.6,3.4c-0.5,0-0.8-0.5-0.7-0.9C55.9,2.1,56.3,1.8,56.7,1.8z"/>
		</g>
		<g>
			<path class="st1" d="M46.7,1.7c0.4,0,0.8,0.3,0.8,0.7c0,0.5-0.3,0.9-0.7,0.9C23.9,5.6,5.7,23.8,3.4,46.6c0,0.5-0.4,0.8-0.9,0.7
				c-0.5,0-0.8-0.4-0.7-0.9C4.2,22.8,23,4,46.7,1.7C46.6,1.7,46.6,1.7,46.7,1.7z"/>
		</g>
		<g>
			<path class="st1" d="M2.6,55.7c0.4,0,0.8,0.3,0.8,0.7c2.3,22.9,20.6,41,43.5,43.2c0.5,0,0.8,0.4,0.7,0.9c0,0.5-0.4,0.8-0.9,0.7
				C23.1,99,4.2,80.2,1.8,56.6C1.7,56.2,2,55.8,2.6,55.7C2.5,55.7,2.5,55.7,2.6,55.7z"/>
		</g>
		<g>
			<path class="st1" d="M100.4,55.6C100.5,55.6,100.5,55.6,100.4,55.6c0.5,0,0.9,0.5,0.8,0.9C98.9,80,80.2,98.8,56.7,101.2
				c-0.4,0-0.9-0.3-0.9-0.7c0-0.5,0.3-0.9,0.7-0.9c22.7-2.3,40.9-20.5,43.1-43.3C99.7,55.9,100,55.6,100.4,55.6z"/>
		</g>
	</g>
</g>
</svg>
