<?xml version="1.0" encoding="utf-8"?>
<!-- Generator: Adobe Illustrator 19.2.1, SVG Export Plug-In . SVG Version: 6.00 Build 0)  -->
<svg version="1.1" id="Layer_1" xmlns="http://www.w3.org/2000/svg" xmlns:xlink="http://www.w3.org/1999/xlink" x="0px" y="0px"
	 viewBox="0 0 610 290" style="enable-background:new 0 0 610 290;" xml:space="preserve">
<style type="text/css">
	.st0{fill:url(#SVGID_1_);}
	.st1{fill:#B8BABC;}
	.st2{fill:#858585;}
	.st3{font-family:'AvantGarde-Book';}
	.st4{font-size:20px;}
	.st5{fill:#FFFFFF;stroke:#F9846B;stroke-miterlimit:10;}
	.st6{opacity:0.5;fill:url(#SVGID_2_);stroke:#F9846B;stroke-miterlimit:10;enable-background:new    ;}
	.st7{fill:#F56157;}
	.st8{fill:none;stroke:#8096A3;stroke-width:10;stroke-miterlimit:10;}
	.st9{fill:#8096A3;}
	.st10{fill:#FFFFFF;}
	.st11{opacity:0.5;fill:url(#SVGID_3_);enable-background:new    ;}
	.st12{opacity:0.5;fill:#014776;enable-background:new    ;}
</style>
<g>
	<g>
		<g>
			
				<linearGradient id="SVGID_1_" gradientUnits="userSpaceOnUse" x1="5.1" y1="86.6" x2="111.5" y2="86.6" gradientTransform="matrix(1 0 0 -1 0 292)">
				<stop  offset="0" style="stop-color:#EDEEEE"/>
				<stop  offset="1" style="stop-color:#CDCFD0"/>
			</linearGradient>
			<path class="st0" d="M58.3,152.2c-29.3,0-53.2,23.9-53.2,53.2s23.9,53.2,53.2,53.2s53.2-23.9,53.2-53.2S87.6,152.2,58.3,152.2z"
				/>
			<g>
				<path class="st1" d="M58.3,260.4c-30.3,0-55-24.7-55-55s24.7-55,55-55s55,24.7,55,55C113.3,235.8,88.6,260.4,58.3,260.4z
					 M58.3,152.2c-29.3,0-53.2,23.9-53.2,53.2s23.9,53.2,53.2,53.2s53.2-23.9,53.2-53.2S87.6,152.2,58.3,152.2z"/>
				<path class="st1" d="M71.5,192.2H45.1c-0.3,0-0.6-0.1-0.7-0.4c-0.2-0.2-0.2-0.5-0.1-0.8l5.1-14.2c0.1-0.4,0.5-0.6,0.8-0.6h16.2
					c0.4,0,0.7,0.2,0.8,0.6l5.1,14.2c0.1,0.3,0.1,0.6-0.1,0.8C72.1,192.1,71.8,192.2,71.5,192.2z M46.4,190.4h23.9L65.8,178h-15
					L46.4,190.4z"/>
				<g>
					<path class="st1" d="M86.5,210.5H60.1c-0.3,0-0.6-0.1-0.7-0.4c-0.2-0.2-0.2-0.5-0.1-0.8l5.1-14.2c0.1-0.4,0.5-0.6,0.8-0.6h16.2
						c0.4,0,0.7,0.2,0.8,0.6l5.1,14.2c0.1,0.3,0.1,0.6-0.1,0.8C87.1,210.3,86.8,210.5,86.5,210.5z M61.4,208.7h23.9l-4.5-12.4H65.9
						L61.4,208.7z"/>
					<path class="st1" d="M56.5,210.5H30.1c-0.3,0-0.6-0.1-0.7-0.4c-0.2-0.2-0.2-0.5-0.1-0.8l5.1-14.2c0.1-0.4,0.5-0.6,0.8-0.6h16.2
						c0.4,0,0.7,0.2,0.8,0.6l5.1,14.2c0.1,0.3,0.1,0.6-0.1,0.8C57.1,210.3,56.8,210.5,56.5,210.5z M31.3,208.7h23.9l-4.5-12.4H35.8
						L31.3,208.7z"/>
				</g>
				<g>
					<path class="st1" d="M101.6,228.7H75.2c-0.3,0-0.6-0.1-0.7-0.4c-0.2-0.2-0.2-0.5-0.1-0.8l5.1-14.2c0.1-0.4,0.5-0.6,0.8-0.6
						h16.2c0.4,0,0.7,0.2,0.8,0.6l5.1,14.2c0.1,0.3,0.1,0.6-0.1,0.8C102.2,228.6,101.9,228.7,101.6,228.7z M76.4,226.9h23.9
						l-4.5-12.4H80.9L76.4,226.9z"/>
					<path class="st1" d="M71.5,228.7H45.1c-0.3,0-0.6-0.1-0.7-0.4c-0.2-0.2-0.2-0.5-0.1-0.8l5.1-14.2c0.1-0.4,0.5-0.6,0.8-0.6h16.2
						c0.4,0,0.7,0.2,0.8,0.6l5.1,14.2c0.1,0.3,0.1,0.6-0.1,0.8C72.1,228.6,71.8,228.7,71.5,228.7z M46.4,226.9h23.9l-4.5-12.4h-15
						L46.4,226.9z"/>
					<path class="st1" d="M41.5,228.7H15c-0.3,0-0.6-0.1-0.7-0.4c-0.2-0.2-0.2-0.5-0.1-0.8l5.1-14.2c0.1-0.4,0.5-0.6,0.8-0.6h16.2
						c0.4,0,0.7,0.2,0.8,0.6l5.1,14.2c0.1,0.3,0.1,0.6-0.1,0.8C42,228.6,41.7,228.7,41.5,228.7z M16.3,226.9h23.9l-4.5-12.4H20.8
						L16.3,226.9z"/>
				</g>
			</g>
			<path class="st1" d="M45.1,192.2c-0.3,0-0.5-0.1-0.7-0.4c-0.3-0.4-0.2-1,0.2-1.3l9.4-7.1c0.4-0.3,1-0.2,1.3,0.2s0.2,1-0.2,1.3
				l-9.4,7.1C45.5,192.2,45.3,192.2,45.1,192.2z"/>
			<path class="st1" d="M49.6,192.2c-0.3,0-0.5-0.1-0.7-0.4c-0.3-0.4-0.2-1,0.2-1.3l4.9-3.7c0.4-0.3,1-0.2,1.3,0.2s0.2,1-0.2,1.3
				l-4.9,3.7C49.9,192.2,49.8,192.2,49.6,192.2z"/>
			<path class="st1" d="M45.1,199.9c-0.3,0-0.5-0.1-0.7-0.4c-0.3-0.4-0.2-1,0.2-1.3l4.6-3.5c0.4-0.3,1-0.2,1.3,0.2s0.2,1-0.2,1.3
				l-4.6,3.5C45.5,199.8,45.3,199.9,45.1,199.9z"/>
			<path class="st1" d="M49.6,199.9c-0.3,0-0.5-0.1-0.7-0.4c-0.3-0.4-0.2-1,0.2-1.3l2.4-1.8c0.4-0.3,1-0.2,1.3,0.2s0.2,1-0.2,1.3
				l-2.4,1.8C49.9,199.8,49.8,199.9,49.6,199.9z"/>
			<path class="st1" d="M15,228.7c-0.3,0-0.5-0.1-0.7-0.4c-0.3-0.4-0.2-1,0.2-1.3l9.4-7.1c0.4-0.3,1-0.2,1.3,0.2s0.2,1-0.2,1.3
				l-9.4,7.1C15.4,228.7,15.2,228.7,15,228.7z"/>
			<path class="st1" d="M19.5,228.7c-0.3,0-0.5-0.1-0.7-0.4c-0.3-0.4-0.2-1,0.2-1.3l4.9-3.7c0.4-0.3,1-0.2,1.3,0.2s0.2,1-0.2,1.3
				l-4.9,3.7C19.9,228.7,19.7,228.7,19.5,228.7z"/>
			<path class="st1" d="M70.5,205.7c-0.3,0-0.5-0.1-0.7-0.4c-0.3-0.4-0.2-1,0.2-1.3l9.4-7.1c0.4-0.3,1-0.2,1.3,0.2s0.2,1-0.2,1.3
				l-9.4,7.1C70.8,205.7,70.6,205.7,70.5,205.7z"/>
			<path class="st1" d="M74.9,205.7c-0.3,0-0.5-0.1-0.7-0.4c-0.3-0.4-0.2-1,0.2-1.3l4.9-3.7c0.4-0.3,1-0.2,1.3,0.2s0.2,1-0.2,1.3
				l-4.9,3.7C75.3,205.7,75.1,205.7,74.9,205.7z"/>
			<path class="st1" d="M53.6,224.1c-0.3,0-0.5-0.1-0.7-0.4c-0.3-0.4-0.2-1,0.2-1.3l9.4-7.1c0.4-0.3,1-0.2,1.3,0.2s0.2,1-0.2,1.3
				l-9.4,7.1C54,224.1,53.8,224.1,53.6,224.1z"/>
			<path class="st1" d="M58.1,224.1c-0.3,0-0.5-0.1-0.7-0.4c-0.3-0.4-0.2-1,0.2-1.3l4.9-3.7c0.4-0.3,1-0.2,1.3,0.2s0.2,1-0.2,1.3
				l-4.9,3.7C58.5,224.1,58.3,224.1,58.1,224.1z"/>
			<path class="st1" d="M79.9,228.7c-0.3,0-0.5-0.1-0.7-0.4c-0.3-0.4-0.2-1,0.2-1.3l9.4-7.1c0.4-0.3,1-0.2,1.3,0.2s0.2,1-0.2,1.3
				l-9.4,7.1C80.2,228.7,80,228.7,79.9,228.7z"/>
			<path class="st1" d="M84.3,228.7c-0.3,0-0.5-0.1-0.7-0.4c-0.3-0.4-0.2-1,0.2-1.3l4.9-3.7c0.4-0.3,1-0.2,1.3,0.2s0.2,1-0.2,1.3
				l-4.9,3.7C84.7,228.7,84.5,228.7,84.3,228.7z"/>
		</g>
		<g>
			<text transform="matrix(1 0 0 1 30.3932 281.5157)" class="st2 st3 st4">Metal</text>
		</g>
	</g>
	<g>
		<g>
			<path class="st5" d="M308.5,3.9c-29.3,0-53.2,23.9-53.2,53.2s23.9,53.2,53.2,53.2s53.2-23.9,53.2-53.2S337.8,3.9,308.5,3.9z"/>
			
				<linearGradient id="SVGID_2_" gradientUnits="userSpaceOnUse" x1="255.3" y1="234.9" x2="361.7" y2="234.9" gradientTransform="matrix(1 0 0 -1 0 292)">
				<stop  offset="0" style="stop-color:#F59F8E"/>
				<stop  offset="1" style="stop-color:#F56157"/>
			</linearGradient>
			<path class="st6" d="M308.5,3.9c-29.3,0-53.2,23.9-53.2,53.2s23.9,53.2,53.2,53.2s53.2-23.9,53.2-53.2S337.8,3.9,308.5,3.9z"/>
			<path class="st7" d="M308.5,112.1c-30.3,0-55-24.7-55-55s24.7-55,55-55s55,24.7,55,55S338.8,112.1,308.5,112.1z M308.5,3.9
				c-29.3,0-53.2,23.9-53.2,53.2s23.9,53.2,53.2,53.2s53.2-23.9,53.2-53.2S337.8,3.9,308.5,3.9z"/>
			<path class="st7" d="M286.7,95.9c-0.2,0-0.4-0.1-0.6-0.2c-5.3-4.5-8.3-11-8.3-17.9c0-11.2,5.7-19.5,15.3-22.3
				c8.3-3.4,13.6-11.3,13.6-20.2c0-8.1-4.4-15.4-11.5-19.2c-0.4-0.2-0.6-0.8-0.4-1.2s0.8-0.6,1.2-0.4c7.7,4.1,12.5,12.1,12.5,20.8
				c0,9.7-5.8,18.3-14.8,21.9h-0.1c-8.8,2.6-14.1,10.3-14.1,20.6c0,6.4,2.8,12.4,7.6,16.6c0.4,0.3,0.4,0.9,0.1,1.3
				C287.2,95.8,287,95.9,286.7,95.9z"/>
			<path class="st7" d="M277.5,82.3c-0.2,0-0.5-0.1-0.6-0.3c-4.5-4.5-7-10.4-7-16.8c0-7.3,5-15,9.6-19.1
				c7.8-6.9,11.8-16.8,11.1-27.2c0-0.4,0.2-0.7,0.5-0.9c0.4-0.2,0.8-0.1,1,0.2c1.9,2.1,3.5,4.3,5,6.6c0.3,0.4,0.1,1-0.3,1.2
				c-0.4,0.3-1,0.1-1.2-0.3c-0.9-1.5-2-3-3.1-4.4c-0.1,9.9-4.3,19.3-11.8,26c-4.3,3.8-8.9,10.9-8.9,17.7c0,5.9,2.3,11.4,6.5,15.5
				c0.4,0.3,0.4,0.9,0,1.3C278,82.2,277.8,82.3,277.5,82.3z"/>
			<path class="st7" d="M323.9,101.9c-0.2,0-0.4-0.1-0.6-0.2c-0.4-0.3-0.4-0.9-0.1-1.3c6-7.4,9.5-16.7,9.5-24.8
				c0-11.6-5.3-22.6-14.2-29.8c0.3,2.1,0.5,4.2,0.5,6.3c0,9.5-3.4,18.7-9.5,26c-0.3,0.4-0.9,0.4-1.3,0.1s-0.4-0.9-0.1-1.3
				c5.9-6.9,9.1-15.7,9.1-24.8c0-2.8-0.3-5.5-0.9-8.2c-0.1-0.4,0.1-0.7,0.4-0.9s0.7-0.2,1,0c10.5,7.5,16.8,19.7,16.8,32.7
				c0,8.7-3.6,18.1-9.9,26C324.4,101.8,324.1,101.9,323.9,101.9z"/>
			<path class="st7" d="M312.5,105.6c-12,0-23.2-5.3-30.9-14.5c-0.3-0.4-0.3-1,0.1-1.3s1-0.3,1.3,0.1c7.3,8.8,18.1,13.9,29.5,13.9
				c21.1,0,38.3-17.2,38.3-38.3c0-14.9-8.8-28.6-22.4-34.9c-0.5-0.2-0.7-0.7-0.4-1.2c0.2-0.5,0.7-0.7,1.2-0.4
				c14.2,6.5,23.4,20.8,23.4,36.5C352.6,87.6,334.6,105.6,312.5,105.6z"/>
			<g>
				<path class="st7" d="M314.5,105.6c-8.1,0-14.7-6.6-14.7-14.7c0-2.7,0.8-5.4,2.2-7.7c0.9-1.4,2-2.7,3.2-3.7
					c6.9-5.5,12.1-14.2,14-23.4c0.1-0.3,0.3-0.6,0.7-0.7c0.3-0.1,0.7,0,0.9,0.3c6.4,7.3,9.9,16.7,9.9,26.4c0,4-0.6,8-1.8,11.9
					c0,0.1-0.8,2.8-1.6,4.4l0,0c-0.4,0.8-1.1,1.8-1.8,2.5C322.6,103.8,318.6,105.6,314.5,105.6z M320.5,58.2
					c-2.2,8.9-7.4,17.2-14.2,22.6c-1.1,0.9-2,2-2.8,3.2c-1.3,2-1.9,4.4-1.9,6.8c0,7.1,5.8,12.9,12.9,12.9c3.6,0,7.1-1.6,9.6-4.3
					c0.5-0.6,1.2-1.5,1.5-2.1l0,0c0.8-1.4,1.5-4,1.5-4c1.1-3.7,1.7-7.5,1.7-11.4C328.8,73.3,325.9,65,320.5,58.2z"/>
			</g>
			<path class="st7" d="M303.1,101.5c-7.6,0-14.9-3.2-20.1-8.7c-4.8-5.1-7.4-11.8-7.4-18.8c0-7.9,3.2-15.3,8.8-20.4
				c9.9-10.1,13.5-24.7,9.3-38.2c-0.1-0.3,0-0.6,0.1-0.8c0.2-0.2,0.4-0.4,0.7-0.4c13.5,0,28.4,6.8,35.4,16.1
				c9.2,7.7,14.5,18.9,14.5,30.9c0,11.1-4.7,21.8-12.8,29.4c-0.4,0.3-0.9,0.3-1.3,0c-0.3-0.4-0.3-0.9,0-1.3
				c7.8-7.2,12.2-17.4,12.2-28c0-11.5-5.1-22.3-13.9-29.6c-0.1,0-0.1-0.1-0.1-0.2c-6.5-8.7-20.2-15-32.8-15.4
				c3.8,13.8,0,28.5-10.1,38.7l-0.1,0.1c-5.2,4.8-8.2,11.7-8.2,19.1c0,6.5,2.5,12.8,6.9,17.6c4.9,5.2,11.6,8.1,18.7,8.1
				c0.5,0,0.9,0.4,0.9,0.9S303.6,101.5,303.1,101.5z"/>
		</g>
		<g>
			<text transform="matrix(1 0 0 1 292.102 133.2184)" class="st2 st3 st4">Fire</text>
		</g>
	</g>
	<g>
		<g>
			<path class="st8" d="M237.8,55.1C175,66,120.9,91.9,83.8,127"/>
			<g>
				<polygon class="st9" points="81.9,113.3 86.5,124.4 97.8,128.8 71.4,139.9 				"/>
			</g>
		</g>
	</g>
	<g>
		<g>
			<path class="st8" d="M534.9,138.8c-33-36.7-83.6-65-143.6-79.2"/>
			<g>
				<polygon class="st9" points="401.9,50.6 394.9,60.5 397.2,72.4 373.8,55.9 				"/>
			</g>
		</g>
	</g>
	<g>
		<g>
			<path class="st10" d="M552.4,152.1c-29.3,0-53.2,23.9-53.2,53.2s23.9,53.2,53.2,53.2s53.2-23.9,53.2-53.2
				S581.8,152.1,552.4,152.1z"/>
			
				<linearGradient id="SVGID_3_" gradientUnits="userSpaceOnUse" x1="499.2" y1="86.7" x2="605.6" y2="86.7" gradientTransform="matrix(1 0 0 -1 0 292)">
				<stop  offset="0" style="stop-color:#8BD3CA"/>
				<stop  offset="1" style="stop-color:#8199A6"/>
			</linearGradient>
			<path class="st11" d="M552.4,152.1c-29.3,0-53.2,23.9-53.2,53.2s23.9,53.2,53.2,53.2s53.2-23.9,53.2-53.2
				S581.8,152.1,552.4,152.1z"/>
			<path class="st12" d="M577.8,220.8c-0.5,0-0.9-0.4-0.9-0.9s0.4-0.9,0.9-0.9c12.1,0,21.9-9.8,21.9-21.9c0-7.7-4.2-15-10.9-18.9
				c-4.9-3.3-10.6-5-16.5-5c-6.1,0-12,1.9-17,5.4c-0.4,0.3-1,0.2-1.3-0.2s-0.2-1,0.2-1.3c5.3-3.7,11.6-5.7,18.1-5.7
				c6.2,0,12.3,1.8,17.4,5.2c7.2,4.2,11.7,12,11.7,20.4C601.4,210.1,590.8,220.8,577.8,220.8z"/>
			<g>
				<path class="st12" d="M552.4,260.3c-30.3,0-55-24.7-55-55s24.7-55,55-55s55,24.7,55,55S582.8,260.3,552.4,260.3z M552.4,152.1
					c-29.3,0-53.2,23.9-53.2,53.2s23.9,53.2,53.2,53.2s53.2-23.9,53.2-53.2S581.8,152.1,552.4,152.1z"/>
				<path class="st12" d="M545.8,195.3c-0.1,0-0.1,0-0.2,0c-0.5-0.1-0.8-0.6-0.7-1.1c3.4-15.8,17.6-27.2,33.7-27.2
					c6,0,12,1.6,17.2,4.6c0.4,0.2,0.6,0.8,0.3,1.2c-0.2,0.4-0.8,0.6-1.2,0.3c-4.9-2.8-10.6-4.3-16.3-4.3c-15.3,0-28.7,10.8-32,25.8
					C546.6,195,546.2,195.3,545.8,195.3z"/>
				<path class="st12" d="M561.9,213c-0.4,0-0.8-0.3-0.9-0.7c-0.1-0.5,0.2-1,0.7-1.1c6.8-1.5,11.8-7.7,11.8-14.7
					c0-6.3-4-12-9.8-14.2c-0.5-0.2-0.7-0.7-0.5-1.2s0.7-0.7,1.2-0.5c6.6,2.4,11,8.8,11,15.9c0,7.8-5.5,14.8-13.2,16.5
					C562,213,561.9,213,561.9,213z"/>
				<path class="st12" d="M546.5,204.6c-0.5,0-0.9-0.4-0.9-0.9c0-2.7,0.4-5.3,1.3-7.9c3.3-9.5,12.3-15.9,22.4-15.9
					c0.5,0,0.9,0.4,0.9,0.9s-0.4,0.9-0.9,0.9c-9.3,0-17.6,5.9-20.7,14.7c-0.8,2.3-1.2,4.8-1.2,7.3
					C547.4,204.2,547,204.6,546.5,204.6z"/>
				<path class="st12" d="M502.6,227.3c-0.2,0-0.4-0.1-0.5-0.2c-0.4-0.3-0.5-0.9-0.2-1.3c9-12.3,23.5-19.7,38.7-19.7
					c10.8,0,20.9,3.5,29.4,10.1c0.4,0.3,0.5,0.9,0.2,1.3c-0.3,0.4-0.9,0.5-1.3,0.2c-8.1-6.3-17.9-9.7-28.3-9.7
					c-14.7,0-28.6,7.1-37.2,18.9C503.1,227.1,502.9,227.3,502.6,227.3z"/>
				<path class="st12" d="M515.4,245.6c-0.1,0-0.1,0-0.2,0c-0.5-0.1-0.8-0.6-0.7-1.1c4.4-18.3,20.6-31.1,39.5-31.1
					c6.2,0,13.1,1.4,18.1,3.6c0.5,0.2,0.7,0.7,0.4,1.2c-0.2,0.5-0.7,0.7-1.2,0.4c-4.7-2.2-11.4-3.5-17.3-3.5
					c-18,0-33.5,12.2-37.7,29.7C516.2,245.4,515.8,245.6,515.4,245.6z"/>
				<path class="st12" d="M546.3,260c-0.4,0-0.7-0.2-0.8-0.6c-1.3-3.4-2-7.1-2-10.8c0-16.4,13.4-29.8,29.8-29.8
					c2.2,0,4.4,0.2,6.5,0.7c0.5,0.1,0.8,0.6,0.7,1.1s-0.6,0.8-1.1,0.7c-2-0.4-4-0.7-6.1-0.7c-15.4,0-28,12.6-28,28
					c0,3.5,0.6,6.9,1.9,10.1c0.2,0.5,0,1-0.5,1.2C546.5,259.9,546.4,260,546.3,260z"/>
				<path class="st12" d="M570,214.1c-2.4,0-4.8-0.5-6.9-1.5c-0.5-0.2-1.1-0.5-1.6-0.8c-0.4-0.3-0.6-0.8-0.3-1.2s0.8-0.6,1.2-0.3
					c0.5,0.3,0.9,0.5,1.4,0.7c2,0.9,4,1.3,6.2,1.3c8.2,0,15.1-7.1,15.1-15.6c0-8.3-6.8-15.1-15.1-15.1c-0.5,0-0.9-0.4-0.9-0.9
					s0.4-0.9,0.9-0.9c9.3,0,16.9,7.6,16.9,16.9C586.8,206.2,579.1,214.1,570,214.1z"/>
				<path class="st12" d="M581.2,252L581.2,252c-8.1-1.2-14.1-8.2-14.1-16.3c0-9.1,7.4-16.5,16.5-16.5c0.5,0,0.9,0.4,0.9,0.9
					s-0.4,0.9-0.9,0.9c-8.1,0-14.7,6.6-14.7,14.7c0,7.2,5.4,13.4,12.5,14.5c0.5,0.1,0.8,0.5,0.8,1C582.1,251.7,581.7,252,581.2,252z
					"/>
				<path class="st12" d="M582.4,221c-6.7,0-13.1-2.4-18-6.9c-9.9-9-19-10.8-31.3-10.8s-24,4.5-33.1,12.8c-0.4,0.3-0.9,0.3-1.3-0.1
					c-0.3-0.4-0.3-0.9,0.1-1.3c9.4-8.5,21.6-13.2,34.3-13.2c12.8,0,22.2,1.8,32.6,11.3c4.6,4.1,10.6,6.4,16.8,6.4
					c10.3,0,19.4-6.1,23.3-15.6c0.2-0.5,0.7-0.7,1.2-0.5s0.7,0.7,0.5,1.2C603.2,214.5,593.4,221,582.4,221z"/>
			</g>
		</g>
		<g>
			<text transform="matrix(1 0 0 1 523.1174 281.3847)" class="st2 st3 st4">Water</text>
		</g>
	</g>
</g>
<g>
	<text transform="matrix(1 0 0 1 381.1367 42.0923)" class="st2 st3 st4">Water extinguishes Fire</text>
</g>
<g>
	<text transform="matrix(1 0 0 1 30.7996 42.0923)" class="st2 st3 st4">Fire melts Metal</text>
</g>
</svg>
