<?xml version="1.0" encoding="utf-8"?>
<!-- Generator: Adobe Illustrator 19.2.1, SVG Export Plug-In . SVG Version: 6.00 Build 0)  -->
<svg version="1.1" id="Layer_1" xmlns="http://www.w3.org/2000/svg" xmlns:xlink="http://www.w3.org/1999/xlink" x="0px" y="0px"
	 viewBox="0 0 610 290" style="enable-background:new 0 0 610 290;" xml:space="preserve">
<style type="text/css">
	.st0{fill:#858585;}
	.st1{font-family:'AvantGarde-Book';}
	.st2{font-size:20px;}
	.st3{fill:#FFFFFF;}
	.st4{opacity:0.5;fill:url(#SVGID_1_);enable-background:new    ;}
	.st5{fill:#F8BB5B;}
	.st6{fill:#FFFFFF;stroke:#F9846B;stroke-miterlimit:10;}
	.st7{opacity:0.5;fill:url(#SVGID_2_);stroke:#F9846B;stroke-miterlimit:10;enable-background:new    ;}
	.st8{fill:#F56157;}
	.st9{opacity:0.5;fill:url(#SVGID_3_);enable-background:new    ;}
	.st10{fill:#6E9981;}
	.st11{fill:none;stroke:#8BD3CA;stroke-width:10;stroke-miterlimit:10;}
	.st12{fill:#8BD3CA;}
</style>
<g>
	<g>
		<g>
			<text transform="matrix(1 0 0 1 528.6641 282.7346)" class="st0 st1 st2">Earth</text>
		</g>
		<g>
			<path class="st3" d="M553.4,153.5c-29.3,0-53.2,23.9-53.2,53.2s23.9,53.2,53.2,53.2s53.2-23.9,53.2-53.2S582.7,153.5,553.4,153.5
				z"/>
			
				<linearGradient id="SVGID_1_" gradientUnits="userSpaceOnUse" x1="500.2" y1="364.7" x2="606.6" y2="364.7" gradientTransform="matrix(1 0 0 1 0 -158)">
				<stop  offset="0" style="stop-color:#FFFAC2"/>
				<stop  offset="1" style="stop-color:#F8BB5B"/>
			</linearGradient>
			<path class="st4" d="M553.4,153.5c-29.3,0-53.2,23.9-53.2,53.2s23.9,53.2,53.2,53.2s53.2-23.9,53.2-53.2S582.7,153.5,553.4,153.5
				z"/>
			<path class="st5" d="M553.4,261.7c-30.3,0-55-24.7-55-55s24.7-55,55-55s55,24.7,55,55S583.7,261.7,553.4,261.7z M553.4,153.5
				c-29.3,0-53.2,23.9-53.2,53.2s23.9,53.2,53.2,53.2s53.2-23.9,53.2-53.2S582.7,153.5,553.4,153.5z"/>
			<path class="st5" d="M566.3,196.8c-12.2,0-24.1-3.4-34.4-9.9c-3.5-2.2-7.4-3.4-11.3-3.6c-0.3,0-0.6,0-1,0
				c-6.5,0-12.8,2.8-17.2,7.6c-0.3,0.4-0.9,0.4-1.3,0.1c-0.4-0.3-0.4-0.9-0.1-1.3c4.8-5.2,11.5-8.2,18.5-8.2c0.4,0,0.7,0,1,0
				c4.2,0.2,8.5,1.5,12.2,3.9c10,6.3,21.6,9.6,33.4,9.6c12.9,0,25.3-3.9,35.9-11.2c0.4-0.3,1-0.2,1.3,0.2s0.2,1-0.2,1.3
				C592.4,192.8,579.6,196.8,566.3,196.8z"/>
			<path class="st5" d="M552.1,195.3c-0.4,0-0.7-0.2-0.8-0.3c-0.6-0.4-0.5-1.2-0.5-1.3c0,0,0,0,0-0.1c1.2-9.7-3.5-10.7-7.2-11.6
				c-0.3-0.1-0.6-0.1-0.9-0.2c-0.5-0.1-1.1-0.3-1.7-0.4c-3.4-0.8-7.6-1.8-9.9-4.2c-0.3-0.3-3.1-3.5-0.2-11.5c0.1-0.4,0.5-0.6,1-0.6
				c0.4,0,0.7,0.4,0.8,0.8c0,0.1,0.5,2.7,5.2,3.6c0.7,0.1,1.4,0.2,2.2,0.4c5,0.7,11.2,1.7,12.3,11.2c0.9,8,1,10.5,0.9,13.3
				c0,0.4-0.3,0.7-0.7,0.8C552.3,195.3,552.2,195.3,552.1,195.3z M531.8,168.4c-0.6,2.5-1,6,0.4,7.5c1.9,2,5.9,3,9,3.7
				c0.6,0.1,1.2,0.3,1.7,0.4c0.3,0.1,0.5,0.1,0.8,0.2c2.1,0.5,4.9,1.1,6.8,3.6c-0.1-0.8-0.2-1.6-0.3-2.6c-1-8.1-5.7-8.8-10.7-9.6
				c-0.8-0.1-1.5-0.2-2.3-0.4C534.4,170.8,532.8,169.6,531.8,168.4z"/>
			<path class="st5" d="M552,187.9c-0.5,0-0.9-0.4-0.9-0.8v-0.4c-0.6-7.2-1-11.2,6.7-16.1l0.4-0.2c6.8-4.3,9.6-6.1,9.6-8.5
				c0-0.7-0.2-1.2-0.5-1.5c-0.7-0.5-1.9-0.5-2.2-0.4c-0.5,0.1-1-0.2-1.1-0.7s0.2-1,0.7-1.1c0.2,0,2.3-0.4,3.7,0.8
				c0.5,0.5,1.2,1.3,1.2,2.9c-0.1,3.4-3.1,5.3-10.4,10l-0.4,0.2c-6.7,4.3-6.4,7.2-5.8,14.4v0.4C552.9,187.4,552.5,187.8,552,187.9
				L552,187.9z"/>
			<path class="st5" d="M553.4,195.5c-0.5,0-0.9-0.4-0.9-0.9c-0.1-7.7,0.8-11.7,3.2-14.3c1.2-1.3,3.2-2.1,5.5-3.2
				c3.2-1.4,6.8-3,8.3-5.7c2.5-4.5-2-10.7-2.1-10.7c-0.3-0.4-0.2-1,0.2-1.3s1-0.2,1.3,0.2c0.2,0.3,5.3,7.2,2.2,12.7
				c-1.9,3.3-5.7,5-9.2,6.5c-2.1,0.9-4,1.8-4.9,2.8c-1.7,1.8-2.8,4.7-2.7,13C554.3,195.1,553.9,195.5,553.4,195.5L553.4,195.5z"/>
			<path class="st5" d="M564.3,168.2c-0.2,0-0.4-0.1-0.6-0.2c-0.4-0.3-0.4-0.9-0.1-1.3c1.5-1.8,2.1-3.4,1.9-4.7
				c-0.2-1.4-1.3-2.1-1.3-2.1c-0.4-0.3-0.5-0.8-0.3-1.2c0.3-0.4,0.8-0.6,1.2-0.3c0.1,0,1.8,1.1,2.2,3.4c0.3,1.9-0.5,4-2.3,6.2
				C564.8,168.1,564.6,168.2,564.3,168.2z"/>
			<path class="st5" d="M515.2,209c-0.2,0-0.3,0-0.5-0.1l-12.3-8c-0.4-0.3-0.5-0.8-0.3-1.2l7.4-12c0.1-0.2,0.4-0.4,0.6-0.4l8.1-1.2
				c0.3,0,0.6,0.1,0.8,0.3l8.6,9.3c0.2,0.3,0.3,0.7,0.2,1l-4.3,9.5c-0.1,0.2-0.3,0.4-0.5,0.5l-7.4,2.4
				C515.4,209,515.3,209,515.2,209z M504.1,199.9l11.2,7.3l6.7-2.1l3.9-8.6l-7.8-8.5l-7.2,1.1L504.1,199.9z"/>
			<path class="st5" d="M549.4,214.9c-0.2,0-0.3,0-0.5-0.1l-9.5-5.9c-0.1-0.1-0.2-0.1-0.3-0.2l-6.3-8.9c-0.1-0.2-0.2-0.4-0.2-0.7
				l1.1-6.8c0-0.3,0.2-0.5,0.4-0.6s0.5-0.2,0.7-0.1l11.1,3.4c0.1,0,0.2,0.1,0.3,0.2l7.5,5.9c0.3,0.2,0.4,0.6,0.3,1l-3.9,12.2
				c-0.1,0.3-0.3,0.5-0.5,0.6C549.7,214.9,549.6,214.9,549.4,214.9z M540.6,207.5l8.3,5.2l3.4-10.5l-6.9-5.4l-10-3l-0.8,5.4
				L540.6,207.5z"/>
			<path class="st5" d="M560.1,224.7c-0.3,0-0.5-0.1-0.7-0.3l-6.7-7.5c-0.2-0.2-0.3-0.5-0.2-0.8l1.5-8.1c0-0.2,0.1-0.4,0.3-0.5
				l8.3-8.1c0.3-0.2,0.6-0.3,1-0.2l6.1,2.3c0.1,0,0.2,0.1,0.3,0.2l6.6,7.1c0.2,0.2,0.3,0.6,0.2,0.9l-3.9,12.2
				c-0.1,0.3-0.4,0.6-0.7,0.6l-11.9,2.1C560.2,224.7,560.1,224.7,560.1,224.7z M554.3,216l6.1,6.8l10.9-1.9l3.6-11.2l-6.1-6.6
				l-5.4-2l-7.7,7.5L554.3,216z"/>
			<path class="st5" d="M599.3,211.5c-0.2,0-0.5-0.1-0.6-0.2l-7.8-7.4c-0.2-0.2-0.3-0.5-0.3-0.8l2.1-9.9c0.1-0.2,0.2-0.5,0.4-0.6
				l9.2-5.6c0.4-0.3,1-0.1,1.2,0.3c0.3,0.4,0.1,1-0.3,1.2l-8.9,5.4l-1.9,9l7.1,6.7l7.7-0.8c0.5-0.1,0.9,0.3,1,0.8s-0.3,0.9-0.8,1
				L599.3,211.5C599.3,211.4,599.3,211.5,599.3,211.5z"/>
			<path class="st5" d="M589.9,223.8c-0.1,0-0.2,0-0.3-0.1l-13.2-5.1c-0.2-0.1-0.4-0.3-0.5-0.5s-0.1-0.5,0-0.7l7.7-14.5
				c0.2-0.4,0.6-0.6,1-0.4l5.7,1.6c0.2,0,0.3,0.1,0.4,0.2l10.5,11c0.2,0.2,0.3,0.5,0.2,0.7c0,0.3-0.2,0.5-0.4,0.7l-10.7,7.1
				C590.2,223.7,590,223.8,589.9,223.8z M577.9,217.3l11.8,4.6l9.4-6.2l-9.6-10l-4.8-1.3L577.9,217.3z"/>
			<path class="st5" d="M527.7,229.2c-0.2,0-0.3-0.1-0.5-0.1l-9.8-6.5c-0.3-0.2-0.5-0.6-0.4-0.9l1.5-8.8c0-0.3,0.2-0.5,0.4-0.6
				l12.3-7.2c0.2-0.1,0.5-0.2,0.8-0.1l5.4,2.2c0.1,0.1,0.3,0.2,0.4,0.3l7.5,9.9c0.3,0.3,0.2,0.8,0,1.1l-6.6,7.5
				c-0.1,0.1-0.3,0.2-0.4,0.3l-10.4,2.7C527.8,229.2,527.7,229.2,527.7,229.2z M518.9,221.4l8.9,5.9l9.7-2.5l5.9-6.8l-6.9-9.1
				l-4.8-2l-11.6,6.7L518.9,221.4z"/>
			<path class="st5" d="M530.4,251.9c-0.2,0-0.3,0-0.5-0.1l-6.9-4.5c-0.3-0.2-0.4-0.5-0.4-0.8V242c0-0.3,0.2-0.6,0.5-0.8l5.3-2.9
				c0.3-0.1,0.6-0.1,0.8,0l8.9,4.2c0.3,0.2,0.5,0.5,0.5,0.9L538,250c0,0.4-0.3,0.7-0.8,0.8l-6.6,1.1
				C530.5,251.9,530.4,251.9,530.4,251.9z M524.4,246l6.2,4.1l5.6-0.9l0.5-5.3l-7.9-3.7l-4.4,2.4L524.4,246L524.4,246z"/>
			<path class="st5" d="M554.8,258.6L554.8,258.6l-6.8-0.8c-0.3,0-0.5-0.2-0.7-0.4c-0.1-0.2-0.2-0.5-0.1-0.8l4.2-11.9
				c0.1-0.4,0.5-0.6,0.9-0.6h4.2c0.5,0,0.9,0.4,0.9,0.8l0.8,8.3c0,0.2,0,0.4-0.1,0.5l-2.5,4.4C555.4,258.5,555.1,258.6,554.8,258.6z
				 M549.3,256.2l5,0.6l2.1-3.6l-0.7-7.2h-2.8L549.3,256.2z"/>
			<path class="st5" d="M551.6,239.1c-0.2,0-0.3,0-0.5-0.1l-10.3-6.6c-0.2-0.1-0.4-0.4-0.4-0.7s0.1-0.5,0.3-0.7l9.3-9.5
				c0.3-0.3,0.8-0.4,1.2-0.1l8,6.2c0.3,0.2,0.4,0.7,0.3,1l-2,5.2c0,0.1-0.1,0.2-0.2,0.3l-5,4.7C552.1,239,551.8,239.1,551.6,239.1z
				 M542.8,231.4l8.8,5.6l4.4-4.1l1.7-4.4l-6.8-5.3L542.8,231.4z"/>
			<path class="st5" d="M580.4,239.1c-0.2,0-0.3,0-0.5-0.1l-9.3-5.4c-0.4-0.2-0.6-0.7-0.4-1.2l4.8-9.9c0.2-0.4,0.6-0.6,1-0.5
				l10.8,2.9c0.4,0.1,0.6,0.4,0.7,0.8l0.8,7.1c0,0.3-0.1,0.6-0.3,0.8l-7.1,5.4C580.8,239,580.6,239.1,580.4,239.1z M572.3,232.4
				l8,4.7l6.2-4.7l-0.6-5.9l-9.5-2.5L572.3,232.4z"/>
			<path class="st5" d="M565.4,243.6c-0.2,0-0.3,0-0.5-0.1l-5.3-3.3c-0.2-0.1-0.3-0.3-0.4-0.6c-0.1-0.2,0-0.5,0.1-0.7l4.2-6.8
				c0.3-0.4,0.8-0.5,1.2-0.3l9.2,5.6c0.3,0.2,0.4,0.5,0.4,0.8s-0.2,0.6-0.5,0.8l-8.1,4.5C565.7,243.6,565.6,243.6,565.4,243.6z
				 M561.3,239.1l4.1,2.5l6.3-3.5l-7.1-4.3L561.3,239.1z"/>
			<path class="st5" d="M504.7,225.7c-0.3,0-0.6-0.1-0.7-0.4l-3.9-5.4c-0.3-0.4-0.2-1,0.2-1.3c0.4-0.3,1-0.2,1.3,0.2l3.6,5l8.3-0.9
				l0.6-10.4l-6.2-2l-7.5,2c-0.5,0.1-1-0.2-1.1-0.6c-0.1-0.5,0.2-1,0.6-1.1l7.8-2c0.2,0,0.3,0,0.5,0l7.1,2.3
				c0.4,0.1,0.6,0.5,0.6,0.9l-0.6,11.9c0,0.4-0.4,0.8-0.8,0.8L504.7,225.7L504.7,225.7z"/>
			<path class="st5" d="M512.4,238.1c-0.3,0-0.7-0.2-0.8-0.5l-3.2-7c-0.2-0.4,0-1,0.4-1.2l6.5-3.2c0.2-0.1,0.5-0.1,0.7,0l5,2
				c0.3,0.1,0.6,0.5,0.6,0.8v7.5c0,0.5-0.4,0.9-0.8,0.9L512.4,238.1C512.5,238.1,512.4,238.1,512.4,238.1z M510.4,230.6l2.6,5.6
				l6.7-0.6v-6.1l-4-1.6L510.4,230.6z"/>
			<path class="st5" d="M541.3,238.6h-7.7c-0.3,0-0.5-0.1-0.7-0.3l-5-6.4c-0.2-0.3-0.2-0.6-0.1-0.9c0.1-0.3,0.4-0.5,0.7-0.6l6.6-1.1
				c0.2,0,0.4,0,0.6,0.1l3.8,1.9c0.2,0.1,0.4,0.3,0.4,0.5l2.3,5.6c0.1,0.3,0.1,0.6-0.1,0.8C541.9,238.4,541.6,238.6,541.3,238.6z
				 M534.1,236.8h5.9l-1.6-4.1l-3.2-1.6l-4.8,0.8L534.1,236.8z"/>
			<path class="st5" d="M573.5,252.3c-0.1,0-0.2,0-0.4-0.1s-0.4-0.3-0.5-0.6l-2.4-7.5c-0.1-0.2,0-0.5,0.1-0.7s0.3-0.4,0.6-0.4
				l5.5-1.2c0.4-0.1,0.8,0.1,1,0.5l2.7,5.9c0.2,0.4,0,1-0.4,1.2l-5.8,2.8C573.8,252.3,573.6,252.3,573.5,252.3z M572.3,244.6
				l1.7,5.5l4.1-2l-2-4.4L572.3,244.6z"/>
			<path class="st5" d="M600.5,234L600.5,234l-6.4-0.5c-0.5,0-0.8-0.4-0.8-0.9v-7.8c0-0.4,0.3-0.8,0.7-0.9l10.7-2
				c0.5-0.1,1,0.2,1,0.7c0.1,0.5-0.2,1-0.7,1l-10,1.8v6.2l5.5,0.4c0.5,0,0.9,0.5,0.8,1C601.4,233.7,601,234,600.5,234z"/>
		</g>
	</g>
	<g>
		<g>
			<path class="st6" d="M305.8,4.1c-29.3,0-53.2,23.9-53.2,53.2s23.9,53.2,53.2,53.2S359,86.6,359,57.3S335.1,4.1,305.8,4.1z"/>
			
				<linearGradient id="SVGID_2_" gradientUnits="userSpaceOnUse" x1="252.6" y1="215.3" x2="359" y2="215.3" gradientTransform="matrix(1 0 0 1 0 -158)">
				<stop  offset="0" style="stop-color:#F59F8E"/>
				<stop  offset="1" style="stop-color:#F56157"/>
			</linearGradient>
			<path class="st7" d="M305.8,4.1c-29.3,0-53.2,23.9-53.2,53.2s23.9,53.2,53.2,53.2S359,86.6,359,57.3S335.1,4.1,305.8,4.1z"/>
			<path class="st8" d="M305.8,112.3c-30.3,0-55-24.7-55-55s24.7-55,55-55s55,24.7,55,55S336.1,112.3,305.8,112.3z M305.8,4.1
				c-29.3,0-53.2,23.9-53.2,53.2s23.9,53.2,53.2,53.2S359,86.6,359,57.3S335.1,4.1,305.8,4.1z"/>
			<path class="st8" d="M284,96c-0.2,0-0.4-0.1-0.6-0.2c-5.3-4.5-8.3-11-8.3-17.9c0-11.2,5.7-19.5,15.3-22.3
				c8.3-3.4,13.6-11.3,13.6-20.2c0-8.1-4.4-15.4-11.5-19.2c-0.4-0.2-0.6-0.8-0.4-1.2s0.8-0.6,1.2-0.4c7.7,4.1,12.5,12.1,12.5,20.8
				c0,9.7-5.8,18.3-14.8,21.9h-0.1c-8.8,2.6-14.1,10.3-14.1,20.6c0,6.4,2.8,12.4,7.6,16.6c0.4,0.3,0.4,0.9,0.1,1.3
				C284.5,95.9,284.3,96,284,96z"/>
			<path class="st8" d="M274.8,82.4c-0.2,0-0.5-0.1-0.6-0.3c-4.5-4.5-7-10.4-7-16.8c0-7.3,5-15,9.6-19.1
				c7.8-6.9,11.8-16.8,11.1-27.2c0-0.4,0.2-0.7,0.5-0.9c0.4-0.2,0.8-0.1,1,0.2c1.9,2.1,3.5,4.3,5,6.6c0.3,0.4,0.1,1-0.3,1.2
				c-0.4,0.3-1,0.1-1.2-0.3c-0.9-1.5-2-3-3.1-4.4c-0.1,9.9-4.3,19.3-11.8,26c-4.3,3.8-8.9,10.9-8.9,17.7c0,5.9,2.3,11.4,6.5,15.5
				c0.4,0.3,0.4,0.9,0,1.3C275.3,82.3,275.1,82.4,274.8,82.4z"/>
			<path class="st8" d="M321.1,102c-0.2,0-0.4-0.1-0.6-0.2c-0.4-0.3-0.4-0.9-0.1-1.3c6-7.4,9.5-16.7,9.5-24.8
				c0-11.6-5.3-22.6-14.2-29.8c0.3,2.1,0.5,4.2,0.5,6.3c0,9.5-3.4,18.7-9.5,26c-0.3,0.4-0.9,0.4-1.3,0.1s-0.4-0.9-0.1-1.3
				c5.9-6.9,9.1-15.7,9.1-24.8c0-2.8-0.3-5.5-0.9-8.2c-0.1-0.4,0.1-0.7,0.4-0.9s0.7-0.2,1,0c10.5,7.5,16.8,19.7,16.8,32.7
				c0,8.7-3.6,18.1-9.9,26C321.7,101.9,321.4,102,321.1,102z"/>
			<path class="st8" d="M309.8,105.7c-12,0-23.2-5.3-30.9-14.5c-0.3-0.4-0.3-1,0.1-1.3s1-0.3,1.3,0.1c7.3,8.8,18.1,13.9,29.5,13.9
				c21.1,0,38.3-17.2,38.3-38.3c0-14.9-8.8-28.6-22.4-34.9c-0.5-0.2-0.7-0.7-0.4-1.2c0.2-0.5,0.7-0.7,1.2-0.4
				c14.2,6.5,23.4,20.8,23.4,36.5C349.9,87.7,331.9,105.7,309.8,105.7z"/>
			<g>
				<path class="st8" d="M311.8,105.7c-8.1,0-14.7-6.6-14.7-14.7c0-2.7,0.8-5.4,2.2-7.7c0.9-1.4,2-2.7,3.2-3.7
					c6.9-5.5,12.1-14.2,14-23.4c0.1-0.3,0.3-0.6,0.7-0.7c0.3-0.1,0.7,0,0.9,0.3c6.4,7.3,9.9,16.7,9.9,26.4c0,4-0.6,8-1.8,11.9
					c0,0.1-0.8,2.8-1.6,4.4l0,0c-0.4,0.8-1.1,1.8-1.8,2.5C319.9,103.9,315.9,105.7,311.8,105.7z M317.8,58.4
					c-2.2,8.9-7.4,17.2-14.2,22.6c-1.1,0.9-2,2-2.8,3.2c-1.3,2-1.9,4.4-1.9,6.8c0,7.1,5.8,12.9,12.9,12.9c3.6,0,7.1-1.6,9.6-4.3
					c0.5-0.6,1.2-1.5,1.5-2.1l0,0c0.8-1.4,1.5-4,1.5-4c1.1-3.7,1.7-7.5,1.7-11.4C326.1,73.5,323.2,65.1,317.8,58.4z"/>
			</g>
			<path class="st8" d="M300.4,101.6c-7.6,0-14.9-3.2-20.1-8.7c-4.8-5.1-7.4-11.8-7.4-18.8c0-7.9,3.2-15.3,8.8-20.4
				c9.9-10.1,13.5-24.7,9.3-38.2c-0.1-0.3,0-0.6,0.1-0.8c0.2-0.2,0.4-0.4,0.7-0.4c13.5,0,28.4,6.8,35.4,16.1
				c9.2,7.7,14.5,18.9,14.5,30.9c0,11.1-4.7,21.8-12.8,29.4c-0.4,0.3-0.9,0.3-1.3,0c-0.3-0.4-0.3-0.9,0-1.3
				c7.8-7.2,12.2-17.4,12.2-28c0-11.5-5.1-22.3-13.9-29.6c-0.1,0-0.1-0.1-0.1-0.2c-6.5-8.7-20.2-15-32.8-15.4
				c3.8,13.8,0,28.5-10.1,38.7l-0.1,0.1c-5.2,4.8-8.2,11.7-8.2,19.1c0,6.5,2.5,12.8,6.9,17.6c4.9,5.2,11.6,8.1,18.7,8.1
				c0.5,0,0.9,0.4,0.9,0.9S300.9,101.6,300.4,101.6z"/>
		</g>
		<g>
			<text transform="matrix(1 0 0 1 289.4 133.3683)" class="st0 st1 st2">Fire</text>
		</g>
	</g>
	<g>
		<g>
			<path class="st3" d="M56.6,154c-29.3,0-53.2,23.9-53.2,53.2s23.9,53.2,53.2,53.2s53.2-23.9,53.2-53.2S86,154,56.6,154z"/>
			
				<linearGradient id="SVGID_3_" gradientUnits="userSpaceOnUse" x1="3.4" y1="365.2" x2="109.8" y2="365.2" gradientTransform="matrix(1 0 0 1 0 -158)">
				<stop  offset="0" style="stop-color:#B0D79C"/>
				<stop  offset="1" style="stop-color:#6E9981"/>
			</linearGradient>
			<path class="st9" d="M56.6,154c-29.3,0-53.2,23.9-53.2,53.2s23.9,53.2,53.2,53.2s53.2-23.9,53.2-53.2S86,154,56.6,154z"/>
			<path class="st10" d="M56.6,262.2c-30.3,0-55-24.7-55-55s24.7-55,55-55s55,24.7,55,55S87,262.2,56.6,262.2z M56.6,154
				c-29.3,0-53.2,23.9-53.2,53.2s23.9,53.2,53.2,53.2s53.2-23.9,53.2-53.2S86,154,56.6,154z"/>
			<g>
				<path class="st10" d="M62.8,253.8c-5.7,0-25-5-29.7-9.3c-1.9-1.8-4.4-3.6-6.8-5.3c-3.3-2.4-6.5-4.6-7.7-6.7
					c-1.9-3.2-7.2-17-6.5-25.4c0.3-4.2,1.8-9.2,3.2-14c1.3-4.4,2.5-8.6,2.5-11.1c0-6.1,10.7-14.1,14.1-15c0.4-0.1,5.9-1.7,11.2-2.4
					c5-0.6,7.9-1.8,10.2-4.1c1.8-1.8,6.3-1.3,12-0.6c1.9,0.2,3.6,0.5,4.3,0.4c3.3-0.5,13.2,6.2,16.9,10.7
					c4.3,5.3,12.7,13.7,16.3,16.3c3.1,2.3,1.9,8.2,1,12.6c-0.3,1.5-0.6,2.9-0.6,3.6c0,3.3-0.2,14-2.1,15.2c-0.7,0.6-3.6,5.4-5.9,9.3
					c-4.1,6.8-6.8,11.3-8.1,12.4c-2.3,2-18.7,12.9-23.7,13.3C63.1,253.8,63,253.8,62.8,253.8z M57.9,161.2c-1.6,0-2.9,0.2-3.5,0.7
					c-2.6,2.6-5.9,3.9-11.3,4.6c-5.2,0.7-10.9,2.3-10.9,2.3l0,0c-3.2,0.8-12.8,8.5-12.8,13.2c0,2.8-1.2,7.1-2.6,11.6
					c-1.4,4.7-2.8,9.6-3.1,13.7c-0.7,8,4.4,21.2,6.3,24.3c1.1,1.8,4.1,3.9,7.2,6.1c2.5,1.7,5,3.5,7,5.4c4.5,4.1,24.3,9.1,28.9,8.8
					c4.3-0.3,20.1-10.7,22.6-12.9c1.1-1,4.8-7,7.7-11.9c4.3-7.2,5.7-9.4,6.5-9.9c0.8-1.1,1.3-8.9,1.3-13.7c0-0.9,0.3-2.3,0.6-4
					c0.8-3.6,1.9-9.1-0.3-10.7c-3.8-2.7-12.2-11.1-16.6-16.6c-4.3-5.2-13.4-10.4-15.3-10.1c-0.9,0.1-2.6-0.1-4.8-0.4
					C63,161.6,60.2,161.2,57.9,161.2z"/>
				<path class="st10" d="M61,247.5c-3.2,0-7.4-0.6-12.8-2.9c-8.4-3.7-19.8-10.3-22-12.8c-0.4-0.4-9.5-10.9-8.1-21.1
					c0.7-5.2,1.8-9.6,2.7-13.1c0.6-2.5,1.2-4.6,1.4-6.4c0.2-1.2,0.8-5.4,2.6-9.4c1.9-4.2,4.4-6.9,7.5-7.9c0.5-0.2,9.6-3.3,13.1-3.6
					c1.9-0.2,5.1-1.4,8-2.5c2.6-1,4.8-1.8,6.1-1.9c1.1-0.1,11-1.1,16.4,4.1c2.5,2.4,3.8,3.5,5,4.5c1,0.8,1.8,1.5,3.1,2.9
					c1.4,1.4,3.1,3.5,4.7,5.5c1.8,2.2,3.5,4.3,4.5,5.2c2.3,2,4,7.9,4,11.9c0,3.4-1.5,8.9-2.6,12.9c-0.3,1-0.5,1.9-0.7,2.6
					c-0.9,3.6-9.6,17.4-12,19.5c-0.2,0.2-0.5,0.5-0.9,0.8c-5.5,4.9-12.3,10.6-15,11.1C65,247.2,63.3,247.5,61,247.5z M62.5,167
					c-1.5,0-2.5,0.1-2.8,0.1c-1.1,0.1-3.4,1-5.8,1.9c-3.1,1.2-6.3,2.4-8.4,2.5c-3.4,0.3-12.7,3.5-12.8,3.5l0,0
					c-7.2,2.3-9.1,14.9-9.3,16.3c-0.2,1.9-0.8,4-1.4,6.5c-0.9,3.5-2,7.8-2.7,12.9c-1.3,9.6,7.4,19.7,7.8,20.1
					c1.9,2.2,12.8,8.7,21.6,12.5c8.9,3.9,14.4,2.9,17.3,2.3c2.8-0.5,11.5-8.3,14.4-10.8c0.4-0.3,0.7-0.6,0.9-0.8
					c2.3-2,10.8-15.5,11.6-18.8c0.2-0.7,0.4-1.6,0.7-2.6c1.1-3.9,2.5-9.4,2.5-12.6c0-4.1-1.8-9.4-3.6-11c-1.1-1-2.8-3.1-4.7-5.3
					c-1.6-2-3.3-4.1-4.7-5.5c-1.3-1.3-2.1-2-3.1-2.8c-1.1-0.9-2.5-2.1-5-4.6C71.6,167.6,66,167,62.5,167z"/>
				<path class="st10" d="M57.1,244c-5.2,0-14.6-3.7-16.9-4.7c-1.7-0.7-10-4.7-11.6-9.3c-0.5-1.4-1.6-3.6-2.7-5.8
					c-2.2-4.3-4.7-9.2-4.9-12.5c-0.2-3.1,1.5-7.9,3.2-12.6c1.1-3,2.1-5.9,2.4-7.8c0.6-4.5,1.8-9.1,5.8-12.3c0.4-0.4,5.9-5.4,9.7-5.1
					c2.3,0.2,6.7-0.8,10.7-1.8c2.1-0.5,4.1-1,5.5-1.2c4.1-0.6,13.8,0.2,17,4.2c0.9,1.1,2.4,2.7,4.1,4.6c3.9,4.3,8.3,9.1,9.3,11.5
					c0.1,0.3,0.3,0.6,0.4,0.9c1.3,3,2.6,6.2,1.6,13c-0.4,2.7-0.6,4.7-0.7,6.4c-0.3,2.8-0.4,4.8-1.3,7.9c-1.4,5.2-6.8,13.5-10.5,16.2
					c-3.8,2.8-15.6,8.1-20.4,8.4C57.5,244,57.3,244,57.1,244z M41.7,175c-2.8,0-7.1,3.4-8.5,4.8l0,0c-3.7,2.9-4.8,7.3-5.4,11.5
					c-0.3,2-1.3,4.9-2.5,8c-1.6,4.3-3.4,9.3-3.2,12.1c0.2,3.1,2.8,8.1,4.8,12.1c1.2,2.4,2.3,4.5,2.8,6c1.1,3.2,6.6,6.6,10.9,8.6
					c3.5,1.6,12.7,4.9,17,4.6c4.6-0.3,16.2-5.5,19.8-8.2c3.5-2.5,8.7-10.7,10-15.6c0.8-3.1,1-4.9,1.3-7.7c0.2-1.6,0.3-3.7,0.7-6.4
					c0.9-6.4-0.4-9.4-1.6-12.3c-0.1-0.3-0.3-0.6-0.4-1c-0.9-2.2-5.4-7.1-9-11.1c-1.7-1.9-3.2-3.5-4.1-4.6
					c-2.8-3.4-11.9-4.4-15.9-3.8c-1.4,0.2-3.4,0.7-5.5,1.2c-4,1-8.6,2-11,1.8C41.9,175,41.8,175,41.7,175z"/>
				<path class="st10" d="M53.6,238.1c-4.2,0-7.9-0.6-10.2-2.4c-5-3.8-12.5-18.6-13.5-24.2c-0.7-3.7,1.3-9.7,2.9-14.5
					c0.8-2.3,1.4-4.3,1.5-5.3c0.4-3.9,5.8-14.5,19.7-13.6c0.1,0,0.1,0,0.2,0c0.1,0.1,13.3,5.2,17.4,6c3.9,0.7,8,2.4,11.5,9.2
					c3.5,7.1,0.9,19.5,0.1,23.6c-1.2,5.9-8.6,18.1-15.4,19.5C63.4,237.3,58.2,238.1,53.6,238.1z M52.3,179.2
					c-12.7,0-16.5,10.4-16.7,12.5c-0.1,1.1-0.8,3.1-1.6,5.6c-1.5,4.4-3.5,10.5-2.9,13.9c1,5.4,8.2,19.8,13,23.5
					c4.7,3.6,16.7,1.8,23.4,0.5c5.9-1.2,13.1-12.4,14.4-18.6c0.8-4,3.4-16.1,0.1-22.8c-3-6-6.4-7.8-10.6-8.6
					c-4.1-0.8-16.3-5.5-17.5-6C53.4,179.2,52.9,179.2,52.3,179.2z"/>
				<path class="st10" d="M55.7,234.7c-3.9,0-8-1.4-11.7-6.1c-7.9-10.3-10.7-19.8-8.7-29.1c1.8-8.3,9.6-19.3,18.8-17.6
					c8.9,1.6,14.4,3.6,18.4,6.5c1.1,0.3,8.1,2.8,6.5,15.7c-1.7,13.9-4.2,28.2-10.3,28.2l0,0c-1.3,0-3,0.4-4.9,1
					C61.5,233.9,58.7,234.7,55.7,234.7z M52.2,182.9c-7.7,0-14.1,9.6-15.7,16.8c-2,8.9,0.8,18,8.5,28.1c5.9,7.7,12.9,5.8,18.5,4.3
					c2-0.5,3.8-1,5.2-1l0,0c5.9,0,8.3-20.4,9.1-27.1c1.5-12.6-5.4-14.3-5.7-14.4c-0.1,0-0.2-0.1-0.2-0.1c-3.8-2.8-9.4-4.8-18-6.4
					C53.4,183,52.8,182.9,52.2,182.9z"/>
				<path class="st10" d="M62.2,228.2c-5,0-11.1-3.2-13.1-5.6c-6.7-8.1-6.9-15.6-6.4-21.3c0.5-5.9,4.4-10.3,10.3-11.8
					c4.5-1.2,12.8-1.6,15.7,3.9l0,0c0.1,0.2,7.6,16.6,0,31.2c-1.1,2-2.9,3.2-5.5,3.5C62.9,228.2,62.6,228.2,62.2,228.2z M58.9,190
					c-2,0-4,0.3-5.6,0.7c-5.4,1.4-8.9,5.4-9.4,10.8c-0.5,5.4-0.2,12.6,6.2,20.4c2,2.4,8.5,5.6,13.1,5.2c2.1-0.2,3.6-1.2,4.5-2.9
					c7.3-13.9,0.2-29.6,0-30.1C66,190.9,62.4,190,58.9,190z"/>
				<path class="st10" d="M60.5,221.8c-3.4,0-7.5-2.2-8.8-3.8c-4.5-5.4-4.7-10.5-4.3-14.3c0.4-4,3-7,7-8c3-0.8,8.7-1.1,10.7,2.7l0,0
					c0.2,0.4,5.1,11.1,0,20.9c-0.7,1.4-2,2.2-3.8,2.4C61.1,221.8,60.8,221.8,60.5,221.8z M58.4,196.4c-1.3,0-2.7,0.2-3.7,0.5
					c-3.5,0.9-5.8,3.5-6.1,7c-0.3,3.6-0.2,8.3,4,13.4c1.3,1.5,5.5,3.7,8.5,3.4c1.3-0.1,2.3-0.7,2.8-1.8c4.8-9.1,0.2-19.4,0-19.8
					C63,197,60.6,196.4,58.4,196.4z"/>
			</g>
		</g>
		<g>
			<text transform="matrix(1 0 0 1 27.0966 283.2733)" class="st0 st1 st2">Wood</text>
		</g>
	</g>
	<g>
		<g>
			<path class="st11" d="M370.4,55.4c62.7,10.8,116.9,36.7,153.9,71.8"/>
			<g>
				<polygon class="st12" points="510.4,129.1 521.6,124.7 526.3,113.6 536.8,140.1 				"/>
			</g>
		</g>
	</g>
	<g>
		<g>
			<path class="st11" d="M73.3,139.1c33-36.7,83.6-65,143.6-79.2"/>
			<g>
				<polygon class="st12" points="211,72.6 213.3,60.8 206.3,50.9 234.4,56.2 				"/>
			</g>
		</g>
	</g>
</g>
<g>
	<text transform="matrix(1 0 0 1 381.1367 42.0923)" class="st0 st1 st2">Fire creates Earth(Ash)</text>
</g>
<g>
	<text transform="matrix(1 0 0 1 40.8076 42.0923)" class="st0 st1 st2">Wood feeds Fire</text>
</g>
</svg>
