<?xml version="1.0" encoding="utf-8"?>
<!-- Generator: Adobe Illustrator 19.2.1, SVG Export Plug-In . SVG Version: 6.00 Build 0)  -->
<svg version="1.1" id="Layer_1" xmlns="http://www.w3.org/2000/svg" xmlns:xlink="http://www.w3.org/1999/xlink" x="0px" y="0px"
	 viewBox="0 0 71 71" enable-background="new 0 0 71 71" xml:space="preserve">
<g>
	<linearGradient id="SVGID_1_" gradientUnits="userSpaceOnUse" x1="11.0591" y1="59.9409" x2="59.9408" y2="11.0593">
		<stop  offset="0" style="stop-color:#01C5CE"/>
		<stop  offset="1" style="stop-color:#8FD7CE"/>
	</linearGradient>
	<circle fill="url(#SVGID_1_)" cx="35.5" cy="35.5" r="34.6"/>
	<g>
		<path fill="#FFFFFF" d="M1.1,32.9C1.1,32.9,1,32.9,1.1,32.9c-0.4,0-0.6-0.3-0.6-0.6C2,15.5,15.3,2.1,32.1,0.5
			c0.3,0,0.6,0.2,0.6,0.5c0,0.3-0.2,0.6-0.5,0.6C16,3.2,3.1,16.1,1.7,32.4C1.6,32.7,1.4,32.9,1.1,32.9z"/>
		<path fill="#FFFFFF" d="M32.3,70.5C32.3,70.5,32.3,70.5,32.3,70.5C15.6,69,2.2,55.8,0.5,39.1c0-0.3,0.2-0.6,0.5-0.6
			c0.3,0,0.6,0.2,0.6,0.5c1.6,16.1,14.5,28.9,30.7,30.4c0.3,0,0.6,0.3,0.5,0.6C32.9,70.3,32.6,70.5,32.3,70.5z"/>
		<path fill="#FFFFFF" d="M39,70.5c-0.3,0-0.5-0.2-0.6-0.5c0-0.3,0.2-0.6,0.5-0.6c16.1-1.6,28.9-14.6,30.4-30.7
			c0-0.3,0.3-0.5,0.6-0.5c0.3,0,0.6,0.3,0.5,0.6C69,55.4,55.8,68.8,39,70.5C39.1,70.5,39.1,70.5,39,70.5z"/>
		<path fill="#FFFFFF" d="M69.9,32.5c-0.3,0-0.5-0.2-0.6-0.5C67.7,15.9,54.7,3.1,38.6,1.7C38.2,1.6,38,1.3,38,1
			c0-0.3,0.3-0.6,0.6-0.5C55.4,2,68.8,15.2,70.5,31.9C70.5,32.2,70.3,32.5,69.9,32.5C69.9,32.5,69.9,32.5,69.9,32.5z"/>
		<path fill="#FFFFFF" d="M1.1,32.9C1.1,32.9,1,32.9,1.1,32.9c-0.4,0-0.6-0.3-0.6-0.6C2,15.5,15.3,2.1,32.1,0.5
			c0.3,0,0.6,0.2,0.6,0.5c0,0.3-0.2,0.6-0.5,0.6C16,3.2,3.1,16.1,1.7,32.4C1.6,32.7,1.4,32.9,1.1,32.9z"/>
	</g>
	<circle fill="#FFFFFF" cx="35.5" cy="35.5" r="4.1"/>
	<circle fill="#FFFFFF" cx="35" cy="11" r="4.1"/>
	<path fill="#FFFFFF" d="M35,28.8c-0.2,0-0.4-0.1-0.5-0.3c-0.1-0.1-1.7-2.6-0.1-6.3c1.4-3.1,0.1-5.1,0-5.2c-0.2-0.3-0.1-0.6,0.2-0.8
		c0.3-0.2,0.6-0.1,0.8,0.2c0.1,0.1,1.7,2.6,0.1,6.3c-1.4,3.1-0.1,5.1,0,5.2c0.2,0.3,0.1,0.6-0.2,0.8C35.2,28.8,35.1,28.8,35,28.8z"
		/>
	<path fill="#FFFFFF" d="M25.1,36.8c-0.9,0-2-0.2-3.3-0.7c-3.1-1.4-5.1-0.1-5.2,0c-0.3,0.2-0.6,0.1-0.8-0.2
		c-0.2-0.3-0.1-0.6,0.2-0.8c0.1-0.1,2.6-1.7,6.3-0.1c3.1,1.4,5.1,0.1,5.2,0.1c0.3-0.2,0.6-0.1,0.8,0.2c0.2,0.3,0.1,0.6-0.2,0.8
		C28,36,26.9,36.8,25.1,36.8z"/>
	<path fill="#FFFFFF" d="M35,54.8c-0.2,0-0.4-0.1-0.5-0.3c-0.1-0.1-1.7-2.6-0.1-6.3c1.4-3.1,0.1-5.1,0.1-5.2
		c-0.2-0.3-0.1-0.6,0.2-0.8c0.3-0.2,0.6-0.1,0.8,0.2c0.1,0.1,1.7,2.6,0.1,6.3c-1.4,3.1-0.1,5.1,0,5.2c0.2,0.3,0.1,0.6-0.2,0.8
		C35.2,54.7,35.1,54.8,35,54.8z"/>
	<path fill="#FFFFFF" d="M51,36.8c-0.9,0-2-0.2-3.3-0.7c-3.1-1.4-5.1-0.1-5.2,0c-0.3,0.2-0.6,0.1-0.8-0.2c-0.2-0.3-0.1-0.6,0.2-0.8
		c0.1-0.1,2.6-1.7,6.3-0.1c3.1,1.4,5.1,0.1,5.2,0.1c0.3-0.2,0.6-0.1,0.8,0.2c0.2,0.3,0.1,0.6-0.2,0.8C54,36,52.9,36.8,51,36.8z"/>
	<circle fill="#FFFFFF" cx="11" cy="35.5" r="4.1"/>
	<circle fill="#FFFFFF" cx="35" cy="60" r="4.1"/>
	<circle fill="#FFFFFF" cx="60" cy="35.5" r="4.1"/>
</g>
</svg>
