<?xml version="1.0" encoding="utf-8"?>
<!-- Generator: Adobe Illustrator 19.2.1, SVG Export Plug-In . SVG Version: 6.00 Build 0)  -->
<svg version="1.1" id="Layer_1" xmlns="http://www.w3.org/2000/svg" xmlns:xlink="http://www.w3.org/1999/xlink" x="0px" y="0px"
	 viewBox="0 0 610 290" style="enable-background:new 0 0 610 290;" xml:space="preserve">
<style type="text/css">
	.st0{fill:#FFFFFF;stroke:#F9846B;stroke-miterlimit:10;}
	.st1{opacity:0.5;fill:url(#SVGID_1_);stroke:#F9846B;stroke-miterlimit:10;enable-background:new    ;}
	.st2{fill:#F56157;}
	.st3{fill:#858585;}
	.st4{font-family:'AvantGarde-Book';}
	.st5{font-size:20px;}
	.st6{fill:#FFFFFF;}
	.st7{opacity:0.5;fill:url(#SVGID_2_);enable-background:new    ;}
	.st8{fill:#6E9981;}
	.st9{fill:url(#SVGID_3_);}
	.st10{fill:#B8BABC;}
	.st11{fill:none;stroke:#8096A3;stroke-width:10;stroke-miterlimit:10;}
	.st12{fill:#8096A3;}
</style>
<g>
	<g>
		<g>
			<path class="st0" d="M552.4,152c-29.3,0-53.2,23.9-53.2,53.2s23.9,53.2,53.2,53.2s53.2-23.9,53.2-53.2S581.8,152,552.4,152z"/>
			
				<linearGradient id="SVGID_1_" gradientUnits="userSpaceOnUse" x1="499.2" y1="86.8" x2="605.6" y2="86.8" gradientTransform="matrix(1 0 0 -1 0 292)">
				<stop  offset="0" style="stop-color:#F59F8E"/>
				<stop  offset="1" style="stop-color:#F56157"/>
			</linearGradient>
			<path class="st1" d="M552.4,152c-29.3,0-53.2,23.9-53.2,53.2s23.9,53.2,53.2,53.2s53.2-23.9,53.2-53.2S581.8,152,552.4,152z"/>
			<path class="st2" d="M552.4,260.2c-30.3,0-55-24.7-55-55s24.7-55,55-55s55,24.7,55,55S582.8,260.2,552.4,260.2z M552.4,152
				c-29.3,0-53.2,23.9-53.2,53.2s23.9,53.2,53.2,53.2s53.2-23.9,53.2-53.2S581.8,152,552.4,152z"/>
			<path class="st2" d="M530.7,243.9c-0.2,0-0.4-0.1-0.6-0.2c-5.3-4.5-8.3-11-8.3-17.9c0-11.2,5.7-19.5,15.3-22.3
				c8.3-3.4,13.6-11.3,13.6-20.2c0-8.1-4.4-15.4-11.5-19.2c-0.4-0.2-0.6-0.8-0.4-1.2c0.2-0.4,0.8-0.6,1.2-0.4
				c7.7,4.1,12.5,12.1,12.5,20.8c0,9.7-5.8,18.3-14.8,21.9h-0.1c-8.8,2.6-14.1,10.3-14.1,20.6c0,6.4,2.8,12.4,7.6,16.6
				c0.4,0.3,0.4,0.9,0.1,1.3C531.2,243.8,531,243.9,530.7,243.9z"/>
			<path class="st2" d="M521.5,230.3c-0.2,0-0.5-0.1-0.6-0.3c-4.5-4.5-7-10.4-7-16.8c0-7.3,5-15,9.6-19.1
				c7.8-6.9,11.8-16.8,11.1-27.2c0-0.4,0.2-0.7,0.5-0.9c0.4-0.2,0.8-0.1,1,0.2c1.9,2.1,3.5,4.3,5,6.6c0.3,0.4,0.1,1-0.3,1.2
				c-0.4,0.3-1,0.1-1.2-0.3c-0.9-1.5-2-3-3.1-4.4c-0.1,9.9-4.3,19.3-11.8,26c-4.3,3.8-8.9,10.9-8.9,17.7c0,5.9,2.3,11.4,6.5,15.5
				c0.4,0.3,0.4,0.9,0,1.3C522,230.2,521.8,230.3,521.5,230.3z"/>
			<path class="st2" d="M567.8,249.9c-0.2,0-0.4-0.1-0.6-0.2c-0.4-0.3-0.4-0.9-0.1-1.3c6-7.4,9.5-16.7,9.5-24.8
				c0-11.6-5.3-22.6-14.2-29.8c0.3,2.1,0.5,4.2,0.5,6.3c0,9.5-3.4,18.7-9.5,26c-0.3,0.4-0.9,0.4-1.3,0.1c-0.4-0.3-0.4-0.9-0.1-1.3
				c5.9-6.9,9.1-15.7,9.1-24.8c0-2.8-0.3-5.5-0.9-8.2c-0.1-0.4,0.1-0.7,0.4-0.9c0.3-0.2,0.7-0.2,1,0c10.5,7.5,16.8,19.7,16.8,32.7
				c0,8.7-3.6,18.1-9.9,26C568.4,249.8,568.1,249.9,567.8,249.9z"/>
			<path class="st2" d="M556.5,253.6c-12,0-23.2-5.3-30.9-14.5c-0.3-0.4-0.3-1,0.1-1.3c0.4-0.3,1-0.3,1.3,0.1
				c7.3,8.8,18.1,13.9,29.5,13.9c21.1,0,38.3-17.2,38.3-38.3c0-14.9-8.8-28.6-22.4-34.9c-0.5-0.2-0.7-0.7-0.4-1.2
				c0.2-0.5,0.7-0.7,1.2-0.4c14.2,6.5,23.4,20.8,23.4,36.5C596.6,235.6,578.6,253.6,556.5,253.6z"/>
			<g>
				<path class="st2" d="M558.5,253.6c-8.1,0-14.7-6.6-14.7-14.7c0-2.7,0.8-5.4,2.2-7.7c0.9-1.4,2-2.7,3.2-3.7
					c6.9-5.5,12.1-14.2,14-23.4c0.1-0.3,0.3-0.6,0.7-0.7c0.3-0.1,0.7,0,0.9,0.3c6.4,7.3,9.9,16.7,9.9,26.4c0,4-0.6,8-1.8,11.9
					c0,0.1-0.8,2.8-1.6,4.4l0,0c-0.4,0.8-1.1,1.8-1.8,2.5C566.6,251.8,562.6,253.6,558.5,253.6z M564.5,206.2
					c-2.2,8.9-7.4,17.2-14.2,22.6c-1.1,0.9-2,2-2.8,3.2c-1.3,2-1.9,4.4-1.9,6.8c0,7.1,5.8,12.9,12.9,12.9c3.6,0,7.1-1.6,9.6-4.3
					c0.5-0.6,1.2-1.5,1.5-2.1l0,0c0.8-1.4,1.5-4,1.5-4c1.1-3.7,1.7-7.5,1.7-11.4C572.8,221.3,569.8,213,564.5,206.2z"/>
			</g>
			<path class="st2" d="M547.1,249.5c-7.6,0-14.9-3.2-20.1-8.7c-4.8-5.1-7.4-11.8-7.4-18.8c0-7.9,3.2-15.3,8.8-20.4
				c9.9-10.1,13.5-24.7,9.3-38.2c-0.1-0.3,0-0.6,0.1-0.8c0.2-0.2,0.4-0.4,0.7-0.4c13.5,0,28.4,6.8,35.4,16.1
				c9.2,7.7,14.5,18.9,14.5,30.9c0,11.1-4.7,21.8-12.8,29.4c-0.4,0.3-0.9,0.3-1.3,0c-0.3-0.4-0.3-0.9,0-1.3
				c7.8-7.2,12.2-17.4,12.2-28c0-11.5-5.1-22.3-13.9-29.6c-0.1,0-0.1-0.1-0.1-0.2c-6.5-8.7-20.2-15-32.8-15.4
				c3.8,13.8,0,28.5-10.1,38.7l-0.1,0.1c-5.2,4.8-8.2,11.7-8.2,19.1c0,6.5,2.5,12.8,6.9,17.6c4.9,5.2,11.6,8.1,18.7,8.1
				c0.5,0,0.9,0.4,0.9,0.9C548,249.1,547.6,249.5,547.1,249.5z"/>
		</g>
		<g>
			<text transform="matrix(1 0 0 1 536.0873 281.2385)" class="st3 st4 st5">Fire</text>
		</g>
	</g>
	<g>
		<g>
			<path class="st6" d="M58.3,152C29,152,5.1,175.8,5.1,205.2s23.9,53.2,53.2,53.2s53.2-23.9,53.2-53.2S87.6,152,58.3,152z"/>
			
				<linearGradient id="SVGID_2_" gradientUnits="userSpaceOnUse" x1="5.1" y1="86.8" x2="111.5" y2="86.8" gradientTransform="matrix(1 0 0 -1 0 292)">
				<stop  offset="0" style="stop-color:#B0D79C"/>
				<stop  offset="1" style="stop-color:#6E9981"/>
			</linearGradient>
			<path class="st7" d="M58.3,152C29,152,5.1,175.8,5.1,205.2s23.9,53.2,53.2,53.2s53.2-23.9,53.2-53.2S87.6,152,58.3,152z"/>
			<path class="st8" d="M58.3,260.2c-30.3,0-55-24.7-55-55s24.7-55,55-55s55,24.7,55,55S88.6,260.2,58.3,260.2z M58.3,152
				C29,152,5.1,175.8,5.1,205.2s23.9,53.2,53.2,53.2s53.2-23.9,53.2-53.2S87.6,152,58.3,152z"/>
			<g>
				<path class="st8" d="M64.4,251.8c-5.7,0-25-5-29.7-9.3c-1.9-1.8-4.4-3.6-6.8-5.3c-3.3-2.4-6.5-4.6-7.7-6.7
					c-1.9-3.2-7.2-17-6.5-25.4c0.3-4.2,1.8-9.2,3.2-14c1.3-4.4,2.5-8.6,2.5-11.1c0-6.1,10.7-14.1,14.1-15c0.4-0.1,5.9-1.7,11.2-2.4
					c5-0.6,7.9-1.8,10.2-4.1c1.8-1.8,6.3-1.3,12-0.6c1.9,0.2,3.6,0.5,4.3,0.4c3.3-0.5,13.2,6.2,16.9,10.7
					c4.3,5.3,12.7,13.7,16.3,16.3c3.1,2.3,1.9,8.2,1,12.6c-0.3,1.5-0.6,2.9-0.6,3.6c0,3.3-0.2,14-2.1,15.2c-0.7,0.6-3.6,5.4-5.9,9.3
					c-4.1,6.8-6.8,11.3-8.1,12.4c-2.3,2-18.7,12.9-23.7,13.3C64.8,251.8,64.6,251.8,64.4,251.8z M59.6,159.2c-1.6,0-2.9,0.2-3.5,0.7
					c-2.6,2.6-5.9,3.9-11.3,4.6c-5.2,0.7-10.9,2.3-10.9,2.3l0,0c-3.2,0.8-12.8,8.5-12.8,13.2c0,2.8-1.2,7.1-2.6,11.6
					c-1.4,4.7-2.8,9.6-3.1,13.7c-0.7,8,4.4,21.2,6.3,24.3c1.1,1.8,4.1,3.9,7.2,6.1c2.5,1.7,5,3.5,7,5.4c4.5,4.1,24.3,9.1,28.9,8.8
					c4.3-0.3,20.1-10.7,22.6-12.9c1.1-1,4.8-7,7.7-11.9c4.3-7.2,5.7-9.4,6.5-9.9c0.8-1.1,1.3-8.9,1.3-13.7c0-0.9,0.3-2.3,0.6-4
					c0.8-3.6,1.9-9.1-0.3-10.7c-3.8-2.7-12.2-11.1-16.6-16.6c-4.3-5.2-13.4-10.4-15.3-10.1c-0.9,0.1-2.6-0.1-4.8-0.4
					C64.6,159.5,61.8,159.2,59.6,159.2z"/>
				<path class="st8" d="M62.6,245.5c-3.2,0-7.4-0.6-12.8-2.9c-8.4-3.7-19.8-10.3-22-12.8c-0.4-0.4-9.5-10.9-8.1-21.1
					c0.7-5.2,1.8-9.6,2.7-13.1c0.6-2.5,1.2-4.6,1.4-6.4c0.2-1.2,0.8-5.4,2.6-9.4c1.9-4.2,4.4-6.9,7.5-7.9c0.5-0.2,9.6-3.3,13.1-3.6
					c1.9-0.2,5.1-1.4,8-2.5c2.6-1,4.8-1.8,6.1-1.9c1.1-0.1,11-1.1,16.4,4.1c2.5,2.4,3.8,3.5,5,4.5c1,0.8,1.8,1.5,3.1,2.9
					c1.4,1.4,3.1,3.5,4.7,5.5c1.8,2.2,3.5,4.3,4.5,5.2c2.3,2,4,7.9,4,11.9c0,3.4-1.5,8.9-2.6,12.9c-0.3,1-0.5,1.9-0.7,2.6
					c-0.9,3.6-9.6,17.4-12,19.5c-0.2,0.2-0.5,0.5-0.9,0.8c-5.5,4.9-12.3,10.6-15,11.1C66.7,245.2,64.9,245.5,62.6,245.5z M64.2,165
					c-1.5,0-2.5,0.1-2.8,0.1c-1.1,0.1-3.4,1-5.8,1.9c-3.1,1.2-6.3,2.4-8.4,2.5c-3.4,0.3-12.7,3.5-12.8,3.5l0,0
					c-7.2,2.3-9.1,14.9-9.3,16.3c-0.2,1.9-0.8,4-1.4,6.5c-0.9,3.5-2,7.8-2.7,12.9c-1.3,9.6,7.4,19.7,7.8,20.1
					c1.9,2.2,12.8,8.7,21.6,12.5c8.9,3.9,14.4,2.9,17.3,2.3c2.8-0.5,11.5-8.3,14.4-10.8c0.4-0.3,0.7-0.6,0.9-0.8
					c2.3-2,10.8-15.5,11.6-18.8c0.2-0.7,0.4-1.6,0.7-2.6c1.1-3.9,2.5-9.4,2.5-12.6c0-4.1-1.8-9.4-3.6-11c-1.1-1-2.8-3.1-4.7-5.3
					c-1.6-2-3.3-4.1-4.7-5.5c-1.3-1.3-2.1-2-3.1-2.8c-1.1-0.9-2.5-2.1-5-4.6C73.3,165.5,67.6,165,64.2,165z"/>
				<path class="st8" d="M58.7,242c-5.2,0-14.6-3.7-16.9-4.7c-1.7-0.7-10-4.7-11.6-9.3c-0.5-1.4-1.6-3.6-2.7-5.8
					c-2.2-4.3-4.7-9.2-4.9-12.5c-0.2-3.1,1.5-7.9,3.2-12.6c1.1-3,2.1-5.9,2.4-7.8c0.6-4.5,1.8-9.1,5.8-12.3c0.4-0.4,5.9-5.4,9.7-5.1
					c2.3,0.2,6.7-0.8,10.7-1.8c2.1-0.5,4.1-1,5.5-1.2c4.1-0.6,13.8,0.2,17,4.2c0.9,1.1,2.4,2.7,4.1,4.6c3.9,4.3,8.3,9.1,9.3,11.5
					c0.1,0.3,0.3,0.6,0.4,0.9c1.3,3,2.6,6.2,1.6,13c-0.4,2.7-0.6,4.7-0.7,6.4c-0.3,2.8-0.4,4.8-1.3,7.9c-1.4,5.2-6.8,13.5-10.5,16.2
					c-3.8,2.8-15.6,8.1-20.4,8.4C59.2,241.9,59,241.9,58.7,242z M43.4,173c-2.8,0-7.1,3.4-8.5,4.8l0,0c-3.7,2.9-4.8,7.3-5.4,11.5
					c-0.3,2-1.3,4.9-2.5,8c-1.6,4.3-3.4,9.3-3.2,12.1c0.2,3.1,2.8,8.1,4.8,12.1c1.2,2.4,2.3,4.5,2.8,6c1.1,3.2,6.6,6.6,10.9,8.6
					c3.5,1.6,12.7,4.9,17,4.6c4.6-0.3,16.2-5.5,19.8-8.2c3.5-2.5,8.7-10.7,10-15.6c0.8-3.1,1-4.9,1.3-7.7c0.2-1.6,0.3-3.7,0.7-6.4
					c0.9-6.4-0.4-9.4-1.6-12.3c-0.1-0.3-0.3-0.6-0.4-1c-0.9-2.2-5.4-7.1-9-11.1c-1.7-1.9-3.2-3.5-4.1-4.6
					c-2.8-3.4-11.9-4.4-15.9-3.8c-1.4,0.2-3.4,0.7-5.5,1.2c-4,1-8.6,2-11,1.8C43.6,173,43.5,173,43.4,173z"/>
				<path class="st8" d="M55.3,236c-4.2,0-7.9-0.6-10.2-2.4c-5-3.8-12.5-18.6-13.5-24.2c-0.7-3.7,1.3-9.7,2.9-14.5
					c0.8-2.3,1.4-4.3,1.5-5.3c0.4-3.9,5.8-14.5,19.7-13.6c0.1,0,0.1,0,0.2,0c0.1,0.1,13.3,5.2,17.4,6c3.9,0.7,8,2.4,11.5,9.2
					c3.5,7.1,0.9,19.5,0.1,23.6c-1.2,5.9-8.6,18.1-15.4,19.5C65,235.3,59.9,236,55.3,236z M54,177.2c-12.7,0-16.5,10.4-16.7,12.5
					c-0.1,1.1-0.8,3.1-1.6,5.6c-1.5,4.4-3.5,10.5-2.9,13.9c1,5.4,8.2,19.8,13,23.5c4.7,3.6,16.7,1.8,23.4,0.5
					c5.9-1.2,13.1-12.4,14.4-18.6c0.8-4,3.4-16.1,0.1-22.8c-3-6-6.4-7.8-10.6-8.6c-4.1-0.8-16.3-5.5-17.5-6
					C55,177.2,54.5,177.2,54,177.2z"/>
				<path class="st8" d="M57.4,232.7c-3.9,0-8-1.4-11.7-6.1c-7.9-10.3-10.7-19.8-8.7-29.1c1.8-8.3,9.6-19.3,18.8-17.6
					c8.9,1.6,14.4,3.6,18.4,6.5c1.1,0.3,8.1,2.8,6.5,15.7c-1.7,13.9-4.2,28.2-10.3,28.2l0,0c-1.3,0-3,0.4-4.9,1
					C63.1,231.9,60.3,232.7,57.4,232.7z M53.9,180.9c-7.7,0-14.1,9.6-15.7,16.8c-2,8.9,0.8,18,8.5,28.1c5.9,7.7,12.9,5.8,18.5,4.3
					c2-0.5,3.8-1,5.2-1l0,0c5.9,0,8.3-20.4,9.1-27.1c1.5-12.6-5.4-14.3-5.7-14.4c-0.1,0-0.2-0.1-0.2-0.1c-3.8-2.8-9.4-4.8-18-6.4
					C55,180.9,54.5,180.9,53.9,180.9z"/>
				<path class="st8" d="M63.9,226.2c-5,0-11.1-3.2-13.1-5.6c-6.7-8.1-6.9-15.6-6.4-21.3c0.5-5.9,4.4-10.3,10.3-11.8
					c4.5-1.2,12.8-1.6,15.7,3.9l0,0c0.1,0.2,7.6,16.6,0,31.2c-1.1,2-2.9,3.2-5.5,3.5C64.6,226.2,64.2,226.2,63.9,226.2z M60.5,188
					c-2,0-4,0.3-5.6,0.7c-5.4,1.4-8.9,5.4-9.4,10.8c-0.5,5.4-0.2,12.6,6.2,20.4c2,2.4,8.5,5.6,13.1,5.2c2.1-0.2,3.6-1.2,4.5-2.9
					c7.3-13.9,0.2-29.6,0-30.1C67.7,188.9,64,188,60.5,188z"/>
				<path class="st8" d="M62.2,219.8c-3.4,0-7.5-2.2-8.8-3.8c-4.5-5.4-4.7-10.5-4.3-14.3c0.4-4,3-7,7-8c3-0.8,8.7-1.1,10.7,2.7l0,0
					c0.2,0.4,5.1,11.1,0,20.9c-0.7,1.4-2,2.2-3.8,2.4C62.7,219.8,62.5,219.8,62.2,219.8z M60,194.4c-1.3,0-2.7,0.2-3.7,0.5
					c-3.5,0.9-5.8,3.5-6.1,7c-0.3,3.6-0.2,8.3,4,13.4c1.3,1.5,5.5,3.7,8.5,3.4c1.3-0.1,2.3-0.7,2.8-1.8c4.8-9.1,0.2-19.4,0-19.8
					C64.6,195,62.3,194.4,60,194.4z"/>
			</g>
		</g>
		<g>
			<text transform="matrix(1 0 0 1 28.7531 281.2383)" class="st3 st4 st5">Wood</text>
		</g>
	</g>
	<g>
		<g>
			
				<linearGradient id="SVGID_3_" gradientUnits="userSpaceOnUse" x1="255.4" y1="235.3" x2="361.8" y2="235.3" gradientTransform="matrix(1 0 0 -1 0 292)">
				<stop  offset="0" style="stop-color:#EDEEEE"/>
				<stop  offset="1" style="stop-color:#CDCFD0"/>
			</linearGradient>
			<path class="st9" d="M308.6,3.5c-29.3,0-53.2,23.9-53.2,53.2s23.9,53.2,53.2,53.2s53.2-23.9,53.2-53.2
				C361.8,27.3,337.9,3.5,308.6,3.5z"/>
			<g>
				<path class="st10" d="M308.6,111.7c-30.3,0-55-24.7-55-55s24.7-55,55-55s55,24.7,55,55S338.9,111.7,308.6,111.7z M308.6,3.5
					c-29.3,0-53.2,23.9-53.2,53.2s23.9,53.2,53.2,53.2s53.2-23.9,53.2-53.2C361.8,27.3,337.9,3.5,308.6,3.5z"/>
				<path class="st10" d="M321.8,43.5h-26.4c-0.3,0-0.6-0.1-0.7-0.4c-0.2-0.2-0.2-0.5-0.1-0.8l5.1-14.2c0.1-0.4,0.5-0.6,0.8-0.6
					h16.2c0.4,0,0.7,0.2,0.8,0.6l5.1,14.2c0.1,0.3,0.1,0.6-0.1,0.8C322.4,43.3,322.1,43.5,321.8,43.5z M296.7,41.7h23.9l-4.5-12.4
					h-14.9L296.7,41.7z"/>
				<g>
					<path class="st10" d="M336.9,61.7h-26.4c-0.3,0-0.6-0.1-0.7-0.4c-0.2-0.2-0.2-0.5-0.1-0.8l5.1-14.2c0.1-0.4,0.5-0.6,0.8-0.6
						h16.2c0.4,0,0.7,0.2,0.8,0.6l5.1,14.2c0.1,0.3,0.1,0.6-0.1,0.8C337.4,61.6,337.1,61.7,336.9,61.7z M311.7,59.9h23.9l-4.5-12.4
						h-14.9L311.7,59.9z"/>
					<path class="st10" d="M306.8,61.7h-26.4c-0.3,0-0.6-0.1-0.7-0.4c-0.2-0.2-0.2-0.5-0.1-0.8l5.1-14.2c0.1-0.4,0.5-0.6,0.8-0.6
						h16.2c0.4,0,0.7,0.2,0.8,0.6l5.1,14.2c0.1,0.3,0.1,0.6-0.1,0.8C307.4,61.6,307.1,61.7,306.8,61.7z M281.6,59.9h23.9L301,47.6
						h-14.9L281.6,59.9z"/>
				</g>
				<g>
					<path class="st10" d="M351.9,80h-26.4c-0.3,0-0.6-0.1-0.7-0.4c-0.2-0.2-0.2-0.5-0.1-0.8l5.1-14.2c0.1-0.4,0.5-0.6,0.8-0.6h16.2
						c0.4,0,0.7,0.2,0.8,0.6l5.1,14.2c0.1,0.3,0.1,0.6-0.1,0.8C352.5,79.8,352.2,80,351.9,80z M326.7,78.2h23.9l-4.5-12.4h-14.9
						L326.7,78.2z"/>
					<path class="st10" d="M321.8,80h-26.4c-0.3,0-0.6-0.1-0.7-0.4c-0.2-0.2-0.2-0.5-0.1-0.8l5.1-14.2c0.1-0.4,0.5-0.6,0.8-0.6h16.2
						c0.4,0,0.7,0.2,0.8,0.6l5.1,14.2c0.1,0.3,0.1,0.6-0.1,0.8C322.4,79.8,322.1,80,321.8,80z M296.7,78.2h23.9l-4.5-12.4h-14.9
						L296.7,78.2z"/>
					<path class="st10" d="M291.8,80h-26.4c-0.3,0-0.6-0.1-0.7-0.4c-0.2-0.2-0.2-0.5-0.1-0.8l5.1-14.2c0.1-0.4,0.5-0.6,0.8-0.6h16.2
						c0.4,0,0.7,0.2,0.8,0.6l5.1,14.2c0.1,0.3,0.1,0.6-0.1,0.8C292.3,79.8,292,80,291.8,80z M266.6,78.2h23.9L286,65.8h-14.9
						L266.6,78.2z"/>
				</g>
			</g>
			<path class="st10" d="M295.4,43.5c-0.3,0-0.5-0.1-0.7-0.4c-0.3-0.4-0.2-1,0.2-1.3l9.4-7.1c0.4-0.3,1-0.2,1.3,0.2s0.2,1-0.2,1.3
				l-9.4,7.1C295.8,43.4,295.6,43.5,295.4,43.5z"/>
			<path class="st10" d="M299.9,43.5c-0.3,0-0.5-0.1-0.7-0.4c-0.3-0.4-0.2-1,0.2-1.3l4.9-3.7c0.4-0.3,1-0.2,1.3,0.2s0.2,1-0.2,1.3
				l-4.9,3.7C300.2,43.4,300.1,43.5,299.9,43.5z"/>
			<path class="st10" d="M295.4,51.1c-0.3,0-0.5-0.1-0.7-0.4c-0.3-0.4-0.2-1,0.2-1.3l4.6-3.5c0.4-0.3,1-0.2,1.3,0.2s0.2,1-0.2,1.3
				l-4.6,3.5C295.8,51,295.6,51.1,295.4,51.1z"/>
			<path class="st10" d="M299.9,51.1c-0.3,0-0.5-0.1-0.7-0.4c-0.3-0.4-0.2-1,0.2-1.3l2.4-1.8c0.4-0.3,1-0.2,1.3,0.2s0.2,1-0.2,1.3
				l-2.4,1.8C300.2,51,300.1,51.1,299.9,51.1z"/>
			<path class="st10" d="M265.3,80c-0.3,0-0.5-0.1-0.7-0.4c-0.3-0.4-0.2-1,0.2-1.3l9.4-7.1c0.4-0.3,1-0.2,1.3,0.2
				c0.3,0.4,0.2,1-0.2,1.3l-9.4,7.1C265.7,79.9,265.5,80,265.3,80z"/>
			<path class="st10" d="M269.8,80c-0.3,0-0.5-0.1-0.7-0.4c-0.3-0.4-0.2-1,0.2-1.3l4.9-3.7c0.4-0.3,1-0.2,1.3,0.2
				c0.3,0.4,0.2,1-0.2,1.3l-4.9,3.7C270.2,79.9,270,80,269.8,80z"/>
			<path class="st10" d="M320.8,57c-0.3,0-0.5-0.1-0.7-0.4c-0.3-0.4-0.2-1,0.2-1.3l9.4-7.1c0.4-0.3,1-0.2,1.3,0.2s0.2,1-0.2,1.3
				l-9.4,7.1C321.1,56.9,320.9,57,320.8,57z"/>
			<path class="st10" d="M325.2,57c-0.3,0-0.5-0.1-0.7-0.4c-0.3-0.4-0.2-1,0.2-1.3l4.9-3.7c0.4-0.3,1-0.2,1.3,0.2s0.2,1-0.2,1.3
				l-4.9,3.7C325.6,56.9,325.4,57,325.2,57z"/>
			<path class="st10" d="M303.9,75.4c-0.3,0-0.5-0.1-0.7-0.4c-0.3-0.4-0.2-1,0.2-1.3l9.4-7.1c0.4-0.3,1-0.2,1.3,0.2
				c0.3,0.4,0.2,1-0.2,1.3l-9.4,7.1C304.3,75.3,304.1,75.4,303.9,75.4z"/>
			<path class="st10" d="M308.4,75.4c-0.3,0-0.5-0.1-0.7-0.4c-0.3-0.4-0.2-1,0.2-1.3l4.9-3.7c0.4-0.3,1-0.2,1.3,0.2
				c0.3,0.4,0.2,1-0.2,1.3l-4.9,3.7C308.8,75.3,308.6,75.4,308.4,75.4z"/>
			<path class="st10" d="M330.2,80c-0.3,0-0.5-0.1-0.7-0.4c-0.3-0.4-0.2-1,0.2-1.3l9.4-7.1c0.4-0.3,1-0.2,1.3,0.2
				c0.3,0.4,0.2,1-0.2,1.3l-9.4,7.1C330.5,79.9,330.4,80,330.2,80z"/>
			<path class="st10" d="M334.6,80c-0.3,0-0.5-0.1-0.7-0.4c-0.3-0.4-0.2-1,0.2-1.3l4.9-3.7c0.4-0.3,1-0.2,1.3,0.2
				c0.3,0.4,0.2,1-0.2,1.3l-4.9,3.7C335,79.9,334.8,80,334.6,80z"/>
		</g>
		<g>
			<text transform="matrix(1 0 0 1 280.6968 132.7565)" class="st3 st4 st5">Metal</text>
		</g>
	</g>
	<g>
		<g>
			<path class="st11" d="M237.8,55.1C175,66,120.9,91.9,83.8,127"/>
			<g>
				<polygon class="st12" points="81.9,113.3 86.5,124.4 97.8,128.8 71.4,139.9 				"/>
			</g>
		</g>
	</g>
	<g>
		<g>
			<path class="st11" d="M534.9,138.8c-33-36.7-83.6-65-143.6-79.2"/>
			<g>
				<polygon class="st12" points="401.9,50.6 394.9,60.5 397.2,72.4 373.8,55.9 				"/>
			</g>
		</g>
	</g>
</g>
<g>
	<text transform="matrix(1 0 0 1 411.1607 42.0923)" class="st3 st4 st5">Fire melts Metal</text>
</g>
<g>
	<text transform="matrix(1 0 0 1 30.7996 42.0923)" class="st3 st4 st5">Metal chops Wood</text>
</g>
</svg>
