<?xml version="1.0" encoding="utf-8"?>
<!-- Generator: Adobe Illustrator 19.2.1, SVG Export Plug-In . SVG Version: 6.00 Build 0)  -->
<svg version="1.1" id="Layer_1" xmlns="http://www.w3.org/2000/svg" xmlns:xlink="http://www.w3.org/1999/xlink" x="0px" y="0px"
	 viewBox="0 0 103 103" style="enable-background:new 0 0 103 103;" xml:space="preserve">
<style type="text/css">
	.st0{fill:#FFFFFF;}
</style>
<g>
	<path class="st0" d="M51.5,101.5c-27.6,0-50-22.4-50-50s22.4-50,50-50s50,22.4,50,50S79.1,101.5,51.5,101.5z M51.5,3.1
		C24.8,3.1,3.1,24.8,3.1,51.5s21.7,48.4,48.4,48.4s48.4-21.7,48.4-48.4S78.2,3.1,51.5,3.1z"/>
	<path class="st0" d="M51.5,65.6c-7.8,0-14.1-6.3-14.1-14.1c0-7.8,6.3-14.1,14.1-14.1c7.8,0,14.1,6.3,14.1,14.1
		C65.6,59.3,59.3,65.6,51.5,65.6z M51.5,39C44.6,39,39,44.6,39,51.5C39,58.4,44.6,64,51.5,64C58.4,64,64,58.4,64,51.5
		C64,44.6,58.4,39,51.5,39z"/>
	<path class="st0" d="M56.6,35.5c-0.1,0-0.2,0-0.2,0c-3.1-0.9-6.3-1-9.4-0.1c-0.3,0.1-0.7,0-0.9-0.3c-0.3-0.5-8.3-12.5-4.7-19.3
		c1.6-2.9,4.9-4.4,10.1-4.4c5,0,8.4,1.5,10,4.4c3.7,6.8-3.9,18.9-4.2,19.4C57.1,35.4,56.9,35.5,56.6,35.5z M51.5,33.1
		c1.6,0,3.2,0.2,4.7,0.6c1.4-2.3,6.7-12,3.8-17.2c-1.3-2.3-4.2-3.5-8.5-3.5c-4.5,0-7.4,1.2-8.6,3.5c-2.8,5.2,2.8,14.9,4.3,17.1
		C48.6,33.3,50,33.1,51.5,33.1z"/>
	<path class="st0" d="M51.8,34.5c-0.2,0-0.4-0.1-0.5-0.3c0-0.1-1.2-2-2-4.1c-1.2-3.1-1-5.2,0.6-6.2c0.3-0.2,0.6-0.1,0.8,0.2
		c0.2,0.3,0.1,0.6-0.2,0.8c-2.2,1.4,0.6,6.8,1.8,8.8c0.2,0.3,0.1,0.6-0.2,0.8C52,34.5,51.9,34.5,51.8,34.5z"/>
	<path class="st0" d="M32.3,48c-4.3,0-13.7-0.6-16.8-5.7c-1.7-2.8-1.3-6.5,1.2-10.9l0,0c2.5-4.3,5.4-6.4,8.6-6.4c0.1,0,0.1,0,0.2,0
		c7.8,0.2,14.4,12.8,14.7,13.3c0.2,0.3,0.1,0.7-0.2,1c-2.3,2.2-4,5-4.8,8.1c-0.1,0.3-0.4,0.6-0.7,0.6C34.4,48,33.6,48,32.3,48z
		 M18.1,32.2c-2.2,3.9-2.7,7-1.3,9.2c3.1,5,14.3,5,17,4.9c0.9-2.9,2.4-5.6,4.6-7.8c-1.3-2.4-7-11.8-13-11.9c0,0-0.1,0-0.1,0
		C22.7,26.6,20.3,28.5,18.1,32.2L18.1,32.2z"/>
	<path class="st0" d="M35.9,43c-0.8,0-2.4,0-4-0.3c-3.3-0.6-5-1.8-5.1-3.6c0-0.3,0.2-0.6,0.5-0.6c0.3,0,0.6,0.2,0.6,0.5
		c0.1,2.6,6.2,2.9,8.5,2.8c0.3,0,0.6,0.2,0.6,0.5c0,0.3-0.2,0.6-0.5,0.6C36.4,43,36.2,43,35.9,43z"/>
	<path class="st0" d="M25.3,78.1c-3.2,0-6.1-2.2-8.6-6.5c-2.5-4.3-2.9-8-1.2-10.8c4-6.6,18.3-6.1,18.9-6.1c0.4,0,0.7,0.3,0.8,0.6
		c0.7,3.1,2.3,5.9,4.6,8.2c0.3,0.2,0.3,0.6,0.2,0.9c-0.3,0.5-6.7,13.4-14.4,13.7C25.5,78.1,25.4,78.1,25.3,78.1z M33.4,56.3
		c-3.2,0-13.5,0.4-16.5,5.3c-1.4,2.3-1,5.4,1.2,9.1l0,0c2.2,3.9,4.7,5.8,7.4,5.7c5.9-0.2,11.4-9.9,12.7-12.2
		c-2.1-2.2-3.7-4.9-4.5-7.9C33.6,56.3,33.5,56.3,33.4,56.3z"/>
	<path class="st0" d="M29.7,67c-0.4,0-0.8-0.1-1.2-0.3c-0.3-0.1-0.4-0.5-0.2-0.7c0.1-0.3,0.5-0.4,0.7-0.2c2.3,1.2,5.6-3.9,6.7-6
		c0.1-0.3,0.5-0.4,0.7-0.2c0.3,0.1,0.4,0.5,0.2,0.7c0,0.1-1.1,2-2.6,3.8C32.5,66.1,31,67,29.7,67z"/>
	<path class="st0" d="M51.5,91.7c-5,0-8.4-1.5-10-4.4c-3.7-6.8,3.9-18.9,4.2-19.4c0.2-0.3,0.6-0.5,0.9-0.3c3.1,0.9,6.3,1,9.4,0.1
		c0.3-0.1,0.7,0,0.9,0.3c0.3,0.5,8.3,12.5,4.7,19.3C60,90.2,56.6,91.7,51.5,91.7z M46.8,69.3c-1.4,2.3-6.7,12-3.8,17.2
		c1.3,2.3,4.2,3.5,8.5,3.5c4.5,0,7.4-1.2,8.6-3.5c2.8-5.2-2.8-14.9-4.3-17.1C52.9,70.1,49.8,70.1,46.8,69.3z"/>
	<path class="st0" d="M52.9,79.2c-0.2,0-0.4-0.1-0.5-0.2c-0.2-0.3-0.1-0.6,0.2-0.8c2.2-1.4-0.6-6.8-1.8-8.8
		c-0.2-0.3-0.1-0.6,0.2-0.8c0.3-0.2,0.6-0.1,0.8,0.2c0,0.1,1.2,2,2,4.1c1.2,3.1,1,5.2-0.6,6.2C53.1,79.2,53,79.2,52.9,79.2z"/>
	<path class="st0" d="M77.7,78c-0.1,0-0.1,0-0.2,0c-7.8-0.2-14.4-12.8-14.7-13.3c-0.2-0.3-0.1-0.7,0.2-1c2.3-2.2,4-5,4.8-8.1
		c0.1-0.3,0.4-0.6,0.7-0.6c0.6,0,15-0.9,19,5.6c1.7,2.8,1.3,6.5-1.2,10.9l0,0C83.8,75.9,80.9,78,77.7,78z M64.5,64.5
		c1.3,2.4,7,11.8,13,11.9c0,0,0.1,0,0.1,0c2.6,0,5-1.9,7.2-5.6l0,0c2.2-3.9,2.7-7,1.3-9.2c-3.1-5-14.3-5-17-4.9
		C68.3,59.6,66.7,62.3,64.5,64.5z M85.6,71.2L85.6,71.2L85.6,71.2z"/>
	<path class="st0" d="M81.3,66.8c-0.3,0-0.5-0.2-0.5-0.5c-0.1-2.4-8.8-4.5-14.2-5.2c-0.3,0-0.5-0.3-0.5-0.6c0-0.3,0.3-0.5,0.6-0.5
		c0,0,3.7,0.5,7.3,1.5c5.2,1.4,7.7,2.9,7.8,4.7C81.8,66.5,81.6,66.8,81.3,66.8C81.3,66.8,81.3,66.8,81.3,66.8z"/>
	<path class="st0" d="M69.7,48.3c-0.7,0-1.1,0-1.2,0c-0.4,0-0.7-0.3-0.8-0.6c-0.7-3.1-2.3-5.9-4.6-8.2c-0.3-0.2-0.3-0.6-0.2-0.9
		c0.3-0.5,6.7-13.4,14.4-13.7c3.3-0.1,6.3,2.1,8.8,6.5l0,0c2.5,4.3,2.9,8,1.2,10.8C84.1,47.8,73.3,48.3,69.7,48.3z M69.2,46.7
		c2.7,0,13.7-0.2,16.8-5.3c1.4-2.3,1-5.4-1.2-9.1l0,0c-2.2-3.9-4.7-5.8-7.4-5.7c-5.9,0.2-11.4,9.9-12.7,12.2
		C66.9,41,68.4,43.7,69.2,46.7z"/>
	<path class="st0" d="M66.8,43.5c-0.1,0-0.2,0-0.3-0.1c-0.3-0.1-0.4-0.5-0.2-0.7c0-0.1,1.1-2,2.6-3.8c2.1-2.6,4-3.4,5.6-2.6
		c0.3,0.1,0.4,0.5,0.2,0.7c-0.1,0.3-0.5,0.4-0.7,0.2c-2.3-1.2-5.6,3.9-6.7,6C67.2,43.4,67,43.5,66.8,43.5z"/>
	<path class="st0" d="M51.8,34.5c-0.1,0-0.2,0-0.3-0.1c-0.2-0.2-0.3-0.5-0.1-0.8c2.7-3.8,6.4-10.7,4.9-12.8
		c-0.2-0.2-0.1-0.6,0.1-0.8c0.2-0.2,0.6-0.1,0.8,0.1c2.3,3.4-4.2,13-4.9,14C52.1,34.4,51.9,34.5,51.8,34.5z"/>
	<path class="st0" d="M36.4,41.3c-0.2,0-0.4-0.1-0.5-0.2c0,0-1.6-2.5-4.1-2.3c-0.3,0-0.6-0.2-0.6-0.5c0-0.3,0.2-0.6,0.5-0.6
		c3.1-0.2,5,2.7,5,2.8c0.2,0.3,0.1,0.6-0.2,0.8C36.6,41.3,36.5,41.3,36.4,41.3z"/>
	<path class="st0" d="M67.8,45.5c-0.3,0-0.5-0.2-0.5-0.5c0-0.3,0.2-0.6,0.5-0.6c2.2-0.2,5.5-0.9,6-1.7c0-0.1,0-0.1,0-0.1
		c-0.1-0.3,0.1-0.6,0.4-0.7c0.3-0.1,0.6,0.1,0.7,0.4c0.1,0.4,0,0.7-0.2,1C73.6,44.9,68.8,45.4,67.8,45.5
		C67.8,45.5,67.8,45.5,67.8,45.5z"/>
	<path class="st0" d="M73.9,68.8c-0.8,0-2.7-0.9-7.7-5.6c-0.2-0.2-0.2-0.6,0-0.8c0.2-0.2,0.6-0.2,0.8,0c2.7,2.6,6.1,5.4,6.8,5.3
		c0.3-0.1,0.6,0.1,0.7,0.4c0.1,0.3-0.1,0.6-0.4,0.7C74,68.8,73.9,68.8,73.9,68.8z"/>
	<path class="st0" d="M49.1,83.5c-0.2,0-0.3-0.1-0.4-0.2c-4.5-5.1-0.3-13.4-0.1-13.8c0.1-0.3,0.5-0.4,0.7-0.2
		c0.3,0.1,0.4,0.5,0.2,0.7c0,0.1-4.1,8-0.1,12.5c0.2,0.2,0.2,0.6,0,0.8C49.3,83.4,49.2,83.5,49.1,83.5z"/>
	<path class="st0" d="M28.9,61.1c-0.1,0-0.2,0-0.2-0.1c-0.7-0.4-0.8-0.8-0.8-1.1c0.2-1,2.6-1.8,7.2-2.5c0.3,0,0.6,0.2,0.6,0.5
		c0,0.3-0.2,0.6-0.5,0.6c-2.8,0.4-5.5,1.1-6.2,1.5c0,0,0.1,0,0.1,0.1c0.3,0.1,0.4,0.5,0.2,0.7C29.3,61,29.1,61.1,28.9,61.1z"/>
</g>
</svg>
