<?xml version="1.0" encoding="utf-8"?>
<!-- Generator: Adobe Illustrator 19.2.1, SVG Export Plug-In . SVG Version: 6.00 Build 0)  -->
<svg version="1.1" id="Layer_1" xmlns="http://www.w3.org/2000/svg" xmlns:xlink="http://www.w3.org/1999/xlink" x="0px" y="0px"
	 viewBox="0 0 205 205" style="enable-background:new 0 0 205 205;" xml:space="preserve">
<style type="text/css">
	.st0{fill:url(#SVGID_1_);}
</style>
<linearGradient id="SVGID_1_" gradientUnits="userSpaceOnUse" x1="2.4318" y1="102.5" x2="202.5682" y2="102.5">
	<stop  offset="0" style="stop-color:#FFFFFF"/>
	<stop  offset="1" style="stop-color:#B8BABC"/>
</linearGradient>
<path class="st0" d="M202.4,99.2c-0.7-21.5-8.2-41.1-20.2-57.1c-0.2-0.4-0.4-0.7-0.7-0.9C163,17.8,134.4,2.5,102.4,2.5
	c-55.1,0-100,44.9-100,100c0,13.6,2.7,26.5,7.6,38.4c0,0.4,0.2,0.5,0.4,0.9c5.5,12.5,13.5,23.8,23.3,33.3c0.2,0.2,0.4,0.4,0.5,0.5
	c15.1,14.2,34.5,23.6,56,26.2c0.2,0.2,0.5,0.2,0.7,0.2h0.2c3.6,0.4,7.3,0.5,11.1,0.5c19.5,0,37.5-5.6,52.9-15.1
	c0.2,0,0.5-0.2,0.7-0.5c28-17.8,46.5-48.9,46.5-84.4c0-0.5,0-1.1,0-1.6c0,0,0,0,0-0.2C202.6,100.1,202.6,99.6,202.4,99.2z
	 M5.7,102.5c0-53.3,43.5-96.7,96.7-96.7c28.4,0,54,12.4,71.6,31.8c-7.6-3.1-15.8-4.7-24-4.7c-16.9,0-32.5,6.7-44,18
	c-0.2,0.2-0.4,0.2-0.5,0.4s-0.4,0.4-0.5,0.7c-8,8.2-13.8,18.7-16.4,30.4c-0.2,0.9,0.4,1.8,1.3,2c0.2,0,0.2,0,0.4,0
	c0.7,0,1.5-0.5,1.6-1.3c2.5-11.5,8.4-21.6,16.2-29.5c8.9-6.2,19.5-9.5,30.4-9.5c10.7,0,21.1,3.1,30,9.1
	c12.2,7.1,19.8,20.4,19.8,34.4c0,21.1-16.5,38.4-37.3,39.8c-8.2-1.1-15.8-4.4-22.2-9.5c1.8,0.4,3.6,0.5,5.6,0.5
	c16.5,0,30.7-14.4,30.7-31.6c0-16.9-13.8-30.7-30.7-30.7c-0.4,0-0.5,0.2-0.7,0.2c-0.2,0-0.2,0-0.4,0c-3.5,0-6.9,0.4-10,1.3
	c-0.2,0-0.2,0-0.4,0.2c-13.8,3.5-25.5,13.6-30.2,27.6c-1.5,4-2,8-2.4,12.2c-7.1-1.3-14.7-1.8-22.9-1.8c-22.2,0-43.5,7.8-60.2,22.2
	C6.1,112.9,5.7,107.8,5.7,102.5z M144.1,86.5c0-11.1-6-21.3-15.3-26.7c1.5-0.2,2.9-0.2,4.4-0.2c0.4,0,0.5-0.2,0.7-0.2
	c0.2,0,0.2,0,0.4,0c15.1,0,27.5,12.4,27.5,27.5c0,15.5-12.5,28.4-27.5,28.4c-2.7,0-5.1-0.4-7.6-1.1C137.2,109,144.1,98.3,144.1,86.5
	z M122.1,112.3c-9.5-7.6-18.7-12-28.7-14.4c0.2-4,0.9-8,2.2-11.8c4.5-12.7,15.1-22.2,27.6-25.5c10.4,4.4,17.5,14.5,17.5,25.8
	C140.6,98.1,133,108.7,122.1,112.3z M7.5,121.6C23.9,106.9,45,98.9,67.2,98.9c8.5,0,16.4,0.5,23.6,2c0.2,0.2,0.5,0.4,0.9,0.4
	c0.2,0,0.2,0,0.4,0c7.5,1.6,14.5,4.5,21.6,9.3c-10.4-4.2-21.5-6.4-32.9-6.4c-26.7,0-52,12.5-68.5,33.5C10.3,132.3,8.8,127,7.5,121.6
	z M34.2,171c-8.5-8.5-15.6-18.7-20.5-30c15.6-20.9,40.7-33.6,67.1-33.6c15.5,0,30.2,4.2,43.1,11.8c-6-1.3-12.4-2-18.5-2
	C71.9,117.2,43.2,139.2,34.2,171z M37,173.6c7.8-31.5,35.8-53.3,68.4-53.3c8.7,0,18.5,1.6,26.4,4.4c0.2,0.2,0.4,0.2,0.5,0.4
	c0.4,0.4,0.7,0.4,1.3,0.2c0.5,0.2,1.1,0.4,1.5,0.7c0.9,0.4,1.6,0.7,2.5,1.3c-28.5,1.3-51.5,25.1-51.5,54c0,5.8,0.9,11.6,2.7,17.1
	C69,195.4,51,186.5,37,173.6z M102.4,199.2c-3.5,0-6.7-0.2-10-0.5c-2.2-5.6-3.1-11.5-3.1-17.5c0-28,22.9-50.9,50.9-50.9
	c2,0,4,0.2,6,0.4c-10,4.9-17.1,15.1-17.1,27.1c0,13.3,8.9,24.9,21.3,28.7C136.2,194.5,119.9,199.2,102.4,199.2z M154.4,184
	c-12.5-2.4-22-13.5-22-26.2c0-14.7,12-26.7,26.7-26.7c0.2,0,0.4,0,0.5-0.2c16.4-0.9,30.9-9.8,39.3-23.6
	C197.5,139.4,180.1,167.6,154.4,184z M166.2,126.9c14.9-6.7,25.3-22,25.1-39.5c0-15.3-8.2-29.5-21.3-37.1
	c-9.3-6.2-20.4-9.5-31.6-9.5c-5.6,0-11.3,0.9-16.5,2.5c8.5-4.5,18.2-7.3,28.2-7.3c10.2,0,20.2,2.5,28.9,7.5
	c12.2,15.6,19.5,35.3,20,56.4C193.2,114,180.8,124,166.2,126.9z"/>
</svg>
