<?xml version="1.0" encoding="utf-8"?>
<!-- Generator: Adobe Illustrator 19.2.1, SVG Export Plug-In . SVG Version: 6.00 Build 0)  -->
<svg version="1.1" id="Layer_1" xmlns="http://www.w3.org/2000/svg" xmlns:xlink="http://www.w3.org/1999/xlink" x="0px" y="0px"
	 viewBox="0 0 110 110" style="enable-background:new 0 0 110 110;" xml:space="preserve">
<style type="text/css">
	.st0{fill:#FFFFFF;}
	.st1{opacity:0.5;fill:url(#SVGID_1_);}
	.st2{fill:#6E9981;}
</style>
<g>
	<path class="st0" d="M55,1.8C25.7,1.8,1.8,25.7,1.8,55s23.9,53.2,53.2,53.2s53.2-23.9,53.2-53.2S84.3,1.8,55,1.8z"/>
	<linearGradient id="SVGID_1_" gradientUnits="userSpaceOnUse" x1="1.8033" y1="55" x2="108.1967" y2="55">
		<stop  offset="0" style="stop-color:#B0D79C"/>
		<stop  offset="1" style="stop-color:#6E9981"/>
	</linearGradient>
	<path class="st1" d="M55,1.8C25.7,1.8,1.8,25.7,1.8,55s23.9,53.2,53.2,53.2s53.2-23.9,53.2-53.2S84.3,1.8,55,1.8z"/>
	<path class="st2" d="M55,110C24.7,110,0,85.3,0,55S24.7,0,55,0s55,24.7,55,55S85.3,110,55,110z M55,1.8C25.7,1.8,1.8,25.7,1.8,55
		s23.9,53.2,53.2,53.2s53.2-23.9,53.2-53.2S84.3,1.8,55,1.8z"/>
	<g>
		<path class="st2" d="M61.1,101.7c-5.7,0-25-5-29.7-9.3c-1.9-1.8-4.4-3.6-6.8-5.3c-3.3-2.4-6.5-4.6-7.7-6.7
			c-1.9-3.2-7.2-17-6.5-25.4c0.3-4.2,1.8-9.2,3.2-14c1.3-4.4,2.5-8.6,2.5-11.1c0-6.1,10.7-14.1,14.1-15c0.4-0.1,5.9-1.7,11.2-2.4
			c5-0.6,7.9-1.8,10.2-4.1c1.8-1.8,6.3-1.3,12-0.6c1.9,0.2,3.6,0.5,4.3,0.4c3.3-0.5,13.2,6.2,16.9,10.7c4.3,5.3,12.7,13.7,16.3,16.3
			c3.1,2.3,1.9,8.2,1,12.6c-0.3,1.5-0.6,2.9-0.6,3.6c0,3.3-0.2,14-2.1,15.2c-0.7,0.6-3.6,5.4-5.9,9.3c-4.1,6.8-6.8,11.3-8.1,12.4
			c-2.3,2-18.7,12.9-23.7,13.3C61.5,101.7,61.3,101.7,61.1,101.7z M56.3,9c-1.6,0-2.9,0.2-3.5,0.7c-2.6,2.6-5.9,3.9-11.3,4.6
			c-5.2,0.7-10.9,2.3-10.9,2.3c0,0,0,0,0,0c-3.2,0.8-12.8,8.5-12.8,13.2c0,2.8-1.2,7.1-2.6,11.6c-1.4,4.7-2.8,9.6-3.1,13.7
			c-0.7,8,4.4,21.2,6.3,24.3c1.1,1.8,4.1,3.9,7.2,6.1c2.5,1.7,5,3.5,7,5.4c4.5,4.1,24.3,9.1,28.9,8.8c4.3-0.3,20.1-10.7,22.6-12.9
			c1.1-1,4.8-7,7.7-11.9c4.3-7.2,5.7-9.4,6.5-9.9c0.8-1.1,1.3-8.9,1.3-13.7c0-0.9,0.3-2.3,0.6-4c0.8-3.6,1.9-9.1-0.3-10.7
			c-3.8-2.7-12.2-11.1-16.6-16.6C79.1,14.8,70,9.7,68.1,10c-0.9,0.1-2.6-0.1-4.8-0.4C61.3,9.4,58.5,9,56.3,9z"/>
		<path class="st2" d="M59.3,95.3c-3.2,0-7.4-0.6-12.8-2.9c-8.4-3.7-19.8-10.3-22-12.8c-0.4-0.4-9.5-10.9-8.1-21.1
			c0.7-5.2,1.8-9.6,2.7-13.1c0.6-2.5,1.2-4.6,1.4-6.4c0.2-1.2,0.8-5.4,2.6-9.4c1.9-4.2,4.4-6.9,7.5-7.9c0.5-0.2,9.6-3.3,13.1-3.6
			c1.9-0.2,5.1-1.4,8-2.5c2.6-1,4.8-1.8,6.1-1.9c1.1-0.1,11-1.1,16.4,4.1c2.5,2.4,3.8,3.5,5,4.5c1,0.8,1.8,1.5,3.1,2.9
			c1.4,1.4,3.1,3.5,4.7,5.5c1.8,2.2,3.5,4.3,4.5,5.2c2.3,2,4,7.9,4,11.9c0,3.4-1.5,8.9-2.6,12.9c-0.3,1-0.5,1.9-0.7,2.6
			c-0.9,3.6-9.6,17.4-12,19.5c-0.2,0.2-0.5,0.5-0.9,0.8c-5.5,4.9-12.3,10.6-15,11.1C63.4,95,61.6,95.3,59.3,95.3z M60.9,14.8
			c-1.5,0-2.5,0.1-2.8,0.1c-1.1,0.1-3.4,1-5.8,1.9c-3.1,1.2-6.3,2.4-8.4,2.5c-3.4,0.3-12.7,3.5-12.8,3.5c0,0,0,0,0,0
			c-7.2,2.3-9.1,14.9-9.3,16.3c-0.2,1.9-0.8,4-1.4,6.5c-0.9,3.5-2,7.8-2.7,12.9c-1.3,9.6,7.4,19.7,7.8,20.1
			C27.4,81,38.2,87.5,47,91.3c8.9,3.9,14.4,2.9,17.3,2.3c2.8-0.5,11.5-8.3,14.4-10.8c0.4-0.3,0.7-0.6,0.9-0.8
			c2.3-2,10.8-15.5,11.6-18.8c0.2-0.7,0.4-1.6,0.7-2.6c1.1-3.9,2.5-9.4,2.5-12.6c0-4.1-1.8-9.4-3.6-11c-1.1-1-2.8-3.1-4.7-5.3
			c-1.6-2-3.3-4.1-4.7-5.5c-1.3-1.3-2.1-2-3.1-2.8c-1.1-0.9-2.5-2.1-5-4.6C70,15.4,64.3,14.8,60.9,14.8z"/>
		<path class="st2" d="M55.4,91.8c-5.2,0-14.6-3.7-16.9-4.7c-1.7-0.7-10-4.7-11.6-9.3c-0.5-1.4-1.6-3.6-2.7-5.8
			c-2.2-4.3-4.7-9.2-4.9-12.5c-0.2-3.1,1.5-7.9,3.2-12.6c1.1-3,2.1-5.9,2.4-7.8c0.6-4.5,1.8-9.1,5.8-12.3c0.4-0.4,5.9-5.4,9.7-5.1
			c2.3,0.2,6.7-0.8,10.7-1.8c2.1-0.5,4.1-1,5.5-1.2c4.1-0.6,13.8,0.2,17,4.2c0.9,1.1,2.4,2.7,4.1,4.6c3.9,4.3,8.3,9.1,9.3,11.5
			c0.1,0.3,0.3,0.6,0.4,0.9c1.3,3,2.6,6.2,1.6,13c-0.4,2.7-0.6,4.7-0.7,6.4C88.1,62,87.9,64,87,67.1c-1.4,5.2-6.8,13.5-10.5,16.2
			c-3.8,2.8-15.6,8.1-20.4,8.4C55.9,91.8,55.7,91.8,55.4,91.8z M40.1,22.8c-2.8,0-7.1,3.4-8.5,4.8c0,0,0,0,0,0
			c-3.7,2.9-4.8,7.3-5.4,11.5c-0.3,2-1.3,4.9-2.5,8c-1.6,4.3-3.4,9.3-3.2,12.1c0.2,3.1,2.8,8.1,4.8,12.1c1.2,2.4,2.3,4.5,2.8,6
			C29.1,80.6,34.6,84,39,86c3.5,1.6,12.7,4.9,17,4.6c4.6-0.3,16.2-5.5,19.8-8.2c3.5-2.5,8.7-10.7,10-15.6c0.8-3.1,1-4.9,1.3-7.7
			c0.2-1.6,0.3-3.7,0.7-6.4c0.9-6.4-0.4-9.4-1.6-12.3c-0.1-0.3-0.3-0.6-0.4-1c-0.9-2.2-5.4-7.1-9-11.1c-1.7-1.9-3.2-3.5-4.1-4.6
			c-2.8-3.4-11.9-4.4-15.9-3.8c-1.4,0.2-3.4,0.7-5.5,1.2c-4,1-8.6,2-11,1.8C40.3,22.8,40.2,22.8,40.1,22.8z"/>
		<path class="st2" d="M52,85.9c-4.2,0-7.9-0.6-10.2-2.4c-5-3.8-12.5-18.6-13.5-24.2c-0.7-3.7,1.3-9.7,2.9-14.5
			c0.8-2.3,1.4-4.3,1.5-5.3c0.4-3.9,5.8-14.5,19.7-13.6c0.1,0,0.1,0,0.2,0c0.1,0.1,13.3,5.2,17.4,6c3.9,0.7,8,2.4,11.5,9.2
			c3.5,7.1,0.9,19.5,0.1,23.6c-1.2,5.9-8.6,18.1-15.4,19.5C61.7,85.1,56.6,85.9,52,85.9z M50.7,27C38,27,34.2,37.4,34,39.6
			c-0.1,1.1-0.8,3.1-1.6,5.6c-1.5,4.4-3.5,10.5-2.9,13.9c1,5.4,8.2,19.8,13,23.5c4.7,3.6,16.7,1.8,23.4,0.5
			c5.9-1.2,13.1-12.4,14.4-18.6c0.8-4,3.4-16.1,0.1-22.8c-3-6-6.4-7.8-10.6-8.6c-4.1-0.8-16.3-5.5-17.5-6C51.7,27.1,51.2,27,50.7,27
			z"/>
		<path class="st2" d="M54.1,82.5c-3.9,0-8-1.4-11.7-6.1C34.5,66,31.7,56.5,33.7,47.3C35.6,39,43.3,28,52.5,29.7
			c8.9,1.6,14.4,3.6,18.4,6.5C72,36.6,79,39,77.5,52c-1.7,13.9-4.2,28.2-10.3,28.2c0,0,0,0,0,0c-1.3,0-3,0.4-4.9,1
			C59.8,81.7,57,82.5,54.1,82.5z M50.6,30.7c-7.7,0-14.1,9.6-15.7,16.8c-2,8.9,0.8,18,8.5,28.1c5.9,7.7,12.9,5.8,18.5,4.3
			c2-0.5,3.8-1,5.2-1c0,0,0,0,0,0c5.9,0,8.3-20.4,9.1-27.1c1.5-12.6-5.4-14.3-5.7-14.4c-0.1,0-0.2-0.1-0.2-0.1
			c-3.8-2.8-9.4-4.8-18-6.4C51.7,30.8,51.2,30.7,50.6,30.7z"/>
		<path class="st2" d="M60.6,76c-5,0-11.1-3.2-13.1-5.6c-6.7-8.1-6.9-15.6-6.4-21.3c0.5-5.9,4.4-10.3,10.3-11.8
			c4.5-1.2,12.8-1.6,15.7,3.9c0,0,0,0,0,0c0.1,0.2,7.6,16.6,0,31.2c-1.1,2-2.9,3.2-5.5,3.5C61.3,76,60.9,76,60.6,76z M57.2,37.8
			c-2,0-4,0.3-5.6,0.7c-5.4,1.4-8.9,5.4-9.4,10.8c-0.5,5.4-0.2,12.6,6.2,20.4c2,2.4,8.5,5.6,13.1,5.2c2.1-0.2,3.6-1.2,4.5-2.9
			c7.3-13.9,0.2-29.6,0-30.1C64.4,38.7,60.7,37.8,57.2,37.8z"/>
		<path class="st2" d="M58.9,69.6c-3.4,0-7.5-2.2-8.8-3.8c-4.5-5.4-4.7-10.5-4.3-14.3c0.4-4,3-7,7-8c3-0.8,8.7-1.1,10.7,2.7
			c0,0,0,0,0,0c0.2,0.4,5.1,11.1,0,20.9c-0.7,1.4-2,2.2-3.8,2.4C59.4,69.6,59.2,69.6,58.9,69.6z M56.7,44.2c-1.3,0-2.7,0.2-3.7,0.5
			c-3.5,0.9-5.8,3.5-6.1,7c-0.3,3.6-0.2,8.3,4,13.4c1.3,1.5,5.5,3.7,8.5,3.4c1.3-0.1,2.3-0.7,2.8-1.8c4.8-9.1,0.2-19.4,0-19.8
			C61.3,44.8,59,44.2,56.7,44.2z"/>
	</g>
</g>
</svg>
