<?xml version="1.0" encoding="utf-8"?>
<!-- Generator: Adobe Illustrator 19.2.1, SVG Export Plug-In . SVG Version: 6.00 Build 0)  -->
<svg version="1.1" id="Layer_1" xmlns="http://www.w3.org/2000/svg" xmlns:xlink="http://www.w3.org/1999/xlink" x="0px" y="0px"
	 viewBox="0 0 100 100" style="enable-background:new 0 0 100 100;" xml:space="preserve">
<style type="text/css">
	.st0{fill:#858585;stroke:#FFFFFF;stroke-width:2;stroke-miterlimit:10;}
</style>
<path class="st0" d="M67,3.7c-0.2-0.1-0.3,0-0.5,0c1.7,0.3,3.4,0.8,5,1.4C78.7,8,84,14.2,85.8,21.8c0.4,2,0.6,4,0.6,6
	C86,38.2,79,46.8,69.6,49.6c-1.4,0.4-2.9,0.7-4.3,0.9c-0.9,0.1-1.8,0.1-2.7,0.1c-6.4,0.1-11.9,2.4-16.4,6.8c-3.1,3.1-5.2,6.7-6.3,11
	c-0.3,1.3-0.5,2.7-0.6,4c-0.1,1.3-0.1,2.6,0,3.9c0.3,3.1,1.2,6.1,2.6,8.8c3.1,5.9,8.8,10.3,15.3,11.9c1,0.2,2.1,0.4,3.2,0.5
	c1.2,0.1,2.3,0.2,3.5,0.1c0.2,0,0.4,0,0.7,0c0.7,0,1.4-0.1,2.1-0.1c0.4,0,0.7-0.1,1.1-0.1l0,0c0,0.1-0.1,0.1-0.2,0.1
	c-0.4,0-0.9,0.1-1.3,0.1c-0.5,0-0.9,0.1-1.4,0.2c-1.2,0-2.4,0-3.6,0c-0.1,0-0.2-0.1-0.4-0.1c-0.7-0.1-1.4-0.1-2.1-0.2
	c-1.3-0.1-2.7-0.3-4-0.5c-2.2-0.4-4.3-0.9-6.4-1.6c-6.5-2.1-12.3-5.4-17.3-10c-5.9-5.4-10.2-11.8-12.9-19.4c-0.9-2.5-1.5-5-2-7.6
	c-0.2-1.1-0.4-2.2-0.4-3.4c-0.1-0.9-0.1-1.7-0.2-2.6c0-0.2,0-0.4-0.1-0.6c0-1,0-1.9,0-2.9c0.1-0.2,0.1-0.5,0.1-0.8
	c0.1-2,0.3-4,0.7-6c0.5-3.1,1.4-6.1,2.5-9c2.9-7.2,7.3-13.4,13.2-18.5c5.1-4.4,10.8-7.5,17.2-9.4C52,4.6,54.9,4,57.8,3.7
	c1.3-0.1,2.6-0.2,3.9-0.2c0.3,0,0.6,0,0.9,0c0.1,0,0.2,0,0.2-0.1c0.5,0,1.1,0,1.6,0c0.2,0,0.3,0.1,0.5,0.1c0.6,0,1.3,0.1,1.9,0.1
	C66.9,3.6,67,3.6,67,3.7L67,3.7z M58.3,26.2c-0.1,2.2,1.7,4.5,4.5,4.5c2.6,0,4.5-2.1,4.5-4.4c0-2.5-2.1-4.5-4.5-4.5
	C60.2,21.8,58.2,23.9,58.3,26.2z"/>
</svg>
