<?xml version="1.0" encoding="utf-8"?>
<!-- Generator: Adobe Illustrator 19.2.1, SVG Export Plug-In . SVG Version: 6.00 Build 0)  -->
<svg version="1.1" id="Layer_1" xmlns="http://www.w3.org/2000/svg" xmlns:xlink="http://www.w3.org/1999/xlink" x="0px" y="0px"
	 viewBox="0 0 103 103" style="enable-background:new 0 0 103 103;" xml:space="preserve">
<style type="text/css">
	.st0{fill:#FFFFFF;}
	.st1{opacity:0.2;}
	.st2{opacity:0.8;fill:#FFFFFF;}
</style>
<g>
	<g>
		<path class="st0" d="M100.6,47.4C100.6,47.4,100.7,47.4,100.6,47.4c0.5,0,0.9-0.4,0.8-0.9c-2.2-24-21.2-43.1-45.1-45.4
			c-0.4,0-0.9,0.3-0.9,0.7c0,0.5,0.3,0.9,0.7,0.9C79.3,5,97.7,23.4,99.8,46.6C99.8,47.1,100.2,47.4,100.6,47.4z"/>
		<path class="st0" d="M56,101.1C56,101.1,56,101.1,56,101.1c23.9-2.2,43-21,45.4-44.9c0-0.5-0.3-0.9-0.7-0.9
			c-0.4,0-0.9,0.3-0.9,0.7c-2.3,23-20.8,41.3-43.9,43.4c-0.5,0-0.8,0.4-0.7,0.9C55.2,100.7,55.5,101.1,56,101.1z"/>
		<path class="st0" d="M46.4,101c0.4,0,0.8-0.3,0.8-0.7c0-0.5-0.3-0.9-0.7-0.9C23.4,97,5.2,78.6,3.1,55.5c0-0.5-0.4-0.8-0.9-0.7
			c-0.5,0-0.8,0.4-0.7,0.9C3.6,79.5,22.5,98.6,46.4,101C46.3,101,46.4,101,46.4,101z"/>
		<path class="st0" d="M2.3,46.8c0.4,0,0.8-0.3,0.8-0.7C5.5,23,23.9,4.8,47.1,2.7c0.5,0,0.8-0.4,0.7-0.9c0-0.5-0.4-0.8-0.9-0.7
			C23,3.2,3.9,22.1,1.5,45.9C1.4,46.4,1.8,46.8,2.3,46.8C2.3,46.8,2.3,46.8,2.3,46.8z"/>
		<path class="st0" d="M100.6,47.4C100.6,47.4,100.7,47.4,100.6,47.4c0.5,0,0.9-0.4,0.8-0.9c-2.2-24-21.2-43.1-45.1-45.4
			c-0.4,0-0.9,0.3-0.9,0.7c0,0.5,0.3,0.9,0.7,0.9C79.3,5,97.7,23.4,99.8,46.6C99.8,47.1,100.2,47.4,100.6,47.4z"/>
	</g>
	<g>
		<g>
			<path class="st0" d="M87.5,54.5C86.3,72.4,72,86.6,54.1,87.9l0.4-1.7C71.1,84.8,84.4,71.6,85.9,55L87.5,54.5z M85.9,48.9
				c-1.4-16.6-14.7-29.8-31.2-31.3L54.2,16C72,17.2,86.3,31.5,87.5,49.4L85.9,48.9z M49,87.9C31.3,86.6,17.1,72.6,15.6,55l1.7,0.2
				c1.6,16.4,14.8,29.5,31.2,31L49,87.9z M15.6,49.3C16.9,31.5,31.2,17.2,49,16l-0.5,1.7c-16.5,1.4-29.7,14.5-31.3,31L15.6,49.3z"/>
		</g>
		<g>
			<path class="st0" d="M41.4,62.9L2.2,52.7c-0.4-0.1-0.6-0.4-0.6-0.8c0-0.4,0.3-0.7,0.6-0.8L41,41c0.3-0.1,0.6,0,0.8,0.2l10.3,10.2
				c0.3,0.3,0.3,0.8,0,1.2l-10,10.1c-0.2,0.2-0.4,0.2-0.6,0.2C41.5,62.9,41.5,62.9,41.4,62.9z M41,42.7L5.6,51.9l35.7,9.2l9.1-9.2
				L41,42.7z"/>
		</g>
		<g>
			<path class="st0" d="M51,52.5l-10.1-10c-0.2-0.2-0.3-0.5-0.2-0.8L50.8,2.5c0.1-0.4,0.4-0.6,0.8-0.6h0c0.4,0,0.7,0.3,0.8,0.6
				l10.2,38.9c0.1,0.3,0,0.6-0.2,0.8L52.1,52.5c-0.2,0.2-0.4,0.2-0.6,0.2C51.4,52.8,51.1,52.7,51,52.5z M51.6,6l-9.2,35.7l9.2,9.1
				l9.3-9.4L51.6,6z"/>
		</g>
		<g class="st1">
			<polygon class="st0" points="51.6,2.8 41.4,42 51.6,51.9 			"/>
		</g>
		<g>
			<path class="st0" d="M61.3,62.7L51,52.5c-0.3-0.3-0.3-0.8,0-1.2l10-10.1c0.2-0.2,0.5-0.3,0.8-0.2L101,51.1
				c0.4,0.1,0.6,0.4,0.6,0.8c0,0.4-0.3,0.7-0.6,0.8L62.1,62.9c-0.1,0-0.1,0-0.2,0C61.7,62.9,61.5,62.8,61.3,62.7z M61.8,42.7
				l-9.1,9.2l9.4,9.3l35.4-9.3L61.8,42.7z"/>
		</g>
		<g>
			<path class="st0" d="M50.8,101.3L40.6,62.5c-0.1-0.3,0-0.6,0.2-0.8L51,51.4c0.3-0.3,0.8-0.3,1.2,0l10.1,10
				c0.2,0.2,0.3,0.5,0.2,0.8l-10.1,39.2c-0.1,0.4-0.4,0.6-0.8,0.6c0,0,0,0,0,0C51.2,101.9,50.9,101.7,50.8,101.3z M51.6,53.1
				l-9.3,9.4l9.3,35.4l9.2-35.7L51.6,53.1z"/>
		</g>
		<g class="st1">
			<polygon class="st0" points="2.4,51.9 41.6,62.1 51.6,51.9 			"/>
		</g>
		<g class="st1">
			<path class="st0" d="M50.8,52.2c-0.1-0.3-0.1-0.7,0.2-0.9l10-10.1c0.2-0.2,0.5-0.3,0.8-0.2L101,51.1c0.4,0.1,0.7,0.5,0.6,0.9
				L50.8,52.2z"/>
		</g>
		<g class="st1">
			<polygon class="st0" points="51.6,101.1 61.7,61.9 51.6,51.9 			"/>
		</g>
		<circle class="st2" cx="51.4" cy="52.1" r="25.6"/>
	</g>
</g>
</svg>
