<?xml version="1.0" encoding="utf-8"?>
<!-- Generator: Adobe Illustrator 19.2.1, SVG Export Plug-In . SVG Version: 6.00 Build 0)  -->
<svg version="1.1" id="Layer_1" xmlns="http://www.w3.org/2000/svg" xmlns:xlink="http://www.w3.org/1999/xlink" x="0px" y="0px"
	 viewBox="0 0 105 105" style="enable-background:new 0 0 105 105;" xml:space="preserve">
<style type="text/css">
	.st0{fill:#FFFFFF;}
</style>
<g>
	<g>
		<g>
			<path class="st0" d="M52.5,102.5c-27.6,0-50-22.4-50-50s22.4-50,50-50s50,22.4,50,50S80.1,102.5,52.5,102.5z M52.5,4.1
				C25.8,4.1,4.1,25.8,4.1,52.5s21.7,48.4,48.4,48.4s48.4-21.7,48.4-48.4S79.2,4.1,52.5,4.1z"/>
		</g>
		<g>
			<ellipse class="st0" cx="70.7" cy="46.1" rx="6.9" ry="13"/>
		</g>
		<g>
			<ellipse class="st0" cx="35.3" cy="46.1" rx="6.9" ry="13"/>
		</g>
		<path class="st0" d="M46.4,80.7c-0.4,0-0.7-0.2-0.8-0.6l-3.5-10.5l-2.9,5.9c-0.1,0.3-0.4,0.4-0.7,0.5c-0.3,0-0.6-0.1-0.7-0.3
			L33,69.2c-0.3-0.4-0.2-0.9,0.2-1.1c0.4-0.3,0.9-0.2,1.1,0.2l4,5.3l3.2-6.5c0.1-0.3,0.5-0.5,0.8-0.5c0.3,0,0.6,0.2,0.7,0.6l3.3,9.8
			l3-12.2c0.1-0.4,0.4-0.6,0.8-0.6c0.4,0,0.7,0.2,0.8,0.6l3.1,9.6l3-7.9c0.1-0.3,0.4-0.5,0.7-0.5c0.4,0,0.6,0.2,0.8,0.5l3,6.6
			l2.9-3.2c0.2-0.2,0.4-0.3,0.7-0.3c0.3,0,0.5,0.2,0.6,0.4l3.9,6.5c0.2,0.4,0.1,0.9-0.3,1.1c-0.4,0.2-0.9,0.1-1.1-0.3l-3.3-5.5
			l-3,3.3c-0.2,0.2-0.5,0.3-0.7,0.3c-0.3,0-0.5-0.2-0.6-0.5l-2.7-6l-3.1,8.2c-0.1,0.3-0.4,0.5-0.8,0.5c-0.3,0-0.7-0.2-0.8-0.6
			l-2.9-9.1l-3,12.1C47.1,80.4,46.8,80.6,46.4,80.7C46.4,80.7,46.4,80.7,46.4,80.7z"/>
		<path class="st0" d="M18.3,63.8c0,0-0.1,0-0.1,0c-0.7,0-1.3-0.3-1.7-0.9c-0.4-0.5-2-3.5,0.9-13.8c0.1-0.4,0.5-0.6,0.8-0.6
			c0.4,0,0.7,0.3,0.8,0.7c0.2,1.2,0.5,2.6,0.8,4c0.9,4.2,1.7,8.1,0.3,9.8C19.7,63.4,19.2,63.8,18.3,63.8z M18,53.3
			c-0.7,3.5-1.1,7.4-0.2,8.6c0.1,0.2,0.3,0.2,0.4,0.2c0.3,0,0.5-0.1,0.5-0.2c0.9-1,0-5.3-0.7-8.4C18.1,53.5,18,53.4,18,53.3z"/>
		<path class="st0" d="M88.1,75.1c-0.9,0-1.4-0.4-1.7-0.8c-1.4-1.6-0.6-5.6,0.3-9.8c0.3-1.4,0.6-2.8,0.8-4c0.1-0.4,0.4-0.7,0.8-0.7
			c0.4,0,0.7,0.2,0.8,0.6c2.9,10.3,1.2,13.3,0.9,13.8c-0.4,0.6-1,0.9-1.7,0.9C88.1,75.1,88.1,75.1,88.1,75.1z M88.3,64.5
			c0,0.1,0,0.2-0.1,0.3c-0.7,3.1-1.5,7.4-0.7,8.4c0.1,0.1,0.2,0.2,0.5,0.2c0.2,0,0.3-0.1,0.4-0.2C89.4,72,89,68.1,88.3,64.5z"/>
		<path class="st0" d="M77.6,29.8c-0.8,0-1.2-0.4-1.5-0.7c-1.1-1.3-0.5-4.3,0.2-7.7c0.2-1.1,0.5-2.2,0.6-3.1
			c0.1-0.4,0.4-0.7,0.8-0.7c0.4,0,0.7,0.2,0.8,0.6c0.4,1.4,2.3,8.6,0.6,10.8C78.8,29.5,78.3,29.8,77.6,29.8
			C77.6,29.8,77.6,29.8,77.6,29.8z M77.8,22.4c-0.5,2.2-1,5-0.4,5.7c0,0,0.1,0.1,0.3,0.1c0.1,0,0.1,0,0.2-0.1
			C78.4,27.3,78.2,24.9,77.8,22.4z"/>
	</g>
</g>
</svg>
