<?xml version="1.0" encoding="utf-8"?>
<!-- Generator: Adobe Illustrator 19.2.1, SVG Export Plug-In . SVG Version: 6.00 Build 0)  -->
<svg version="1.1" id="Layer_1" xmlns="http://www.w3.org/2000/svg" xmlns:xlink="http://www.w3.org/1999/xlink" x="0px" y="0px"
	 viewBox="0 0 155 145" style="enable-background:new 0 0 155 145;" xml:space="preserve">
<style type="text/css">
	.st0{fill:#838383;}
</style>
<g>
	<path class="st0" d="M19.2,139.6c-1.2,0.5-2.2,0.8-3.4,0.8c-2.1,0-4.2-1-5.2-3.6c-0.5-1-0.8-2.1-0.8-3.1c0-2.2,1.2-4.5,3.9-5.5
		c18.9-7.7,34.6-21,45.1-40C69.6,68.2,71.3,51.7,71.3,9.6c0-3.3,2.6-4.9,6.2-4.9c3.4,0,6.1,1.6,6.1,4.9c0,41.7,0.5,55.3,11.8,76.9
		c10.5,19.9,25.3,32.4,46.6,41.5c2.1,0.9,3.1,2.7,3.1,4.8c0,1.3-0.3,2.5-1,3.9c-1.2,2.1-2.7,3.3-5.1,3.3c-1.4,0-3-0.5-5.1-1.3
		c-31.6-14.2-50.8-40.6-56.5-71.4C72.2,99.4,52.4,124.6,19.2,139.6z M46.2,34.8c0,0.8-0.2,1.7-0.5,2.7c-3.6,12.6-9.4,27.4-16.6,37.9
		c-1.6,2.2-3.9,3.8-6.3,3.8c-1,0-2.1-0.3-3.1-0.9c-1.9-1.2-3.1-3-3.1-5.1c0-1.5,0.6-3,1.8-4.6c6.1-8.8,12.3-22.6,15.1-34.3
		c0.6-3.1,2.5-4.8,5.5-4.8c0.9,0,1.8,0.1,2.8,0.4C44.7,30.7,46.2,32.2,46.2,34.8z M137.4,35.4c0,0.6-0.1,1.4-0.5,2
		c-5.4,12-13.3,25.3-21.6,34.9c-1.7,2-3.3,2.9-5.1,2.9c-1.4,0-2.7-0.6-3.9-1.5c-1.8-1.4-2.8-3.1-2.8-5.1c0-1.2,0.5-2.2,1.3-3.3
		c8-9.1,15.3-22.2,19.9-32.8c0.9-2.1,2.7-3.1,4.8-3.1c1.1,0,2.2,0.3,3.5,0.8C135.8,31.2,137.4,33.1,137.4,35.4z"/>
</g>
</svg>
