<?xml version="1.0" encoding="utf-8"?>
<!-- Generator: Adobe Illustrator 19.2.1, SVG Export Plug-In . SVG Version: 6.00 Build 0)  -->
<svg version="1.1" id="Layer_1" xmlns="http://www.w3.org/2000/svg" xmlns:xlink="http://www.w3.org/1999/xlink" x="0px" y="0px"
	 viewBox="0 0 105 105" style="enable-background:new 0 0 105 105;" xml:space="preserve">
<style type="text/css">
	.st0{fill:#FFFFFF;}
</style>
<g>
	<g>
		<path class="st0" d="M52.5,102.5c-27.6,0-50-22.4-50-50s22.4-50,50-50s50,22.4,50,50S80.1,102.5,52.5,102.5z M52.5,4.1
			C25.8,4.1,4.1,25.8,4.1,52.5s21.7,48.4,48.4,48.4s48.4-21.7,48.4-48.4S79.2,4.1,52.5,4.1z"/>
	</g>
	<g>
		<ellipse class="st0" cx="70.7" cy="46.1" rx="6.9" ry="13"/>
	</g>
	<g>
		<ellipse class="st0" cx="35.3" cy="46.1" rx="6.9" ry="13"/>
	</g>
	<path class="st0" d="M51.8,87.4c-13.6,0-15.3-14.1-15.3-14.3c0-0.2,0-0.5,0.2-0.6c0.2-0.2,0.4-0.3,0.6-0.3h29.6
		c0.2,0,0.5,0.1,0.6,0.3c0.2,0.2,0.2,0.4,0.2,0.7C67.6,73.3,65.5,87.4,51.8,87.4z M38.2,73.9c0.2,1.2,0.8,3.4,2.1,5.6
		c2.5,4.2,6.3,6.3,11.4,6.3c10.5,0,13.4-8.9,14.1-11.9H38.2z"/>
</g>
</svg>
