<?xml version="1.0" encoding="utf-8"?>
<!-- Generator: Adobe Illustrator 19.2.1, SVG Export Plug-In . SVG Version: 6.00 Build 0)  -->
<svg version="1.1" id="Layer_1" xmlns="http://www.w3.org/2000/svg" xmlns:xlink="http://www.w3.org/1999/xlink" x="0px" y="0px"
	 viewBox="0 0 330 330" enable-background="new 0 0 330 330" xml:space="preserve">
<g>
	<g>
		<g>
			<path fill="#FFFFFF" d="M164.9,2.5c-20.8,0-37.7,16.9-37.7,37.7s16.9,37.7,37.7,37.7s37.7-16.9,37.7-37.7S185.6,2.5,164.9,2.5z"
				/>
			
				<linearGradient id="SVGID_1_" gradientUnits="userSpaceOnUse" x1="127.2" y1="289.8" x2="202.5195" y2="289.8" gradientTransform="matrix(1 0 0 -1 0 330)">
				<stop  offset="0" style="stop-color:#B0D79C"/>
				<stop  offset="1" style="stop-color:#6E9981"/>
			</linearGradient>
			<path opacity="0.5" fill="url(#SVGID_1_)" enable-background="new    " d="M164.9,2.5c-20.8,0-37.7,16.9-37.7,37.7
				s16.9,37.7,37.7,37.7s37.7-16.9,37.7-37.7S185.6,2.5,164.9,2.5z"/>
			<path fill="#6E9981" d="M164.9,79.1c-21.5,0-38.9-17.5-38.9-38.9s17.5-38.9,38.9-38.9s38.9,17.5,38.9,38.9S186.3,79.1,164.9,79.1
				z M164.9,2.5c-20.8,0-37.7,16.9-37.7,37.7s16.9,37.7,37.7,37.7s37.7-16.9,37.7-37.7S185.6,2.5,164.9,2.5z"/>
			<g>
				<path fill="#6E9981" d="M169.2,73.1c-4,0-17.7-3.5-21-6.6c-1.4-1.3-3.1-2.5-4.8-3.7c-2.4-1.7-4.6-3.2-5.5-4.7
					c-1.4-2.3-5.1-12-4.6-18c0.2-3,1.3-6.5,2.3-9.9c0.9-3.1,1.8-6.1,1.8-7.9c0-4.3,7.6-10,10-10.6c0.3-0.1,4.2-1.2,7.9-1.7
					c3.5-0.4,5.6-1.3,7.2-2.9c1.2-1.2,4.4-0.9,8.5-0.4c1.3,0.2,2.6,0.3,3,0.3c2.4-0.3,9.4,4.4,12,7.6c3,3.7,9,9.7,11.5,11.5
					c2.2,1.6,1.3,5.8,0.7,8.9c-0.2,1-0.4,2-0.4,2.6c0,2.3-0.1,9.9-1.5,10.8c-0.5,0.4-2.5,3.9-4.2,6.6c-2.9,4.8-4.8,8-5.7,8.8
					c-1.6,1.4-13.2,9.2-16.8,9.4C169.5,73.1,169.3,73.1,169.2,73.1z M165.8,7.6c-1.1,0-2.1,0.1-2.4,0.5c-1.8,1.8-4.2,2.8-8,3.3
					c-3.7,0.5-7.7,1.6-7.7,1.6l0,0c-2.3,0.6-9,6-9,9.4c0,2-0.9,5-1.8,8.2c-1,3.4-2,6.8-2.2,9.7c-0.5,5.7,3.1,15,4.4,17.2
					c0.8,1.3,2.9,2.8,5.1,4.3c1.7,1.2,3.5,2.5,5,3.8c3.2,2.9,17.2,6.5,20.4,6.2c3-0.2,14.2-7.6,16-9.1c0.8-0.7,3.4-5,5.4-8.5
					c3.1-5.1,4-6.7,4.6-7c0.5-0.8,0.9-6.3,0.9-9.7c0-0.7,0.2-1.7,0.5-2.8c0.5-2.6,1.4-6.5-0.2-7.6c-2.7-1.9-8.6-7.9-11.8-11.8
					c-3-3.7-9.5-7.3-10.8-7.1c-0.6,0.1-1.8-0.1-3.4-0.3C169.3,7.8,167.3,7.6,165.8,7.6z"/>
				<path fill="#6E9981" d="M167.9,68.7c-2.3,0-5.3-0.4-9.1-2.1c-6-2.6-14-7.3-15.6-9.1c-0.3-0.3-6.7-7.7-5.7-14.9
					c0.5-3.7,1.3-6.8,1.9-9.2c0.4-1.7,0.8-3.3,1-4.5c0.1-0.8,0.6-3.8,1.9-6.7c1.4-3,3.1-4.9,5.3-5.6c0.3-0.1,6.8-2.3,9.3-2.5
					c1.3-0.1,3.6-1,5.7-1.8c1.8-0.7,3.4-1.3,4.3-1.4c0.8-0.1,7.8-0.7,11.6,2.9c1.8,1.7,2.7,2.5,3.5,3.2c0.7,0.6,1.3,1.1,2.2,2
					c1,1,2.2,2.5,3.4,3.9c1.3,1.6,2.5,3,3.2,3.7c1.6,1.4,2.9,5.6,2.9,8.5c0,2.4-1.1,6.3-1.8,9.1c-0.2,0.7-0.4,1.3-0.5,1.8
					c-0.6,2.6-6.8,12.3-8.5,13.8c-0.2,0.1-0.4,0.3-0.6,0.6c-3.9,3.5-8.7,7.5-10.6,7.9C170.8,68.4,169.6,68.7,167.9,68.7z M169,11.7
					c-1,0-1.8,0.1-2,0.1c-0.8,0.1-2.4,0.7-4.1,1.3c-2.2,0.8-4.5,1.7-5.9,1.8c-2.4,0.2-9,2.5-9.1,2.5l0,0c-5.1,1.6-6.5,10.5-6.6,11.5
					c-0.2,1.3-0.6,2.9-1,4.6c-0.6,2.5-1.4,5.5-1.9,9.1c-0.9,6.8,5.3,14,5.5,14.3c1.4,1.6,9,6.2,15.3,8.9s10.2,2,12.3,1.6
					c2-0.4,8.2-5.9,10.2-7.7c0.3-0.2,0.5-0.4,0.6-0.6c1.6-1.4,7.6-10.9,8.2-13.3c0.1-0.5,0.3-1.1,0.5-1.9c0.8-2.8,1.8-6.6,1.8-8.9
					c0-2.9-1.2-6.7-2.6-7.8c-0.8-0.7-2-2.2-3.3-3.8c-1.2-1.4-2.4-2.9-3.3-3.9c-0.9-0.9-1.5-1.4-2.2-2c-0.8-0.7-1.8-1.5-3.6-3.2
					C175.5,12.1,171.5,11.7,169,11.7z"/>
				<path fill="#6E9981" d="M165.2,66.2c-3.7,0-10.3-2.6-12-3.3c-1.2-0.5-7.1-3.3-8.2-6.6c-0.3-1-1.1-2.5-1.9-4.1
					c-1.6-3.1-3.3-6.5-3.5-8.9c-0.1-2.2,1.1-5.6,2.3-8.9c0.8-2.2,1.5-4.2,1.7-5.5c0.5-3.2,1.3-6.5,4.1-8.7c0.3-0.3,4.2-3.9,6.9-3.6
					c1.6,0.1,4.8-0.6,7.5-1.3c1.5-0.4,2.9-0.7,3.9-0.8c2.9-0.5,9.8,0.2,12,3c0.7,0.8,1.7,1.9,2.9,3.3c2.8,3,5.9,6.4,6.6,8.1
					c0.1,0.2,0.2,0.4,0.3,0.7c0.9,2.2,1.8,4.4,1.2,9.2c-0.3,1.9-0.4,3.3-0.5,4.5c-0.2,2-0.3,3.4-0.9,5.6c-1,3.7-4.8,9.6-7.4,11.5
					c-2.7,2-11,5.7-14.5,5.9C165.5,66.2,165.3,66.2,165.2,66.2z M154.3,17.3c-2,0-5,2.4-6,3.4l0,0c-2.6,2.1-3.4,5.1-3.8,8.2
					c-0.2,1.4-0.9,3.5-1.7,5.7c-1.1,3.1-2.4,6.6-2.2,8.6c0.1,2.2,1.9,5.7,3.4,8.5c0.9,1.7,1.6,3.2,2,4.2c0.8,2.3,4.6,4.7,7.7,6.1
					c2.5,1.1,9,3.5,12.1,3.2c3.3-0.2,11.5-3.9,14-5.8c2.5-1.8,6.2-7.6,7.1-11c0.6-2.2,0.7-3.5,0.9-5.5c0.1-1.2,0.2-2.6,0.5-4.6
					c0.6-4.6-0.3-6.7-1.1-8.7c-0.1-0.2-0.2-0.4-0.3-0.7c-0.6-1.5-3.8-5-6.4-7.9c-1.2-1.3-2.3-2.5-2.9-3.3c-2-2.4-8.4-3.1-11.3-2.7
					c-1,0.2-2.4,0.5-3.9,0.8c-2.8,0.7-6.1,1.4-7.8,1.3C154.4,17.3,154.4,17.3,154.3,17.3z"/>
				<path fill="#6E9981" d="M162.7,62c-3,0-5.6-0.4-7.2-1.7c-3.5-2.7-8.8-13.2-9.5-17.1c-0.5-2.6,0.9-6.9,2.1-10.3
					c0.5-1.6,1-3.1,1.1-3.8c0.3-2.8,4.1-10.3,13.9-9.6h0.1c0.1,0,9.4,3.7,12.3,4.2c2.8,0.5,5.7,1.7,8.1,6.5c2.5,5,0.6,13.8,0,16.7
					c-0.9,4.2-6.1,12.8-10.9,13.8C169.6,61.4,166,62,162.7,62z M161.8,20.3c-9,0-11.7,7.3-11.8,8.9c-0.1,0.8-0.5,2.2-1.1,4
					c-1,3.1-2.5,7.4-2,9.9c0.7,3.9,5.8,14,9.2,16.6c3.3,2.5,11.8,1.3,16.6,0.3c4.1-0.8,9.3-8.8,10.2-13.2c0.6-2.8,2.4-11.4,0-16.1
					c-2.1-4.3-4.5-5.5-7.5-6.1c-2.9-0.6-11.5-3.9-12.4-4.3C162.6,20.3,162.2,20.3,161.8,20.3z"/>
				<path fill="#6E9981" d="M164.2,59.6c-2.8,0-5.7-1-8.3-4.3c-5.6-7.3-7.6-14-6.1-20.6c1.3-5.9,6.8-13.7,13.3-12.5
					c6.3,1.2,10.2,2.5,13,4.6c0.8,0.2,5.7,2,4.6,11.1c-1.2,9.9-3,19.9-7.3,19.9l0,0c-0.9,0-2.1,0.3-3.5,0.7
					C168.3,59,166.3,59.6,164.2,59.6z M161.8,22.9c-5.5,0-10,6.8-11.1,11.9c-1.4,6.3,0.6,12.8,6,19.9c4.2,5.5,9.1,4.1,13.1,3
					c1.4-0.4,2.7-0.7,3.7-0.7l0,0c4.1,0,5.9-14.4,6.4-19.2c1.1-8.9-3.8-10.2-4.1-10.2c-0.1,0-0.1,0-0.2-0.1c-2.7-2-6.6-3.4-12.7-4.5
					C162.6,23,162.2,22.9,161.8,22.9z"/>
				<path fill="#6E9981" d="M168.8,55c-3.5,0-7.8-2.3-9.3-4c-4.7-5.7-4.9-11.1-4.6-15c0.4-4.2,3.1-7.3,7.3-8.4
					c3.2-0.8,9.1-1.1,11.1,2.8l0,0c0.1,0.1,5.4,11.8,0,22.1c-0.7,1.4-2.1,2.3-3.9,2.5C169.3,55,169.1,55,168.8,55z M166.4,27.9
					c-1.4,0-2.9,0.2-3.9,0.5c-3.8,1-6.3,3.8-6.7,7.6c-0.3,3.8-0.2,8.9,4.4,14.4c1.4,1.7,6,4,9.3,3.6c1.5-0.2,2.6-0.8,3.2-2
					c5.1-9.9,0.2-21,0-21.3C171.5,28.6,168.9,27.9,166.4,27.9z"/>
				<path fill="#6E9981" d="M167.6,50.5c-2.4,0-5.3-1.6-6.2-2.7c-3.2-3.8-3.3-7.4-3.1-10.1c0.3-2.8,2.1-4.9,5-5.7
					c2.1-0.6,6.2-0.8,7.6,1.9l0,0c0.1,0.3,3.6,7.9,0,14.8c-0.5,1-1.4,1.6-2.7,1.7C168,50.5,167.8,50.5,167.6,50.5z M166.1,32.5
					c-1,0-1.9,0.1-2.6,0.3c-2.5,0.6-4.1,2.5-4.3,4.9c-0.2,2.5-0.1,5.9,2.9,9.5c0.9,1.1,3.9,2.6,6,2.4c0.9-0.1,1.6-0.5,2-1.3
					c3.4-6.5,0.1-13.8,0-14C169.4,32.9,167.7,32.5,166.1,32.5z"/>
			</g>
		</g>
		<g>
			<g>
				<path fill="#858585" d="M144.4,83.5h1.1l2.6,9.1l0,0l2.5-9.1h1l2.5,9.1l0,0l2.6-9.1h1.1l-3,10.5h-1.3l-2.3-8.6l0,0l-2.3,8.6
					h-1.3L144.4,83.5z"/>
				<path fill="#858585" d="M161.8,86c2.3,0,4.1,1.9,4.1,4.1c0,2.1-1.7,4.1-4.1,4.1c-2.3,0-4-1.9-4-4C157.8,87.7,159.8,86,161.8,86z
					 M161.9,93.3c1.5,0,3.1-1.2,3.1-3.2s-1.7-3.1-3.1-3.1c-1.4,0-3.1,1.2-3.1,3.2C158.8,91.9,160.3,93.3,161.9,93.3z"/>
				<path fill="#858585" d="M171.1,86c2.3,0,4.1,1.9,4.1,4.1c0,2.1-1.7,4.1-4.1,4.1c-2.3,0-4-1.9-4-4C167.1,87.7,169.1,86,171.1,86z
					 M171.1,93.3c1.5,0,3.1-1.2,3.1-3.2s-1.7-3.1-3.1-3.1c-1.4,0-3.1,1.2-3.1,3.2C168.1,91.9,169.5,93.3,171.1,93.3z"/>
				<path fill="#858585" d="M184.5,94h-1v-1.4l0,0c-0.8,1.2-2.2,1.5-3,1.5c-2.4,0-4.2-1.9-4.2-4.1c0-2.1,1.6-4,4.2-4
					c0.8,0,2.2,0.3,3,1.5l0,0v-4.1h1V94z M180.5,93.3c1.7,0,3.1-1.3,3.1-3.2c0-1.7-1.3-3.2-3.1-3.2c-1.7,0-3.2,1.2-3.2,3.2
					C177.3,91.9,178.6,93.3,180.5,93.3z"/>
			</g>
		</g>
	</g>
	<g>
		<g>
			<path fill="#FFFFFF" stroke="#F9846B" stroke-miterlimit="10" d="M287.4,91.7c-20.8,0-37.7,16.9-37.7,37.7s16.9,37.7,37.7,37.7
				s37.7-16.9,37.7-37.7S308.2,91.7,287.4,91.7z"/>
			
				<linearGradient id="SVGID_2_" gradientUnits="userSpaceOnUse" x1="249.7" y1="200.6" x2="325.0195" y2="200.6" gradientTransform="matrix(1 0 0 -1 0 330)">
				<stop  offset="0" style="stop-color:#F59F8E"/>
				<stop  offset="1" style="stop-color:#F56157"/>
			</linearGradient>
			<path opacity="0.5" fill="url(#SVGID_2_)" stroke="#F9846B" stroke-miterlimit="10" enable-background="new    " d="M287.4,91.7
				c-20.8,0-37.7,16.9-37.7,37.7s16.9,37.7,37.7,37.7s37.7-16.9,37.7-37.7S308.2,91.7,287.4,91.7z"/>
			<path fill="#F56157" d="M287.4,168.3c-21.5,0-38.9-17.5-38.9-38.9s17.5-38.9,38.9-38.9c21.5,0,38.9,17.5,38.9,38.9
				S308.9,168.3,287.4,168.3z M287.4,91.7c-20.8,0-37.7,16.9-37.7,37.7s16.9,37.7,37.7,37.7s37.7-16.9,37.7-37.7
				S308.2,91.7,287.4,91.7z"/>
			<path fill="#F56157" d="M272,156.8c-0.1,0-0.3-0.1-0.4-0.2c-3.7-3.2-5.9-7.8-5.9-12.7c0-7.9,4.1-13.8,10.8-15.8
				c5.9-2.4,9.6-8,9.6-14.3c0-5.7-3.1-10.9-8.2-13.6c-0.3-0.2-0.4-0.6-0.3-0.9c0.2-0.3,0.6-0.4,0.9-0.3c5.4,2.9,8.8,8.6,8.8,14.7
				c0,6.9-4.1,12.9-10.5,15.5c0,0,0,0-0.1,0c-6.2,1.8-9.9,7.3-9.9,14.6c0,4.5,2,8.8,5.4,11.7c0.3,0.2,0.3,0.6,0.1,0.9
				C272.4,156.7,272.2,156.8,272,156.8z"/>
			<path fill="#F56157" d="M265.5,147.1c-0.2,0-0.3-0.1-0.4-0.2c-3.2-3.2-5-7.4-5-11.9c0-5.2,3.5-10.6,6.8-13.5
				c5.5-4.9,8.4-11.9,7.9-19.2c0-0.3,0.1-0.5,0.4-0.6s0.5,0,0.7,0.2c1.3,1.5,2.5,3,3.5,4.7c0.2,0.3,0.1,0.7-0.2,0.9
				c-0.3,0.2-0.7,0.1-0.9-0.2c-0.7-1.1-1.4-2.1-2.2-3.1c0,7-3,13.7-8.4,18.4c-3.1,2.7-6.3,7.7-6.3,12.5c0,4.2,1.6,8.1,4.6,11
				c0.3,0.2,0.3,0.7,0,0.9C265.8,147.1,265.7,147.1,265.5,147.1z"/>
			<path fill="#F56157" d="M298.3,161c-0.1,0-0.3,0-0.4-0.1c-0.3-0.2-0.3-0.6-0.1-0.9c4.2-5.2,6.7-11.8,6.7-17.6
				c0-8.2-3.7-16-10.1-21.1c0.2,1.5,0.3,3,0.3,4.5c0,6.7-2.4,13.3-6.7,18.4c-0.2,0.3-0.6,0.3-0.9,0.1s-0.3-0.6-0.1-0.9
				c4.2-4.9,6.4-11.1,6.4-17.6c0-2-0.2-3.9-0.6-5.8c-0.1-0.3,0.1-0.5,0.3-0.7c0.2-0.1,0.5-0.1,0.7,0c7.5,5.3,11.9,14,11.9,23.1
				c0,6.1-2.6,12.8-7,18.4C298.7,160.9,298.5,161,298.3,161z"/>
			<path fill="#F56157" d="M290.3,163.6c-8.5,0-16.4-3.7-21.9-10.3c-0.2-0.3-0.2-0.7,0.1-0.9c0.3-0.2,0.7-0.2,0.9,0.1
				c5.2,6.2,12.8,9.8,20.9,9.8c15,0,27.1-12.2,27.1-27.1c0-10.6-6.2-20.3-15.8-24.7c-0.3-0.1-0.5-0.5-0.3-0.8
				c0.1-0.3,0.5-0.5,0.8-0.3c10.1,4.6,16.6,14.8,16.6,25.8C318.7,150.9,305.9,163.6,290.3,163.6z"/>
			<g>
				<path fill="#F56157" d="M291.6,163.6c-5.7,0-10.4-4.7-10.4-10.4c0-1.9,0.5-3.8,1.6-5.5c0.6-1,1.4-1.9,2.3-2.6
					c4.9-3.9,8.6-10,9.9-16.5c0-0.2,0.2-0.4,0.5-0.5c0.2-0.1,0.5,0,0.6,0.2c4.5,5.2,7,11.8,7,18.7c0,2.9-0.4,5.7-1.3,8.4
					c0,0.1-0.5,2-1.2,3.1l0,0c-0.3,0.5-0.8,1.3-1.2,1.7C297.4,162.4,294.6,163.6,291.6,163.6z M295.9,130.1
					c-1.6,6.3-5.3,12.2-10.1,16c-0.8,0.6-1.4,1.4-2,2.3c-0.9,1.4-1.4,3.1-1.4,4.8c0,5,4.1,9.1,9.1,9.1c2.6,0,5.1-1.1,6.8-3
					c0.4-0.4,0.8-1,1.1-1.5l0,0c0.6-1,1-2.8,1.1-2.9c0.8-2.6,1.2-5.3,1.2-8C301.8,140.8,299.7,134.9,295.9,130.1z"/>
			</g>
			<path fill="#F56157" d="M283.6,160.7c-5.4,0-10.5-2.2-14.2-6.2c-3.4-3.6-5.3-8.3-5.3-13.3c0-5.6,2.3-10.9,6.2-14.5
				c7-7.1,9.5-17.5,6.6-27c-0.1-0.2,0-0.4,0.1-0.6s0.3-0.3,0.5-0.3c9.6,0,20.1,4.8,25.1,11.4c6.5,5.4,10.3,13.4,10.3,21.9
				c0,7.9-3.3,15.4-9,20.8c-0.3,0.2-0.7,0.2-0.9,0c-0.2-0.3-0.2-0.7,0-0.9c5.5-5.1,8.6-12.4,8.6-19.9c0-8.1-3.6-15.8-9.9-20.9
				l-0.1-0.1c-4.6-6.1-14.3-10.6-23.3-10.9c2.7,9.7,0,20.2-7.1,27.4c0,0,0,0-0.1,0.1c-3.7,3.4-5.8,8.3-5.8,13.5
				c0,4.6,1.7,9,4.9,12.4c3.5,3.7,8.2,5.8,13.3,5.8c0.4,0,0.6,0.3,0.6,0.6C284.2,160.4,283.9,160.7,283.6,160.7z"/>
		</g>
		<g>
			<g>
				<path fill="#858585" d="M276.8,172.7h5.3v0.9h-4.2v3.8h4.1v0.9h-4.1v4.8h-1L276.8,172.7L276.8,172.7z"/>
				<path fill="#858585" d="M283.6,172.7h1v1.8h-1V172.7z M283.6,175.4h1v7.7h-1V175.4z"/>
				<path fill="#858585" d="M286.5,175.4h1v1.1l0,0c0.5-1.1,1.3-1.3,2.2-1.3v1c-0.7,0.1-1.3,0.3-1.7,0.8c-0.3,0.4-0.5,1-0.5,1.6v4.5
					h-1V175.4z"/>
				<path fill="#858585" d="M291.3,179.7c0.1,1.5,1.5,2.8,3,2.8c1.4,0,2.4-0.9,2.8-1.8h1c-0.5,1.5-2,2.7-3.8,2.7c-2.2,0-4-1.8-4-4
					s1.8-4,4-4.1c1.7,0,2.9,1,3.5,2c0.5,0.8,0.6,1.7,0.6,2.4L291.3,179.7L291.3,179.7z M297.3,178.8c-0.3-1.8-1.8-2.6-3-2.6
					s-2.7,0.8-3,2.6H297.3z"/>
			</g>
		</g>
	</g>
	<g>
		<g>
			<path fill="#FFFFFF" d="M42.6,91.5c-20.8,0-37.7,16.9-37.7,37.7s16.9,37.7,37.7,37.7s37.7-16.9,37.7-37.7S63.4,91.5,42.6,91.5z"
				/>
			
				<linearGradient id="SVGID_3_" gradientUnits="userSpaceOnUse" x1="4.9" y1="200.8" x2="80.2195" y2="200.8" gradientTransform="matrix(1 0 0 -1 0 330)">
				<stop  offset="0" style="stop-color:#8BD3CA"/>
				<stop  offset="1" style="stop-color:#8199A6"/>
			</linearGradient>
			<path opacity="0.5" fill="url(#SVGID_3_)" enable-background="new    " d="M42.6,91.5c-20.8,0-37.7,16.9-37.7,37.7
				s16.9,37.7,37.7,37.7s37.7-16.9,37.7-37.7S63.4,91.5,42.6,91.5z"/>
			<path opacity="0.5" fill="#014776" enable-background="new    " d="M60.5,140.1c-0.4,0-0.6-0.3-0.6-0.6c0-0.4,0.3-0.6,0.6-0.6
				c8.5,0,15.5-6.9,15.5-15.5c0-5.5-2.9-10.6-7.7-13.4c-3.5-2.3-7.5-3.5-11.7-3.5c-4.3,0-8.5,1.3-12.1,3.8c-0.3,0.2-0.7,0.1-0.9-0.2
				c-0.2-0.3-0.1-0.7,0.2-0.9c3.8-2.6,8.2-4,12.8-4c4.4,0,8.7,1.3,12.3,3.7c5.1,3,8.3,8.5,8.3,14.5
				C77.3,132.6,69.8,140.1,60.5,140.1z"/>
			<g>
				<path opacity="0.5" fill="#014776" enable-background="new    " d="M42.6,168.1c-21.5,0-38.9-17.5-38.9-38.9
					s17.5-38.9,38.9-38.9s38.9,17.5,38.9,38.9S64.1,168.1,42.6,168.1z M42.6,91.5c-20.8,0-37.7,16.9-37.7,37.7s16.9,37.7,37.7,37.7
					s37.7-16.9,37.7-37.7S63.4,91.5,42.6,91.5z"/>
				<path opacity="0.5" fill="#014776" enable-background="new    " d="M37.9,122.1L37.9,122.1c-0.4-0.1-0.7-0.4-0.6-0.8
					c2.4-11.2,12.4-19.3,23.9-19.3c4.3,0,8.5,1.1,12.2,3.2c0.3,0.2,0.4,0.6,0.2,0.9c-0.2,0.3-0.6,0.4-0.9,0.2
					c-3.5-2-7.5-3.1-11.5-3.1c-10.8,0-20.3,7.7-22.6,18.2C38.4,121.9,38.2,122.1,37.9,122.1z"/>
				<path opacity="0.5" fill="#014776" enable-background="new    " d="M49.3,134.6c-0.3,0-0.6-0.2-0.6-0.5
					c-0.1-0.3,0.1-0.7,0.5-0.8c4.8-1.1,8.3-5.5,8.3-10.4c0-4.5-2.8-8.5-7-10c-0.3-0.1-0.5-0.5-0.4-0.8s0.5-0.5,0.8-0.4
					c4.7,1.7,7.8,6.2,7.8,11.2C58.7,128.4,54.8,133.4,49.3,134.6C49.4,134.6,49.3,134.6,49.3,134.6z"/>
				<path opacity="0.5" fill="#014776" enable-background="new    " d="M38.4,128.7c-0.4,0-0.6-0.3-0.6-0.6c0-1.9,0.3-3.8,0.9-5.6
					c2.4-6.7,8.7-11.2,15.9-11.2c0.4,0,0.6,0.3,0.6,0.6s-0.3,0.6-0.6,0.6c-6.6,0-12.5,4.2-14.7,10.4c-0.6,1.6-0.9,3.4-0.9,5.1
					C39.1,128.4,38.8,128.7,38.4,128.7z"/>
				<path opacity="0.5" fill="#014776" enable-background="new    " d="M7.3,144.7c-0.1,0-0.3,0-0.4-0.1c-0.3-0.2-0.3-0.6-0.1-0.9
					c6.4-8.7,16.6-13.9,27.4-13.9c7.6,0,14.8,2.5,20.8,7.1c0.3,0.2,0.3,0.6,0.1,0.9c-0.2,0.3-0.6,0.3-0.9,0.1
					c-5.8-4.5-12.7-6.9-20-6.9c-10.4,0-20.2,5-26.4,13.4C7.7,144.6,7.5,144.7,7.3,144.7z"/>
				<path opacity="0.5" fill="#014776" enable-background="new    " d="M16.4,157.7h-0.1c-0.3-0.1-0.6-0.4-0.5-0.8
					c3.1-13,14.6-22,27.9-22c4.4,0,9.3,1,12.8,2.6c0.3,0.1,0.5,0.5,0.3,0.8c-0.1,0.3-0.5,0.5-0.8,0.3c-3.4-1.5-8.1-2.5-12.3-2.5
					c-12.8,0-23.7,8.7-26.7,21C16.9,157.5,16.7,157.7,16.4,157.7z"/>
				<path opacity="0.5" fill="#014776" enable-background="new    " d="M38.2,167.9c-0.3,0-0.5-0.2-0.6-0.4c-0.9-2.4-1.4-5-1.4-7.6
					c0-11.6,9.5-21.1,21.1-21.1c1.6,0,3.1,0.2,4.6,0.5c0.3,0.1,0.6,0.4,0.5,0.8c-0.1,0.3-0.4,0.6-0.8,0.5c-1.4-0.3-2.9-0.5-4.3-0.5
					c-10.9,0-19.8,8.9-19.8,19.8c0,2.5,0.5,4.9,1.3,7.2c0.1,0.3,0,0.7-0.4,0.8C38.4,167.9,38.3,167.9,38.2,167.9z"/>
				<path opacity="0.5" fill="#014776" enable-background="new    " d="M55,135.4c-1.7,0-3.4-0.4-4.9-1.1c-0.4-0.2-0.7-0.4-1.1-0.6
					c-0.3-0.2-0.4-0.6-0.2-0.9c0.2-0.3,0.6-0.4,0.9-0.2c0.3,0.2,0.7,0.4,1,0.5c1.4,0.6,2.9,0.9,4.4,0.9c5.8,0,10.7-5,10.7-11
					c0-5.9-4.8-10.7-10.7-10.7c-0.4,0-0.6-0.3-0.6-0.6s0.3-0.6,0.6-0.6c6.6,0,11.9,5.4,11.9,11.9C66.9,129.8,61.5,135.4,55,135.4z"
					/>
				<path opacity="0.5" fill="#014776" enable-background="new    " d="M63,162.3C62.9,162.3,62.9,162.3,63,162.3
					c-5.8-0.8-10-5.8-10-11.5c0-6.4,5.2-11.7,11.7-11.7c0.4,0,0.6,0.3,0.6,0.6c0,0.4-0.3,0.6-0.6,0.6c-5.7,0-10.4,4.7-10.4,10.4
					c0,5.1,3.8,9.5,8.8,10.3c0.3,0.1,0.6,0.4,0.5,0.7C63.6,162,63.3,162.3,63,162.3z"/>
				<path opacity="0.5" fill="#014776" enable-background="new    " d="M63.8,140.3c-4.7,0-9.2-1.7-12.8-4.9
					c-7-6.4-13.5-7.7-22.2-7.7s-17,3.2-23.4,9c-0.3,0.2-0.7,0.2-0.9,0c-0.2-0.3-0.2-0.7,0-0.9c6.7-6,15.3-9.4,24.3-9.4
					s15.7,1.3,23,8c3.3,2.9,7.5,4.5,11.9,4.5c7.3,0,13.7-4.3,16.5-11c0.1-0.3,0.5-0.5,0.8-0.3c0.3,0.1,0.5,0.5,0.3,0.8
					C78.5,135.7,71.6,140.3,63.8,140.3z"/>
			</g>
		</g>
		<g>
			<g>
				<path fill="#858585" d="M22.4,172.6h1.1l2.6,9.1l0,0l2.5-9.1h1l2.5,9.1l0,0l2.6-9.1h1.1l-3,10.5h-1.3l-2.3-8.6l0,0l-2.3,8.6
					h-1.3L22.4,172.6z"/>
				<path fill="#858585" d="M43.9,183h-1v-1.4l0,0c-0.8,1.3-2.2,1.5-3,1.5c-2.4,0-4.2-1.9-4.2-4.1c0-2.1,1.6-4,4.2-4
					c0.8,0,2.2,0.3,3,1.6l0,0v-1.4h1V183z M39.8,182.3c1.7,0,3.1-1.3,3.1-3.2c0-1.7-1.3-3.2-3.1-3.2c-1.7,0-3.2,1.2-3.2,3.2
					C36.7,180.9,37.9,182.3,39.8,182.3z"/>
				<path fill="#858585" d="M46.6,176.2H45v-0.9h1.6v-2.7h1v2.7h1.9v0.9h-1.9v6.9h-1V176.2z"/>
				<path fill="#858585" d="M51.1,179.5c0.1,1.5,1.5,2.8,3,2.8c1.4,0,2.4-0.9,2.8-1.8h1c-0.5,1.5-2,2.7-3.8,2.7c-2.2,0-4-1.8-4-4
					s1.8-4,4-4.1c1.7,0,2.9,1,3.5,2c0.5,0.8,0.6,1.7,0.6,2.5L51.1,179.5L51.1,179.5z M57.2,178.6c-0.3-1.8-1.8-2.6-3-2.6
					s-2.7,0.8-3,2.6H57.2z"/>
				<path fill="#858585" d="M59.7,175.3h1v1.1l0,0c0.5-1.1,1.3-1.3,2.2-1.3v1c-0.7,0.1-1.3,0.3-1.7,0.8c-0.3,0.4-0.5,1-0.5,1.6v4.5
					h-1V175.3z"/>
			</g>
		</g>
	</g>
	<g>
		<g>
			
				<linearGradient id="SVGID_4_" gradientUnits="userSpaceOnUse" x1="51.4814" y1="56.7" x2="126.8007" y2="56.7" gradientTransform="matrix(1 0 0 -1 0 330)">
				<stop  offset="0" style="stop-color:#EDEEEE"/>
				<stop  offset="1" style="stop-color:#CDCFD0"/>
			</linearGradient>
			<path fill="url(#SVGID_4_)" d="M89.1,235.6c-20.8,0-37.7,16.9-37.7,37.7c0,20.8,16.9,37.7,37.7,37.7s37.7-16.9,37.7-37.7
				S109.9,235.6,89.1,235.6z"/>
			<g>
				<path fill="#B8BABC" d="M89.1,312.2c-21.5,0-38.9-17.5-38.9-38.9c0-21.5,17.5-38.9,38.9-38.9s38.9,17.5,38.9,38.9
					C128.1,294.7,110.6,312.2,89.1,312.2z M89.1,235.6c-20.8,0-37.7,16.9-37.7,37.7c0,20.8,16.9,37.7,37.7,37.7s37.7-16.9,37.7-37.7
					S109.9,235.6,89.1,235.6z"/>
				<path fill="#B8BABC" d="M98.5,263.9H79.8c-0.2,0-0.4-0.1-0.5-0.3c-0.1-0.2-0.1-0.4-0.1-0.6l3.6-10c0.1-0.3,0.3-0.4,0.6-0.4h11.5
					c0.3,0,0.5,0.2,0.6,0.4l3.6,10c0.1,0.2,0,0.4-0.1,0.6C98.9,263.8,98.7,263.9,98.5,263.9z M80.7,262.6h16.9l-3.2-8.8H83.9
					L80.7,262.6z"/>
				<g>
					<path fill="#B8BABC" d="M109.1,276.8H90.4c-0.2,0-0.4-0.1-0.5-0.3c-0.1-0.2-0.1-0.4-0.1-0.6l3.6-10c0.1-0.3,0.3-0.4,0.6-0.4
						h11.5c0.3,0,0.5,0.2,0.6,0.4l3.6,10c0.1,0.2,0,0.4-0.1,0.6S109.3,276.8,109.1,276.8z M91.3,275.6h16.9l-3.2-8.8H94.5
						L91.3,275.6z"/>
					<path fill="#B8BABC" d="M87.9,276.8H69.1c-0.2,0-0.4-0.1-0.5-0.3c-0.1-0.2-0.1-0.4-0.1-0.6l3.6-10c0.1-0.3,0.3-0.4,0.6-0.4
						h11.5c0.3,0,0.5,0.2,0.6,0.4l3.6,10c0.1,0.2,0,0.4-0.1,0.6C88.3,276.7,88.1,276.8,87.9,276.8z M70.1,275.6H87l-3.2-8.8H73.2
						L70.1,275.6z"/>
				</g>
				<g>
					<path fill="#B8BABC" d="M119.8,289.8h-18.7c-0.2,0-0.4-0.1-0.5-0.3c-0.1-0.2-0.1-0.4-0.1-0.6l3.6-10c0.1-0.3,0.3-0.4,0.6-0.4
						h11.5c0.3,0,0.5,0.2,0.6,0.4l3.6,10c0.1,0.2,0,0.4-0.1,0.6C120.2,289.7,120,289.8,119.8,289.8z M102,288.5h16.9l-3.2-8.8h-10.6
						L102,288.5z"/>
					<path fill="#B8BABC" d="M98.5,289.8H79.8c-0.2,0-0.4-0.1-0.5-0.3c-0.1-0.2-0.1-0.4-0.1-0.6l3.6-10c0.1-0.3,0.3-0.4,0.6-0.4
						h11.5c0.3,0,0.5,0.2,0.6,0.4l3.6,10c0.1,0.2,0,0.4-0.1,0.6S98.7,289.8,98.5,289.8z M80.7,288.5h16.9l-3.2-8.8H83.9L80.7,288.5z
						"/>
					<path fill="#B8BABC" d="M77.2,289.8H58.5c-0.2,0-0.4-0.1-0.5-0.3c-0.1-0.2-0.1-0.4-0.1-0.6l3.6-10c0.1-0.3,0.3-0.4,0.6-0.4
						h11.5c0.3,0,0.5,0.2,0.6,0.4l3.6,10c0.1,0.2,0,0.4-0.1,0.6S77.4,289.8,77.2,289.8z M59.4,288.5h16.9l-3.2-8.8H62.6L59.4,288.5z
						"/>
				</g>
			</g>
			<path fill="#B8BABC" d="M79.8,263.9c-0.2,0-0.4-0.1-0.5-0.3c-0.2-0.3-0.2-0.7,0.1-0.9l6.7-5c0.3-0.2,0.7-0.2,0.9,0.1
				c0.2,0.3,0.2,0.7-0.1,0.9l-6.7,5C80.1,263.9,79.9,263.9,79.8,263.9z"/>
			<path fill="#B8BABC" d="M83,263.9c-0.2,0-0.4-0.1-0.5-0.3c-0.2-0.3-0.2-0.7,0.1-0.9l3.5-2.6c0.3-0.2,0.7-0.2,0.9,0.1
				c0.2,0.3,0.2,0.7-0.1,0.9l-3.5,2.6C83.2,263.9,83.1,263.9,83,263.9z"/>
			<path fill="#B8BABC" d="M79.8,269.3c-0.2,0-0.4-0.1-0.5-0.3c-0.2-0.3-0.2-0.7,0.1-0.9l3.3-2.5c0.3-0.2,0.7-0.2,0.9,0.1
				c0.2,0.3,0.2,0.7-0.1,0.9l-3.3,2.5C80.1,269.3,79.9,269.3,79.8,269.3z"/>
			<path fill="#B8BABC" d="M83,269.3c-0.2,0-0.4-0.1-0.5-0.3c-0.2-0.3-0.2-0.7,0.1-0.9l1.7-1.3c0.3-0.2,0.7-0.2,0.9,0.1
				c0.2,0.3,0.2,0.7-0.1,0.9l-1.7,1.3C83.2,269.3,83.1,269.3,83,269.3z"/>
			<path fill="#B8BABC" d="M58.5,289.8c-0.2,0-0.4-0.1-0.5-0.3c-0.2-0.3-0.2-0.7,0.1-0.9l6.7-5c0.3-0.2,0.7-0.2,0.9,0.1
				c0.2,0.3,0.2,0.7-0.1,0.9l-6.7,5C58.8,289.7,58.6,289.8,58.5,289.8z"/>
			<path fill="#B8BABC" d="M61.7,289.8c-0.2,0-0.4-0.1-0.5-0.3c-0.2-0.3-0.2-0.7,0.1-0.9l3.5-2.6c0.3-0.2,0.7-0.2,0.9,0.1
				c0.2,0.3,0.2,0.7-0.1,0.9l-3.5,2.6C61.9,289.7,61.8,289.8,61.7,289.8z"/>
			<path fill="#B8BABC" d="M97.7,273.5c-0.2,0-0.4-0.1-0.5-0.3c-0.2-0.3-0.2-0.7,0.1-0.9l6.7-5c0.3-0.2,0.7-0.2,0.9,0.1
				c0.2,0.3,0.2,0.7-0.1,0.9l-6.7,5C98,273.4,97.9,273.5,97.7,273.5z"/>
			<path fill="#B8BABC" d="M100.9,273.5c-0.2,0-0.4-0.1-0.5-0.3c-0.2-0.3-0.2-0.7,0.1-0.9l3.5-2.6c0.3-0.2,0.7-0.2,0.9,0.1
				c0.2,0.3,0.2,0.7-0.1,0.9l-3.5,2.6C101.2,273.4,101,273.5,100.9,273.5z"/>
			<path fill="#B8BABC" d="M85.8,286.5c-0.2,0-0.4-0.1-0.5-0.3c-0.2-0.3-0.2-0.7,0.1-0.9l6.7-5c0.3-0.2,0.7-0.2,0.9,0.1
				c0.2,0.3,0.2,0.7-0.1,0.9l-6.7,5C86.1,286.5,85.9,286.5,85.8,286.5z"/>
			<path fill="#B8BABC" d="M89,286.5c-0.2,0-0.4-0.1-0.5-0.3c-0.2-0.3-0.2-0.7,0.1-0.9l3.5-2.6c0.3-0.2,0.7-0.2,0.9,0.1
				c0.2,0.3,0.2,0.7-0.1,0.9l-3.5,2.6C89.2,286.5,89.1,286.5,89,286.5z"/>
			<path fill="#B8BABC" d="M104.4,289.8c-0.2,0-0.4-0.1-0.5-0.3c-0.2-0.3-0.2-0.7,0.1-0.9l6.7-5c0.3-0.2,0.7-0.2,0.9,0.1
				c0.2,0.3,0.2,0.7-0.1,0.9l-6.7,5C104.7,289.7,104.5,289.8,104.4,289.8z"/>
			<path fill="#B8BABC" d="M107.6,289.8c-0.2,0-0.4-0.1-0.5-0.3c-0.2-0.3-0.2-0.7,0.1-0.9l3.5-2.6c0.3-0.2,0.7-0.2,0.9,0.1
				c0.2,0.3,0.2,0.7-0.1,0.9l-3.5,2.6C107.8,289.7,107.7,289.8,107.6,289.8z"/>
		</g>
		<g>
			<g>
				<path fill="#858585" d="M70.5,316.6h1.6l3.8,8.9l3.8-8.9h1.6v10.5h-1v-9.3l0,0l-3.9,9.3h-0.9l-3.9-9.3l0,0v9.3h-1L70.5,316.6
					L70.5,316.6z"/>
				<path fill="#858585" d="M84,323.6c0.1,1.5,1.5,2.8,3,2.8c1.4,0,2.4-0.9,2.8-1.8h1c-0.5,1.5-2,2.7-3.8,2.7c-2.2,0-4-1.8-4-4
					s1.8-4,4-4.1c1.7,0,2.9,1,3.5,2c0.5,0.8,0.6,1.7,0.6,2.4H84z M90,322.7c-0.3-1.8-1.8-2.6-3-2.6s-2.7,0.8-3,2.6H90z"/>
				<path fill="#858585" d="M93.4,320.3h-1.6v-0.9h1.6v-2.7h1v2.7h1.9v0.9h-1.9v6.9h-1V320.3z"/>
				<path fill="#858585" d="M105.2,327.1h-1v-1.4l0,0c-0.8,1.3-2.2,1.5-3,1.5c-2.4,0-4.2-1.9-4.2-4.1c0-2.1,1.6-4,4.2-4
					c0.8,0,2.2,0.3,3,1.6l0,0v-1.4h1V327.1z M101.2,326.4c1.7,0,3.1-1.3,3.1-3.2c0-1.7-1.3-3.2-3.1-3.2c-1.7,0-3.2,1.2-3.2,3.2
					C98,325,99.3,326.4,101.2,326.4z"/>
				<path fill="#858585" d="M107,316.6h1v10.5h-1V316.6z"/>
			</g>
		</g>
	</g>
	<path display="none" fill="none" stroke="#858585" stroke-miterlimit="10" d="M42.6,168.9c0-27.3,9-52.5,24.1-72.9
		c14.7-19.8,35.3-35,59.2-43c12.2-4.1,25.3-6.3,38.9-6.3c67.5,0,122.3,54.7,122.3,122.3s-54.7,122.3-122.3,122.3
		S42.6,236.5,42.6,168.9z"/>
	<g>
		<g>
			<path fill="#8BD3CA" d="M235,73.1c-4.8-3.5-9.9-6.7-15.1-9.4l3.3-6.3c5.6,2.9,10.9,6.3,16,10L235,73.1z"/>
			<g>
				<polygon fill="#8BD3CA" points="227.9,76.7 248.8,80 241.3,60.2 				"/>
			</g>
		</g>
		<g>
			<path fill="#8BD3CA" d="M81.8,84.1l-5-5.1c4.5-4.4,9.3-8.5,14.4-12.1l4.1,5.7C90.6,76.1,86,80,81.8,84.1z"/>
			<g>
				<polygon fill="#8BD3CA" points="96.6,80.5 106.2,61.6 85.1,62.7 				"/>
			</g>
		</g>
		<g>
			<path fill="#8BD3CA" d="M52.2,224.9c-2.8-5.6-5.2-11.5-7.1-17.5l6.7-2.2c1.8,5.6,4.1,11.2,6.7,16.5L52.2,224.9z"/>
			<g>
				<polygon fill="#8BD3CA" points="59.6,206.6 44.7,191.6 39.2,212 				"/>
			</g>
		</g>
		<g>
			<path fill="#8BD3CA" d="M164.8,294.8c-0.1,0-0.2,0-0.3,0v-7.1c5.9,0,11.9-0.4,17.7-1.3l1,7C177.1,294.3,170.9,294.8,164.8,294.8z
				"/>
			<g>
				<polygon fill="#8BD3CA" points="168.1,280.6 149.2,290.2 167,301.8 				"/>
			</g>
		</g>
		<g>
			<path fill="#8BD3CA" d="M284.4,208.2l-6.7-2.2c1.8-5.6,3.3-11.4,4.3-17.3l7,1.2C287.9,196.1,286.3,202.3,284.4,208.2z"/>
			<g>
				<polygon fill="#8BD3CA" points="272.1,200.4 275.4,221.3 291.9,208 				"/>
			</g>
		</g>
	</g>
	<g>
		<g>
			<g>
				<path fill="#858585" d="M224.2,317.2h5.7v0.9h-4.7v3.8h4.5v0.9h-4.5v3.9h4.7v0.9h-5.7V317.2z"/>
				<path fill="#858585" d="M239.5,327.7h-1v-1.4l0,0c-0.8,1.3-2.2,1.5-3,1.5c-2.4,0-4.2-1.9-4.2-4.1c0-2.1,1.6-4,4.2-4
					c0.8,0,2.2,0.3,3,1.6l0,0v-1.4h1V327.7z M235.5,327c1.7,0,3.1-1.3,3.1-3.2c0-1.7-1.3-3.2-3.1-3.2c-1.7,0-3.2,1.2-3.2,3.2
					C232.3,325.6,233.6,327,235.5,327z"/>
				<path fill="#858585" d="M241.3,319.9h1v1.1l0,0c0.5-1.1,1.3-1.3,2.2-1.3v1c-0.7,0.1-1.3,0.3-1.7,0.8c-0.3,0.4-0.5,1-0.5,1.6v4.5
					h-1V319.9z"/>
				<path fill="#858585" d="M246.8,320.8h-1.6v-0.9h1.6v-2.7h1v2.7h1.9v0.9h-1.9v6.9h-1V320.8z"/>
				<path fill="#858585" d="M250.6,317.2h1v3.7l0,0c0.3-0.5,1.1-1.2,2.4-1.2c0.9,0,1.7,0.2,2.4,0.9c0.6,0.6,1,1.5,1,2.7v4.3h-1v-4.3
					c0-1-0.3-1.7-0.7-2.1c-0.5-0.5-1.2-0.7-1.7-0.7s-1.1,0.1-1.7,0.7c-0.4,0.4-0.7,1.1-0.7,2.1v4.3h-1V317.2z"/>
			</g>
		</g>
		<g>
			<path fill="#FFFFFF" d="M240.8,236.2c-20.8,0-37.7,16.9-37.7,37.7s16.9,37.7,37.7,37.7s37.7-16.9,37.7-37.7
				S261.5,236.2,240.8,236.2z"/>
			
				<linearGradient id="SVGID_5_" gradientUnits="userSpaceOnUse" x1="203.1" y1="56.1" x2="278.4196" y2="56.1" gradientTransform="matrix(1 0 0 -1 0 330)">
				<stop  offset="0" style="stop-color:#FFFAC2"/>
				<stop  offset="1" style="stop-color:#F8BB5B"/>
			</linearGradient>
			<path opacity="0.5" fill="url(#SVGID_5_)" enable-background="new    " d="M240.8,236.2c-20.8,0-37.7,16.9-37.7,37.7
				s16.9,37.7,37.7,37.7s37.7-16.9,37.7-37.7S261.5,236.2,240.8,236.2z"/>
			<path fill="#F8BB5B" d="M240.8,312.8c-21.5,0-38.9-17.5-38.9-38.9s17.5-38.9,38.9-38.9s38.9,17.5,38.9,38.9
				S262.3,312.8,240.8,312.8z M240.8,236.2c-20.8,0-37.7,16.9-37.7,37.7s16.9,37.7,37.7,37.7s37.7-16.9,37.7-37.7
				S261.5,236.2,240.8,236.2z"/>
			<path fill="#F8BB5B" d="M250,266.9c-8.6,0-17.1-2.4-24.3-7c-2.5-1.6-5.3-2.4-8-2.5c-0.2,0-0.5,0-0.7,0c-4.6,0-9.1,2-12.2,5.4
				c-0.2,0.3-0.6,0.3-0.9,0c-0.3-0.2-0.3-0.6,0-0.9c3.4-3.7,8.1-5.8,13.1-5.8c0.2,0,0.5,0,0.7,0c3,0.1,6,1.1,8.7,2.7
				c7.1,4.4,15.3,6.8,23.7,6.8c9.1,0,17.9-2.7,25.4-7.9c0.3-0.2,0.7-0.1,0.9,0.2s0.1,0.7-0.2,0.9C268.4,264,259.4,266.9,250,266.9z"
				/>
			<path fill="#F8BB5B" d="M239.9,265.8c-0.3,0-0.5-0.1-0.6-0.2c-0.4-0.3-0.4-0.8-0.4-0.9l0,0c0.8-6.8-2.5-7.6-5.1-8.2
				c-0.2,0-0.4-0.1-0.6-0.1c-0.4-0.1-0.8-0.2-1.2-0.3c-2.4-0.6-5.4-1.3-7-3c-0.2-0.2-2.2-2.5-0.1-8.1c0.1-0.3,0.4-0.5,0.7-0.4
				c0.3,0,0.5,0.3,0.6,0.6c0,0.1,0.3,1.9,3.7,2.6c0.5,0.1,1,0.2,1.6,0.3c3.5,0.5,7.9,1.2,8.7,7.9c0.7,5.7,0.7,7.4,0.7,9.4
				c0,0.3-0.2,0.5-0.5,0.6C240.1,265.8,240,265.8,239.9,265.8z M225.6,246.8c-0.4,1.8-0.7,4.3,0.3,5.3c1.4,1.4,4.2,2.1,6.4,2.6
				c0.4,0.1,0.8,0.2,1.2,0.3c0.2,0,0.4,0.1,0.6,0.1c1.5,0.3,3.5,0.8,4.8,2.5c-0.1-0.6-0.1-1.2-0.2-1.8c-0.7-5.8-4-6.3-7.6-6.8
				c-0.5-0.1-1.1-0.2-1.6-0.3C227.4,248.4,226.2,247.6,225.6,246.8z"/>
			<path fill="#F8BB5B" d="M239.8,260.5c-0.3,0-0.6-0.3-0.6-0.6v-0.3c-0.4-5.1-0.7-7.9,4.7-11.4l0.2-0.2c4.8-3.1,6.8-4.3,6.8-6
				c0-0.5-0.1-0.8-0.4-1.1c-0.5-0.4-1.3-0.3-1.6-0.3c-0.3,0.1-0.7-0.2-0.7-0.5c-0.1-0.3,0.2-0.7,0.5-0.7c0.2,0,1.6-0.3,2.6,0.6
				c0.4,0.3,0.8,0.9,0.8,2.1c0,2.4-2.2,3.7-7.4,7.1l-0.2,0.2c-4.7,3-4.6,5.1-4.1,10.2v0.3C240.5,260.2,240.2,260.5,239.8,260.5
				L239.8,260.5z"/>
			<path fill="#F8BB5B" d="M240.8,265.9c-0.3,0-0.6-0.3-0.6-0.6c-0.1-5.5,0.6-8.3,2.2-10.1c0.8-0.9,2.3-1.5,3.9-2.2
				c2.2-1,4.8-2.1,5.9-4.1c1.8-3.2-1.4-7.6-1.5-7.6c-0.2-0.3-0.2-0.7,0.1-0.9s0.7-0.2,0.9,0.1c0.2,0.2,3.8,5.1,1.6,9
				c-1.3,2.3-4.1,3.5-6.5,4.6c-1.5,0.6-2.8,1.2-3.5,2c-1.2,1.3-2,3.3-1.9,9.2C241.4,265.6,241.1,265.9,240.8,265.9L240.8,265.9z"/>
			<path fill="#F8BB5B" d="M248.5,246.6c-0.1,0-0.3,0-0.4-0.1c-0.3-0.2-0.3-0.6-0.1-0.9c1.1-1.3,1.5-2.4,1.4-3.3
				c-0.2-1-0.9-1.5-0.9-1.5c-0.3-0.2-0.4-0.6-0.2-0.9s0.6-0.4,0.9-0.2c0.1,0,1.3,0.8,1.5,2.4c0.2,1.3-0.3,2.8-1.6,4.4
				C248.9,246.5,248.7,246.6,248.5,246.6z"/>
			<path fill="#F8BB5B" d="M213.8,275.5c-0.1,0-0.2,0-0.3-0.1l-8.7-5.6c-0.3-0.2-0.4-0.6-0.2-0.9l5.2-8.5c0.1-0.2,0.3-0.3,0.5-0.3
				l5.7-0.9c0.2,0,0.4,0,0.6,0.2l6.1,6.6c0.2,0.2,0.2,0.5,0.1,0.7l-3,6.7c-0.1,0.2-0.2,0.3-0.4,0.3l-5.3,1.7
				C213.9,275.5,213.8,275.5,213.8,275.5z M205.9,269l7.9,5.1l4.7-1.5l2.7-6.1l-5.5-6l-5.1,0.8L205.9,269z"/>
			<path fill="#F8BB5B" d="M238,279.7c-0.1,0-0.2,0-0.3-0.1l-6.7-4.2c-0.1,0-0.1-0.1-0.2-0.2l-4.5-6.3c-0.1-0.1-0.1-0.3-0.1-0.5
				l0.7-4.8c0-0.2,0.1-0.3,0.3-0.4s0.3-0.1,0.5-0.1l7.9,2.4c0.1,0,0.1,0.1,0.2,0.1l5.3,4.2c0.2,0.2,0.3,0.4,0.2,0.7l-2.8,8.6
				c-0.1,0.2-0.2,0.3-0.4,0.4C238.2,279.7,238.1,279.7,238,279.7z M231.8,274.4l5.9,3.7l2.4-7.4l-4.9-3.9l-7.1-2.1l-0.6,3.8
				L231.8,274.4z"/>
			<path fill="#F8BB5B" d="M245.5,286.6c-0.2,0-0.4-0.1-0.5-0.2l-4.8-5.3c-0.1-0.1-0.2-0.3-0.2-0.5l1.1-5.8c0-0.1,0.1-0.2,0.2-0.3
				l5.9-5.7c0.2-0.2,0.4-0.2,0.7-0.1l4.3,1.6c0.1,0,0.2,0.1,0.2,0.2l4.7,5.1c0.2,0.2,0.2,0.4,0.1,0.6l-2.8,8.6
				c-0.1,0.2-0.3,0.4-0.5,0.4l-8.4,1.5C245.6,286.6,245.6,286.6,245.5,286.6z M241.5,280.4l4.3,4.8l7.7-1.4l2.5-7.9l-4.3-4.7
				l-3.8-1.4l-5.4,5.3L241.5,280.4z"/>
			<path fill="#F8BB5B" d="M273.3,277.2c-0.2,0-0.3-0.1-0.4-0.2l-5.5-5.2c-0.2-0.2-0.2-0.4-0.2-0.6l1.5-7c0-0.2,0.1-0.3,0.3-0.4
				l6.5-4c0.3-0.2,0.7-0.1,0.9,0.2c0.2,0.3,0.1,0.7-0.2,0.9l-6.3,3.8l-1.4,6.4l5.1,4.8l5.5-0.6c0.3,0,0.7,0.2,0.7,0.6
				s-0.2,0.7-0.6,0.7L273.3,277.2L273.3,277.2z"/>
			<path fill="#F8BB5B" d="M266.6,285.9c-0.1,0-0.2,0-0.2,0l-9.4-3.6c-0.2-0.1-0.3-0.2-0.4-0.4c-0.1-0.2-0.1-0.4,0-0.5l5.4-10.3
				c0.1-0.3,0.4-0.4,0.7-0.3l4,1.1c0.1,0,0.2,0.1,0.3,0.2l7.4,7.8c0.1,0.1,0.2,0.3,0.2,0.5s-0.1,0.4-0.3,0.5l-7.6,5
				C266.9,285.9,266.8,285.9,266.6,285.9z M258.2,281.4l8.4,3.2l6.6-4.4l-6.8-7.1l-3.4-0.9L258.2,281.4z"/>
			<path fill="#F8BB5B" d="M222.6,289.8c-0.1,0-0.2,0-0.4-0.1l-6.9-4.6c-0.2-0.1-0.3-0.4-0.3-0.6l1.1-6.2c0-0.2,0.1-0.3,0.3-0.4
				l8.7-5.1c0.2-0.1,0.4-0.1,0.6,0l3.8,1.6c0.1,0,0.2,0.1,0.3,0.2l5.3,7c0.2,0.2,0.2,0.6,0,0.8l-4.7,5.3c-0.1,0.1-0.2,0.2-0.3,0.2
				l-7.3,1.9C222.7,289.8,222.6,289.8,222.6,289.8z M216.4,284.3l6.3,4.2l6.9-1.8l4.2-4.8l-4.9-6.5l-3.4-1.4l-8.2,4.8L216.4,284.3z"
				/>
			<path fill="#F8BB5B" d="M224.5,305.8c-0.1,0-0.2,0-0.3-0.1l-4.9-3.2c-0.2-0.1-0.3-0.3-0.3-0.5v-3.2c0-0.2,0.1-0.4,0.3-0.6l3.7-2
				c0.2-0.1,0.4-0.1,0.6,0l6.3,3c0.2,0.1,0.4,0.4,0.4,0.6l-0.4,4.7c0,0.3-0.2,0.5-0.5,0.6l-4.7,0.7
				C224.6,305.8,224.6,305.8,224.5,305.8z M220.2,301.7l4.4,2.9l3.9-0.6l0.3-3.7l-5.6-2.6l-3.1,1.7v2.3H220.2z"/>
			<path fill="#F8BB5B" d="M241.8,310.6C241.8,310.6,241.7,310.6,241.8,310.6l-4.8-0.5c-0.2,0-0.4-0.1-0.5-0.3
				c-0.1-0.2-0.1-0.4-0.1-0.6l3-8.5c0.1-0.3,0.3-0.4,0.6-0.4h3c0.3,0,0.6,0.3,0.6,0.6l0.5,5.9c0,0.1,0,0.3-0.1,0.4l-1.8,3.1
				C242.2,310.5,242,310.6,241.8,310.6z M237.9,308.9l3.5,0.4l1.5-2.5l-0.5-5.1h-2L237.9,308.9z"/>
			<path fill="#F8BB5B" d="M239.6,296.8c-0.1,0-0.2,0-0.3-0.1L232,292c-0.2-0.1-0.3-0.3-0.3-0.5s0-0.4,0.2-0.5l6.6-6.7
				c0.2-0.2,0.6-0.3,0.8-0.1l5.6,4.4c0.2,0.2,0.3,0.5,0.2,0.7l-1.4,3.7c0,0.1-0.1,0.2-0.2,0.2l-3.6,3.3
				C239.9,296.7,239.7,296.8,239.6,296.8z M233.3,291.4l6.2,4l3.1-2.9l1.2-3.1l-4.8-3.7L233.3,291.4z"/>
			<path fill="#F8BB5B" d="M259.9,296.8c-0.1,0-0.2,0-0.3-0.1l-6.6-3.8c-0.3-0.2-0.4-0.5-0.3-0.8l3.4-7c0.1-0.3,0.4-0.4,0.7-0.3
				l7.7,2c0.3,0.1,0.4,0.3,0.5,0.5l0.5,5c0,0.2-0.1,0.4-0.2,0.6l-5,3.8C260.2,296.8,260.1,296.8,259.9,296.8z M254.2,292.1l5.7,3.3
				l4.4-3.4l-0.4-4.2l-6.7-1.8L254.2,292.1z"/>
			<path fill="#F8BB5B" d="M249.3,300c-0.1,0-0.2,0-0.3-0.1l-3.8-2.3c-0.1-0.1-0.2-0.2-0.3-0.4c0-0.2,0-0.3,0.1-0.5l3-4.8
				c0.2-0.3,0.6-0.4,0.9-0.2l6.5,3.9c0.2,0.1,0.3,0.3,0.3,0.6c0,0.2-0.1,0.4-0.3,0.5l-5.7,3.2C249.5,300,249.4,300,249.3,300z
				 M246.4,296.8l2.9,1.8l4.4-2.5l-5-3L246.4,296.8z"/>
			<path fill="#F8BB5B" d="M206.3,287.3c-0.2,0-0.4-0.1-0.5-0.3l-2.7-3.8c-0.2-0.3-0.1-0.7,0.1-0.9c0.3-0.2,0.7-0.1,0.9,0.1l2.5,3.5
				l5.9-0.6l0.4-7.4l-4.4-1.4l-5.3,1.4c-0.3,0.1-0.7-0.1-0.8-0.5c-0.1-0.3,0.1-0.7,0.5-0.8l5.5-1.4c0.1,0,0.2,0,0.4,0l5,1.6
				c0.3,0.1,0.5,0.4,0.4,0.6l-0.4,8.4c0,0.3-0.3,0.6-0.6,0.6L206.3,287.3C206.4,287.3,206.3,287.3,206.3,287.3z"/>
			<path fill="#F8BB5B" d="M211.8,296.1c-0.2,0-0.5-0.1-0.6-0.4l-2.3-4.9c-0.1-0.3,0-0.7,0.3-0.8l4.6-2.3c0.2-0.1,0.4-0.1,0.5,0
				l3.5,1.4c0.2,0.1,0.4,0.3,0.4,0.6v5.3c0,0.3-0.3,0.6-0.6,0.6L211.8,296.1L211.8,296.1z M210.3,290.8l1.8,4l4.8-0.4V290l-2.8-1.1
				L210.3,290.8z"/>
			<path fill="#F8BB5B" d="M232.3,296.4h-5.4c-0.2,0-0.4-0.1-0.5-0.2l-3.5-4.5c-0.1-0.2-0.2-0.4-0.1-0.6c0.1-0.2,0.3-0.4,0.5-0.4
				l4.7-0.8c0.1,0,0.3,0,0.4,0.1l2.7,1.3c0.1,0.1,0.2,0.2,0.3,0.3l1.6,4c0.1,0.2,0.1,0.4-0.1,0.6
				C232.7,296.3,232.5,296.4,232.3,296.4z M227.2,295.1h4.2l-1.2-2.9l-2.3-1.1l-3.4,0.6L227.2,295.1z"/>
			<path fill="#F8BB5B" d="M255,306.1c-0.1,0-0.2,0-0.3-0.1c-0.2-0.1-0.3-0.2-0.4-0.4l-1.7-5.3c-0.1-0.2,0-0.4,0.1-0.5
				c0.1-0.2,0.2-0.3,0.4-0.3l3.9-0.9c0.3-0.1,0.6,0.1,0.7,0.4l1.9,4.1c0.1,0.3,0,0.7-0.3,0.8l-4.1,2
				C255.2,306.1,255.1,306.1,255,306.1z M254.2,300.7l1.2,3.9l2.9-1.4l-1.4-3.1L254.2,300.7z"/>
			<path fill="#F8BB5B" d="M274.2,293.2L274.2,293.2l-4.5-0.3c-0.3,0-0.6-0.3-0.6-0.6v-5.5c0-0.3,0.2-0.6,0.5-0.6l7.6-1.4
				c0.3-0.1,0.7,0.2,0.7,0.5c0.1,0.3-0.2,0.7-0.5,0.7l-7.1,1.3v4.4l3.9,0.3c0.4,0,0.6,0.3,0.6,0.7
				C274.8,292.9,274.5,293.2,274.2,293.2z"/>
		</g>
	</g>
	<g>
		<g>
			
				<rect x="75.9" y="161" transform="matrix(0.2904 -0.9569 0.9569 0.2904 -64.5698 238.4057)" fill="#8096A3" width="105.1" height="3.5"/>
			<g>
				<polygon fill="#8096A3" points="138.2,112.4 145.9,105.2 148.3,115.5 				"/>
			</g>
		</g>
		<g>
			
				<rect x="197.3" y="102.9" transform="matrix(0.9569 -0.2904 0.2904 0.9569 -36.5661 64.5038)" fill="#8096A3" width="3.5" height="105.1"/>
			<g>
				<polygon fill="#8096A3" points="208.8,205.8 216.5,213 218.9,202.7 				"/>
			</g>
		</g>
		<g>
			
				<rect x="145.9" y="149.2" transform="matrix(0.5719 -0.8203 0.8203 0.5719 -102.2497 207.4807)" fill="#8096A3" width="3.5" height="105.1"/>
			<g>
				<polygon fill="#8096A3" points="102.8,176.8 98.4,167.2 108.9,168.1 				"/>
			</g>
		</g>
		<g>
			
				<rect x="135.7" y="195.5" transform="matrix(0.8203 -0.5719 0.5719 0.8203 -78.9973 143.0922)" fill="#8096A3" width="105.1" height="3.5"/>
			<g>
				<polygon fill="#8096A3" points="143.4,222.1 138.9,231.7 149.5,230.8 				"/>
			</g>
		</g>
		<g>
			
				<rect x="160.8" y="79.7" transform="matrix(1.950396e-02 -0.9998 0.9998 1.950396e-02 27.1454 292.2742)" fill="#8096A3" width="3.5" height="105.1"/>
			<g>
				<polygon fill="#8096A3" points="213.5,138.5 222.8,133.4 213.7,128 				"/>
			</g>
		</g>
	</g>
</g>
</svg>
