<?xml version="1.0" encoding="utf-8"?>
<!-- Generator: Adobe Illustrator 19.2.1, SVG Export Plug-In . SVG Version: 6.00 Build 0)  -->
<svg version="1.1" id="Layer_1" xmlns="http://www.w3.org/2000/svg" xmlns:xlink="http://www.w3.org/1999/xlink" x="0px" y="0px"
	 viewBox="0 0 110 110" style="enable-background:new 0 0 110 110;" xml:space="preserve">
<style type="text/css">
	.st0{fill:url(#SVGID_1_);}
	.st1{fill:#B8BABC;}
</style>
<g>
	<linearGradient id="SVGID_1_" gradientUnits="userSpaceOnUse" x1="1.8034" y1="55" x2="108.1966" y2="55">
		<stop  offset="0" style="stop-color:#EDEEEE"/>
		<stop  offset="1" style="stop-color:#CDCFD0"/>
	</linearGradient>
	<path class="st0" d="M55,1.8C25.7,1.8,1.8,25.7,1.8,55c0,29.3,23.9,53.2,53.2,53.2s53.2-23.9,53.2-53.2C108.2,25.7,84.3,1.8,55,1.8
		z"/>
	<g>
		<path class="st1" d="M55,110C24.7,110,0,85.3,0,55C0,24.7,24.7,0,55,0s55,24.7,55,55C110,85.3,85.3,110,55,110z M55,1.8
			C25.7,1.8,1.8,25.7,1.8,55c0,29.3,23.9,53.2,53.2,53.2s53.2-23.9,53.2-53.2C108.2,25.7,84.3,1.8,55,1.8z"/>
		<path class="st1" d="M68.2,41.8H41.8c-0.3,0-0.6-0.1-0.7-0.4c-0.2-0.2-0.2-0.5-0.1-0.8L46,26.4c0.1-0.4,0.5-0.6,0.8-0.6h16.2
			c0.4,0,0.7,0.2,0.8,0.6l5.1,14.2c0.1,0.3,0.1,0.6-0.1,0.8C68.8,41.7,68.5,41.8,68.2,41.8z M43.1,40h23.9l-4.5-12.4H47.5L43.1,40z"
			/>
		<g>
			<path class="st1" d="M83.2,60.1H56.8c-0.3,0-0.6-0.1-0.7-0.4c-0.2-0.2-0.2-0.5-0.1-0.8l5.1-14.2c0.1-0.4,0.5-0.6,0.8-0.6h16.2
				c0.4,0,0.7,0.2,0.8,0.6l5.1,14.2c0.1,0.3,0.1,0.6-0.1,0.8C83.8,59.9,83.5,60.1,83.2,60.1z M58.1,58.3H82l-4.5-12.4H62.6
				L58.1,58.3z"/>
			<path class="st1" d="M53.2,60.1H26.8c-0.3,0-0.6-0.1-0.7-0.4c-0.2-0.2-0.2-0.5-0.1-0.8L31,44.7c0.1-0.4,0.5-0.6,0.8-0.6h16.2
				c0.4,0,0.7,0.2,0.8,0.6L54,58.8c0.1,0.3,0.1,0.6-0.1,0.8C53.7,59.9,53.5,60.1,53.2,60.1z M28,58.3h23.9l-4.5-12.4H32.5L28,58.3z"
				/>
		</g>
		<g>
			<path class="st1" d="M98.3,78.3H71.9c-0.3,0-0.6-0.1-0.7-0.4c-0.2-0.2-0.2-0.5-0.1-0.8l5.1-14.2c0.1-0.4,0.5-0.6,0.8-0.6h16.2
				c0.4,0,0.7,0.2,0.8,0.6l5.1,14.2c0.1,0.3,0.1,0.6-0.1,0.8C98.8,78.2,98.6,78.3,98.3,78.3z M73.1,76.5H97l-4.5-12.4H77.6
				L73.1,76.5z"/>
			<path class="st1" d="M68.2,78.3H41.8c-0.3,0-0.6-0.1-0.7-0.4c-0.2-0.2-0.2-0.5-0.1-0.8L46,62.9c0.1-0.4,0.5-0.6,0.8-0.6h16.2
				c0.4,0,0.7,0.2,0.8,0.6l5.1,14.2c0.1,0.3,0.1,0.6-0.1,0.8C68.8,78.2,68.5,78.3,68.2,78.3z M43.1,76.5h23.9l-4.5-12.4H47.5
				L43.1,76.5z"/>
			<path class="st1" d="M38.1,78.3H11.7c-0.3,0-0.6-0.1-0.7-0.4c-0.2-0.2-0.2-0.5-0.1-0.8L16,62.9c0.1-0.4,0.5-0.6,0.8-0.6H33
				c0.4,0,0.7,0.2,0.8,0.6L39,77.1c0.1,0.3,0.1,0.6-0.1,0.8C38.7,78.2,38.4,78.3,38.1,78.3z M13,76.5h23.9l-4.5-12.4H17.5L13,76.5z"
				/>
		</g>
	</g>
	<path class="st1" d="M41.8,41.8c-0.3,0-0.5-0.1-0.7-0.4c-0.3-0.4-0.2-1,0.2-1.3l9.4-7.1c0.4-0.3,1-0.2,1.3,0.2
		c0.3,0.4,0.2,1-0.2,1.3l-9.4,7.1C42.2,41.7,42,41.8,41.8,41.8z"/>
	<path class="st1" d="M46.3,41.8c-0.3,0-0.5-0.1-0.7-0.4c-0.3-0.4-0.2-1,0.2-1.3l4.9-3.7c0.4-0.3,1-0.2,1.3,0.2
		c0.3,0.4,0.2,1-0.2,1.3l-4.9,3.7C46.6,41.7,46.5,41.8,46.3,41.8z"/>
	<path class="st1" d="M41.8,49.4c-0.3,0-0.5-0.1-0.7-0.4c-0.3-0.4-0.2-1,0.2-1.3l4.6-3.5c0.4-0.3,1-0.2,1.3,0.2
		c0.3,0.4,0.2,1-0.2,1.3l-4.6,3.5C42.2,49.4,42,49.4,41.8,49.4z"/>
	<path class="st1" d="M46.3,49.4c-0.3,0-0.5-0.1-0.7-0.4c-0.3-0.4-0.2-1,0.2-1.3l2.4-1.8c0.4-0.3,1-0.2,1.3,0.2
		c0.3,0.4,0.2,1-0.2,1.3l-2.4,1.8C46.6,49.4,46.5,49.4,46.3,49.4z"/>
	<path class="st1" d="M11.7,78.3c-0.3,0-0.5-0.1-0.7-0.4c-0.3-0.4-0.2-1,0.2-1.3l9.4-7.1c0.4-0.3,1-0.2,1.3,0.2
		c0.3,0.4,0.2,1-0.2,1.3l-9.4,7.1C12.1,78.3,11.9,78.3,11.7,78.3z"/>
	<path class="st1" d="M16.2,78.3c-0.3,0-0.5-0.1-0.7-0.4c-0.3-0.4-0.2-1,0.2-1.3l4.9-3.7c0.4-0.3,1-0.2,1.3,0.2
		c0.3,0.4,0.2,1-0.2,1.3l-4.9,3.7C16.6,78.3,16.4,78.3,16.2,78.3z"/>
	<path class="st1" d="M67.1,55.3c-0.3,0-0.5-0.1-0.7-0.4c-0.3-0.4-0.2-1,0.2-1.3l9.4-7.1c0.4-0.3,1-0.2,1.3,0.2
		c0.3,0.4,0.2,1-0.2,1.3l-9.4,7.1C67.5,55.2,67.3,55.3,67.1,55.3z"/>
	<path class="st1" d="M71.6,55.3c-0.3,0-0.5-0.1-0.7-0.4c-0.3-0.4-0.2-1,0.2-1.3L76,50c0.4-0.3,1-0.2,1.3,0.2c0.3,0.4,0.2,1-0.2,1.3
		l-4.9,3.7C72,55.2,71.8,55.3,71.6,55.3z"/>
	<path class="st1" d="M50.3,73.7c-0.3,0-0.5-0.1-0.7-0.4c-0.3-0.4-0.2-1,0.2-1.3l9.4-7.1c0.4-0.3,1-0.2,1.3,0.2
		c0.3,0.4,0.2,1-0.2,1.3l-9.4,7.1C50.7,73.6,50.5,73.7,50.3,73.7z"/>
	<path class="st1" d="M54.8,73.7c-0.3,0-0.5-0.1-0.7-0.4c-0.3-0.4-0.2-1,0.2-1.3l4.9-3.7c0.4-0.3,1-0.2,1.3,0.2
		c0.3,0.4,0.2,1-0.2,1.3l-4.9,3.7C55.2,73.6,55,73.7,54.8,73.7z"/>
	<path class="st1" d="M76.6,78.3c-0.3,0-0.5-0.1-0.7-0.4c-0.3-0.4-0.2-1,0.2-1.3l9.4-7.1c0.4-0.3,1-0.2,1.3,0.2
		c0.3,0.4,0.2,1-0.2,1.3l-9.4,7.1C76.9,78.3,76.7,78.3,76.6,78.3z"/>
	<path class="st1" d="M81,78.3c-0.3,0-0.5-0.1-0.7-0.4c-0.3-0.4-0.2-1,0.2-1.3l4.9-3.7c0.4-0.3,1-0.2,1.3,0.2c0.3,0.4,0.2,1-0.2,1.3
		l-4.9,3.7C81.4,78.3,81.2,78.3,81,78.3z"/>
</g>
</svg>
