<?xml version="1.0" encoding="utf-8"?>
<!-- Generator: Adobe Illustrator 19.2.1, SVG Export Plug-In . SVG Version: 6.00 Build 0)  -->
<svg version="1.1" id="Layer_1" xmlns="http://www.w3.org/2000/svg" xmlns:xlink="http://www.w3.org/1999/xlink" x="0px" y="0px"
	 viewBox="0 0 103 103" style="enable-background:new 0 0 103 103;" xml:space="preserve">
<style type="text/css">
	.st0{fill:#FFFFFF;}
</style>
<g>
	<path class="st0" d="M51.5,101.5c-27.6,0-50-22.4-50-50s22.4-50,50-50s50,22.4,50,50S79.1,101.5,51.5,101.5z M51.5,3.1
		C24.8,3.1,3.1,24.8,3.1,51.5s21.7,48.4,48.4,48.4s48.4-21.7,48.4-48.4S78.2,3.1,51.5,3.1z"/>
	<path class="st0" d="M51.5,76.9c-14,0-25.4-11.4-25.4-25.4s11.4-25.4,25.4-25.4s25.4,11.4,25.4,25.4S65.5,76.9,51.5,76.9z
		 M51.5,27.7c-13.1,0-23.8,10.7-23.8,23.8s10.7,23.8,23.8,23.8s23.8-10.7,23.8-23.8S64.6,27.7,51.5,27.7z"/>
	<path class="st0" d="M56.3,22.7c0,0-0.1,0-0.1,0c-3.1-0.5-6.3-0.5-9.4,0c-0.4,0.1-0.8-0.2-0.9-0.6c-0.1-0.4-0.7-3.9,4.9-15.1
		c0.1-0.3,0.4-0.4,0.7-0.5c0.3,0,0.6,0.1,0.7,0.4c0.2,0.3,4.5,6.7,5,15c0,0.2-0.1,0.5-0.3,0.7C56.7,22.6,56.5,22.7,56.3,22.7z
		 M51.6,9c-3.3,7-4,10.5-4.1,11.9c2.6-0.3,5.3-0.3,7.9,0C54.9,15.5,52.7,11,51.6,9z"/>
	<path class="st0" d="M30.2,31.1c-0.2,0-0.4-0.1-0.5-0.2c-0.3-0.2-2.8-2.8-5-15.1c0-0.3,0.1-0.6,0.3-0.8c0.2-0.2,0.5-0.2,0.8-0.1
		c0.3,0.1,7.5,2.8,12.9,9.2c0.2,0.2,0.2,0.4,0.2,0.7c-0.1,0.2-0.2,0.5-0.4,0.6c-2.8,1.4-5.4,3.3-7.6,5.5
		C30.6,31.1,30.4,31.1,30.2,31.1z M26.6,17c1.4,7.6,3,10.9,3.7,12c1.9-1.8,4.1-3.4,6.4-4.7C33.1,20.4,28.7,18,26.6,17z"/>
	<path class="st0" d="M21.8,47.7C21.8,47.7,21.8,47.7,21.8,47.7c-0.5,0-4-0.6-13-9.3c-0.2-0.2-0.3-0.5-0.2-0.8
		c0.1-0.3,0.3-0.5,0.6-0.6c0.3-0.1,7.7-2.2,15.8-0.1c0.2,0.1,0.4,0.2,0.5,0.5c0.1,0.2,0.1,0.5,0,0.7c-1.4,2.8-2.4,5.8-2.9,8.9
		C22.6,47.4,22.2,47.7,21.8,47.7z M11.1,38.3c5.6,5.3,8.8,7,10.1,7.6c0.5-2.6,1.3-5.1,2.4-7.5C18.3,37.2,13.4,37.8,11.1,38.3z"/>
	<path class="st0" d="M19.1,66.8c-2.3,0-5.5-0.2-9.8-0.8c-0.3,0-0.5-0.2-0.6-0.5c-0.1-0.3-0.1-0.6,0.1-0.8c0.2-0.3,5-6.3,12.7-9.4
		c0.2-0.1,0.5-0.1,0.7,0.1c0.2,0.1,0.4,0.3,0.4,0.6c0.5,3.1,1.5,6.1,2.9,8.9c0.2,0.4,0.1,0.9-0.3,1.1C25,66.1,23.5,66.8,19.1,66.8z
		 M11,64.6c7.6,1,11.2,0.5,12.6,0.2c-1.1-2.4-2-4.9-2.5-7.5C16.2,59.4,12.6,62.8,11,64.6z"/>
	<path class="st0" d="M25.5,88.1c-0.2,0-0.3,0-0.4-0.1c-0.2-0.2-0.4-0.4-0.4-0.7c0-0.3,0.3-8,4.8-15.1c0.1-0.2,0.4-0.3,0.6-0.4
		c0.2,0,0.5,0.1,0.7,0.2c2.2,2.2,4.8,4.1,7.6,5.5c0.4,0.2,0.6,0.7,0.4,1.1c-0.1,0.3-1.8,3.5-12.8,9.4C25.7,88.1,25.6,88.1,25.5,88.1
		z M30.3,74c-2.7,4.7-3.6,9.5-3.9,11.9c6.8-3.7,9.4-6.2,10.3-7.3C34.4,77.3,32.2,75.8,30.3,74z"/>
	<path class="st0" d="M51.5,96.6c-0.3,0-0.5-0.1-0.7-0.4c-0.2-0.3-4.5-6.7-5-15c0-0.2,0.1-0.5,0.3-0.7c0.2-0.2,0.4-0.2,0.7-0.2
		c3.1,0.5,6.3,0.5,9.4,0c0.4-0.1,0.8,0.2,0.9,0.6c0.1,0.4,0.7,3.9-4.9,15.1C52.1,96.4,51.8,96.6,51.5,96.6
		C51.5,96.6,51.5,96.6,51.5,96.6z M47.6,82.1c0.6,5.4,2.7,9.8,3.9,11.9c3.3-7,4-10.5,4.1-11.9C52.9,82.5,50.2,82.5,47.6,82.1z"/>
	<path class="st0" d="M77.5,88.1c-0.1,0-0.2,0-0.3,0c-0.3-0.1-7.5-2.8-12.9-9.2c-0.2-0.2-0.2-0.4-0.2-0.7c0.1-0.2,0.2-0.5,0.4-0.6
		c2.8-1.4,5.4-3.3,7.6-5.5c0.3-0.3,0.8-0.3,1.1,0c0.3,0.2,2.8,2.8,5,15.1c0,0.3-0.1,0.6-0.3,0.8C77.9,88.1,77.7,88.1,77.5,88.1z
		 M66.3,78.6c3.6,4,8,6.4,10.1,7.4c-1.4-7.6-3-10.9-3.7-12C70.8,75.7,68.6,77.3,66.3,78.6z"/>
	<path class="st0" d="M85.6,67c-2.3,0-4.9-0.2-7.6-0.9c-0.2-0.1-0.4-0.2-0.5-0.5c-0.1-0.2-0.1-0.5,0-0.7c1.4-2.8,2.4-5.8,2.9-8.9
		c0.1-0.4,0.5-0.7,0.9-0.7c0.4,0,3.9,0.6,12.9,9.3c0.2,0.2,0.3,0.5,0.2,0.8c-0.1,0.3-0.3,0.5-0.6,0.6C93.6,66,90.2,67,85.6,67z
		 M79.4,64.7c5.3,1.1,10.2,0.5,12.5,0c-5.6-5.3-8.8-7-10.1-7.6C81.4,59.8,80.5,62.3,79.4,64.7z"/>
	<path class="st0" d="M81.2,47.8c-0.1,0-0.3,0-0.4-0.1c-0.2-0.1-0.4-0.3-0.4-0.6c-0.5-3.1-1.5-6.1-2.9-8.9c-0.2-0.4-0.1-0.9,0.3-1.1
		c0.3-0.2,3.5-1.8,15.9-0.1c0.3,0,0.5,0.2,0.6,0.5c0.1,0.3,0.1,0.6-0.1,0.8c-0.2,0.3-5,6.3-12.7,9.4C81.4,47.7,81.3,47.8,81.2,47.8z
		 M79.4,38.2c1.1,2.4,2,4.9,2.5,7.5c4.9-2.2,8.5-5.6,10.1-7.4C84.3,37.4,80.8,37.9,79.4,38.2z"/>
	<path class="st0" d="M72.9,31.2c-0.2,0-0.4-0.1-0.6-0.2c-2.2-2.2-4.8-4.1-7.6-5.5c-0.4-0.2-0.6-0.7-0.4-1.1
		c0.1-0.3,1.8-3.5,12.8-9.4c0.3-0.1,0.6-0.1,0.8,0c0.2,0.2,0.4,0.4,0.4,0.7c0,0.3-0.3,8-4.8,15.1C73.4,31,73.2,31.1,72.9,31.2
		C72.9,31.2,72.9,31.2,72.9,31.2z M66.3,24.4c2.3,1.3,4.5,2.8,6.4,4.7c2.7-4.7,3.6-9.5,3.9-11.9C69.8,20.9,67.2,23.3,66.3,24.4z"/>
</g>
</svg>
