<?xml version="1.0" encoding="utf-8"?>
<!-- Generator: Adobe Illustrator 19.2.1, SVG Export Plug-In . SVG Version: 6.00 Build 0)  -->
<svg version="1.1" id="Layer_1" xmlns="http://www.w3.org/2000/svg" xmlns:xlink="http://www.w3.org/1999/xlink" x="0px" y="0px"
	 viewBox="0 0 103 103" style="enable-background:new 0 0 103 103;" xml:space="preserve">
<style type="text/css">
	.st0{fill:#FFFFFF;}
</style>
<g>
	<g>
		<path class="st0" d="M51.5,101.5c-27.6,0-50-22.4-50-50s22.4-50,50-50s50,22.4,50,50S79.1,101.5,51.5,101.5z M51.5,3.1
			C24.8,3.1,3.1,24.8,3.1,51.5s21.7,48.4,48.4,48.4s48.4-21.7,48.4-48.4S78.2,3.1,51.5,3.1z"/>
		<path class="st0" d="M51.5,52.3c-0.5,0-0.8-0.4-0.8-0.8V7.2c0-0.5,0.4-0.8,0.8-0.8s0.8,0.4,0.8,0.8v44.3
			C52.3,52,52,52.3,51.5,52.3z"/>
		<path class="st0" d="M51.5,18.3c-0.1,0-0.3,0-0.4-0.1l-9.9-5.3c-0.4-0.2-0.6-0.7-0.3-1.1c0.2-0.4,0.7-0.6,1.1-0.3l9.6,5.1l9.7-5.1
			c0.4-0.2,0.9-0.1,1.1,0.3s0.1,0.9-0.3,1.1l-10.1,5.3C51.8,18.2,51.6,18.3,51.5,18.3z"/>
		<path class="st0" d="M51.5,23.5c-0.1,0-0.3,0-0.4-0.1l-9.9-5.3c-0.4-0.2-0.6-0.7-0.3-1.1c0.2-0.4,0.7-0.6,1.1-0.3l9.6,5.1l9.7-5.1
			c0.4-0.2,0.9-0.1,1.1,0.3c0.2,0.4,0.1,0.9-0.3,1.1l-10.1,5.3C51.8,23.5,51.6,23.5,51.5,23.5z"/>
		<g>
			<path class="st0" d="M51.5,52.3c-0.1,0-0.3,0-0.4-0.1c-0.4-0.2-0.5-0.7-0.3-1.1l14.3-24.8c0.2-0.4,0.7-0.5,1.1-0.3
				c0.4,0.2,0.5,0.7,0.3,1.1L52.2,51.9C52.1,52.2,51.8,52.3,51.5,52.3z"/>
			<path class="st0" d="M68,32.3C68,32.3,68,32.3,68,32.3l-5-0.2c-0.2,0-0.3-0.1-0.4-0.3l-2.6-4.1c-0.2-0.3-0.1-0.6,0.2-0.8
				c0.3-0.2,0.6-0.1,0.8,0.2l2.4,3.9l4.6,0.2c0.3,0,0.5,0.3,0.5,0.6C68.6,32,68.3,32.3,68,32.3z"/>
			<path class="st0" d="M66.3,35.2C66.3,35.2,66.3,35.2,66.3,35.2l-5-0.2c-0.2,0-0.3-0.1-0.4-0.3l-2.6-4.1c-0.2-0.3-0.1-0.6,0.2-0.8
				c0.3-0.2,0.6-0.1,0.8,0.2l2.4,3.9l4.6,0.2c0.3,0,0.5,0.3,0.5,0.6C66.9,34.9,66.6,35.2,66.3,35.2z"/>
		</g>
		<path class="st0" d="M68.2,52c-0.1,0-0.3-0.1-0.4-0.2l-5.9-6.2c-0.1-0.1-0.1-0.1-0.1-0.2l-2.2-7.7l-7.8,1.9c-0.1,0-0.2,0-0.3,0
			l-7.8-1.9l-2.2,7.7c-0.1,0.3-0.4,0.5-0.7,0.4c-0.3-0.1-0.5-0.4-0.4-0.7l2.4-8.2c0.1-0.3,0.4-0.4,0.7-0.4l8.2,2l8.2-2
			c0.3-0.1,0.6,0.1,0.7,0.4l2.3,8.1l5.9,6.1c0.2,0.2,0.2,0.6,0,0.8C68.4,52,68.3,52,68.2,52z"/>
		<path class="st0" d="M51.5,52.3c-0.3,0-0.6-0.1-0.7-0.4c-0.2-0.4-0.1-0.9,0.3-1.1l38.3-22.1c0.4-0.2,0.9-0.1,1.1,0.3
			c0.2,0.4,0.1,0.9-0.3,1.1L51.9,52.2C51.8,52.3,51.6,52.3,51.5,52.3z"/>
		<path class="st0" d="M90.6,41.4c-0.2,0-0.3,0-0.4-0.1l-9.6-6.1c-0.2-0.1-0.4-0.4-0.4-0.7l-0.4-11.2c0-0.5,0.3-0.8,0.8-0.8
			c0.5,0,0.8,0.3,0.8,0.8L81.8,34l9.3,5.9c0.4,0.2,0.5,0.7,0.3,1.1C91.2,41.3,90.9,41.4,90.6,41.4z"/>
		<path class="st0" d="M86,44c-0.2,0-0.3,0-0.4-0.1L76,37.8c-0.2-0.1-0.4-0.4-0.4-0.7l-0.4-11.2c0-0.5,0.3-0.8,0.8-0.8
			c0.5,0,0.8,0.3,0.8,0.8l0.4,10.8l9.3,5.9c0.4,0.2,0.5,0.7,0.3,1.1C86.6,43.9,86.3,44,86,44z"/>
		<g>
			<path class="st0" d="M80.1,52.3H51.5c-0.5,0-0.8-0.4-0.8-0.8s0.4-0.8,0.8-0.8h28.6c0.5,0,0.8,0.4,0.8,0.8S80.5,52.3,80.1,52.3z"
				/>
			<path class="st0" d="M76.9,56.5c-0.2,0-0.4-0.1-0.5-0.3l-2.3-4.4c-0.1-0.2-0.1-0.4,0-0.5l2.3-4.3c0.1-0.3,0.5-0.4,0.7-0.2
				c0.3,0.1,0.4,0.5,0.2,0.7l-2.2,4l2.2,4.1c0.1,0.3,0,0.6-0.2,0.7C77.1,56.4,77,56.5,76.9,56.5z"/>
			<path class="st0" d="M73.5,56.5c-0.2,0-0.4-0.1-0.5-0.3l-2.3-4.4c-0.1-0.2-0.1-0.4,0-0.5L73,47c0.1-0.3,0.5-0.4,0.7-0.2
				c0.3,0.1,0.4,0.5,0.2,0.7l-2.2,4l2.2,4.1c0.1,0.3,0,0.6-0.2,0.7C73.7,56.4,73.6,56.5,73.5,56.5z"/>
		</g>
		<path class="st0" d="M89.8,74.5c-0.1,0-0.3,0-0.4-0.1L51.1,52.2c-0.4-0.2-0.5-0.7-0.3-1.1c0.2-0.4,0.7-0.5,1.1-0.3l38.3,22.1
			c0.4,0.2,0.5,0.7,0.3,1.1C90.4,74.3,90.1,74.5,89.8,74.5z"/>
		<path class="st0" d="M80.5,80.7C80.5,80.7,80.5,80.7,80.5,80.7c-0.5,0-0.8-0.4-0.8-0.9l0.5-11.4c0-0.3,0.2-0.5,0.4-0.7l9.5-6
			c0.4-0.2,0.9-0.1,1.1,0.3c0.2,0.4,0.1,0.9-0.3,1.1L81.8,69l-0.5,11C81.3,80.4,81,80.7,80.5,80.7z"/>
		<path class="st0" d="M75.9,78.1C75.9,78.1,75.9,78.1,75.9,78.1c-0.5,0-0.8-0.4-0.8-0.9l0.5-11.4c0-0.3,0.2-0.5,0.4-0.7l9.5-6
			c0.4-0.2,0.9-0.1,1.1,0.3c0.2,0.4,0.1,0.9-0.3,1.1l-9.2,5.7l-0.5,11C76.7,77.8,76.4,78.1,75.9,78.1z"/>
		<g>
			<path class="st0" d="M65.8,77.1c-0.3,0-0.6-0.1-0.7-0.4L50.8,51.9c-0.2-0.4-0.1-0.9,0.3-1.1c0.4-0.2,0.9-0.1,1.1,0.3l14.3,24.8
				c0.2,0.4,0.1,0.9-0.3,1.1C66.1,77,65.9,77.1,65.8,77.1z"/>
			<path class="st0" d="M60.4,76.3c-0.1,0-0.2,0-0.3-0.1c-0.3-0.2-0.3-0.5-0.2-0.8l2.6-4.2c0.1-0.2,0.3-0.2,0.4-0.3l4.9-0.2
				c0,0,0,0,0,0c0.3,0,0.5,0.2,0.5,0.5c0,0.3-0.2,0.6-0.5,0.6l-4.6,0.2L60.8,76C60.7,76.2,60.6,76.3,60.4,76.3z"/>
			<path class="st0" d="M58.7,73.3c-0.1,0-0.2,0-0.3-0.1c-0.3-0.2-0.3-0.5-0.2-0.8l2.6-4.2c0.1-0.2,0.3-0.2,0.4-0.3l4.9-0.2
				c0.3,0,0.6,0.2,0.6,0.5c0,0.3-0.2,0.6-0.5,0.6l-4.6,0.2l-2.5,3.9C59,73.2,58.9,73.3,58.7,73.3z"/>
		</g>
		<path class="st0" d="M51.5,96.6c-0.5,0-0.8-0.4-0.8-0.8V51.5c0-0.5,0.4-0.8,0.8-0.8s0.8,0.4,0.8,0.8v44.3
			C52.3,96.2,52,96.6,51.5,96.6z"/>
		<path class="st0" d="M41.4,91.7c-0.3,0-0.6-0.2-0.7-0.4c-0.2-0.4-0.1-0.9,0.3-1.1l10.1-5.3c0.2-0.1,0.5-0.1,0.8,0l9.9,5.3
			c0.4,0.2,0.6,0.7,0.3,1.1c-0.2,0.4-0.7,0.6-1.1,0.3l-9.6-5.1l-9.7,5.1C41.7,91.6,41.5,91.7,41.4,91.7z"/>
		<path class="st0" d="M41.4,86.4c-0.3,0-0.6-0.2-0.7-0.4c-0.2-0.4-0.1-0.9,0.3-1.1l10.1-5.3c0.2-0.1,0.5-0.1,0.8,0l9.9,5.3
			c0.4,0.2,0.6,0.7,0.3,1.1c-0.2,0.4-0.7,0.6-1.1,0.3l-9.6-5.1l-9.7,5.1C41.7,86.4,41.5,86.4,41.4,86.4z"/>
		<g>
			<path class="st0" d="M37.2,77.1c-0.1,0-0.3,0-0.4-0.1c-0.4-0.2-0.5-0.7-0.3-1.1l14.3-24.8c0.2-0.4,0.7-0.5,1.1-0.3
				c0.4,0.2,0.5,0.7,0.3,1.1L37.9,76.7C37.8,76.9,37.5,77.1,37.2,77.1z"/>
			<path class="st0" d="M42.5,76.2c-0.2,0-0.4-0.1-0.5-0.3L39.6,72l-4.6-0.2c-0.3,0-0.5-0.3-0.5-0.6s0.3-0.5,0.6-0.5l4.9,0.2
				c0.2,0,0.3,0.1,0.4,0.3l2.6,4.1c0.2,0.3,0.1,0.6-0.2,0.8C42.7,76.2,42.6,76.2,42.5,76.2z"/>
			<path class="st0" d="M44.2,73.3c-0.2,0-0.4-0.1-0.5-0.3l-2.4-3.9l-4.6-0.2c-0.3,0-0.5-0.3-0.5-0.6c0-0.3,0.3-0.5,0.6-0.5l4.9,0.2
				c0.2,0,0.3,0.1,0.4,0.3l2.6,4.1c0.2,0.3,0.1,0.6-0.2,0.8C44.4,73.2,44.3,73.3,44.2,73.3z"/>
		</g>
		<path class="st0" d="M13.2,74.5c-0.3,0-0.6-0.1-0.7-0.4c-0.2-0.4-0.1-0.9,0.3-1.1l38.3-22.1c0.4-0.2,0.9-0.1,1.1,0.3
			c0.2,0.4,0.1,0.9-0.3,1.1L13.6,74.3C13.4,74.4,13.3,74.5,13.2,74.5z"/>
		<path class="st0" d="M22.4,80.6c-0.4,0-0.8-0.3-0.8-0.8L21.2,69l-9.3-5.9c-0.4-0.2-0.5-0.7-0.3-1.1c0.2-0.4,0.8-0.5,1.1-0.3
			l9.6,6.1c0.2,0.1,0.4,0.4,0.4,0.7l0.4,11.2C23.2,80.2,22.9,80.6,22.4,80.6C22.4,80.6,22.4,80.6,22.4,80.6z"/>
		<path class="st0" d="M27,78c-0.4,0-0.8-0.3-0.8-0.8l-0.4-10.8l-9.3-5.9c-0.4-0.2-0.5-0.7-0.3-1.1c0.2-0.4,0.7-0.5,1.1-0.3l9.6,6.1
			c0.2,0.1,0.4,0.4,0.4,0.7l0.4,11.2C27.8,77.6,27.4,77.9,27,78C27,78,27,78,27,78z"/>
		<g>
			<path class="st0" d="M51.5,52.3H22.9c-0.5,0-0.8-0.4-0.8-0.8s0.4-0.8,0.8-0.8h28.6c0.5,0,0.8,0.4,0.8,0.8S52,52.3,51.5,52.3z"/>
			<path class="st0" d="M26.1,56.3c-0.1,0-0.2,0-0.3-0.1c-0.3-0.1-0.4-0.5-0.2-0.7l2.2-4l-2.2-4.1c-0.1-0.3,0-0.6,0.2-0.7
				c0.3-0.1,0.6,0,0.7,0.2l2.3,4.4c0.1,0.2,0.1,0.4,0,0.5L26.6,56C26.5,56.2,26.3,56.3,26.1,56.3z"/>
			<path class="st0" d="M29.5,56.3c-0.1,0-0.2,0-0.3-0.1c-0.3-0.1-0.4-0.5-0.2-0.7l2.2-4L29,47.3c-0.1-0.3,0-0.6,0.2-0.7
				c0.3-0.1,0.6,0,0.7,0.2l2.3,4.4c0.1,0.2,0.1,0.4,0,0.5L30,56C29.9,56.2,29.7,56.3,29.5,56.3z"/>
		</g>
		<path class="st0" d="M59.8,66.5c0,0-0.1,0-0.1,0l-8.2-2l-8.2,2c-0.3,0.1-0.6-0.1-0.7-0.4L40.3,58l-5.9-6.1c-0.2-0.2-0.2-0.5,0-0.8
			l5.9-6.2c0.2-0.2,0.6-0.2,0.8,0c0.2,0.2,0.2,0.6,0,0.8l-5.6,5.8l5.6,5.8c0.1,0.1,0.1,0.1,0.1,0.2l2.2,7.7l7.8-1.9
			c0.1,0,0.2,0,0.3,0l7.8,1.9l2.2-7.7c0-0.1,0.1-0.2,0.1-0.2l5.9-6.2c0.2-0.2,0.6-0.2,0.8,0c0.2,0.2,0.2,0.6,0,0.8L62.7,58l-2.3,8.1
			C60.3,66.3,60.1,66.5,59.8,66.5z"/>
		<path class="st0" d="M51.5,52.3c-0.1,0-0.3,0-0.4-0.1L12.8,30.1c-0.4-0.2-0.5-0.7-0.3-1.1c0.2-0.4,0.7-0.5,1.1-0.3l38.3,22.1
			c0.4,0.2,0.5,0.7,0.3,1.1C52.1,52.2,51.8,52.3,51.5,52.3z"/>
		<path class="st0" d="M12.5,41.2c-0.3,0-0.5-0.1-0.7-0.4c-0.2-0.4-0.1-0.9,0.3-1.1l9.2-5.7l0.5-11c0-0.5,0.4-0.8,0.9-0.8
			c0.5,0,0.8,0.4,0.8,0.9l-0.5,11.4c0,0.3-0.2,0.5-0.4,0.7l-9.5,6C12.8,41.2,12.6,41.2,12.5,41.2z"/>
		<path class="st0" d="M17,43.9c-0.3,0-0.5-0.1-0.7-0.4c-0.2-0.4-0.1-0.9,0.3-1.1l9.2-5.7l0.5-11c0-0.5,0.4-0.8,0.9-0.8
			c0.5,0,0.8,0.4,0.8,0.9l-0.5,11.4c0,0.3-0.2,0.5-0.4,0.7l-9.5,6C17.3,43.9,17.2,43.9,17,43.9z"/>
		<g>
			<path class="st0" d="M51.5,52.3c-0.3,0-0.6-0.1-0.7-0.4L36.5,27.1c-0.2-0.4-0.1-0.9,0.3-1.1c0.4-0.2,0.9-0.1,1.1,0.3l14.3,24.8
				c0.2,0.4,0.1,0.9-0.3,1.1C51.8,52.3,51.6,52.3,51.5,52.3z"/>
			<path class="st0" d="M35.1,32.2c-0.3,0-0.5-0.2-0.5-0.5c0-0.3,0.2-0.6,0.5-0.6l4.6-0.2l2.5-3.9c0.2-0.3,0.5-0.3,0.8-0.2
				c0.3,0.2,0.3,0.5,0.2,0.8l-2.6,4.2C40.3,31.9,40.2,32,40,32L35.1,32.2C35.1,32.2,35.1,32.2,35.1,32.2z"/>
			<path class="st0" d="M36.8,35.1c-0.3,0-0.5-0.2-0.5-0.5c0-0.3,0.2-0.6,0.5-0.6l4.6-0.2l2.5-3.9c0.2-0.3,0.5-0.3,0.8-0.2
				c0.3,0.2,0.3,0.5,0.2,0.8l-2.6,4.2c-0.1,0.2-0.3,0.2-0.4,0.3L36.8,35.1C36.8,35.1,36.8,35.1,36.8,35.1z"/>
		</g>
	</g>
</g>
</svg>
