<?xml version="1.0" encoding="utf-8"?>
<!-- Generator: Adobe Illustrator 19.2.1, SVG Export Plug-In . SVG Version: 6.00 Build 0)  -->
<svg version="1.1" id="Layer_1" xmlns="http://www.w3.org/2000/svg" xmlns:xlink="http://www.w3.org/1999/xlink" x="0px" y="0px"
	 viewBox="0 0 155 145" style="enable-background:new 0 0 155 145;" xml:space="preserve">
<style type="text/css">
	.st0{fill:#858585;}
</style>
<g>
	<path class="st0" d="M15.4,44.6c-2.9,0-4.3-2.5-4.3-5.5c0-3.1,1.5-5.5,4.3-5.5h55.2V7.4c0-2.9,2.4-4.4,5.9-4.4
		c3.6,0,5.8,1.5,5.8,4.4v26.1h57.1c2.8,0,4.3,2.4,4.3,5.4c0,3.1-1.5,5.7-4.3,5.7H85.7c14.1,27,35.1,47.5,57.7,61.2
		c2,1.2,3,3.1,3,5.2c0,1.2-0.5,2.7-1.2,3.9c-1.3,2.2-3,3.1-5.1,3.1c-1.2,0-2.7-0.5-4-1.3c-19.6-12.8-40-31.6-55-63.1
		c1,7.6,1.2,13.9,1.2,21.3v62.7c0,2.9-2.2,4.4-5.8,4.4c-3.5,0-5.9-1.5-5.9-4.4V74.4c0-5.5,0-12.7,1.2-20.5
		C59.7,81,39.3,103.8,19,117.8c-1.3,0.9-2.8,1.3-4.2,1.3c-1.8,0-3.4-0.8-4.8-2.5c-1-1.3-1.5-2.8-1.5-4.3c0-2,0.9-3.9,3-5.1
		c18-11.7,42.1-34.5,55.5-62.5H15.4z"/>
</g>
</svg>
